<?xml version="1.0" encoding="UTF-8" standalone="no"?>
<!-- Created with Inkscape (http://www.inkscape.org/) -->

<svg
   width="48"
   height="48"
   viewBox="0 0 12.7 12.7"
   version="1.1"
   id="svg1"
   xmlns="http://www.w3.org/2000/svg"
   xmlns:svg="http://www.w3.org/2000/svg">
  <defs
     id="defs1" />
  <g
     id="layer1">
    <path
       d="M 3.0993292,1.3657791 C 2.9866167,1.171575 3.0532922,0.9223375 3.2474959,0.809625 3.4417001,0.6969125 3.6909376,0.763058 3.8036501,0.9577917 L 4.3264667,1.8626666 C 4.4391792,2.0568708 4.3725047,2.3061083 4.1783,2.4188208 3.9840959,2.5315333 3.7348584,2.4653875 3.6221459,2.2706541 Z M 6.35,2.7077458 c 1.0059458,0 1.9161125,0.4074583 2.5754542,1.0668 0.6588125,0.6593416 1.0667999,1.5700375 1.0667999,2.5754541 0,1.0059458 -0.4074583,1.9161125 -1.0667999,2.5754542 C 8.2661125,9.5847957 7.3559458,9.992254 6.35,9.992254 c -1.0059458,0 -1.9161125,-0.4074583 -2.5754541,-1.0667999 -0.6588125,-0.6593417 -1.0668,-1.5695084 -1.0668,-2.5754542 0,-1.0059458 0.4074583,-1.9161125 1.0668,-2.5754541 C 4.4338875,3.1157333 5.3445834,2.7077458 6.35,2.7077458 Z M 8.3751208,4.3248791 C 7.8570667,3.806825 7.1411042,3.48615 6.35,3.48615 c -0.7911041,0 -1.5070666,0.320675 -2.0251208,0.8387291 -0.5180541,0.5180542 -0.8387291,1.2340167 -0.8387291,2.0251208 0,0.7911042 0.320675,1.5070667 0.8387291,2.0251208 C 4.8429334,8.8931749 5.5588959,9.2138499 6.35,9.2138499 c 0.7911042,0 1.5070667,-0.320675 2.0251208,-0.8387292 C 8.893175,7.8570666 9.21385,7.1411041 9.21385,6.3499999 9.21385,5.5588958 8.893175,4.8429333 8.3751208,4.3248791 Z M 6.02615,0.4079875 C 6.02615,0.1825625 6.2087125,0 6.4341375,0 6.6595625,0 6.842125,0.1825625 6.842125,0.4079875 v 1.0451041 c 0,0.225425 -0.1825625,0.4079875 -0.4079875,0.4079875 -0.225425,0 -0.4079875,-0.1825625 -0.4079875,-0.4079875 z M 9.0418708,1.0435167 C 9.153525,0.8493125 9.4017042,0.7821083 9.5964375,0.8937625 9.7906416,1.0054167 9.8578458,1.2535958 9.7461916,1.4483291 L 9.223375,2.3532041 C 9.1117208,2.5474083 8.8635417,2.6146125 8.6688083,2.5029583 8.4746042,2.3913041 8.4074,2.143125 8.5190542,1.9483916 Z M 11.334221,3.0993291 C 11.528425,2.9866166 11.777663,3.0532916 11.890375,3.2474958 12.003087,3.4417 11.936942,3.6909375 11.742208,3.80365 L 10.837333,4.3264666 C 10.643129,4.4391791 10.393892,4.3725041 10.281179,4.1782999 10.168467,3.9840958 10.234613,3.7348583 10.429346,3.6221458 Z m 0.957791,2.9268208 c 0.225425,0 0.407988,0.1825625 0.407988,0.4079875 0,0.225425 -0.182563,0.4079875 -0.407988,0.4079875 h -1.045104 c -0.225425,0 -0.407987,-0.1825625 -0.407987,-0.4079875 0,-0.225425 0.182562,-0.4079875 0.407987,-0.4079875 z m -0.635529,3.0157208 c 0.194205,0.1116542 0.261409,0.3598333 0.149755,0.5545667 -0.111655,0.1942041 -0.359834,0.2614083 -0.554567,0.1497541 L 10.346796,9.2233749 C 10.152592,9.1117207 10.085388,8.8635416 10.197042,8.6688082 10.308696,8.4746041 10.556875,8.4073999 10.751608,8.5190541 Z M 9.6006708,11.334221 c 0.1127125,0.194204 0.046038,0.443441 -0.1481666,0.556154 C 9.2583,12.003087 9.0090625,11.936942 8.89635,11.742208 L 8.3735333,10.837333 C 8.2608208,10.643129 8.3274958,10.393892 8.5217,10.281179 8.7159042,10.168467 8.9651417,10.234612 9.0778542,10.429346 Z M 6.67385,12.292012 C 6.67385,12.517437 6.4912875,12.7 6.2658625,12.7 6.0404375,12.7 5.857875,12.517437 5.857875,12.292012 v -1.045104 c 0,-0.225425 0.1825625,-0.407987 0.4079875,-0.407987 0.225425,0 0.4079875,0.182562 0.4079875,0.407987 z M 3.6581292,11.656483 C 3.5464751,11.850687 3.2982959,11.917892 3.1035626,11.806237 2.9093584,11.694583 2.8421542,11.446404 2.9538084,11.251671 L 3.4766251,10.346796 C 3.5882792,10.152592 3.8364584,10.085387 4.0311917,10.197042 4.2253959,10.308696 4.2926,10.556875 4.1809459,10.751608 Z M 1.3657792,9.6006707 C 1.1715751,9.7133832 0.9223376,9.6467082 0.8096251,9.452504 0.6969126,9.2582999 0.7630584,9.0090624 0.9577918,8.8963499 L 1.8626667,8.3735332 C 2.0568709,8.2608207 2.3061084,8.3274962 2.4188209,8.5216999 2.5315334,8.7159041 2.4653879,8.9651416 2.2706542,9.0778541 Z M 0.4079876,6.6738499 C 0.1825626,6.6738499 9.9999998e-8,6.4912874 9.9999998e-8,6.2658624 9.9999998e-8,6.0404374 0.1825626,5.8578749 0.4079876,5.8578749 h 1.0451041 c 0.225425,0 0.4079875,0.1825625 0.4079875,0.4079875 0,0.225425 -0.1825625,0.4079875 -0.4079875,0.4079875 z M 1.0435168,3.6581291 C 0.8493126,3.546475 0.7821084,3.2982958 0.8937626,3.1035625 1.0054168,2.9093583 1.2535959,2.8421541 1.4483292,2.9538083 L 2.3532042,3.476625 C 2.5474084,3.5882791 2.6146126,3.8364583 2.5029584,4.0311916 2.3913042,4.2253958 2.1431251,4.2925999 1.9483917,4.1809458 Z"
       id="path1"
       style="stroke-width:0.0529167" />
  </g>
</svg>
