<?xml version="1.0" encoding="UTF-8" standalone="no"?>
<svg
   version="1.1"
   id="Layer_1"
   x="0px"
   y="0px"
   viewBox="0 0 240 240"
   style="enable-background:new 0 0 240 240"
   xml:space="preserve"
   sodipodi:docname="full-sun.svg"
   inkscape:version="1.3.2 (091e20e, 2023-11-25)"
   xmlns:inkscape="http://www.inkscape.org/namespaces/inkscape"
   xmlns:sodipodi="http://sodipodi.sourceforge.net/DTD/sodipodi-0.dtd"
   xmlns="http://www.w3.org/2000/svg"
   xmlns:svg="http://www.w3.org/2000/svg"><defs
     id="defs1" /><sodipodi:namedview
     id="namedview1"
     pagecolor="#505050"
     bordercolor="#eeeeee"
     borderopacity="1"
     inkscape:showpageshadow="0"
     inkscape:pageopacity="0"
     inkscape:pagecheckerboard="0"
     inkscape:deskcolor="#d1d1d1"
     inkscape:zoom="1.8475911"
     inkscape:cx="119.88583"
     inkscape:cy="119.88583"
     inkscape:window-width="1312"
     inkscape:window-height="656"
     inkscape:window-x="0"
     inkscape:window-y="38"
     inkscape:window-maximized="0"
     inkscape:current-layer="Layer_1" /><path
     d="m 58.57,25.81 c -2.13,-3.67 -0.87,-8.38 2.8,-10.51 3.67,-2.13 8.38,-0.88 10.51,2.8 l 9.88,17.1 c 2.13,3.67 0.87,8.38 -2.8,10.51 -3.67,2.13 -8.38,0.88 -10.51,-2.8 z M 120,51.17 c 19.01,0 36.21,7.7 48.67,20.16 12.45,12.46 20.16,29.67 20.16,48.67 0,19.01 -7.7,36.21 -20.16,48.67 -12.46,12.46 -29.66,20.16 -48.67,20.16 -19.01,0 -36.21,-7.7 -48.67,-20.16 C 58.88,156.21 51.17,139.01 51.17,120 51.17,100.99 58.87,83.79 71.33,71.33 83.79,58.88 101,51.17 120,51.17 Z m 38.27,30.56 C 148.48,71.94 134.95,65.88 120,65.88 c -14.95,0 -28.48,6.06 -38.27,15.85 -9.79,9.79 -15.85,23.32 -15.85,38.27 0,14.95 6.06,28.48 15.85,38.27 9.79,9.79 23.32,15.85 38.27,15.85 14.95,0 28.48,-6.06 38.27,-15.85 9.79,-9.79 15.85,-23.32 15.85,-38.27 0,-14.95 -6.06,-28.48 -15.85,-38.27 z M 113.88,7.71 c 0,-4.26 3.45,-7.71 7.71,-7.71 4.26,0 7.71,3.45 7.71,7.71 v 19.75 c 0,4.26 -3.45,7.71 -7.71,7.71 -4.26,0 -7.71,-3.45 -7.71,-7.71 z m 56.99,12.01 c 2.11,-3.67 6.8,-4.94 10.48,-2.83 3.67,2.11 4.94,6.8 2.83,10.48 l -9.88,17.1 c -2.11,3.67 -6.8,4.94 -10.48,2.83 -3.67,-2.11 -4.94,-6.8 -2.83,-10.48 z m 43.32,38.85 c 3.67,-2.13 8.38,-0.87 10.51,2.8 2.13,3.67 0.88,8.38 -2.8,10.51 l -17.1,9.88 c -3.67,2.13 -8.38,0.87 -10.51,-2.8 -2.13,-3.67 -0.88,-8.38 2.8,-10.51 z m 18.1,55.31 c 4.26,0 7.71,3.45 7.71,7.71 0,4.26 -3.45,7.71 -7.71,7.71 h -19.75 c -4.26,0 -7.71,-3.45 -7.71,-7.71 0,-4.26 3.45,-7.71 7.71,-7.71 z m -12.01,56.99 c 3.67,2.11 4.94,6.8 2.83,10.48 -2.11,3.67 -6.8,4.94 -10.48,2.83 l -17.1,-9.88 c -3.67,-2.11 -4.94,-6.8 -2.83,-10.48 2.11,-3.67 6.8,-4.94 10.48,-2.83 z m -38.85,43.32 c 2.13,3.67 0.87,8.38 -2.8,10.51 -3.67,2.13 -8.38,0.88 -10.51,-2.8 l -9.88,-17.1 c -2.13,-3.67 -0.87,-8.38 2.8,-10.51 3.67,-2.13 8.38,-0.88 10.51,2.8 z m -55.31,18.1 c 0,4.26 -3.45,7.71 -7.71,7.71 -4.26,0 -7.71,-3.45 -7.71,-7.71 v -19.75 c 0,-4.26 3.45,-7.71 7.71,-7.71 4.26,0 7.71,3.45 7.71,7.71 z M 69.13,220.28 c -2.11,3.67 -6.8,4.94 -10.48,2.83 -3.67,-2.11 -4.94,-6.8 -2.83,-10.48 l 9.88,-17.1 c 2.11,-3.67 6.8,-4.94 10.48,-2.83 3.67,2.11 4.94,6.8 2.83,10.48 z M 25.81,181.43 c -3.67,2.13 -8.38,0.87 -10.51,-2.8 -2.13,-3.67 -0.88,-8.38 2.8,-10.51 l 17.1,-9.88 c 3.67,-2.13 8.38,-0.87 10.51,2.8 2.13,3.67 0.88,8.38 -2.8,10.51 z M 7.71,126.12 C 3.45,126.12 0,122.67 0,118.41 0,114.15 3.45,110.7 7.71,110.7 h 19.75 c 4.26,0 7.71,3.45 7.71,7.71 0,4.26 -3.45,7.71 -7.71,7.71 H 7.71 Z M 19.72,69.13 c -3.67,-2.11 -4.94,-6.8 -2.83,-10.48 2.11,-3.67 6.8,-4.94 10.48,-2.83 l 17.1,9.88 c 3.67,2.11 4.94,6.8 2.83,10.48 -2.11,3.67 -6.8,4.94 -10.48,2.83 z"
     id="path1" /></svg>
