<?xml version="1.0" encoding="UTF-8" standalone="no"?>
<!-- Created with Inkscape (http://www.inkscape.org/) -->

<svg
   width="48"
   height="48"
   viewBox="0 0 12.7 12.7"
   version="1.1"
   id="svg1"
   inkscape:version="1.3.2 (091e20e, 2023-11-25)"
   sodipodi:docname="plant-juglone-tolerant.svg"
   xmlns:inkscape="http://www.inkscape.org/namespaces/inkscape"
   xmlns:sodipodi="http://sodipodi.sourceforge.net/DTD/sodipodi-0.dtd"
   xmlns="http://www.w3.org/2000/svg"
   xmlns:svg="http://www.w3.org/2000/svg">
  <sodipodi:namedview
     id="namedview1"
     pagecolor="#505050"
     bordercolor="#eeeeee"
     borderopacity="1"
     inkscape:showpageshadow="0"
     inkscape:pageopacity="0"
     inkscape:pagecheckerboard="0"
     inkscape:deskcolor="#d1d1d1"
     inkscape:document-units="px"
     inkscape:zoom="9.6806798"
     inkscape:cx="7.2825464"
     inkscape:cy="24.171856"
     inkscape:window-width="1728"
     inkscape:window-height="1051"
     inkscape:window-x="0"
     inkscape:window-y="38"
     inkscape:window-maximized="1"
     inkscape:current-layer="layer1" />
  <defs
     id="defs1">
    <clipPath
       clipPathUnits="userSpaceOnUse"
       id="clipPath4562">
      <rect
         style="opacity:0.047;fill:#000000;fill-opacity:1;stroke:none;stroke-width:2.72668;stroke-linejoin:round;stroke-miterlimit:4;stroke-dasharray:none;stroke-dashoffset:0;stroke-opacity:1"
         id="rect4564"
         width="62.481354"
         height="59.357292"
         x="-10.108215"
         y="-11.360672" />
    </clipPath>
    <clipPath
       clipPathUnits="userSpaceOnUse"
       id="clipPath4566">
      <rect
         style="opacity:0.047;fill:#000000;fill-opacity:1;stroke:none;stroke-width:24.8089;stroke-linejoin:round;stroke-miterlimit:4;stroke-dasharray:none;stroke-dashoffset:0;stroke-opacity:1"
         id="rect4568"
         width="558.62482"
         height="549.60535"
         x="-438.77048"
         y="-369.83447"
         transform="rotate(-44.408143)" />
    </clipPath>
    <clipPath
       clipPathUnits="userSpaceOnUse"
       id="clipPath4570">
      <rect
         style="opacity:0.047;fill:#000000;fill-opacity:1;stroke:none;stroke-width:3.85702;stroke-linejoin:round;stroke-miterlimit:4;stroke-dasharray:none;stroke-dashoffset:0;stroke-opacity:1"
         id="rect4572"
         width="84.645363"
         height="87.671333"
         x="39.639999"
         y="34.738667" />
    </clipPath>
  </defs>
  <g
     inkscape:label="Layer 1"
     inkscape:groupmode="layer"
     id="layer1">
    <g
       id="g4528"
       transform="matrix(0.14842456,0,0,0.14485921,-5.8835493,-5.0322158)"
       clip-path="url(#clipPath4570)">
      <polygon
         style="fill:#ffffff;fill-opacity:1;fill-rule:evenodd;stroke:#000000;stroke-width:3;stroke-miterlimit:4;stroke-dasharray:none;stroke-opacity:1"
         id="polygon8"
         points="45.03,95.33 39.64,122.41 72.77,122.41 67.19,103.39 87.62,78.57 77.56,71.42 65.81,90.15 64.48,68.24 47.57,66.8 46.97,85.48 38.7,70.36 27.47,73.34 "
         class="cls-1" />
      <path
         style="fill:#ffffff;fill-opacity:1;stroke:#000000;stroke-width:3;stroke-miterlimit:4;stroke-dasharray:none;stroke-opacity:1"
         id="path10"
         d="M 28.91,76 33,74.94 v 0 A 35.83,35.83 0 0 0 43.22,69.33 41.49,41.49 0 0 0 46,72.6 c 3.69,3.91 7.68,6.21 11.91,6.78 4.23,0.57 8.68,-0.61 13.18,-3.64 A 34.75,34.75 0 0 0 74,73.5 l 4.56,3.87 a 20.29,20.29 0 0 0 3.1,1.7 14,14 0 0 0 10.34,0.55 c 3.16,-1.1 9.85,-3.37 12.16,-6.61 a 34.2,34.2 0 0 0 5.31,-13.32 c 6.34,-3.5 10.25,-7.71 12.11,-12 a 14.71,14.71 0 0 0 0.87,-9.56 16.43,16.43 0 0 0 -5.12,-8.13 c -3.84,-3.42 -13.41,-5.81 -20.46,-6.32 -1,-1.82 -2,-7.38 -3.09,-9 C 88.55,7 82.64,2.65 76.34,1 70.04,-0.65 63.34,0.56 56.74,4 55.59,4.59 54.44,5.27 53.26,6 43.3,0.4 33.32,-1 25,0.64 19.78,1.64 11.32,5.81 7.77,8.91 4.22,12.01 1.64,18 0.56,22.7 -0.7,28.21 0.1,34.5 3.66,41.06 0.06,49.77 -0.18,57.39 1.86,63.3 a 19.3,19.3 0 0 0 6.81,9.38 c 3.07,2.24 10.67,3.53 14.8,3.71 A 24.17,24.17 0 0 0 28.91,76 Z m 0,0 z"
         class="cls-2"
         inkscape:connector-curvature="0" />
    </g>
    <g
       id="g4490"
       transform="matrix(0.01725349,0.01736473,-0.01690067,0.01772724,10.067988,8.648312)"
       clip-path="url(#clipPath4566)">
      <path
         id="path4488"
         d="m 60.89,8.37 c 2.99,-4.67 6.96,-7.16 11.12,-8.03 3.95,-0.82 8,-0.11 11.49,1.65 3.44,1.74 6.39,4.52 8.2,7.88 0.68,1.26 1.21,2.6 1.55,3.98 2.03,-0.04 4.1,0.31 6.11,0.99 3.82,1.29 7.49,3.82 10.33,7.17 2.85,3.37 4.88,7.62 5.4,12.33 0.24,2.17 0.15,4.43 -0.32,6.74 2.09,1.87 3.83,3.98 5.14,6.23 2.03,3.47 3.09,7.32 2.98,11.23 -0.11,3.94 -1.41,7.88 -4.09,11.51 -1.69,2.29 -3.92,4.44 -6.73,6.37 0.26,6.02 -1.52,11.42 -4.4,15.6 -3.26,4.72 -7.98,7.92 -12.88,8.78 -1.08,4.19 -3.86,7.88 -7.45,10.45 -4.54,3.25 -10.46,4.78 -15.87,3.3 -3.99,-1.09 -7.62,-3.73 -10.11,-8.38 -3.03,5.11 -7.19,7.81 -11.55,8.72 -5.23,1.09 -10.64,-0.52 -14.72,-3.7 -3.26,-2.54 -5.71,-6.11 -6.59,-10.16 -1.71,-0.07 -3.44,-0.41 -5.13,-0.98 C 19.64,98.79 16.05,96.35 13.24,93.1 10.42,89.85 8.37,85.76 7.73,81.21 7.4,78.84 7.45,76.36 7.97,73.81 6.14,72.15 4.57,70.28 3.32,68.25 1.14,64.78 -0.05,60.86 0,56.83 c 0.05,-4.06 1.34,-8.18 4.14,-12 1.63,-2.22 3.78,-4.34 6.5,-6.28 -0.03,-0.74 -0.03,-1.48 -0.01,-2.21 0.22,-5.93 2.4,-11.14 5.59,-15.03 3.3,-4.03 7.72,-6.67 12.26,-7.31 h 0.02 c 0.16,-0.67 0.35,-1.32 0.59,-1.96 1.46,-3.97 4.47,-7.34 8.16,-9.49 3.71,-2.16 8.17,-3.11 12.51,-2.21 4.17,0.86 8.14,3.36 11.13,8.03 z m 32.13,13.52 c -0.66,2.18 -1.84,4.37 -3.64,6.5 -1.37,1.63 -3.8,1.84 -5.43,0.47 -1.63,-1.37 -1.84,-3.8 -0.47,-5.43 2.9,-3.45 2.93,-7.07 1.4,-9.9 C 83.82,11.57 82.07,9.93 80.01,8.89 78,7.88 75.73,7.45 73.57,7.9 c -2.88,0.6 -5.67,2.83 -7.6,7.36 0.03,0.2 0.05,0.41 0.05,0.62 v 79.69 c 0.06,0.19 0.11,0.4 0.15,0.6 1.11,6.75 4.03,10 7.31,10.9 3.03,0.83 6.52,-0.14 9.3,-2.14 2.73,-1.96 4.68,-4.82 4.7,-7.83 0.03,-3.43 -2.49,-7.31 -9.23,-10.75 -1.91,-0.97 -2.66,-3.31 -1.69,-5.22 0.97,-1.91 3.31,-2.66 5.22,-1.69 7.44,3.8 11.36,8.46 12.8,13.17 2.39,-0.78 4.71,-2.6 6.47,-5.14 2.21,-3.19 3.46,-7.48 2.86,-12.3 -0.35,-1.65 0.37,-3.41 1.9,-4.3 2.92,-1.71 5.07,-3.6 6.53,-5.59 1.66,-2.24 2.46,-4.62 2.53,-6.96 0.07,-2.36 -0.61,-4.74 -1.91,-6.96 -1.19,-2.03 -2.87,-3.9 -4.98,-5.48 -1.47,-0.98 -2.17,-2.87 -1.57,-4.62 0.71,-2.1 0.9,-4.14 0.69,-6.06 -0.33,-3.02 -1.67,-5.77 -3.54,-8 -1.89,-2.24 -4.31,-3.92 -6.78,-4.75 -1.28,-0.44 -2.56,-0.64 -3.76,-0.56 z M 28.85,93.03 c 1.54,-4.84 5.6,-9.67 13.26,-13.58 1.91,-0.97 4.24,-0.22 5.22,1.69 0.97,1.91 0.22,4.24 -1.69,5.22 -7.1,3.63 -9.77,7.79 -9.77,11.42 0,2.83 1.61,5.48 3.96,7.31 2.38,1.85 5.46,2.81 8.36,2.21 3.62,-0.75 7.11,-4.1 8.92,-11.39 V 19.22 C 55.3,11.98 51.81,8.65 48.2,7.9 45.82,7.4 43.29,7.97 41.13,9.23 c -2.18,1.27 -3.94,3.22 -4.77,5.47 -1.11,3 -0.45,6.69 3.3,10.16 1.56,1.45 1.66,3.88 0.21,5.44 -1.45,1.56 -3.88,1.66 -5.44,0.21 -2.92,-2.7 -4.72,-5.57 -5.62,-8.43 -2.3,0.55 -4.57,2.07 -6.4,4.3 -2.15,2.62 -3.62,6.16 -3.77,10.23 -0.04,1.08 0.02,2.22 0.18,3.39 h -0.01 c 0.21,1.52 -0.47,3.09 -1.86,3.95 -2.81,1.73 -4.89,3.63 -6.34,5.61 -1.76,2.4 -2.57,4.92 -2.6,7.35 -0.03,2.47 0.73,4.92 2.09,7.13 1.15,1.87 2.73,3.57 4.65,5 1.44,0.99 2.12,2.85 1.53,4.59 -0.76,2.25 -0.93,4.44 -0.64,6.47 0.41,2.93 1.77,5.6 3.63,7.75 1.87,2.16 4.23,3.77 6.65,4.59 0.98,0.36 1.97,0.55 2.93,0.59 z m 0.88,-54.49 c 1.52,-1.49 3.96,-1.47 5.46,0.05 1.49,1.52 1.47,3.96 -0.05,5.46 -3.31,3.26 -5.04,7.46 -5.22,11.76 -0.18,4.43 1.26,8.98 4.28,12.73 1.34,1.66 1.07,4.09 -0.59,5.43 -1.66,1.34 -4.09,1.07 -5.43,-0.59 -4.23,-5.24 -6.24,-11.62 -5.98,-17.87 0.27,-6.22 2.76,-12.28 7.53,-16.97 z m 54.78,3.71 C 82.78,41 82.4,38.58 83.65,36.85 c 1.25,-1.73 3.67,-2.12 5.4,-0.86 0.77,0.56 1.5,1.15 2.18,1.77 5.03,4.54 7.78,10.53 8.28,16.73 0.5,6.14 -1.21,12.48 -5.08,17.8 -0.57,0.78 -1.18,1.54 -1.84,2.27 -1.43,1.59 -3.87,1.72 -5.46,0.29 -1.59,-1.43 -1.72,-3.87 -0.29,-5.46 0.48,-0.53 0.92,-1.08 1.33,-1.64 2.76,-3.8 3.98,-8.3 3.63,-12.66 -0.35,-4.29 -2.25,-8.44 -5.74,-11.58 -0.49,-0.44 -1,-0.86 -1.55,-1.26 z"
         inkscape:connector-curvature="0" />
    </g>
    <ellipse
       style="fill:none;fill-opacity:1;stroke:#000000;stroke-width:0.633615;stroke-linejoin:round;stroke-miterlimit:4;stroke-dasharray:none;stroke-dashoffset:0;stroke-opacity:1"
       id="path4509"
       cx="39.311188"
       cy="37.586441"
       rx="7.6916695"
       ry="7.4313273"
       clip-path="url(#clipPath4562)"
       transform="matrix(0.21593433,0,0,0.22976974,1.653544,2.081172)" />
  </g>
</svg>
