<?xml version="1.0" encoding="UTF-8" standalone="no"?>
<svg
   xmlns:dc="http://purl.org/dc/elements/1.1/"
   xmlns:cc="http://creativecommons.org/ns#"
   xmlns:rdf="http://www.w3.org/1999/02/22-rdf-syntax-ns#"
   xmlns:svg="http://www.w3.org/2000/svg"
   xmlns="http://www.w3.org/2000/svg"
   xmlns:sodipodi="http://sodipodi.sourceforge.net/DTD/sodipodi-0.dtd"
   xmlns:inkscape="http://www.inkscape.org/namespaces/inkscape"
   version="1.1"
   id="Layer_1"
   x="0px"
   y="0px"
   viewBox="0 0 48.000001 48.000002"
   xml:space="preserve"
   sodipodi:docname="plant-type-Shrub.svg"
   width="48"
   height="48"
   inkscape:version="0.92.1 r15371"><metadata
     id="metadata11"><rdf:RDF><cc:Work
         rdf:about=""><dc:format>image/svg+xml</dc:format><dc:type
           rdf:resource="http://purl.org/dc/dcmitype/StillImage" /><dc:title></dc:title></cc:Work></rdf:RDF></metadata><defs
     id="defs9" /><sodipodi:namedview
     pagecolor="#ffffff"
     bordercolor="#666666"
     borderopacity="1"
     objecttolerance="10"
     gridtolerance="10"
     guidetolerance="10"
     inkscape:pageopacity="0"
     inkscape:pageshadow="2"
     inkscape:window-width="1366"
     inkscape:window-height="705"
     id="namedview7"
     showgrid="false"
     inkscape:zoom="2.311198"
     inkscape:cx="7.5718308"
     inkscape:cy="39.564999"
     inkscape:window-x="-8"
     inkscape:window-y="-8"
     inkscape:window-maximized="1"
     inkscape:current-layer="Layer_1" /><g
     id="g4"
     transform="matrix(0.35240137,0,0,0.52487158,2.3095045,2.5930182)"
     style="stroke:#000000;stroke-opacity:1"><path
       d="m 86.35,29.93 c -0.75,0.37 -1.51,0.78 -2.26,1.21 -2.25,1.32 -4.47,2.93 -6.74,4.78 l -4.84,-5.54 c 1.67,-1.55 3.48,-2.96 5.4,-4.21 1.53,-1 3.13,-1.89 4.78,-2.65 0.66,-0.33 1.32,-0.64 2,-0.93 C 81.5,16.94 76.91,12.89 71.71,10.39 66.51,7.9 60.69,6.94 55.02,7.49 49.39,8.03 43.92,10.08 39.4,13.59 34.17,17.64 30.2,23.7 28.67,31.73 l -0.48,2.51 -2.5,0.44 c -2.45,0.43 -4.64,1.02 -6.56,1.77 -1.86,0.72 -3.52,1.61 -4.97,2.66 -1.16,0.84 -2.16,1.78 -3.01,2.8 -2.63,3.15 -3.85,7.1 -3.82,11.1 0.03,4.06 1.35,8.16 3.79,11.53 0.91,1.25 1.96,2.4 3.16,3.4 1.22,1.01 2.59,1.85 4.13,2.48 1.53,0.63 3.22,1.08 5.09,1.34 h 72.55 c 3.53,-0.85 6.65,-2 9.3,-3.48 2.63,-1.47 4.78,-3.26 6.39,-5.41 2.5,-3.33 3.73,-8.04 3.78,-12.87 0.06,-5.07 -1.18,-10.16 -3.59,-13.86 -0.69,-1.07 -1.45,-2.03 -2.25,-2.89 -3.61,-3.89 -8.19,-5.59 -12.95,-5.62 -3.43,-0.03 -7,0.8 -10.38,2.3 z m 5.64,-9.28 c 1.6,-0.25 3.2,-0.38 4.79,-0.36 6.72,0.05 13.2,2.45 18.3,7.95 1.07,1.15 2.08,2.45 3.03,3.9 3.2,4.92 4.84,11.49 4.77,17.92 -0.07,6.31 -1.77,12.59 -5.25,17.21 -2.27,3.01 -5.18,5.47 -8.67,7.42 -3.36,1.88 -7.28,3.31 -11.68,4.33 l -0.82,0.1 H 23.38 L 22.92,79.08 C 20.25,78.74 17.83,78.11 15.63,77.2 13.36,76.26 11.35,75.05 9.58,73.57 7.9,72.17 6.43,70.58 5.18,68.85 1.84,64.25 0.04,58.63 0,53.03 -0.04,47.37 1.72,41.74 5.52,37.18 6.75,35.7 8.2,34.34 9.86,33.14 11.79,31.74 14,30.56 16.5,29.59 18.22,28.92 20.06,28.36 22,27.91 24.2,19.17 28.89,12.44 34.92,7.77 40.56,3.4 47.35,0.85 54.34,0.18 c 6.96,-0.67 14.12,0.51 20.55,3.6 7.01,3.37 13.13,8.98 17.1,16.87 z"
       id="path2"
       inkscape:connector-curvature="0"
       style="stroke:#000000;stroke-opacity:1" /></g><path
     style="opacity:1;fill:#008000;fill-opacity:1;stroke:#000000;stroke-width:1.18895721;stroke-linejoin:round;stroke-miterlimit:4;stroke-dasharray:none;stroke-dashoffset:0;stroke-opacity:1"
     d="M 8.797403,39.382614 C 7.9791071,38.834881 7.0089902,37.577748 6.3039022,36.151393 5.3385419,34.198521 5.1456407,33.313227 5.124355,30.738016 5.1023115,28.07112 5.257902,27.344101 6.2875819,25.302675 7.3403531,23.215469 7.7487911,22.809894 9.859978,21.755325 l 2.383721,-1.190704 0.837228,-3.542757 c 1.512313,-6.399385 5.039862,-10.213573 9.446015,-10.213573 1.156934,0 2.70422,0.2537125 3.438413,0.5638055 1.729984,0.7306739 4.217082,3.3356005 5.122453,5.3651335 l 0.713451,1.599312 -2.074644,1.928333 c -2.236422,2.078701 -2.315562,2.537743 -0.774031,4.489609 l 0.786737,0.996158 0.800701,-1.074022 c 0.939526,-1.260234 2.99151,-2.612167 4.729588,-3.116047 4.040351,-1.171327 7.468129,3.952426 7.468129,11.163165 0,3.900831 -0.863284,6.812797 -2.593724,8.748963 -2.510496,2.808962 -2.495296,2.806455 -17.018359,2.806455 -12.810269,0 -13.007266,-0.01232 -14.328253,-0.896542 z"
     id="path4488"
     inkscape:connector-curvature="0" /></svg>
