<?xml version="1.0" encoding="UTF-8" standalone="no"?>
<!-- Created with Inkscape (http://www.inkscape.org/) -->

<svg
   width="48"
   height="48"
   viewBox="0 0 12.7 12.7"
   version="1.1"
   id="svg1"
   inkscape:version="1.3.2 (091e20e, 2023-11-25)"
   sodipodi:docname="plant-rock-garden.svg"
   xmlns:inkscape="http://www.inkscape.org/namespaces/inkscape"
   xmlns:sodipodi="http://sodipodi.sourceforge.net/DTD/sodipodi-0.dtd"
   xmlns="http://www.w3.org/2000/svg"
   xmlns:svg="http://www.w3.org/2000/svg">
  <sodipodi:namedview
     id="namedview1"
     pagecolor="#505050"
     bordercolor="#eeeeee"
     borderopacity="1"
     inkscape:showpageshadow="0"
     inkscape:pageopacity="0"
     inkscape:pagecheckerboard="0"
     inkscape:deskcolor="#d1d1d1"
     inkscape:document-units="px"
     inkscape:zoom="6.6756171"
     inkscape:cx="27.038699"
     inkscape:cy="39.247308"
     inkscape:window-width="1728"
     inkscape:window-height="1051"
     inkscape:window-x="0"
     inkscape:window-y="38"
     inkscape:window-maximized="1"
     inkscape:current-layer="layer1" />
  <defs
     id="defs1">
    <clipPath
       clipPathUnits="userSpaceOnUse"
       id="clipPath4562">
      <rect
         style="opacity:0.047;fill:#000000;fill-opacity:1;stroke:none;stroke-width:2.72668;stroke-linejoin:round;stroke-miterlimit:4;stroke-dasharray:none;stroke-dashoffset:0;stroke-opacity:1"
         id="rect4564"
         width="62.481354"
         height="59.357292"
         x="-10.108215"
         y="-11.360672" />
    </clipPath>
    <clipPath
       clipPathUnits="userSpaceOnUse"
       id="clipPath4566">
      <rect
         style="opacity:0.047;fill:#000000;fill-opacity:1;stroke:none;stroke-width:24.8089;stroke-linejoin:round;stroke-miterlimit:4;stroke-dasharray:none;stroke-dashoffset:0;stroke-opacity:1"
         id="rect4568"
         width="558.62482"
         height="549.60535"
         x="-438.77048"
         y="-369.83447"
         transform="rotate(-44.408143)" />
    </clipPath>
    <clipPath
       clipPathUnits="userSpaceOnUse"
       id="clipPath4570">
      <rect
         style="opacity:0.047;fill:#000000;fill-opacity:1;stroke:none;stroke-width:3.85702;stroke-linejoin:round;stroke-miterlimit:4;stroke-dasharray:none;stroke-dashoffset:0;stroke-opacity:1"
         id="rect4572"
         width="84.645363"
         height="87.671333"
         x="39.639999"
         y="34.738667" />
    </clipPath>
  </defs>
  <g
     inkscape:label="Layer 1"
     inkscape:groupmode="layer"
     id="layer1">
    <path
       d="m 12.262677,7.3128236 c 0.807009,-0.03613 0.469682,-1.2215682 -0.790669,-0.3627477 v -5.72e-5 c -0.0868,0.00229 -0.172913,0.017493 -0.25625,0.045505 0.126955,-0.1948138 0.208102,-0.4240079 0.198703,-0.6709352 0,-0.3757475 -0.331028,-0.4808319 -0.51155,-0.1749883 -0.188743,0.3172313 -0.157844,0.7043665 -0.163794,1.0707729 v -5.72e-5 c -0.145964,0.09021 -0.284749,0.1949167 -0.414754,0.3128409 0.133625,-0.3246859 0.127735,-1.1454217 -0.317008,-1.0871569 -0.1468236,0.037846 -0.2286704,0.1903205 -0.2663089,0.3454604 -0.103566,0.4269691 0.040698,0.8386747 0.1197353,1.2535017 -0.007,0.00915 -0.0118,0.018637 -0.015199,0.029384 C 9.7363762,8.2304347 9.63888,8.3968251 9.5541033,8.5716534 9.4844061,8.3442658 9.3892698,8.1281058 9.2711844,7.9284899 l -1.6e-4,-0.00114 C 9.4621269,7.2126933 9.563383,6.4663319 9.6360501,5.7255844 v 5.71e-5 c 0.1619637,0.029269 0.3274573,0.020009 0.4861209,-0.027326 0.281909,-0.075003 0.838257,-0.465534 0.596287,-0.8429623 -0.324858,-0.3256806 -0.8002289,0.046648 -1.0465293,0.3552132 0.017199,-0.3289849 0.018799,-0.6587587 0.008,-0.9873434 h -4e-5 C 9.8908302,4.1559948 10.087352,4.0396481 10.257126,3.8815126 10.899171,3.255888 10.069173,2.8445712 9.64061,3.559182 9.6202108,3.3170453 9.5934118,3.0756632 9.5601131,2.8349214 10.674779,1.8344524 9.8534317,1.1320175 9.4563272,2.1812277 9.410229,1.9384851 9.3780302,1.6856123 9.3103729,1.4486664 9.3794702,1.1281874 9.3931696,0.76658299 9.2954734,0.45768661 9.2360758,0.28720307 9.1480192,0.05036001 8.972486,0.00653578 8.8041026,-0.03542484 8.7382452,0.13240615 8.7147461,0.29169639 8.640449,0.79656139 8.7962429,1.2578308 9.152399,1.5664305 9.1902975,1.8223559 9.2490952,2.0766807 9.2983133,2.3313597 8.4506264,1.4315162 7.9203871,2.5964319 9.38361,2.8551471 9.4212085,3.1239236 9.4514074,3.3940379 9.4725065,3.6652498 9.2660746,3.3794374 8.7134362,3.1400448 8.5452827,3.5857877 c -0.061698,0.4881151 0.6369252,0.6656988 0.9585126,0.6694489 0.009,0.3254176 0.006,0.6508011 -0.0108,0.9762302 C 9.2533451,4.9006411 8.7058764,4.4778795 8.3958685,4.8746987 8.2029761,5.4337695 9.075362,5.8053667 9.459477,5.7187242 9.4066791,6.3886191 9.2737543,7.0440277 9.151739,7.699585 8.8605004,7.0440277 8.6601682,6.3321952 8.4005984,5.6584702 7.9876745,4.5896981 7.6326983,3.4714193 7.128608,2.4565557 6.8601185,2.0720617 5.7365823,1.5465252 5.1326959,2.009258 4.9579027,2.1504606 4.5867972,2.66932 4.4419828,2.8761619 h 4e-5 C 4.4102238,2.9218959 4.4169238,2.9883236 4.4569218,3.024659 4.4969198,3.060903 4.5550178,3.053242 4.5867967,3.007623 4.7632503,2.7546016 4.8877054,2.5624747 5.052379,2.3748067 4.616336,6.3957418 6.9778039,7.7456043 5.9451742,11.513666 5.7146132,12.259021 5.720373,12.487552 4.9572827,12.449981 5.359797,11.063532 5.3178487,9.5716796 4.9542829,8.1917587 4.9193842,8.0573934 4.7353414,8.1144686 4.77013,8.2498408 5.1147466,9.5852514 5.1648246,11.046532 4.7580305,12.371709 4.2544302,11.470024 4.7004328,10.831126 4.1264852,9.7942656 4.1284851,8.4257208 3.386984,7.2375383 3.2803582,5.8903626 h -9e-5 c 0.2029521,-0.6327247 0.4453526,-1.247945 0.7253817,-1.8409272 0.0122,-0.02664 0.014299,-0.057853 0.006,-0.086208 -0.009,-0.028355 -0.027199,-0.051336 -0.051298,-0.063454 -0.021399,-0.015321 -0.047198,-0.019894 -0.071597,-0.012806 -0.024399,0.00686 -0.045198,0.025154 -0.057698,0.050193 -0.055298,0.1121621 -0.108766,0.2256501 -0.160464,0.3403614 v 4.58e-5 c -0.357076,0.800167 -0.6525745,1.6343485 -0.8830955,2.4931575 -0.014499,0.052251 -6.6e-4,0.109532 0.035299,0.1458446 0.030399,0.029384 0.071797,0.038989 0.1097757,0.025611 0.037999,-0.013378 0.067497,-0.047906 0.078197,-0.091696 C 3.0531671,6.6771995 3.0986651,6.504921 3.1471234,6.3336942 3.3343661,7.4300437 3.8265669,8.3622666 3.9223631,9.4661507 3.6064055,9.0216035 3.1762322,8.7018683 2.6926609,8.5520678 2.8392654,7.677858 2.512088,6.4609432 2.4047721,5.9006947 2.6855412,5.6086398 3.1789621,5.1742847 2.9699803,4.6868556 2.8857836,4.5584013 2.7100104,4.5343569 2.5860351,4.592873 2.3744433,4.6998897 2.281617,4.9858049 2.2370087,5.2278502 2.177011,5.0075398 2.1125036,4.7889559 2.0434962,4.5720871 2.1725912,4.3689726 2.3742633,4.2516544 2.5225775,4.0692344 2.6355531,3.9089951 2.7288497,3.6693509 2.639383,3.467254 2.5512864,3.2682785 2.3517042,3.286126 2.20414,3.384133 v -4.57e-5 C 2.0070477,3.5105524 1.8745528,3.7368423 1.8473639,3.9933166 1.7810665,3.8076951 1.7106692,3.6260754 1.639872,3.4421919 1.793126,3.0431202 2.2431185,2.7212927 2.0787549,2.2284214 2.0005579,2.0172121 1.7885462,1.9815284 1.6440718,2.1363823 1.4627189,2.3212033 1.4017613,2.593833 1.4054311,2.8634442 1.3439335,2.7233392 1.2784261,2.586184 1.2074289,2.4551229 1.1038129,1.9331766 0.74232698,0.83612901 0.14883014,0.97926385 0.024375,1.0284275 -0.00704377,1.1852709 9.0591493e-4,1.3200372 0.04520419,1.9716385 0.59697265,2.3356325 1.0543848,2.6072217 1.1152825,2.7409353 1.1798899,2.8728426 1.2412875,3.0062933 1.0667444,2.818774 0.84824285,2.6808757 0.60270243,2.7080071 0.40046032,2.7233281 0.2600958,2.9183018 0.3524722,3.1417563 0.57425354,3.6196271 1.1140825,3.4294551 1.4813782,3.5748538 1.5440757,3.7324518 1.6043034,3.8913419 1.6619911,4.0515355 1.3511133,3.790625 0.57137365,3.824045 0.90865049,4.4537055 1.1391615,4.8021158 1.5446957,4.6621709 1.8655432,4.6552193 c 0.087897,0.2791582 0.1684734,0.5611745 0.2416706,0.845935 h -1.6e-4 C 1.9037117,5.2678671 1.613163,5.0177271 1.3116648,5.1138705 1.1843198,5.1647496 1.0584647,5.3268635 1.0839537,5.4875144 1.2331379,6.0029666 1.8307445,5.95689 2.2198994,5.9683348 2.2939965,6.2945643 2.3589139,6.6232861 2.4146218,6.9544663 2.1447323,6.6798015 1.7785766,6.5483974 1.4211905,6.7139302 1.2742163,6.7839023 1.2747062,6.9902528 1.3295941,7.1361431 1.5414058,7.628157 2.1050938,7.428198 2.4890389,7.4169477 2.5148378,7.5896835 2.6000745,8.2184523 2.486039,8.5178476 2.0139074,8.4873206 1.7118492,8.9821354 1.4689187,9.37461 1.4619189,9.2282624 1.4444196,9.0828524 1.4152208,8.9401519 1.5599651,8.66559 1.8574235,8.4267005 1.8256147,8.0753405 1.7970159,7.9130088 1.6303224,7.7951419 1.4964176,7.8875238 1.3392237,8.018928 1.2752962,8.2235859 1.255067,8.4374364 1.2324679,8.3847284 1.2102688,8.3346501 1.1828698,8.2769 1.1826398,7.8106227 0.8519727,6.5339569 0.29733435,6.7494881 0.13354074,6.8347812 0.09788213,7.0659192 0.1370806,7.2470472 0.24161652,7.7300172 0.65082055,7.9954895 0.97965772,8.2722009 1.0608546,8.4010097 1.126492,8.5417663 1.1748201,8.690675 0.95412872,8.5407716 0.70229854,8.4141581 0.4549482,8.5261368 0.30339411,8.5932508 0.30034423,8.8377658 0.4105499,8.9504991 c 0.2434505,0.2124556 0.56705787,0.036131 0.8424972,0.033729 0.056398,0.2272047 0.040898,0.4574507 0.041398,0.6915726 l -4e-5,5.71e-5 C 1.0134664,10.185262 0.78369537,10.72933 0.60945217,11.297663 c -0.12751503,0.414964 -0.205172,0.856522 -0.42585338,1.224563 -0.0404984,0.06757 0.0133995,0.158638 0.0795969,0.158684 0.5074502,0 11.87074631,0.01726 12.11239731,0.01909 0.120835,8.91e-4 0.123755,-0.207162 0.009,-0.219316 -1.108547,-0.833633 -0.585887,-1.70009 -1.122307,-2.5280616 -0.205821,-0.287756 -0.50115,-0.4850738 -0.7578,-0.7001247 C 10.40363,9.1678906 10.301244,9.0858215 10.197278,9.0062221 10.044234,8.8889988 9.8864404,8.7228143 9.690708,8.7142163 v -4.57e-5 C 9.7640052,8.5402913 9.8548016,8.3767479 9.9612575,8.2268446 h 0.004 c 0.2340605,0.328676 0.4288725,0.7071677 0.7835895,0.8816529 0.144124,0.070887 0.328277,0.087808 0.440012,-0.062769 0.110606,-0.1490916 0.0456,-0.3479529 -0.043,-0.4869031 C 10.90857,8.1898692 10.490747,8.0444706 10.104582,8.0359756 l 3e-5,-4.58e-5 c 0.191622,-0.2369001 0.413794,-0.4388942 0.658774,-0.5990419 0.0132,0.019322 0.0338,0.030184 0.0552,0.029269 0.194242,0.3322778 0.578767,1.0875573 0.997981,0.7974116 0.117555,-0.1131907 0.0902,-0.2950962 0.0201,-0.4310051 -0.171603,-0.333078 -0.50762,-0.4932143 -0.836147,-0.5300871 0.149274,-0.069515 0.299738,-0.1055303 0.455872,-0.147045 v -5.72e-5 c 0.25722,0.1102181 0.530389,0.163795 0.805048,0.1579983 z M 1.0374355,10.648919 C 1.2381477,10.158862 1.4814282,9.6931104 1.7636372,9.2587552 2.0460261,10.043224 2.0183272,11.172467 0.7212578,11.577815 0.8094544,11.260939 0.91511024,10.950648 1.0374355,10.648908 Z m 2.3795173,0.738645 c -0.043698,0.274413 -0.102166,0.564867 -0.2767892,0.759532 -0.1927624,0.212605 -0.4770815,0.360506 -0.7529608,0.340773 -0.1970823,-0.0091 -0.4415427,-0.01841 -0.5801973,-0.01841 0.818888,-0.820338 1.2943597,-1.59392 1.0624387,-2.8376118 C 2.849945,9.5004431 2.6737116,9.5315762 2.6922309,9.6651182 2.9072827,10.725691 2.5000884,11.505016 1.7793366,12.212629 1.409371,12.593522 0.88087157,12.439423 0.42758926,12.469309 0.52718538,12.261737 0.59447275,12.037389 0.65697031,11.811099 1.4546692,11.505419 2.2776571,10.985313 2.0107375,9.6328793 1.9834386,9.4889784 1.9353405,9.3508628 1.9487399,9.2011766 l 3e-5,4.58e-5 C 1.9604699,9.0888319 2.0044679,8.9839762 2.0737951,8.9031192 2.1431921,8.822285 2.2339988,8.7700686 2.332105,8.7545764 2.6713917,8.6982091 3.182112,8.8911369 3.4589912,9.6533679 3.5728368,10.221826 3.5060892,10.816476 3.4169932,11.387609 Z m 2.9875435,0.916627 C 6.2536021,12.44489 6.0548099,12.431948 5.8714471,12.433354 6.2018142,11.641499 6.385967,10.780209 6.412286,9.9033594 6.4386849,9.0265085 6.3066201,8.1527446 6.0244911,7.3369137 5.7623713,6.5167268 5.4499235,5.7181833 5.308249,4.8547667 5.2144527,4.2829133 5.2443515,3.007448 5.2633508,2.4450158 5.309249,1.8629068 5.976183,2.0272506 6.2999103,2.1846542 6.5682699,2.3165158 6.7783017,2.5673419 6.8818676,2.8796226 7.2416536,4.0096091 8.4945047,7.332409 7.7270746,7.8727061 7.4389559,8.1606678 7.2024451,7.5104614 7.1528971,7.369053 6.9145164,6.63919 6.5424109,5.971479 6.3696676,5.2142329 6.1859948,4.3622612 6.1924545,3.4540255 6.3150697,2.5925297 6.3362689,2.4478743 6.1374767,2.4056049 6.1157175,2.5546847 5.8377384,4.4456217 6.1979143,5.6136015 6.9131464,7.2667465 7.3641288,8.7410616 7.898238,10.913671 6.4045263,12.304214 Z m 1.9428841,-0.588249 c -0.007,0.274962 0.1269051,0.699062 -0.2350608,0.728502 -0.3912547,-0.0034 -0.7825395,-0.0057 -1.1738742,-0.0091 0.6598143,-0.570368 1.0229601,-1.478673 1.5216806,-2.216995 v 4.6e-5 c -0.085297,0.493007 -0.1230652,0.995173 -0.1127856,1.497604 z m 1.0082507,0.708059 c -0.2717294,0.05008 -0.4911408,0.01921 -0.7550905,0.02424 C 8.4841651,11.556344 8.5445427,10.641226 8.743125,9.7696239 8.9757859,9.4214079 9.2654346,8.9261013 9.690678,8.9311435 9.4946757,9.6530945 9.3887098,10.393053 9.4236184,11.145827 l 4e-5,3.4e-5 c 0.015099,0.322182 0.056298,0.64201 0.1231052,0.955502 0.015199,0.07215 0.003,0.148143 -0.033199,0.209553 -0.036299,0.0614 -0.093596,0.102443 -0.1577938,0.113189 z M 9.6964878,9.7426971 C 9.7426858,9.4934145 9.8011537,9.2472875 9.871591,9.0054939 c 1.005321,0.6793273 1.317068,1.3846551 0.939723,2.4609141 -0.0423,0.144301 -0.0865,0.292307 -0.173263,0.40767 -0.113016,-0.624333 -0.131535,-1.266136 -0.0548,-1.8975905 0.009,-0.083921 -0.0476,-0.1705751 -0.0776,-0.233939 -0.009,-0.016464 -0.0257,-0.025039 -0.0423,-0.021381 -0.0166,0.00343 -0.0295,0.018522 -0.0325,0.037616 -0.0903,0.5998545 -0.0961,1.2123755 -0.0172,1.8143205 0.125195,0.556967 -0.26915,0.629318 -0.6131163,0.745035 C 9.6161809,11.713313 9.5236145,10.589145 9.6965378,9.7426167 Z"
       id="path4"
       style="stroke-width:0.0119624" />
  </g>
</svg>
