<?xml version="1.0" encoding="UTF-8" standalone="no"?>
<!-- Created with Inkscape (http://www.inkscape.org/) -->

<svg
   width="48"
   height="48"
   viewBox="0 0 12.7 12.7"
   version="1.1"
   id="svg1"
   xmlns="http://www.w3.org/2000/svg"
   xmlns:svg="http://www.w3.org/2000/svg">
  <defs
     id="defs1" />
  <g
     id="layer1">
    <path
       class="st0"
       d="m 7.441061,6.7799414 3.864782,-0.6214162 c 0.342746,-0.054921 0.669218,0.1800174 0.724138,0.5237796 l 0.560394,3.4823722 c 0.05492,0.342745 -0.181035,0.669217 -0.52378,0.724137 L 8.201813,11.51023 C 7.859068,11.565151 7.532595,11.329196 7.477675,10.986451 L 6.917281,7.5040795 C 6.862361,7.1613343 7.098316,6.834862 7.441061,6.7799414 Z m -5.53274,-0.3966487 3.75494,1.1065481 c 0.333592,0.098654 0.525814,0.4515692 0.42716,0.785161 L 5.093715,11.657702 c -0.09865,0.333592 -0.45157,0.525814 -0.785161,0.427161 L 0.55463002,10.979331 c -0.333592,-0.09865 -0.525814,-0.451568 -0.42716,-0.78516 L 1.124177,6.8114699 C 1.221817,6.4778782 1.574729,6.2856561 1.908321,6.3832927 Z M 3.68612,9.8351532 4.291264,10.296893 C 4.173286,10.470808 4.04107,10.604041 3.894615,10.694558 3.74816,10.786092 3.589501,10.836945 3.418637,10.847115 3.247773,10.857286 3.050466,10.820672 2.824681,10.73524 2.550078,10.632519 2.341583,10.508439 2.197162,10.364018 2.053758,10.219597 1.957139,10.023307 1.906286,9.7751474 1.855436,9.5280046 1.887976,9.2472994 2.005956,8.9350658 2.162582,8.5190933 2.393451,8.2404221 2.698566,8.1000695 3.004697,7.9597169 3.360664,7.9658192 3.766466,8.1183765 4.083785,8.2373711 4.30957,8.3950135 4.442803,8.5923208 4.576036,8.788611 4.637059,9.0367707 4.624854,9.3357828 L 3.882409,9.2300097 c 0.0051,-0.085432 0,-0.150523 -0.01322,-0.1952731 C 3.847829,8.9594746 3.811219,8.8933669 3.760365,8.8384464 3.709515,8.7825084 3.644422,8.7397924 3.567126,8.7113154 3.39016,8.6452074 3.228449,8.6645314 3.080977,8.7713214 2.971136,8.8496344 2.872483,9.0011742 2.788068,9.2259418 2.683312,9.5046128 2.653817,9.7110735 2.699588,9.847358 2.745358,9.9826255 2.845026,10.079245 2.9986,10.1362 c 0.148489,0.05594 0.276638,0.05695 0.384444,9.99e-4 0.108825,-0.05594 0.209512,-0.1566254 0.303081,-0.3020632 z M 3.812234,1.2187234 7.677016,0.59730744 c 0.342745,-0.05492 0.669218,0.180018 0.724138,0.52377996 L 8.961548,4.603459 C 9.016468,4.9462041 8.78153,5.2726765 8.437768,5.327597 L 4.572986,5.9490133 C 4.230241,6.0039343 3.903769,5.7679788 3.848848,5.4252336 L 3.288455,1.9428614 C 3.233535,1.6001164 3.469489,1.2736444 3.812234,1.2187234 Z M 6.62132,3.9749234 5.690722,4.1223953 5.626652,4.5810839 4.788604,4.7143172 5.366287,1.8981114 6.265358,1.7557254 7.683122,4.2546115 6.823717,4.390896 Z M 6.355871,3.4277517 5.914472,2.5185104 5.775137,3.519286 Z M 8.555745,7.8020745 10.093522,7.557983 c 0.256296,-0.040682 0.462757,-0.00814 0.6204,0.09662 0.157642,0.104756 0.25121,0.2512109 0.280705,0.4383477 0.02543,0.1566253 -0.002,0.3000291 -0.0834,0.4271601 -0.05289,0.085432 -0.139336,0.1596765 -0.25833,0.2237505 0.198324,0.015256 0.350881,0.07221 0.458688,0.169847 0.107807,0.097637 0.174933,0.2308698 0.201376,0.3997 0.02238,0.1383184 0.0091,0.2664664 -0.03661,0.3864779 -0.04678,0.1200119 -0.121029,0.2206995 -0.221716,0.3030808 -0.06306,0.05085 -0.162728,0.09662 -0.299013,0.136284 -0.181034,0.0539 -0.302063,0.08543 -0.362069,0.09459 l -1.417765,0.224768 z m 0.993656,0.9112749 0.358001,-0.056955 c 0.128148,-0.020341 0.214597,-0.056955 0.257313,-0.1088241 0.04272,-0.052886 0.05797,-0.1200117 0.04475,-0.2034096 -0.0122,-0.077296 -0.04678,-0.1342503 -0.103739,-0.1688299 -0.05695,-0.035597 -0.148489,-0.043733 -0.272568,-0.024409 l -0.364104,0.057972 z m 0.165779,1.042474 0.419024,-0.066108 c 0.14137,-0.022375 0.236972,-0.064074 0.287825,-0.1230629 0.04983,-0.058989 0.06814,-0.131199 0.05492,-0.2156143 C 10.464749,9.2727252 10.426099,9.213737 10.361006,9.175089 10.295916,9.136442 10.191158,9.128305 10.046738,9.151697 l -0.41699,0.066108 z"
       id="path4"
       style="clip-rule:evenodd;fill:#ffffff;fill-opacity:1;fill-rule:evenodd;stroke:#000000;stroke-width:0.20341;stroke-miterlimit:4;stroke-dasharray:none;stroke-opacity:1" />
  </g>
</svg>
