<?xml version="1.0" encoding="UTF-8" standalone="no"?>
<svg
   xmlns:dc="http://purl.org/dc/elements/1.1/"
   xmlns:cc="http://creativecommons.org/ns#"
   xmlns:rdf="http://www.w3.org/1999/02/22-rdf-syntax-ns#"
   xmlns:svg="http://www.w3.org/2000/svg"
   xmlns="http://www.w3.org/2000/svg"
   xmlns:sodipodi="http://sodipodi.sourceforge.net/DTD/sodipodi-0.dtd"
   xmlns:inkscape="http://www.inkscape.org/namespaces/inkscape"
   viewBox="0 0 48 48"
   version="1.1"
   id="svg4"
   sodipodi:docname="DoesNotSpread.svg"
   inkscape:version="0.92.1 r15371"
   width="48"
   height="48"
   style="clip-rule:evenodd;fill-rule:evenodd;image-rendering:optimizeQuality;shape-rendering:geometricPrecision;text-rendering:geometricPrecision">
  <metadata
     id="metadata10">
    <rdf:RDF>
      <cc:Work
         rdf:about="">
        <dc:format>image/svg+xml</dc:format>
        <dc:type
           rdf:resource="http://purl.org/dc/dcmitype/StillImage" />
        <dc:title></dc:title>
      </cc:Work>
    </rdf:RDF>
  </metadata>
  <defs
     id="defs8" />
  <sodipodi:namedview
     pagecolor="#ffffff"
     bordercolor="#666666"
     borderopacity="1"
     objecttolerance="10"
     gridtolerance="10"
     guidetolerance="10"
     inkscape:pageopacity="0"
     inkscape:pageshadow="2"
     inkscape:window-width="1366"
     inkscape:window-height="705"
     id="namedview6"
     showgrid="false"
     inkscape:zoom="2"
     inkscape:cx="-92.25"
     inkscape:cy="36"
     inkscape:window-x="-8"
     inkscape:window-y="-8"
     inkscape:window-maximized="1"
     inkscape:current-layer="svg4" />
  <g
     id="g4516"
     transform="matrix(0.93074966,-0.09172571,0.08019182,0.98480323,-1.4123222,3.9614986)"
     style="fill:#000000;fill-opacity:1">
    <path
       style="fill-rule:nonzero;stroke-width:0.07106651;fill:#000000;fill-opacity:1"
       inkscape:connector-curvature="0"
       id="path2"
       d="M 22.698983,9.9731179 C 22.235648,9.7524391 21.900685,9.5520644 21.566783,9.3513765 21.489305,9.3051912 21.411975,9.2587575 21.332806,9.2121428 l 1.051939,3.2397402 a 0.53509691,0.58206131 82.868062 0 1 -1.114287,0.326656 L 20.226115,9.5621937 19.472936,10.997629 a 0.12830605,0.13956723 82.868068 0 1 -0.03057,0.03843 0.58531547,0.63668748 82.868063 0 1 -0.352847,0.16365 0.57870597,0.62949786 82.868067 0 1 -0.384669,-0.05568 0.58109084,0.63209207 82.868065 0 1 -0.308182,-0.338332 0.58402082,0.6352792 82.868063 0 1 0.04576,-0.447575 c 0.427231,-0.828504 0.864068,-1.7779713 1.326632,-2.5751975 0.0953,-0.1624546 0.233512,-0.2698041 0.393086,-0.3154446 0.157278,-0.045038 0.330279,-0.031127 0.498732,0.046315 0.742481,0.3226159 1.916994,1.0052606 2.643668,1.4189844 a 0.58190851,0.63298149 82.868064 0 1 0.30093,0.3382502 0.58722337,0.63876283 82.868064 0 1 -0.04173,0.4344307 l -0.0076,0.013192 A 0.58286245,0.63401917 82.868065 0 1 23.179426,10.00738 0.58361199,0.63483448 82.868072 0 1 22.708523,9.976889 Z m 4.603129,15.2373901 0.374509,1.153391 -1.524863,0.447016 0.358742,1.104848 -2.165347,0.634777 -0.358745,-1.104847 -0.862803,0.252932 -0.374505,-1.153392 0.862804,-0.252933 -0.201665,-0.621081 -0.862804,0.252933 -0.374464,-1.153263 0.862805,-0.252932 -1.017841,-3.134722 3.37451,-0.989245 c 0.861031,-0.252414 1.581942,-0.271226 2.160626,-0.05575 0.57696,0.215908 0.979403,0.668383 1.204489,1.361601 0.231503,0.712975 0.158674,1.329971 -0.220111,1.851254 -0.376531,0.522473 -1.049487,0.92473 -2.016391,1.20818 l -0.945473,0.277168 0.201665,0.621082 z m -2.100987,-1.327328 0.583008,-0.170912 c 0.235021,-0.0689 0.423286,-0.15469 0.565299,-0.255609 0.248155,-0.177797 0.411063,-0.412528 0.417435,-0.705493 0.0086,-0.242734 -0.06714,-0.489917 -0.212219,-0.68973 -0.158192,-0.22679 -0.409729,-0.334897 -0.698253,-0.353231 -0.166384,-0.01049 -0.363856,0.01678 -0.591636,0.08355 l -0.678167,0.198805 z m -2.516151,-8.657014 c 2.676332,-0.784573 5.422259,-0.501312 7.697973,0.590813 2.275596,1.092231 4.081142,2.993349 4.877039,5.444535 0.795855,2.451056 0.431505,4.988498 -0.800888,7.109101 -1.232554,2.120582 -3.333202,3.824628 -6.009536,4.6092 -2.676473,0.784614 -5.422258,0.501312 -7.697901,-0.590834 -2.275597,-1.092231 -4.081206,-2.993544 -4.87706,-5.4446 -0.795898,-2.451185 -0.431482,-4.988432 0.800908,-7.109037 1.232482,-2.12056 3.33299,-3.824564 6.009465,-4.609178 z m 7.083343,1.648272 c -1.985006,-0.952652 -4.38055,-1.199629 -6.715422,-0.515157 -2.335012,0.684514 -4.16756,2.170966 -5.242638,4.020688 -1.074964,1.849833 -1.392825,4.06326 -0.698467,6.201728 0.694337,2.138403 2.269453,3.797042 4.25443,4.749844 1.985007,0.952655 4.380408,1.199673 6.715421,0.515158 2.334873,-0.684473 4.167562,-2.170964 5.242638,-4.020688 1.075036,-1.849854 1.392782,-4.06339 0.698445,-6.201792 -0.694357,-2.138468 -2.269358,-3.796997 -4.254407,-4.749781 z m -18.685273,-0.321837 3.245392,1.557741 a 0.53502876,0.58198719 82.868058 0 1 0.234181,0.72123 c -0.152741,0.262705 -0.505694,0.366175 -0.787587,0.230881 l -3.222353,-1.54663 0.558124,1.485536 c 0.0056,0.01457 0.0081,0.03009 0.0074,0.04643 a 0.58531547,0.63668748 82.868063 0 1 -0.129164,0.343478 0.57959177,0.63046143 82.868065 0 1 -0.320298,0.212185 0.58109084,0.63209207 82.868065 0 1 -0.482075,-0.03356 0.58347572,0.63468625 82.86806 0 1 -0.3104987,-0.339717 C 9.5487737,18.378131 9.1355747,17.435864 8.8575855,16.582357 c -0.055843,-0.174663 -0.038317,-0.339153 0.041857,-0.474749 0.07899,-0.133689 0.2144576,-0.236815 0.3954693,-0.293011 0.7833762,-0.260608 2.1550762,-0.553689 2.9970102,-0.74093 a 0.5825899,0.63372269 82.868064 0 1 0.47681,0.03815 0.58654198,0.63802163 82.868068 0 1 0.303148,0.327849 l 0.0045,0.01422 a 0.58327129,0.63446388 82.868068 0 1 -0.05033,0.445495 0.58381641,0.63505682 82.868062 0 1 -0.363289,0.285855 l -0.0098,0.0037 C 12.14924,16.338163 11.75364,16.417767 11.35866,16.496403 Z M 9.3202354,28.316067 12.857739,27.27904 a 0.53509691,0.58206131 82.868062 0 1 0.331375,1.02056 l -3.5121021,1.029578 1.5422291,0.664598 c 0.01531,0.0065 0.0289,0.01551 0.04106,0.0274 a 0.58463407,0.63594628 82.868067 0 1 0.170266,0.321895 0.57856969,0.62934963 82.868063 0 1 -0.06832,0.355765 0.58211293,0.63320387 82.868067 0 1 -0.373612,0.29116 0.58463407,0.63594628 82.868067 0 1 -0.484747,-0.03291 C 9.6136795,30.580412 8.5923671,30.197262 7.7368817,29.787493 7.5625692,29.703013 7.4490449,29.577643 7.4026869,29.431521 7.3570736,29.287456 7.3758027,29.127807 7.4633409,28.970902 7.8288424,28.279708 8.5939604,27.182616 9.0580011,26.5041 a 0.58204478,0.63312972 82.868065 0 1 0.373328,-0.284385 c 0.1516407,-0.04445 0.3196648,-0.03798 0.4705433,0.02939 l 0.014163,0.0067 a 0.58306687,0.63424152 82.868068 0 1 0.3055016,0.341322 0.58381641,0.63505682 82.868062 0 1 -0.04272,0.434724 l -0.0043,0.009 C 9.9253624,27.47267 9.7009689,27.785635 9.4762179,28.097495 Z m 7.7530316,9.297286 1.757705,-3.02448 a 0.53502876,0.58198719 82.868058 0 1 0.787516,-0.230863 0.53509691,0.58206131 82.868062 0 1 0.234203,0.721294 l -1.745089,3.002776 1.623521,-0.545262 c 0.01594,-0.0054 0.03283,-0.0081 0.05066,-0.0079 a 0.58531547,0.63668748 82.868063 0 1 0.369871,0.111854 0.57904667,0.62986847 82.868067 0 1 0.223652,0.291012 0.58122712,0.63224028 82.868064 0 1 -0.04627,0.445085 0.58463407,0.63594628 82.868067 0 1 -0.375234,0.293343 c -0.931453,0.319392 -1.962549,0.719878 -2.894521,0.993871 -0.190692,0.0551 -0.368833,0.04236 -0.514273,-0.02859 -0.143436,-0.07005 -0.252534,-0.192797 -0.309761,-0.358509 -0.266519,-0.716943 -0.556122,-1.975294 -0.741842,-2.747596 a 0.58238548,0.63350033 82.868065 0 1 0.05131,-0.44037 0.58667825,0.63816987 82.868063 0 1 0.362023,-0.286408 l 0.01553,-0.0046 c 0.166543,-0.04882 0.339467,-0.03134 0.482437,0.03729 a 0.58395269,0.63520509 82.868059 0 1 0.302762,0.328817 l 0.0035,0.009 c 0.151526,0.461407 0.229699,0.824463 0.306937,1.186795 z m 12.728939,1.380988 -1.052025,-3.240001 a 0.53509691,0.58206131 82.868062 0 1 0.39149,-0.673617 0.53502876,0.58198719 82.868058 0 1 0.722726,0.346983 l 1.044384,3.216474 0.753231,-1.43552 c 0.0073,-0.01419 0.01757,-0.02707 0.03056,-0.0385 a 0.58463407,0.63594628 82.868067 0 1 0.352885,-0.163519 0.57856969,0.62934963 82.868063 0 1 0.38464,0.05567 0.58095457,0.63194382 82.868061 0 1 0.308161,0.338265 0.58470222,0.63602039 82.868062 0 1 -0.04572,0.447704 c -0.42723,0.828505 -0.864087,1.777908 -1.326633,2.575199 -0.0953,0.162455 -0.233552,0.269674 -0.393083,0.315444 -0.157465,0.04496 -0.330281,0.03113 -0.498736,-0.04632 -0.74252,-0.322746 -1.917133,-1.00522 -2.643807,-1.418943 a 0.58286245,0.63401917 82.868065 0 1 -0.300858,-0.338271 c -0.0451,-0.138878 -0.0345,-0.294086 0.04165,-0.434411 l 0.0076,-0.01319 a 0.58279433,0.63394506 82.868067 0 1 0.376876,-0.288769 c 0.151497,-0.04441 0.319592,-0.03796 0.470717,0.03041 l 0.0097,0.0038 c 0.463357,0.220743 0.798322,0.421119 1.132036,0.621718 0.07747,0.04619 0.155013,0.09278 0.234205,0.139452 z M 40.052067,31.65371 36.806512,30.095943 c -0.281892,-0.135293 -0.386828,-0.458474 -0.234203,-0.721291 0.15274,-0.262708 0.505695,-0.366177 0.787587,-0.230883 l 3.222355,1.54663 -0.558083,-1.485406 a 0.12673886,0.13786248 82.868059 0 1 -0.0075,-0.04655 0.58470222,0.63602039 82.868062 0 1 0.12919,-0.34335 0.57768388,0.62838608 82.868058 0 1 0.320299,-0.212185 0.58068201,0.63164734 82.86806 0 1 0.482034,0.03342 0.58374828,0.63498272 82.868064 0 1 0.3105,0.339716 c 0.327447,0.852174 0.740646,1.794441 1.018591,2.647819 0.05586,0.174728 0.03832,0.339154 -0.04182,0.474814 -0.07899,0.133689 -0.214436,0.236882 -0.395471,0.293012 -0.783375,0.260608 -2.155095,0.553622 -2.997029,0.740865 a 0.58204478,0.63312972 82.868065 0 1 -0.476812,-0.03815 0.58599686,0.63742867 82.868064 0 1 -0.303148,-0.32785 l -0.0045,-0.01409 c -0.04951,-0.152526 -0.02709,-0.312265 0.05033,-0.445495 a 0.58333942,0.634538 82.868067 0 1 0.363247,-0.285987 l 0.0098,-0.0037 c 0.503707,-0.149229 0.899306,-0.228831 1.294285,-0.307468 0.09138,-0.01846 0.183041,-0.03679 0.275997,-0.05614 z m 1.762483,-11.763514 -3.537506,1.037028 a 0.53516504,0.58213543 82.868066 0 1 -0.722866,-0.346941 0.53509691,0.58206131 82.868062 0 1 0.391513,-0.673554 l 3.512101,-1.029579 -1.542177,-0.664683 a 0.12585304,0.13689892 82.868059 0 1 -0.04109,-0.02724 0.5848385,0.63616864 82.868061 0 1 -0.170123,-0.321935 0.57897853,0.62979434 82.868063 0 1 0.06836,-0.355888 0.58143153,0.63246266 82.868064 0 1 0.373655,-0.291029 0.58347572,0.63468625 82.86806 0 1 0.484743,0.03291 c 0.890205,0.376676 1.911402,0.759715 2.76696,1.169464 0.174312,0.08448 0.287836,0.209848 0.334195,0.355973 0.04546,0.144105 0.02689,0.303713 -0.06066,0.460619 -0.365459,0.691322 -1.13062,1.788285 -1.594663,2.4668 a 0.58231735,0.6334262 82.868057 0 1 -0.373305,0.28445 0.58667825,0.63816987 82.868063 0 1 -0.470564,-0.02945 l -0.01416,-0.0067 a 0.58224921,0.63335209 82.86806 0 1 -0.305527,-0.341325 0.58327129,0.63446388 82.868068 0 1 0.04272,-0.434722 l 0.0043,-0.0089 c 0.249117,-0.431883 0.473552,-0.744718 0.698262,-1.056709 0.05173,-0.07239 0.103719,-0.14464 0.155802,-0.218555 z m -7.752892,-9.297327 -1.757684,3.024546 a 0.53502876,0.58198719 82.868058 0 1 -0.787514,0.230862 c -0.281956,-0.135491 -0.386872,-0.458605 -0.234202,-0.721293 l 1.745016,-3.002755 -1.623451,0.545241 a 0.12871488,0.14001195 82.868082 0 1 -0.0507,0.0078 0.58490664,0.63624275 82.868066 0 1 -0.36987,-0.111854 0.57904667,0.62986847 82.868067 0 1 -0.223654,-0.291011 0.58136339,0.63238853 82.868062 0 1 0.04627,-0.4450853 0.58422524,0.63550157 82.868068 0 1 0.375114,-0.2932375 c 0.931573,-0.3194974 1.962668,-0.7199839 2.894639,-0.9939757 0.190624,-0.055078 0.368693,-0.042318 0.514203,0.028618 0.143529,0.070098 0.252606,0.1927765 0.309762,0.3585089 0.266588,0.7169221 0.556193,1.9752736 0.741911,2.7475766 a 0.58299874,0.63416739 82.868065 0 1 -0.05131,0.440368 0.58674639,0.63824399 82.868061 0 1 -0.362165,0.286451 l -0.0154,0.0046 a 0.58293058,0.63409329 82.868064 0 1 -0.482437,-0.03729 0.58395269,0.63520509 82.868059 0 1 -0.302761,-0.328817 l -0.0038,-0.0089 c -0.15139,-0.461447 -0.2297,-0.824463 -0.306794,-1.186836 -0.01814,-0.08387 -0.03618,-0.168115 -0.05524,-0.253411 z" />
    <rect
       transform="matrix(0.91572314,-0.40180983,0.45913799,0.88836496,0,0)"
       y="26.971827"
       x="7.7246037"
       height="10.108123"
       width="8.4868059"
       id="rect4487"
       style="opacity:1;fill:#ffffff;fill-opacity:1;stroke:none;stroke-width:0.2129298;stroke-linejoin:round;stroke-miterlimit:4;stroke-dasharray:none;stroke-dashoffset:0;stroke-opacity:1" />
  </g>
  <style
     id="style4485"
     type="text/css">.st0{fill-rule:evenodd;clip-rule:evenodd;}</style>
  <g
     id="g4489"
     transform="matrix(0.15697065,0,0,0.12097158,17.738993,17.791498)"
     style="fill:#000000;fill-opacity:1">
    <path
       id="path4487"
       d="m 39.1,30.89 c 4.53,0 8.21,3.68 8.21,8.21 0,4.54 -3.68,8.21 -8.21,8.21 -4.54,0 -8.21,-3.68 -8.21,-8.21 0,-4.54 3.67,-8.21 8.21,-8.21 z M 39.1,0 c 2.95,0 5.64,1.21 7.58,3.15 1.94,1.94 3.15,4.63 3.15,7.58 v 2.47 l 1.75,-1.75 v 0 c 2.09,-2.09 4.84,-3.13 7.58,-3.13 2.75,0 5.5,1.04 7.58,3.13 v 0 0 c 2.09,2.09 3.13,4.84 3.13,7.58 0,2.74 -1.04,5.5 -3.13,7.58 v 0 L 65,28.37 h 2.47 c 2.95,0 5.64,1.21 7.58,3.15 1.94,1.94 3.15,4.63 3.15,7.58 0,2.95 -1.21,5.64 -3.15,7.58 -1.94,1.94 -4.63,3.15 -7.58,3.15 H 65 l 1.75,1.75 v 0 c 2.09,2.09 3.13,4.84 3.13,7.58 0,2.75 -1.04,5.5 -3.13,7.58 v 0 0 c -2.09,2.09 -4.84,3.13 -7.58,3.13 -1.89,0 -3.78,-0.5 -5.46,-1.49 0.94,5.58 0.48,11.29 -0.52,16.81 2.45,-3.65 5.42,-6.52 8.81,-8.67 7.34,-4.64 16.53,-5.79 26.72,-4.03 1.71,0.29 2.87,1.92 2.57,3.63 -0.01,0.05 -0.02,0.09 -0.03,0.13 v 0 c -2.01,9.2 -6.67,16.37 -13.93,20.96 -6.84,4.32 -15.89,6.26 -27.09,5.34 -0.41,-0.03 -0.79,-0.14 -1.13,-0.31 -0.46,1.93 -0.83,3.73 -1.04,5.37 -0.28,2.15 -0.3,4.29 -0.06,6.44 0.24,2.16 0.74,1.92 1.5,4.03 0.64,1.78 -0.14,3.81 -1.74,4.53 -1.61,0.72 -3.43,-0.15 -4.07,-1.94 -0.98,-2.72 -1.62,-3.06 -1.92,-5.78 -0.08,-0.75 -0.14,-1.5 -0.17,-2.25 C 30.24,110.89 21.57,106.84 15.57,100.95 8.95,94.44 5.65,85.8 5.6,75.6 c 0,-0.09 0,-0.18 0,-0.27 0.07,-1.73 1.53,-3.08 3.26,-3.02 11.27,0.48 20.81,3.81 27.54,10.44 3.45,3.4 6.14,7.62 7.92,12.72 l 0.09,-0.34 c 1.76,-6.76 3.74,-14.39 3.5,-21.56 -0.36,0.52 -0.77,1.01 -1.22,1.45 -1.94,1.94 -4.63,3.15 -7.58,3.15 -2.95,0 -5.64,-1.21 -7.58,-3.15 -1.94,-1.94 -3.15,-4.63 -3.15,-7.58 V 65 l -1.75,1.75 v 0 c -2.09,2.09 -4.84,3.13 -7.58,3.13 -2.74,0 -5.5,-1.04 -7.58,-3.13 v 0 C 9.38,64.66 8.34,61.91 8.34,59.17 c 0,-2.74 1.04,-5.5 3.13,-7.59 l 1.75,-1.75 H 10.75 C 7.8,49.83 5.11,48.62 3.17,46.68 1.21,44.73 0,42.05 0,39.1 0,36.15 1.21,33.46 3.15,31.52 5.09,29.58 7.78,28.37 10.73,28.37 H 13.2 L 11.45,26.62 C 9.36,24.53 8.32,21.78 8.32,19.03 c 0,-2.75 1.04,-5.5 3.13,-7.58 v 0 c 2.09,-2.09 4.84,-3.13 7.58,-3.13 2.75,0 5.5,1.04 7.58,3.13 v 0 l 1.75,1.75 v -2.47 c 0,-2.95 1.21,-5.64 3.15,-7.58 C 33.46,1.21 36.15,0 39.1,0 Z M 12.02,78.87 c 0.64,7.05 3.28,13.03 7.95,17.62 4.66,4.58 11.4,7.87 20.25,9.56 C 39.34,97.84 36.44,91.64 31.98,87.26 27.09,82.45 20.22,79.73 12.02,78.87 Z M 73.98,91.91 C 78.87,88.82 82.29,84.17 84.22,78.24 76.94,77.5 70.49,78.61 65.35,81.86 60.68,84.81 57,89.61 54.64,96.49 62.61,96.62 69.07,95.01 73.98,91.91 Z M 42.69,7.14 C 41.77,6.22 40.5,5.64 39.1,5.64 c -1.4,0 -2.67,0.57 -3.59,1.5 -0.92,0.92 -1.5,2.19 -1.5,3.59 v 9.28 0 c 0,0.72 -0.28,1.44 -0.83,1.99 -1.1,1.1 -2.89,1.1 -3.99,0 l -6.56,-6.56 v 0 c -0.99,-0.99 -2.29,-1.48 -3.6,-1.48 -1.31,0 -2.61,0.49 -3.6,1.48 v 0 c -0.99,0.99 -1.48,2.29 -1.48,3.6 0,1.31 0.49,2.61 1.48,3.6 l 6.55,6.55 c 0.52,0.51 0.84,1.22 0.84,2.01 0,1.56 -1.26,2.82 -2.82,2.82 h -9.28 c -1.4,0 -2.67,0.57 -3.59,1.5 -0.92,0.92 -1.5,2.19 -1.5,3.59 0,1.4 0.57,2.67 1.5,3.59 0.92,0.92 2.19,1.5 3.59,1.5 H 20 v 0 c 0.72,0 1.44,0.28 1.99,0.83 1.1,1.1 1.1,2.89 0,3.99 l -6.56,6.56 c -0.99,0.99 -1.48,2.29 -1.48,3.6 0,1.31 0.49,2.61 1.48,3.6 v 0 c 0.99,0.99 2.29,1.48 3.6,1.48 1.31,0 2.61,-0.49 3.6,-1.48 v 0 l 6.54,-6.54 c 0.51,-0.52 1.23,-0.85 2.02,-0.85 1.56,0 2.82,1.26 2.82,2.82 v 9.28 c 0,1.4 0.57,2.67 1.5,3.59 0.92,0.92 2.19,1.5 3.59,1.5 1.4,0 2.67,-0.57 3.59,-1.5 0.92,-0.92 1.5,-2.19 1.5,-3.59 v -9.28 0 c 0,-0.72 0.28,-1.44 0.83,-1.99 1.1,-1.1 2.89,-1.1 3.99,0 l 6.56,6.56 v 0 c 0.99,0.99 2.29,1.48 3.6,1.48 1.31,0 2.61,-0.49 3.6,-1.48 v 0 0 c 0.99,-0.99 1.48,-2.29 1.48,-3.6 0,-1.31 -0.49,-2.61 -1.48,-3.6 v 0 l -6.55,-6.55 c -0.52,-0.51 -0.84,-1.22 -0.84,-2.01 0,-1.56 1.26,-2.82 2.82,-2.82 h 9.28 c 1.4,0 2.67,-0.57 3.59,-1.5 0.92,-0.92 1.5,-2.19 1.5,-3.59 0,-1.4 -0.57,-2.67 -1.5,-3.59 -0.92,-0.92 -2.19,-1.5 -3.59,-1.5 H 58.2 v 0 c -0.72,0 -1.44,-0.28 -1.99,-0.83 -1.1,-1.1 -1.1,-2.89 0,-3.99 l 6.56,-6.56 v 0 c 0.99,-0.99 1.48,-2.29 1.48,-3.6 0,-1.31 -0.49,-2.61 -1.48,-3.6 v 0 0 c -0.99,-0.99 -2.29,-1.48 -3.6,-1.48 -1.31,0 -2.61,0.49 -3.6,1.48 v 0 l -6.55,6.55 c -0.51,0.52 -1.22,0.84 -2.01,0.84 -1.56,0 -2.82,-1.26 -2.82,-2.82 V 10.73 C 44.18,9.33 43.61,8.06 42.69,7.14 Z"
       class="st0"
       inkscape:connector-curvature="0"
       style="clip-rule:evenodd;fill:#000000;fill-opacity:1;fill-rule:evenodd" />
  </g>
  <g
     id="g4503"
     transform="matrix(0.36733306,0,0,0.37403706,-2.2409731,55.074665)"
     style="fill:#000000;fill-opacity:1">
    <path
       id="path4501"
       d="m 70.968138,-143.03395 c 16.966,0 32.326002,6.877 43.444002,17.996 11.118,11.119 17.996,26.478995 17.996,43.444995 0,16.966 -6.878,32.325 -17.996,43.444 -11.117,11.118 -26.478002,17.995 -43.444002,17.995 -16.966,0 -32.326,-6.877 -43.444,-17.995 -11.119,-11.119 -17.9960002,-26.479 -17.9960002,-43.445 0,-16.966 6.8770002,-32.325995 17.9960002,-43.444995 11.118,-11.118 26.479,-17.995 43.444,-17.995 z m 42.213002,27.788 -75.865002,75.863995 c 9.229,7.367 20.926,11.771 33.652,11.771 14.907,0 28.403,-6.043 38.172002,-15.812 9.769,-9.769 15.812,-23.265 15.812,-38.172 0,-12.726 -4.404,-24.422995 -11.771,-33.650995 z m -81.364002,70.818995 76.318002,-76.317995 c -9.678002,-9.191 -22.763002,-14.832 -37.167002,-14.832 -14.908,0 -28.404,6.042 -38.172,15.811 -9.768,9.768 -15.811,23.263995 -15.811,38.171995 0,14.403 5.641,27.488 14.832,37.167 z"
       inkscape:connector-curvature="0"
       style="fill:#000000;fill-opacity:1" />
  </g>
</svg>
