<?xml version="1.0" encoding="UTF-8" standalone="no"?>
<svg
   xmlns:dc="http://purl.org/dc/elements/1.1/"
   xmlns:cc="http://creativecommons.org/ns#"
   xmlns:rdf="http://www.w3.org/1999/02/22-rdf-syntax-ns#"
   xmlns:svg="http://www.w3.org/2000/svg"
   xmlns="http://www.w3.org/2000/svg"
   xmlns:sodipodi="http://sodipodi.sourceforge.net/DTD/sodipodi-0.dtd"
   xmlns:inkscape="http://www.inkscape.org/namespaces/inkscape"
   viewBox="0 0 48 48.000001"
   version="1.1"
   id="svg4"
   sodipodi:docname="CausesRash.svg"
   width="48"
   height="48"
   style="clip-rule:evenodd;fill-rule:evenodd;image-rendering:optimizeQuality;shape-rendering:geometricPrecision;text-rendering:geometricPrecision"
   inkscape:version="0.92.1 r15371">
  <metadata
     id="metadata10">
    <rdf:RDF>
      <cc:Work
         rdf:about="">
        <dc:format>image/svg+xml</dc:format>
        <dc:type
           rdf:resource="http://purl.org/dc/dcmitype/StillImage" />
        <dc:title></dc:title>
      </cc:Work>
    </rdf:RDF>
  </metadata>
  <defs
     id="defs8" />
  <sodipodi:namedview
     pagecolor="#ffffff"
     bordercolor="#666666"
     borderopacity="1"
     objecttolerance="10"
     gridtolerance="10"
     guidetolerance="10"
     inkscape:pageopacity="0"
     inkscape:pageshadow="2"
     inkscape:window-width="1366"
     inkscape:window-height="705"
     id="namedview6"
     showgrid="false"
     inkscape:zoom="3.8642598"
     inkscape:cx="61.193166"
     inkscape:cy="13.663192"
     inkscape:window-x="-8"
     inkscape:window-y="-8"
     inkscape:window-maximized="1"
     inkscape:current-layer="svg4" />
  <path
     d="M 18.397491,1.3653941 29.583384,12.850235 c 1.921625,2.201887 3.091113,3.622575 3.076597,6.857348 L 46.451591,33.877195 44.822111,35.55145 31.550374,21.91506 C 30.460726,20.795475 30.473429,20.739542 30.592282,20.193263 30.9806,18.464013 29.957185,16.175435 28.776809,14.96263 24.84283,10.92056 20.904314,6.8831517 16.970334,2.8410824 15.730985,1.5667483 13.753109,3.5943058 14.990643,4.8658452 l 4.136303,4.2499524 0.02178,0.021465 c 0.117947,0.1221183 0.117947,0.3216115 0,0.4427963 L 18.14799,10.608289 a 0.30393983,0.31229083 0 0 1 -0.430052,0 L 11.225418,3.9373882 C 10.006029,2.6844954 8.0054697,4.6887506 9.2502622,5.9677403 l 6.4916098,6.6699737 c 0.118854,0.122119 0.118854,0.321611 0,0.442802 l -1.058799,1.087892 a 0.30502857,0.31340947 0 0 1 -0.430959,0 L 5.5694151,5.2471187 C 4.3445829,3.9886365 2.3521893,5.9928858 3.5933525,7.2681532 L 12.280587,16.19408 a 0.30502857,0.31340947 0 0 1 0,0.442798 L 11.247193,17.6996 a 0.30666168,0.31508746 0 0 1 -0.43096,0 L 4.3454902,11.051068 c -1.2429778,-1.2780625 -3.1981728,0.772804 -1.9706189,2.034085 1.5695998,1.612726 3.3206561,3.43054 5.0735269,5.238096 1.5405666,1.601541 3.0811328,3.192824 5.0553818,5.222249 0.321178,0.373818 3.144642,3.000788 1.06515,3.391384 -1.466169,0.414833 -3.6772182,-0.0018 -4.8757394,0.56865 -0.7947801,0.398985 -1.1740239,1.226789 -0.7221971,2.024763 0.185993,0.320683 0.5026345,0.594751 0.9580906,0.768141 0.7648397,0.293648 2.0359429,0.17339 2.8788099,0.17339 2.159334,0 6.112366,-0.0035 8.918592,-0.396186 1.438952,-0.198565 2.271837,0.44373 3.12559,1.320939 l 12.50599,12.850535 -1.636738,1.682643 -13.347949,-13.714691 c -2.697352,0.412965 -6.31106,0.359831 -8.793387,0.325339 C 11.191848,32.518048 9.2620573,32.698883 8.0054703,32.159132 5.1693033,30.932342 4.9914758,27.231463 7.7060669,25.744585 8.8356344,25.13212 9.9298173,25.182459 11.158279,25.145171 7.742358,21.63633 4.3563776,18.069689 0.93410577,14.555253 -0.80787771,12.76447 0.02319359,9.7133436 2.2687193,8.8566425 -0.6472886,5.8605167 2.9764001,1.731749 5.9323281,3.0154064 6.4013937,3.2195612 6.7416248,3.5020185 7.0927432,3.8646512 7.9719007,1.5434461 10.873392,0.62614962 12.652574,2.4542139 L 12.8676,2.6751483 c 1.017971,-2.23637398 3.74345,-3.14434721 5.529891,-1.3097542 z M 40.179543,33.633887 c 0.682277,0 1.300136,0.28433 1.745612,0.742972 a 2.4608239,2.5284371 0 0 1 0.723106,1.793577 c 0,0.701025 -0.276721,1.335858 -0.723106,1.793573 a 2.4592816,2.5268523 0 0 1 -1.745612,0.742971 c -0.68137,0 -1.300137,-0.284324 -1.745613,-0.742971 a 2.4630014,2.5306743 0 0 1 -0.723104,-1.793573 c 0,-0.70009 0.277628,-1.335856 0.723104,-1.793577 a 2.4608239,2.5284371 0 0 1 1.745613,-0.742972 z m 0.907284,1.60434 a 1.2801764,1.3153503 0 0 0 -0.907284,-0.38594 c -0.35384,0 -0.675019,0.148226 -0.907283,0.38594 a 1.283352,1.3186131 0 0 0 0,1.864418 c 0.232264,0.237714 0.553443,0.385936 0.907283,0.385936 0.354748,0 0.675926,-0.148222 0.907284,-0.385936 0.232263,-0.237713 0.375615,-0.568648 0.375615,-0.932209 0,-0.363559 -0.143352,-0.693567 -0.375615,-0.932209 z m -7.776324,-2.089086 c 0.641448,0 1.161322,0.534156 1.161322,1.193232 0,0.659068 -0.519874,1.19323 -1.161322,1.19323 -0.64145,0 -1.161322,-0.534162 -1.161322,-1.19323 0,-0.659076 0.519872,-1.193232 1.161322,-1.193232 z m -5.113448,-6.884385 c 0.682277,0 1.300138,0.284324 1.745613,0.742973 a 2.4608239,2.5284371 0 0 1 0.723105,1.793577 c 0,0.701024 -0.276722,1.335857 -0.723105,1.793572 a 2.4592816,2.5268523 0 0 1 -1.745613,0.742973 c -0.68137,0 -1.300137,-0.284324 -1.745613,-0.742973 a 2.4592816,2.5268523 0 0 1 -0.723104,-1.793572 c 0,-0.70009 0.276721,-1.335862 0.723104,-1.793577 a 2.4608239,2.5284371 0 0 1 1.745613,-0.742973 z m 0.907284,1.604335 a 1.2801764,1.3153503 0 0 0 -0.907284,-0.385934 c -0.35384,0 -0.675019,0.14822 -0.907283,0.385934 -0.231358,0.237714 -0.375615,0.56865 -0.375615,0.932215 0,0.36356 0.144257,0.694496 0.375615,0.932209 0.232264,0.237714 0.553443,0.385935 0.907283,0.385935 0.354748,0 0.675926,-0.148221 0.907284,-0.385935 0.231357,-0.237713 0.375615,-0.568649 0.375615,-0.932209 0,-0.363565 -0.144258,-0.694501 -0.375615,-0.932215 z m -3.263497,-8.298544 c 0.557978,0 1.010712,0.465176 1.010712,1.038486 0,0.573305 -0.452734,1.038482 -1.010712,1.038482 -0.55798,0 -1.010714,-0.465177 -1.010714,-1.038482 0,-0.57331 0.452734,-1.038486 1.010714,-1.038486 z m -4.576337,4.676902 c 0.64145,0 1.161322,0.534163 1.161322,1.193232 0,0.65814 -0.519872,1.193231 -1.161322,1.193231 -0.641449,0 -1.161323,-0.535091 -1.161323,-1.193231 0,-0.659069 0.519874,-1.193232 1.161323,-1.193232 z m -5.659632,-7.088533 c 0.641449,0 1.161323,0.535089 1.161323,1.19323 0,0.659076 -0.519874,1.193232 -1.161323,1.193232 -0.641449,0 -1.161322,-0.534156 -1.161322,-1.193232 0,-0.658141 0.519873,-1.19323 1.161322,-1.19323 z m 6.393624,-4.627498 c 0.68137,0 1.299229,0.285258 1.745613,0.742973 0.445476,0.458647 0.723105,1.093486 0.723105,1.793577 0,0.701024 -0.277629,1.335857 -0.723105,1.794505 -0.446384,0.457715 -1.064243,0.742972 -1.745613,0.742972 -0.682277,0 -1.300137,-0.285257 -1.74652,-0.742972 -0.445476,-0.458648 -0.723104,-1.093481 -0.723104,-1.794505 0,-0.700091 0.277628,-1.33493 0.723104,-1.793577 0.446383,-0.457715 1.064243,-0.742973 1.74652,-0.742973 z m 0.906377,1.604335 a 1.2796321,1.3147909 0 0 0 -0.906377,-0.385936 c -0.354748,0 -0.675926,0.148222 -0.907283,0.385936 -0.232264,0.238648 -0.376522,0.568648 -0.376522,0.932215 0,0.364494 0.144258,0.694495 0.376522,0.932209 0.231357,0.238647 0.552535,0.386868 0.907283,0.386868 0.353841,0 0.675019,-0.148221 0.906377,-0.386868 0.232264,-0.237714 0.376522,-0.567715 0.376522,-0.932209 0,-0.363567 -0.144258,-0.693567 -0.376522,-0.932215 z"
     id="path2"
     inkscape:connector-curvature="0"
     style="fill-rule:nonzero;stroke-width:0.09196627" />
</svg>
