<?xml version="1.0" encoding="UTF-8" standalone="no"?>
<svg
   version="1.1"
   id="Layer_1"
   x="0px"
   y="0px"
   viewBox="0 0 48.000001 48.000001"
   xml:space="preserve"
   width="48"
   height="48"
   xmlns="http://www.w3.org/2000/svg"
   xmlns:svg="http://www.w3.org/2000/svg"
   xmlns:rdf="http://www.w3.org/1999/02/22-rdf-syntax-ns#"
   xmlns:cc="http://creativecommons.org/ns#"
   xmlns:dc="http://purl.org/dc/elements/1.1/"><metadata
     id="metadata11"><rdf:RDF><cc:Work
         rdf:about=""><dc:format>image/svg+xml</dc:format><dc:type
           rdf:resource="http://purl.org/dc/dcmitype/StillImage" /></cc:Work></rdf:RDF></metadata><defs
     id="defs9" /><g
     id="g4"
     transform="matrix(0.42685638,0,0,0.38723387,3.4499999e-8,0.20835103)"><polygon
       points="86.28,72.65 109.51,65.78 112.45,75.75 98.7,79.82 112.03,87.52 106.82,96.55 93.37,88.79 96.76,102.93 86.65,105.37 80.94,81.62 61.32,70.29 61.32,92.89 79.03,109.71 71.86,117.24 61.32,107.23 61.32,122.88 50.89,122.88 50.89,107.37 40.49,117.25 33.32,109.71 50.89,93.03 50.89,70.43 31.51,81.62 25.8,105.37 15.69,102.93 19.08,88.79 5.54,96.61 0.32,87.58 13.75,79.83 0,75.76 2.94,65.78 26.17,72.66 45.79,61.33 26.36,50.11 2.94,57.04 0,47.06 13.94,42.94 0.39,35.11 5.61,26.08 19.04,33.84 15.69,19.89 25.8,17.45 31.46,41.01 50.89,52.22 50.89,29.73 33.32,13.05 40.49,5.52 50.89,15.39 50.89,0 61.32,0 61.32,15.53 71.86,5.52 79.03,13.05 61.32,29.87 61.32,52.37 80.99,41.01 86.65,17.45 96.76,19.89 93.41,33.84 106.74,26.14 111.95,35.17 98.51,42.94 112.45,47.06 109.51,57.04 86.09,50.11 66.66,61.32 "
       id="polygon2" /></g></svg>
