<?xml version="1.0" encoding="UTF-8" standalone="no"?>
<svg
   xmlns:dc="http://purl.org/dc/elements/1.1/"
   xmlns:cc="http://creativecommons.org/ns#"
   xmlns:rdf="http://www.w3.org/1999/02/22-rdf-syntax-ns#"
   xmlns:svg="http://www.w3.org/2000/svg"
   xmlns="http://www.w3.org/2000/svg"
   xmlns:sodipodi="http://sodipodi.sourceforge.net/DTD/sodipodi-0.dtd"
   xmlns:inkscape="http://www.inkscape.org/namespaces/inkscape"
   version="1.1"
   id="Layer_1"
   x="0px"
   y="0px"
   width="48"
   height="48"
   viewBox="0 0 48.000001 48.000001"
   enable-background="new 0 0 122.881 122.88"
   xml:space="preserve"
   sodipodi:docname="RecommendedForWoodlandGarden.svg"
   inkscape:version="0.92.1 r15371"><metadata
     id="metadata11"><rdf:RDF><cc:Work
         rdf:about=""><dc:format>image/svg+xml</dc:format><dc:type
           rdf:resource="http://purl.org/dc/dcmitype/StillImage" /><dc:title></dc:title></cc:Work></rdf:RDF></metadata><defs
     id="defs9"><style
       id="style2">.cls-1{fill:#8c5d0f;fill-rule:evenodd;}.cls-2{fill:#56b320;}.cls-3{fill:#4da11d;}.cls-4{fill:#af7311;}</style><clipPath
       clipPathUnits="userSpaceOnUse"
       id="clipPath4562"><rect
         style="opacity:0.047;fill:#000000;fill-opacity:1;stroke:none;stroke-width:2.7266798;stroke-linejoin:round;stroke-miterlimit:4;stroke-dasharray:none;stroke-dashoffset:0;stroke-opacity:1"
         id="rect4564"
         width="62.481354"
         height="59.357292"
         x="-10.108215"
         y="-11.360672" /></clipPath><clipPath
       clipPathUnits="userSpaceOnUse"
       id="clipPath4566"><rect
         style="opacity:0.047;fill:#000000;fill-opacity:1;stroke:none;stroke-width:24.80889702;stroke-linejoin:round;stroke-miterlimit:4;stroke-dasharray:none;stroke-dashoffset:0;stroke-opacity:1"
         id="rect4568"
         width="558.62482"
         height="549.60535"
         x="-438.77048"
         y="-369.83447"
         transform="rotate(-44.408143)" /></clipPath><clipPath
       clipPathUnits="userSpaceOnUse"
       id="clipPath4570"><rect
         style="opacity:0.047;fill:#000000;fill-opacity:1;stroke:none;stroke-width:3.85702348;stroke-linejoin:round;stroke-miterlimit:4;stroke-dasharray:none;stroke-dashoffset:0;stroke-opacity:1"
         id="rect4572"
         width="84.645363"
         height="87.671333"
         x="39.639999"
         y="34.738667" /></clipPath></defs><sodipodi:namedview
     pagecolor="#ffffff"
     bordercolor="#666666"
     borderopacity="1"
     objecttolerance="10"
     gridtolerance="10"
     guidetolerance="10"
     inkscape:pageopacity="0"
     inkscape:pageshadow="2"
     inkscape:window-width="773"
     inkscape:window-height="705"
     id="namedview7"
     showgrid="false"
     inkscape:zoom="8.8669419"
     inkscape:cx="32.894024"
     inkscape:cy="26.38265"
     inkscape:window-x="585"
     inkscape:window-y="-8"
     inkscape:window-maximized="0"
     inkscape:current-layer="Layer_1" /><g
     id="g4528"
     transform="matrix(0.60242985,0,0,0.5879587,-25.607375,-23.975404)"
     clip-path="url(#clipPath4570)"
     style="fill:none;fill-opacity:1;stroke:#000000;stroke-opacity:1"><path
       style="fill:none;fill-opacity:0;fill-rule:evenodd;stroke:#000000;stroke-width:1.78545094;stroke-miterlimit:4;stroke-dasharray:none;stroke-opacity:1"
       d="m 2.9661974,19.642752 -0.2767443,6.640451 -4.9824219,-8.890625 -6.765625,1.751953 10.578125,12.929688 -3.2460937,15.921875 H 18.230469 L 14.869141,36.814453 28.079962,23.263904 c -2.906796,0.550115 -5.852588,-1.496787 -7.639445,-2.962562 l -7.078126,11.011719 0.776161,-9.104735 C 9.2096221,23.62398 5.566289,22.046374 2.9661974,19.642752 Z"
       transform="matrix(1.6599443,0,0,1.7007997,42.506816,40.777361)"
       id="polygon8"
       inkscape:connector-curvature="0"
       sodipodi:nodetypes="ccccccccccccc" /><path
       style="fill:none;fill-opacity:1;stroke:#000000;stroke-width:3;stroke-miterlimit:4;stroke-dasharray:none;stroke-opacity:1"
       id="path10"
       d="M 28.91,76 33,74.94 v 0 A 35.83,35.83 0 0 0 43.22,69.33 41.49,41.49 0 0 0 46,72.6 c 3.69,3.91 7.68,6.21 11.91,6.78 4.23,0.57 8.68,-0.61 13.18,-3.64 A 34.75,34.75 0 0 0 74,73.5 l 4.56,3.87 a 20.29,20.29 0 0 0 3.1,1.7 14,14 0 0 0 10.34,0.55 c 3.16,-1.1 9.85,-3.37 12.16,-6.61 a 34.2,34.2 0 0 0 5.31,-13.32 c 6.34,-3.5 10.25,-7.71 12.11,-12 a 14.71,14.71 0 0 0 0.87,-9.56 16.43,16.43 0 0 0 -5.12,-8.13 c -3.84,-3.42 -13.41,-5.81 -20.46,-6.32 -1,-1.82 -2,-7.38 -3.09,-9 C 88.55,7 82.64,2.65 76.34,1 70.04,-0.65 63.34,0.56 56.74,4 55.59,4.59 54.44,5.27 53.26,6 43.3,0.4 33.32,-1 25,0.64 19.78,1.64 11.32,5.81 7.77,8.91 4.22,12.01 1.64,18 0.56,22.7 -0.7,28.21 0.1,34.5 3.66,41.06 0.06,49.77 -0.18,57.39 1.86,63.3 a 19.3,19.3 0 0 0 6.81,9.38 c 3.07,2.24 10.67,3.53 14.8,3.71 A 24.17,24.17 0 0 0 28.91,76 Z m 0,0 z"
       class="cls-2"
       inkscape:connector-curvature="0" /><path
       style="opacity:1;fill:none;fill-opacity:1;stroke:#ffffff;stroke-width:0.83555192;stroke-linejoin:round;stroke-miterlimit:4;stroke-dasharray:none;stroke-dashoffset:0;stroke-opacity:1"
       d="m 34.598089,41.297935 c -0.319176,-0.319176 -0.202726,-1.205458 0.162469,-1.236514 0.19148,-0.01628 0.598812,-0.04762 0.905181,-0.06963 1.035435,-0.0744 0.632691,-0.869314 -0.487405,-0.962017 -0.803355,-0.06649 -1.04444,-0.206548 -1.04444,-0.60677 0,-0.286181 0.187999,-0.708327 0.417776,-0.938104 0.229777,-0.229777 0.417776,-0.652327 0.417776,-0.939001 0,-0.680205 0.524529,-1.187435 1.239402,-1.198525 0.314028,-0.0049 0.814247,-0.192871 1.111599,-0.417776 0.801113,-0.605932 1.269724,-0.499872 1.269724,0.287375 0,0.878277 0.762452,0.93821 0.88581,0.06963 0.13577,-0.955976 1.20307,-0.854521 1.20307,0.11436 0,0.558026 -0.64031,1.400585 -2.592853,3.411837 -2.435379,2.508603 -3.036421,2.936822 -3.488109,2.485134 z m 1.773528,-3.599514 c 0.153668,-0.404178 0.640615,-0.859765 1.107175,-1.035872 1.060431,-0.400268 1.08843,-1.027799 0.04586,-1.027799 -1.103759,0 -2.590369,1.773784 -2.121896,2.53179 0.284455,0.460258 0.69048,0.264081 0.968861,-0.468119 z"
       id="path4495"
       inkscape:connector-curvature="0"
       transform="matrix(1.6599443,0,0,1.7007997,42.506816,40.777361)" /></g><path
     id="path4576-5"
     d="m 43.031744,37.129052 c 0.656437,0 1.189701,0.46735 1.189701,1.042648 0,0.576568 -0.533264,1.042648 -1.189701,1.042648 -0.657886,0 -1.189702,-0.46735 -1.189702,-1.042648 0,-0.576568 0.531816,-1.042648 1.189702,-1.042648 z m 0,-3.922948 c 0.427481,0 0.817286,0.153667 1.098409,0.400042 0.281123,0.246375 0.456463,0.587998 0.456463,0.96264 v 0.313683 l 0.25359,-0.222245 v 0 c 0.302859,-0.265425 0.701359,-0.397502 1.098409,-0.397502 0.398499,0 0.796998,0.132077 1.098409,0.397502 v 0 0 c 0.302859,0.265424 0.453565,0.614667 0.453565,0.96264 0,0.347972 -0.150706,0.698485 -0.453565,0.962639 v 0 l -0.252141,0.223516 h 0.357924 c 0.427482,0 0.817287,0.153666 1.09841,0.400041 0.281123,0.246375 0.456463,0.587998 0.456463,0.96264 0,0.374642 -0.17534,0.716265 -0.456463,0.96264 -0.281123,0.246375 -0.670928,0.400041 -1.09841,0.400041 h -0.357924 l 0.25359,0.222246 v 0 c 0.302859,0.265424 0.453565,0.614667 0.453565,0.962639 0,0.349243 -0.150706,0.698486 -0.453565,0.96264 v 0 0 c -0.30286,0.265425 -0.701359,0.397502 -1.098409,0.397502 -0.273878,0 -0.547755,-0.0635 -0.791202,-0.189226 0.136214,0.708645 0.06956,1.433799 -0.07535,2.134825 0.355027,-0.463541 0.785406,-0.828023 1.276647,-1.101067 1.063631,-0.589267 2.395343,-0.735314 3.871964,-0.511799 0.247794,0.03683 0.415889,0.243835 0.372416,0.461 -0.0014,0.0064 -0.0029,0.01143 -0.0043,0.01651 v 0 c -0.291267,1.168375 -0.966542,2.078946 -2.01858,2.661863 -0.991177,0.548629 -2.302602,0.795004 -3.925581,0.678166 -0.05941,-0.0038 -0.114478,-0.01778 -0.163747,-0.03937 -0.06666,0.245105 -0.120274,0.4737 -0.150705,0.681976 -0.04057,0.273044 -0.04347,0.544818 -0.0087,0.817862 0.03478,0.274315 0.107233,0.243835 0.217363,0.5118 0.09274,0.226055 -0.02029,0.48386 -0.252141,0.575298 -0.233355,0.09144 -0.497089,-0.01905 -0.589831,-0.246374 -0.14201,-0.345433 -0.234752,-0.388612 -0.278225,-0.734045 -0.01159,-0.09525 -0.02029,-0.190496 -0.02463,-0.285744 -1.647613,-0.222245 -2.903973,-0.736584 -3.773426,-1.484599 -0.959296,-0.826752 -1.437496,-1.924009 -1.444741,-3.219381 0,-0.01143 0,-0.02286 0,-0.03429 0.01014,-0.219706 0.221711,-0.391152 0.472403,-0.383533 1.633122,0.06096 3.015553,0.48386 3.990789,1.325852 0.499935,0.431791 0.88974,0.96772 1.147678,1.615406 l 0.01304,-0.04318 c 0.255039,-0.858501 0.541959,-1.827491 0.507181,-2.738061 -0.05217,0.06604 -0.11158,0.128267 -0.176789,0.184146 -0.281123,0.246375 -0.670928,0.400042 -1.098409,0.400042 -0.427481,0 -0.817286,-0.153667 -1.098409,-0.400042 -0.281123,-0.246375 -0.456463,-0.587997 -0.456463,-0.96264 v -0.309873 l -0.25359,0.222245 v 0 c -0.30286,0.265425 -0.701359,0.397502 -1.098409,0.397502 -0.39705,0 -0.796999,-0.132077 -1.098409,-0.397502 v 0 c -0.30286,-0.265424 -0.453565,-0.614667 -0.453565,-0.96264 0,-0.347972 0.150705,-0.698485 0.453565,-0.963909 l 0.25359,-0.222246 h -0.357925 c -0.427481,0 -0.817285,-0.153666 -1.098408,-0.400041 -0.284022,-0.247645 -0.459361,-0.587998 -0.459361,-0.96264 0,-0.374642 0.175339,-0.716265 0.456462,-0.96264 0.281123,-0.246375 0.670928,-0.400041 1.098409,-0.400041 h 0.357925 l -0.25359,-0.222246 c -0.30286,-0.265424 -0.453565,-0.614667 -0.453565,-0.963909 0,-0.349243 0.150705,-0.698486 0.453565,-0.96264 v 0 c 0.302859,-0.265425 0.701358,-0.397502 1.098409,-0.397502 0.398499,0 0.796998,0.132077 1.098409,0.397502 v 0 l 0.25359,0.222245 v -0.313683 c 0,-0.374642 0.17534,-0.716265 0.456463,-0.96264 0.282572,-0.246375 0.672377,-0.400042 1.099858,-0.400042 z m -3.924131,10.016279 c 0.09274,0.895332 0.475301,1.654776 1.152025,2.237693 0.675275,0.581648 1.651961,0.999469 2.934404,1.214095 -0.12752,-1.042648 -0.547756,-1.830032 -1.194049,-2.38628 -0.708604,-0.610857 -1.704128,-0.95629 -2.89238,-1.065508 z m 8.978551,1.656046 c 0.708604,-0.392422 1.204193,-0.98296 1.483867,-1.736053 -1.054937,-0.09398 -1.989599,0.04699 -2.73443,0.459729 -0.676725,0.374643 -1.209989,0.98423 -1.551974,1.857971 1.154923,0.01651 2.091035,-0.187956 2.802537,-0.581647 z M 43.551967,34.112865 c -0.133317,-0.116837 -0.317351,-0.190496 -0.520223,-0.190496 -0.202873,0 -0.386907,0.07239 -0.520223,0.190496 -0.133316,0.116838 -0.217363,0.278125 -0.217363,0.455921 v 1.178535 0 c 0,0.09144 -0.04057,0.182876 -0.120274,0.252725 -0.1594,0.139697 -0.418787,0.139697 -0.578187,0 l -0.950602,-0.833103 v 0 c -0.143459,-0.125727 -0.331841,-0.187956 -0.521671,-0.187956 -0.189831,0 -0.378212,0.06223 -0.521672,0.187956 v 0 c -0.14346,0.125728 -0.214465,0.290824 -0.214465,0.457191 0,0.166366 0.071,0.331463 0.214465,0.45719 l 0.949153,0.831833 c 0.07535,0.06477 0.121723,0.154936 0.121723,0.255264 0,0.198116 -0.182585,0.358133 -0.408643,0.358133 h -1.344754 c -0.202872,0 -0.386906,0.07239 -0.520222,0.190496 -0.133317,0.116837 -0.217364,0.278124 -0.217364,0.45592 0,0.177796 0.0826,0.339083 0.217364,0.45592 0.133316,0.116838 0.31735,0.190496 0.520222,0.190496 h 1.344754 v 0 c 0.104335,0 0.208669,0.03556 0.288369,0.105408 0.159399,0.139697 0.159399,0.367023 0,0.50672 l -0.950602,0.833102 c -0.14346,0.125727 -0.214465,0.290824 -0.214465,0.45719 0,0.166367 0.071,0.331463 0.214465,0.457191 v 0 c 0.14346,0.125727 0.331841,0.187956 0.521672,0.187956 0.18983,0 0.378212,-0.06223 0.521671,-0.187956 v 0 l 0.947704,-0.830563 c 0.0739,-0.06604 0.178238,-0.107947 0.292716,-0.107947 0.226058,0 0.408643,0.160016 0.408643,0.358132 v 1.178535 c 0,0.177797 0.0826,0.339083 0.217363,0.455921 0.133316,0.116837 0.31735,0.190496 0.520223,0.190496 0.202872,0 0.386906,-0.07239 0.520223,-0.190496 0.133316,-0.116838 0.217363,-0.278124 0.217363,-0.455921 v -1.178535 0 c 0,-0.09144 0.04057,-0.182876 0.120274,-0.252725 0.1594,-0.139697 0.418787,-0.139697 0.578186,0 l 0.950602,0.833103 v 0 c 0.14346,0.125727 0.331841,0.187956 0.521672,0.187956 0.189831,0 0.378212,-0.06223 0.521672,-0.187956 v 0 0 c 0.14346,-0.125728 0.214465,-0.290824 0.214465,-0.457191 0,-0.166366 -0.071,-0.331463 -0.214465,-0.45719 v 0 l -0.949153,-0.831832 c -0.07535,-0.06477 -0.121723,-0.154937 -0.121723,-0.255265 0,-0.198116 0.182585,-0.358133 0.408642,-0.358133 h 1.344754 c 0.202873,0 0.386907,-0.07239 0.520224,-0.190496 0.133316,-0.116837 0.217363,-0.278124 0.217363,-0.45592 0,-0.177796 -0.0826,-0.339083 -0.217363,-0.45592 -0.133317,-0.116838 -0.317351,-0.190496 -0.520224,-0.190496 h -1.344754 v 0 c -0.104334,0 -0.208668,-0.03556 -0.288368,-0.105408 -0.1594,-0.139697 -0.1594,-0.367022 0,-0.50672 l 0.950602,-0.833102 v 0 c 0.14346,-0.125727 0.214465,-0.290824 0.214465,-0.45719 0,-0.166367 -0.071,-0.331463 -0.214465,-0.457191 v 0 0 c -0.14346,-0.125727 -0.331841,-0.187956 -0.521672,-0.187956 -0.189831,0 -0.378212,0.06223 -0.521672,0.187956 v 0 l -0.949153,0.831833 c -0.0739,0.06604 -0.176788,0.106677 -0.291266,0.106677 -0.226058,0 -0.408643,-0.160016 -0.408643,-0.358132 v -1.178535 c -0.0014,-0.177796 -0.08405,-0.339083 -0.217363,-0.455921 z"
     class="st0"
     inkscape:connector-curvature="0"
     style="clip-rule:evenodd;fill:#000000;fill-opacity:1;fill-rule:evenodd;stroke-width:0.13565779" /><path
     id="path4576-5-8"
     d="m 29.723886,35.662932 c 0.656437,0 1.189702,0.46735 1.189702,1.042648 0,0.576568 -0.533265,1.042648 -1.189702,1.042648 -0.657886,0 -1.189701,-0.46735 -1.189701,-1.042648 0,-0.576568 0.531815,-1.042648 1.189701,-1.042648 z m 0,-3.922948 c 0.427481,0 0.817286,0.153667 1.098409,0.400042 0.281123,0.246375 0.456463,0.587998 0.456463,0.96264 v 0.313683 l 0.253591,-0.222245 v 0 c 0.302859,-0.265425 0.701358,-0.397502 1.098409,-0.397502 0.398499,0 0.796998,0.132077 1.098408,0.397502 v 0 0 c 0.30286,0.265424 0.453565,0.614667 0.453565,0.962639 0,0.347973 -0.150705,0.698486 -0.453565,0.96264 v 0 l -0.252141,0.223516 h 0.357925 c 0.427481,0 0.817286,0.153666 1.098409,0.400041 0.281123,0.246375 0.456463,0.587998 0.456463,0.96264 0,0.374642 -0.17534,0.716265 -0.456463,0.96264 -0.281123,0.246374 -0.670928,0.400041 -1.098409,0.400041 h -0.357925 l 0.253591,0.222246 v 0 c 0.302859,0.265424 0.453564,0.614667 0.453564,0.962639 0,0.349243 -0.150705,0.698486 -0.453564,0.96264 v 0 0 c -0.30286,0.265424 -0.701359,0.397502 -1.098409,0.397502 -0.273878,0 -0.547756,-0.0635 -0.791203,-0.189226 0.136215,0.708645 0.06956,1.433799 -0.07535,2.134825 0.355027,-0.463541 0.785407,-0.828023 1.276648,-1.101067 1.06363,-0.589268 2.395342,-0.735315 3.871963,-0.511799 0.247794,0.03683 0.415889,0.243835 0.372416,0.461 -0.0014,0.0063 -0.0029,0.01143 -0.0043,0.01651 v 0 c -0.291267,1.168375 -0.966542,2.078946 -2.01858,2.661863 -0.991177,0.548629 -2.302601,0.795004 -3.92558,0.678166 -0.05941,-0.0038 -0.114478,-0.01778 -0.163747,-0.03937 -0.06666,0.245105 -0.120275,0.4737 -0.150705,0.681976 -0.04057,0.273044 -0.04347,0.544818 -0.0087,0.817862 0.03478,0.274315 0.107232,0.243835 0.217363,0.5118 0.09274,0.226055 -0.02029,0.48386 -0.252141,0.575298 -0.233355,0.09144 -0.497089,-0.01905 -0.589831,-0.246374 -0.142011,-0.345433 -0.234752,-0.388612 -0.278225,-0.734045 -0.01159,-0.09525 -0.02029,-0.190496 -0.02463,-0.285744 -1.647614,-0.222245 -2.903973,-0.736584 -3.773426,-1.484599 -0.959297,-0.826752 -1.437496,-1.924009 -1.444741,-3.219382 0,-0.01143 0,-0.02286 0,-0.03429 0.01014,-0.219705 0.22171,-0.391152 0.472402,-0.383532 1.633123,0.06096 3.015553,0.48386 3.99079,1.325852 0.499935,0.431791 0.88974,0.96772 1.147677,1.615406 l 0.01304,-0.04318 c 0.25504,-0.858501 0.541959,-1.827491 0.507181,-2.738061 -0.05217,0.06604 -0.11158,0.128267 -0.176789,0.184146 -0.281123,0.246375 -0.670927,0.400042 -1.098409,0.400042 -0.427481,0 -0.817285,-0.153667 -1.098408,-0.400042 -0.281124,-0.246375 -0.456463,-0.587998 -0.456463,-0.96264 V 39.99481 l -0.253591,0.222245 v 0 c -0.302859,0.265424 -0.701358,0.397502 -1.098409,0.397502 -0.39705,0 -0.796998,-0.132078 -1.098409,-0.397502 v 0 c -0.302859,-0.265424 -0.453564,-0.614667 -0.453564,-0.96264 0,-0.347972 0.150705,-0.698485 0.453564,-0.963909 l 0.253591,-0.222246 h -0.35792 c -0.427481,0 -0.817286,-0.153667 -1.098409,-0.400041 -0.284021,-0.247645 -0.459361,-0.587998 -0.459361,-0.96264 0,-0.374642 0.17534,-0.716265 0.456463,-0.96264 0.281123,-0.246375 0.670928,-0.400041 1.098409,-0.400041 h 0.357925 l -0.253591,-0.222246 c -0.302859,-0.265424 -0.453564,-0.614667 -0.453564,-0.96391 0,-0.349242 0.150705,-0.698485 0.453564,-0.962639 v 0 c 0.30286,-0.265425 0.701359,-0.397502 1.098409,-0.397502 0.398499,0 0.796999,0.132077 1.098409,0.397502 v 0 l 0.253591,0.222245 v -0.313683 c 0,-0.374642 0.175339,-0.716265 0.456462,-0.96264 0.282573,-0.246375 0.672377,-0.400042 1.099858,-0.400042 z m -3.924131,10.016279 c 0.09274,0.895332 0.475301,1.654776 1.152025,2.237693 0.675276,0.581648 1.651961,0.999469 2.934404,1.214095 -0.127519,-1.042648 -0.547755,-1.830032 -1.194048,-2.38628 -0.708605,-0.610857 -1.704128,-0.95629 -2.892381,-1.065508 z m 8.978551,1.656046 c 0.708604,-0.392422 1.204193,-0.98296 1.483867,-1.736054 -1.054937,-0.09398 -1.989599,0.04699 -2.73443,0.45973 -0.676724,0.374643 -1.209989,0.98423 -1.551973,1.857971 1.154923,0.01651 2.091034,-0.187956 2.802536,-0.581647 z M 30.244109,32.646745 c -0.133316,-0.116837 -0.31735,-0.190496 -0.520223,-0.190496 -0.202872,0 -0.386906,0.07239 -0.520222,0.190496 -0.133316,0.116838 -0.217364,0.278124 -0.217364,0.455921 v 1.178535 0 c 0,0.09144 -0.04057,0.182876 -0.120274,0.252725 -0.1594,0.139697 -0.418786,0.139697 -0.578186,0 l -0.950602,-0.833103 v 0 c -0.14346,-0.125727 -0.331841,-0.187956 -0.521672,-0.187956 -0.18983,0 -0.378212,0.06223 -0.521672,0.187956 v 0 c -0.143459,0.125727 -0.214465,0.290824 -0.214465,0.45719 0,0.166367 0.071,0.331463 0.214465,0.457191 l 0.949153,0.831832 c 0.07535,0.06477 0.121724,0.154937 0.121724,0.255265 0,0.198116 -0.182585,0.358132 -0.408643,0.358132 h -1.344754 c -0.202873,0 -0.386907,0.07239 -0.520223,0.190496 -0.133316,0.116838 -0.217363,0.278125 -0.217363,0.455921 0,0.177796 0.0826,0.339083 0.217363,0.45592 0.133316,0.116838 0.31735,0.190496 0.520223,0.190496 h 1.344754 v 0 c 0.104334,0 0.208668,0.03556 0.288368,0.105408 0.1594,0.139697 0.1594,0.367022 0,0.506719 l -0.950602,0.833103 c -0.143459,0.125727 -0.214465,0.290824 -0.214465,0.45719 0,0.166367 0.071,0.331463 0.214465,0.457191 v 0 c 0.14346,0.125727 0.331842,0.187956 0.521672,0.187956 0.189831,0 0.378212,-0.06223 0.521672,-0.187956 v 0 l 0.947704,-0.830563 c 0.0739,-0.06604 0.178238,-0.107948 0.292716,-0.107948 0.226057,0 0.408642,0.160017 0.408642,0.358133 v 1.178535 c 0,0.177796 0.0826,0.339083 0.217364,0.45592 0.133316,0.116838 0.31735,0.190496 0.520222,0.190496 0.202873,0 0.386907,-0.07239 0.520223,-0.190496 0.133316,-0.116837 0.217363,-0.278124 0.217363,-0.45592 v -1.178535 0 c 0,-0.09144 0.04057,-0.182876 0.120275,-0.252725 0.159399,-0.139697 0.418786,-0.139697 0.578186,0 l 0.950602,0.833103 v 0 c 0.14346,0.125727 0.331841,0.187956 0.521672,0.187956 0.18983,0 0.378212,-0.06223 0.521671,-0.187956 v 0 0 c 0.14346,-0.125728 0.214465,-0.290824 0.214465,-0.457191 0,-0.166366 -0.071,-0.331463 -0.214465,-0.45719 v 0 l -0.949152,-0.831833 c -0.07535,-0.06477 -0.121724,-0.154936 -0.121724,-0.255264 0,-0.198116 0.182585,-0.358133 0.408643,-0.358133 h 1.344754 c 0.202872,0 0.386906,-0.07239 0.520223,-0.190496 0.133316,-0.116837 0.217363,-0.278124 0.217363,-0.45592 0,-0.177796 -0.0826,-0.339083 -0.217363,-0.455921 -0.133317,-0.116837 -0.317351,-0.190496 -0.520223,-0.190496 h -1.344754 v 0 c -0.104334,0 -0.208669,-0.03556 -0.288369,-0.105407 -0.159399,-0.139697 -0.159399,-0.367023 0,-0.50672 l 0.950602,-0.833102 v 0 c 0.14346,-0.125728 0.214465,-0.290824 0.214465,-0.457191 0,-0.166366 -0.071,-0.331463 -0.214465,-0.45719 v 0 0 c -0.143459,-0.125727 -0.331841,-0.187956 -0.521671,-0.187956 -0.189831,0 -0.378212,0.06223 -0.521672,0.187956 v 0 l -0.949153,0.831833 c -0.0739,0.06604 -0.176789,0.106677 -0.291267,0.106677 -0.226058,0 -0.408643,-0.160016 -0.408643,-0.358132 v -1.178535 c -0.0014,-0.177797 -0.08405,-0.339083 -0.217363,-0.455921 z"
     class="st0"
     inkscape:connector-curvature="0"
     style="clip-rule:evenodd;fill:#000000;fill-opacity:1;fill-rule:evenodd;stroke-width:0.13565779" /></svg>
