<?xml version="1.0" encoding="UTF-8" standalone="no"?>
<!-- Created with Inkscape (http://www.inkscape.org/) -->

<svg
   width="48"
   height="48"
   viewBox="0 0 48 48"
   version="1.1"
   id="svg1"
   inkscape:version="1.3.2 (091e20e, 2023-11-25)"
   sodipodi:docname="moisture-wet.svg"
   xmlns:inkscape="http://www.inkscape.org/namespaces/inkscape"
   xmlns:sodipodi="http://sodipodi.sourceforge.net/DTD/sodipodi-0.dtd"
   xmlns="http://www.w3.org/2000/svg"
   xmlns:svg="http://www.w3.org/2000/svg">
  <sodipodi:namedview
     id="namedview1"
     pagecolor="#505050"
     bordercolor="#0834ee"
     borderopacity="1"
     inkscape:showpageshadow="0"
     inkscape:pageopacity="0"
     inkscape:pagecheckerboard="0"
     inkscape:deskcolor="#d1d1d1"
     inkscape:document-units="px"
     inkscape:zoom="5.5400366"
     inkscape:cx="-16.064876"
     inkscape:cy="23.10454"
     inkscape:window-width="1728"
     inkscape:window-height="1051"
     inkscape:window-x="0"
     inkscape:window-y="38"
     inkscape:window-maximized="1"
     inkscape:current-layer="layer1" />
  <defs
     id="defs1" />
  <g
     inkscape:label="Layer 1"
     inkscape:groupmode="layer"
     id="layer1">
    <path
       d="m 8.3490063,23.710975 c 0.9138172,4.388629 2.1640207,6.120611 3.5275527,8.008389 0.881438,1.222101 1.809647,2.506922 2.73246,4.546453 0.235637,0.522021 0.429923,1.062254 0.564839,1.630815 0.1367,0.574628 0.21407,1.171514 0.21407,1.794706 0,1.149257 -0.187091,2.223652 -0.559444,3.221162 -0.372377,0.993459 -0.928208,1.901939 -1.667535,2.723418 -0.74113,0.819455 -1.55601,1.438594 -2.446444,1.853384 -0.8922299,0.414782 -1.8528177,0.623188 -2.8799636,0.623188 -1.0271459,0 -1.9859338,-0.208418 -2.8763677,-0.623188 C 4.0713397,47.07654 3.2582595,46.457395 2.5171291,45.635918 1.7778027,44.814439 1.2201551,43.905959 0.84779399,42.9125 0.473653,41.91499 0.28655044,40.840595 0.28655044,39.691338 c 0,-0.588796 0.06835,-1.153309 0.19065837,-1.697587 0.12054451,-0.534162 0.29500734,-1.048092 0.51087703,-1.54988 0.90302556,-2.100231 1.85101776,-3.407309 2.76303916,-4.66785 1.3689279,-1.889804 2.660502,-3.670346 3.5599317,-8.063023 0.064742,-0.32171 0.3507697,-0.522024 0.6367933,-0.449181 0.2068539,0.05463 0.3561816,0.232686 0.4011443,0.447158 z M 3.9777904,37.597176 c 0.3777489,-0.03844 0.7105472,0.275172 0.7429302,0.698054 0.086349,1.023812 0.2860277,1.966689 0.6655725,2.780072 0.3669653,0.785058 0.9138172,1.462877 1.705314,1.982875 0.3255945,0.214466 0.4353233,0.687938 0.2446569,1.054163 C 7.1456056,44.478564 6.7246539,44.60199 6.4008594,44.387512 5.3701176,43.709694 4.6577705,42.827513 4.1738767,41.793588 3.6881869,40.753589 3.4561337,39.596235 3.3572006,38.434836 3.3231259,38.011958 3.6036615,37.635617 3.9778024,37.597173 Z m 7.0748926,-5.123105 c -1.2016327,-1.66521 -2.3205199,-3.213068 -3.2199496,-6.361388 -0.9030215,3.168554 -2.0506919,4.754854 -3.2559245,6.418042 -0.8742424,1.205913 -1.780864,2.456339 -2.6299231,4.433143 -0.1834827,0.424904 -0.3327703,0.865994 -0.4353233,1.325291 -0.100741,0.449184 -0.1583074,0.914551 -0.1583074,1.402179 0,0.995481 0.1583074,1.914081 0.4730982,2.757814 0.3166147,0.845757 0.7968926,1.624744 1.4354861,2.334937 0.6421932,0.712217 1.3437446,1.24638 2.1046583,1.600464 0.7573178,0.35206 1.5793937,0.530116 2.4680276,0.530116 0.8922339,0 1.7179057,-0.178071 2.4770237,-0.530116 0.759113,-0.354085 1.462465,-0.888247 2.104658,-1.600464 0.638593,-0.710193 1.117087,-1.48918 1.433686,-2.334937 0.314811,-0.841711 0.473098,-1.760307 0.473098,-2.757814 0,-0.520001 -0.06294,-1.011674 -0.176307,-1.485135 -0.115132,-0.479531 -0.280615,-0.942879 -0.485689,-1.396108 -0.877843,-1.93836 -1.764677,-3.166531 -2.60834,-4.336024 z"
       id="path2-2-4"
       inkscape:connector-curvature="0"
       style="stroke-width:0.120193" />
    <path
       d="m 24.431673,1.7109752 c 0.913817,4.3886318 2.16402,6.1206138 3.527552,8.0083918 0.881439,1.222098 1.809647,2.506922 2.73246,4.54645 0.235637,0.522024 0.429924,1.062257 0.56484,1.630815 0.1367,0.574631 0.21407,1.171514 0.21407,1.794706 0,1.149257 -0.187091,2.223652 -0.559444,3.221162 -0.372377,0.993462 -0.928209,1.901942 -1.667535,2.723418 -0.74113,0.819455 -1.556011,1.438598 -2.446444,1.853384 -0.89223,0.414782 -1.852818,0.623188 -2.879964,0.623188 -1.027146,0 -1.985934,-0.208378 -2.876368,-0.623188 C 20.154006,25.07654 19.340926,24.457395 18.599796,23.635918 17.86047,22.814442 17.302822,21.905962 16.930461,20.9125 16.55632,19.91499 16.369217,18.840595 16.369217,17.691338 c 0,-0.588793 0.06835,-1.153306 0.190659,-1.697587 0.120544,-0.534162 0.295007,-1.048089 0.510877,-1.549878 0.903021,-2.10023 1.851017,-3.407311 2.763039,-4.667852 1.368927,-1.889804 2.660502,-3.670344 3.559931,-8.0630234 0.06474,-0.3217099 0.35077,-0.5220206 0.636794,-0.4491808 0.206854,0.054632 0.356181,0.2326866 0.401144,0.4471584 z M 20.060457,15.597179 c 0.377749,-0.03844 0.710547,0.275172 0.742926,0.698051 0.08635,1.023812 0.286028,1.966689 0.665577,2.780075 0.366965,0.785057 0.913817,1.462877 1.705314,1.982875 0.325594,0.214466 0.435323,0.687935 0.244657,1.05416 -0.190699,0.366228 -0.61161,0.48965 -0.935405,0.275172 -1.030742,-0.67782 -1.743089,-1.559997 -2.226983,-2.593926 -0.485689,-1.039999 -0.717743,-2.197349 -0.816676,-3.358748 -0.03407,-0.422879 0.246461,-0.799219 0.620602,-0.837663 z M 27.13535,10.474074 C 25.933717,8.808861 24.81483,7.261006 23.9154,4.112683 c -0.903022,3.168554 -2.050692,4.754857 -3.255925,6.418045 -0.874242,1.20591 -1.780863,2.456339 -2.629922,4.433143 -0.183483,0.424901 -0.332771,0.865991 -0.435324,1.325288 -0.100741,0.449184 -0.158307,0.914554 -0.158307,1.402179 0,0.995484 0.158307,1.914081 0.473098,2.757814 0.316615,0.84576 0.796893,1.624747 1.435486,2.334939 0.642189,0.712215 1.343745,1.246381 2.104658,1.600465 0.757318,0.35206 1.579394,0.530117 2.468028,0.530117 0.892234,0 1.717906,-0.178071 2.477023,-0.530117 0.759114,-0.354085 1.462465,-0.88825 2.104659,-1.600465 0.638593,-0.710192 1.117087,-1.489179 1.433686,-2.334939 0.31481,-0.841708 0.473098,-1.760307 0.473098,-2.757814 0,-0.519998 -0.06294,-1.011674 -0.176307,-1.485135 -0.115133,-0.479531 -0.280616,-0.942876 -0.48569,-1.396105 -0.877842,-1.938363 -1.764676,-3.166531 -2.608339,-4.336024 z"
       id="path3"
       inkscape:connector-curvature="0"
       style="stroke-width:0.120193" />
    <path
       d="m 40.961078,23.710975 c 0.913817,4.388632 2.16402,6.120611 3.527552,8.008392 0.881439,1.222098 1.809647,2.506922 2.73246,4.54645 0.235637,0.522024 0.429924,1.062257 0.56484,1.630815 0.1367,0.574631 0.214069,1.171514 0.214069,1.794706 0,1.149257 -0.18709,2.223652 -0.559443,3.221162 -0.372377,0.993462 -0.928209,1.901942 -1.667535,2.723418 -0.741131,0.819455 -1.556011,1.438598 -2.446445,1.853384 -0.892229,0.414782 -1.852817,0.623188 -2.879963,0.623188 -1.027146,0 -1.985932,-0.208378 -2.876366,-0.623188 -0.886834,-0.412762 -1.699918,-1.031907 -2.441044,-1.853384 -0.739327,-0.821476 -1.296974,-1.729956 -1.669335,-2.723418 -0.374141,-0.99751 -0.561244,-2.071905 -0.561244,-3.221162 0,-0.588793 0.06835,-1.153306 0.190699,-1.697587 0.120504,-0.534162 0.295007,-1.048089 0.510877,-1.549878 0.903021,-2.10023 1.851017,-3.407311 2.763039,-4.667852 1.368927,-1.889804 2.660506,-3.670346 3.559929,-8.063023 0.06474,-0.32171 0.35077,-0.522021 0.636794,-0.449181 0.206853,0.05463 0.356181,0.232686 0.401144,0.447158 z m -4.371214,13.886204 c 0.377749,-0.03844 0.710547,0.275172 0.742926,0.698051 0.08635,1.023812 0.286028,1.966689 0.665577,2.780075 0.366965,0.785057 0.913817,1.462877 1.705312,1.982875 0.325594,0.214466 0.435323,0.687935 0.244656,1.05416 -0.190698,0.366228 -0.61161,0.48965 -0.935402,0.275172 -1.030742,-0.67782 -1.743089,-1.559997 -2.226983,-2.593926 -0.48569,-1.039999 -0.717743,-2.197349 -0.816676,-3.358748 -0.03408,-0.422879 0.246421,-0.799219 0.620602,-0.837663 z m 7.07489,-5.123105 c -1.201632,-1.665213 -2.320519,-3.213068 -3.219945,-6.361391 -0.903026,3.168554 -2.050694,4.754857 -3.255927,6.418045 -0.874242,1.20591 -1.780863,2.456336 -2.629923,4.433143 -0.183482,0.424901 -0.33277,0.865991 -0.435323,1.325288 -0.100741,0.449184 -0.158307,0.914554 -0.158307,1.402179 0,0.995484 0.158307,1.914081 0.473098,2.757814 0.316615,0.84576 0.796893,1.624747 1.435486,2.334939 0.642189,0.712215 1.343744,1.246381 2.104658,1.600465 0.757318,0.35206 1.579392,0.530117 2.468026,0.530117 0.892234,0 1.717905,-0.178071 2.477023,-0.530117 0.759114,-0.354085 1.462465,-0.88825 2.104659,-1.600465 0.638593,-0.710192 1.117087,-1.489179 1.433685,-2.334939 0.314811,-0.841708 0.473099,-1.760307 0.473099,-2.757814 0,-0.519998 -0.06294,-1.011674 -0.176307,-1.485135 -0.115133,-0.479531 -0.280616,-0.942876 -0.48569,-1.396105 -0.877842,-1.938363 -1.764676,-3.166531 -2.60834,-4.336024 z"
       id="path4"
       inkscape:connector-curvature="0"
       style="stroke-width:0.120193" />
  </g>
</svg>
