<?xml version="1.0" encoding="UTF-8" standalone="no"?>
<svg
   xmlns:dc="http://purl.org/dc/elements/1.1/"
   xmlns:cc="http://creativecommons.org/ns#"
   xmlns:rdf="http://www.w3.org/1999/02/22-rdf-syntax-ns#"
   xmlns:svg="http://www.w3.org/2000/svg"
   xmlns="http://www.w3.org/2000/svg"
   xmlns:sodipodi="http://sodipodi.sourceforge.net/DTD/sodipodi-0.dtd"
   xmlns:inkscape="http://www.inkscape.org/namespaces/inkscape"
   version="1.1"
   id="Layer_1"
   x="0px"
   y="0px"
   viewBox="0 0 48 48.000001"
   xml:space="preserve"
   sodipodi:docname="SepticTankSafe.svg"
   width="48"
   height="48"
   inkscape:version="0.92.1 r15371"><metadata
     id="metadata11"><rdf:RDF><cc:Work
         rdf:about=""><dc:format>image/svg+xml</dc:format><dc:type
           rdf:resource="http://purl.org/dc/dcmitype/StillImage" /><dc:title></dc:title></cc:Work></rdf:RDF></metadata><defs
     id="defs9" /><sodipodi:namedview
     pagecolor="#ffffff"
     bordercolor="#666666"
     borderopacity="1"
     objecttolerance="10"
     gridtolerance="10"
     guidetolerance="10"
     inkscape:pageopacity="0"
     inkscape:pageshadow="2"
     inkscape:window-width="640"
     inkscape:window-height="480"
     id="namedview7"
     showgrid="false"
     inkscape:zoom="1.920573"
     inkscape:cx="39.978136"
     inkscape:cy="61.439999"
     inkscape:window-x="0"
     inkscape:window-y="0"
     inkscape:window-maximized="0"
     inkscape:current-layer="g4" /><g
     id="g4"
     transform="translate(0,-74.879997)"><path
       d="m 14.875288,85.199639 c 0,-0.367998 0.337245,-0.663126 0.748519,-0.663126 0.415386,0 0.748518,0.298771 0.748518,0.663126 v 12.143954 c 0,0.367999 -0.337245,0.663127 -0.748518,0.663127 H 6.7485183 C 6.3372445,98.01036 6,97.711592 6,97.347237 V 77.529965 c 0,-0.38986 0.1809605,-0.746928 0.4729649,-1.009264 l 0.00411,-0.0036 C 6.7731947,76.262009 7.1721303,76.101693 7.616306,76.101693 h 7.143826 c 0.440063,0 0.847224,0.160316 1.139228,0.422652 v 0 c 0.292004,0.258692 0.472965,0.61576 0.472965,1.009264 v 1.68332 c 0,0.367999 -0.337245,0.663126 -0.748518,0.663126 -0.415387,0 -0.748519,-0.298771 -0.748519,-0.663126 v -1.686964 c 0,-0.02551 -0.01234,-0.05101 -0.0329,-0.07287 v 0 0 c -0.02056,-0.01822 -0.04935,-0.02915 -0.08225,-0.02915 H 7.616306 c -0.032902,0 -0.061691,0.01093 -0.082255,0.02915 l -0.00411,0.0036 c -0.020564,0.01822 -0.032902,0.04372 -0.032902,0.07287 v 19.150546 h 7.378249 z m -0.0041,27.293841 -8.7848085,-14.840185 c -0.189186,-0.324276 -0.049353,-0.721423 0.3166808,-0.89267 0.1110439,-0.05101 0.2303133,-0.07651 0.34547,-0.07651 v -0.0036 H 45.626229 c 0.415386,0 0.748518,0.298771 0.748518,0.663126 0,0.0255 0,0.05101 -0.0041,0.07652 -0.209749,7.921079 -4.593928,10.150929 -8.283054,12.023719 -2.155074,1.0967 -4.042821,2.05496 -4.396516,4.08442 l -0.0041,0.0182 c -0.13572,0.7943 -0.06169,1.70518 0.222088,2.73631 0.296117,1.07485 0.818435,2.28451 1.579291,3.62898 0.185073,0.32792 0.0329,0.72506 -0.337244,0.88902 -0.106932,0.0474 -0.222088,0.0692 -0.333132,0.0692 H 11.350672 c -0.415387,0 -0.748518,-0.29877 -0.748518,-0.66313 0,-0.12752 0.04113,-0.24776 0.115156,-0.34978 z M 7.9864644,98.01036 16.372337,112.18013 c 0.106931,0.18218 0.115156,0.40444 0.0041,0.60119 l -3.81662,6.76607 h 21.073668 c -0.534656,-1.05299 -0.925366,-2.03674 -1.176243,-2.94763 -0.333131,-1.20966 -0.415386,-2.29179 -0.250877,-3.2464 l 0.0041,-0.0219 c 0.464739,-2.65979 2.64449,-3.76743 5.132697,-5.03174 3.257288,-1.65417 7.110923,-3.6144 7.509859,-10.28574 H 7.9864524 Z m 7.7237216,15.13896 c -0.415387,0 -0.748518,-0.29877 -0.748518,-0.66313 0,-0.368 0.337244,-0.66313 0.748518,-0.66313 h 8.180235 c 0.415387,0 0.748519,0.29877 0.748519,0.66313 0,0.368 -0.337245,0.66313 -0.748519,0.66313 z m 0.658038,-15.703707 c -0.06169,0.360711 -0.444176,0.612117 -0.851337,0.557467 -0.407161,-0.05466 -0.69094,-0.393507 -0.629249,-0.754219 0.11927,-0.684987 0.312568,-1.304391 0.584009,-1.84728 0.283779,-0.56475 0.649813,-1.042056 1.098101,-1.431915 1.455909,-1.260669 3.306641,-1.231521 5.075119,-1.202372 0.156284,0.0036 0.308455,0.0036 0.707391,0.0036 h 16.023226 c 3.80017,-0.02186 8.011613,-0.04737 7.99105,4.736616 0,0.364355 -0.333132,0.65949 -0.744406,0.65949 -0.411274,0 -0.744406,-0.295135 -0.744406,-0.65949 0.01645,-3.454086 -3.405346,-3.432224 -6.4899,-3.414007 -0.464739,0.0036 -0.452401,0.0073 -0.727954,0.0073 h -15.30351 l -0.732067,-0.01093 c -1.464135,-0.02186 -2.998186,-0.04737 -4.009919,0.830729 -0.316681,0.273267 -0.571671,0.612117 -0.777308,1.016551 -0.213862,0.422652 -0.370146,0.925462 -0.468852,1.50843 z M 12.304827,80.171539 c 1.163905,0 2.105722,0.834373 2.105722,1.865498 0,1.031125 -0.941817,1.865498 -2.105722,1.865498 -1.163905,0 -2.105722,-0.834373 -2.105722,-1.865498 0,-1.031125 0.94593,-1.865498 2.105722,-1.865498 z m 2.105722,2.528624 c -0.415387,0 -0.748518,-0.298771 -0.748518,-0.663126 0,-0.367998 0.337244,-0.663126 0.748518,-0.663126 h 5.050442 c 0.415386,0 0.748518,0.298771 0.748518,0.663126 0,0.367999 -0.337244,0.663126 -0.748518,0.663126 z"
       id="path2"
       inkscape:connector-curvature="0"
       style="stroke-width:0.38710424" /></g></svg>
