<?xml version="1.0" encoding="UTF-8" standalone="no"?>
<!-- Created with Inkscape (http://www.inkscape.org/) -->

<svg
   width="48.000004"
   height="48"
   viewBox="0 0 12.700001 12.700001"
   version="1.1"
   id="svg1"
   sodipodi:docname="plant-deer-tolerant.svg"
   inkscape:version="1.3.2 (091e20e, 2023-11-25)"
   xmlns:inkscape="http://www.inkscape.org/namespaces/inkscape"
   xmlns:sodipodi="http://sodipodi.sourceforge.net/DTD/sodipodi-0.dtd"
   xmlns="http://www.w3.org/2000/svg"
   xmlns:svg="http://www.w3.org/2000/svg">
  <sodipodi:namedview
     id="namedview1"
     pagecolor="#505050"
     bordercolor="#eeeeee"
     borderopacity="1"
     inkscape:showpageshadow="0"
     inkscape:pageopacity="0"
     inkscape:pagecheckerboard="0"
     inkscape:deskcolor="#d1d1d1"
     inkscape:document-units="px"
     inkscape:zoom="13.633885"
     inkscape:cx="28.751892"
     inkscape:cy="2.8605199"
     inkscape:window-width="2560"
     inkscape:window-height="1547"
     inkscape:window-x="0"
     inkscape:window-y="25"
     inkscape:window-maximized="1"
     inkscape:current-layer="svg1" />
  <defs
     id="defs1" />
  <path
     style="fill:none;fill-rule:evenodd;stroke:#000000;stroke-width:0.261098;stroke-dasharray:none"
     d="M 6.2168338,3.2401891e-6 C 6.2170035,2.2474568 2.7371993,2.8804365 2.3958171,2.9577651 1.6574758,3.1250113 0.04579429,3.5569619 0.04579429,3.5569619 c 0,0 0,-0.00445 0,0 0,7.0693791 6.21945121,8.9265361 6.21945121,8.9265361 0,0 6.2194505,-1.857157 6.2194505,-8.9265361 0,-0.00445 0,0 0,0 0,0 -1.611681,-0.4319506 -2.350023,-0.5991968 C 9.7932904,2.8804364 6.3134863,2.2474568 6.313656,3.2401891e-6"
     id="path2"
     sodipodi:nodetypes="cscscscsc" />
  <path
     style="fill:#000000;stroke-width:0.00703163"
     d="m 5.3405592,10.938621 c -0.00896,-0.02333 0.0096,-0.07148 0.068125,-0.176618 0.1169337,-0.210081 0.1475976,-0.351007 0.1743206,-0.8011097 0.026727,-0.4501988 -0.061829,-1.2443012 -0.1525765,-1.368197 -0.010321,-0.014102 -0.013172,-0.00786 -0.018954,0.041508 -0.00374,0.031955 -0.019526,0.1331405 -0.035079,0.2248491 -0.015553,0.091716 -0.033248,0.2153096 -0.039323,0.2746525 -0.00608,0.059348 -0.021669,0.205008 -0.034653,0.323701 -0.039836,0.3641517 -0.047114,0.5151874 -0.040417,0.8386651 0.00706,0.341402 0.00575,0.349702 -0.055236,0.346127 -0.040222,-0.0023 -0.041408,-5.03e-4 -0.051227,0.08612 -0.01123,0.09896 -0.069689,0.160005 -0.1687281,0.176197 -0.086132,0.01407 -0.1929523,0.01196 -0.2151804,-0.0042 -0.018136,-0.01324 -0.015508,-0.02072 0.066576,-0.188818 C 4.9852935,10.410192 5.0076001,10.295521 5.0077376,9.8399762 5.0078584,9.3808411 4.988895,9.1299813 4.9238673,8.7315583 4.9080184,8.6344487 4.8885205,8.5048185 4.8805351,8.4434905 L 4.8660161,8.3319847 4.8187072,8.2816435 C 4.6143858,8.0642376 4.4775674,7.7831121 4.4170746,7.4563917 4.3889167,7.3043161 4.391403,6.9146931 4.4216359,6.739021 4.4735381,6.4375862 4.6109327,5.9769981 4.7480787,5.6446975 4.8021909,5.5135852 4.8570714,5.3770129 4.8700338,5.3411978 l 0.023571,-0.065118 -0.07554,-0.00699 C 4.7229769,5.2602827 4.6146967,5.2264522 4.5509198,5.185596 4.4813726,5.1410432 4.3827102,5.0309693 4.3470063,4.9580981 4.3159703,4.8947541 4.2954702,4.808945 4.2954702,4.742396 c 0,-0.044746 -0.00199,-0.044469 0.1684267,-0.023359 0.2387495,0.029571 0.3268489,0.066649 0.4421207,0.1860808 0.1069176,0.1107793 0.1470556,0.1123385 0.1111185,0.0043 C 4.9834149,4.8080713 4.8786649,4.7334507 4.5074406,4.5463485 4.2771989,4.4302987 4.235972,4.4149831 4.0990097,4.3946128 3.9855438,4.3777361 3.9011576,4.3497581 3.8295712,4.3052735 3.7645101,4.2648451 3.6698828,4.170054 3.6361397,4.1115059 3.608258,4.0631242 3.5983774,4.0085097 3.6175155,4.0085097 c 0.0054,0 0.00982,0.00392 0.00982,0.00876 0,0.00482 0.020018,0.030978 0.044489,0.058147 0.080677,0.089584 0.2510501,0.1785071 0.3413833,0.1781801 0.074922,-4.606e-4 0.07493,-0.00693 1.227e-4,-0.1187846 C 3.8954367,3.958504 3.7644465,3.7370913 3.7242912,3.6462454 3.6525166,3.4838659 3.6427889,3.3479848 3.6870108,3.1253951 c 0.03491,-0.1757395 0.09675,-0.3233823 0.1354467,-0.3233823 0.015284,0 0.014223,0.014872 -0.00783,0.1095734 -0.057408,0.2465242 -0.049101,0.4557596 0.024766,0.6236461 0.018046,0.041013 0.027342,0.051497 0.045651,0.051497 0.018631,0 0.029173,-0.012572 0.055519,-0.06621 0.066305,-0.134983 0.2122946,-0.3266652 0.2371279,-0.3113419 0.00546,0.0034 -0.00141,0.027361 -0.016401,0.056823 -0.046891,0.092352 -0.1208186,0.2718874 -0.1359305,0.3301131 -0.018888,0.072758 -0.018984,0.1766274 -3.135e-4,0.2484835 0.030181,0.1156984 0.1289813,0.2718143 0.1720115,0.2718143 0.027111,0 0.036407,-0.019569 0.041944,-0.088281 0.00591,-0.07326 0.054928,-0.2327189 0.09801,-0.3187895 0.034647,-0.069225 0.1125138,-0.1814682 0.1258899,-0.1814682 0.01468,0 0.010979,0.034325 -0.00919,0.085467 -0.010195,0.025826 -0.031107,0.095509 -0.046487,0.1548547 -0.024464,0.0944 -0.027965,0.1256928 -0.027991,0.2501269 -2.06e-5,0.1063678 0.00418,0.1559919 0.016755,0.1968089 0.020083,0.065287 0.065036,0.1301718 0.1084806,0.1565661 0.054408,0.033053 0.2116689,0.089526 0.2402001,0.086253 0.043075,-0.00495 0.062136,-0.056207 0.0715,-0.1923021 0.00771,-0.1119813 0.025183,-0.1825314 0.063582,-0.2566624 0.025171,-0.048594 0.038463,-0.025569 0.025537,0.044232 -0.026243,0.1417227 -1.606e-4,0.3163284 0.064658,0.4336136 0.049525,0.089551 0.1383499,0.2031259 0.2221655,0.2840763 0.1006197,0.097178 0.1386747,0.1095027 0.2161971,0.070018 0.1290218,-0.065708 0.3276692,-0.3446404 0.3618415,-0.5080807 0.00727,-0.034743 0.0096,-0.109028 0.00642,-0.2043785 -0.00564,-0.1693134 6.237e-4,-0.177683 0.047006,-0.063048 0.020855,0.05153 0.02922,0.095795 0.038758,0.2050962 0.012968,0.1485447 0.025262,0.1840404 0.06743,0.1946072 0.030883,0.00774 0.2259611,-0.078066 0.2721072,-0.1196898 0.1350688,-0.1218196 0.1511605,-0.3784993 0.042523,-0.6782677 -0.018182,-0.050168 -0.03286,-0.1031362 -0.032618,-0.1177073 4.729e-4,-0.025537 0.00202,-0.024727 0.044473,0.022556 0.082379,0.091756 0.1539188,0.2588185 0.1963668,0.4585689 0.014456,0.068063 0.018514,0.076018 0.038715,0.076018 0.053022,0 0.1417805,-0.1542309 0.1694511,-0.2944522 0.025546,-0.1294569 0.015583,-0.1685561 -0.119254,-0.4682294 -0.069665,-0.1548245 -0.060001,-0.1819969 0.02615,-0.073535 0.067989,0.0856 0.1034891,0.1385626 0.1495787,0.2231576 0.061933,0.1136658 0.090762,0.1227549 0.1223215,0.038546 0.055098,-0.1470166 0.062166,-0.356985 0.020083,-0.5966493 -0.019666,-0.1120082 -0.019941,-0.1507392 -9.444e-4,-0.1390431 0.014989,0.00926 0.089056,0.2078953 0.1094,0.2934122 0.058949,0.2477904 0.042511,0.4282409 -0.056881,0.6244324 -0.047954,0.094657 -0.2183774,0.3968721 -0.2683186,0.4758156 -0.021187,0.033497 -0.038523,0.063241 -0.038523,0.066114 0,0.00501 0.026022,0.00321 0.1136636,-0.00786 0.069331,-0.00874 0.1547678,-0.056952 0.2338252,-0.1319236 0.040835,-0.03872 0.076924,-0.078836 0.080199,-0.089136 0.010024,-0.031531 0.024283,-0.020847 0.024283,0.018194 0,0.047592 -0.029556,0.102977 -0.086912,0.1628524 -0.089114,0.093038 -0.2035118,0.1493438 -0.370977,0.182593 C 6.3980219,4.4306865 6.1077684,4.5597877 5.8527489,4.7225688 5.741363,4.7936678 5.7034881,4.8380057 5.6863348,4.9173905 c -0.00622,0.028794 -0.00451,0.031454 0.024398,0.037788 0.02569,0.00565 0.038166,0.00141 0.071815,-0.024027 0.1479217,-0.112014 0.2269791,-0.1461163 0.3692607,-0.1592753 0.1138779,-0.010536 0.1627617,-0.00552 0.1716625,0.017641 0.013392,0.034858 -0.1068423,0.234095 -0.184288,0.3053646 -0.041225,0.037942 -0.1119121,0.080896 -0.133108,0.080896 -0.00526,0 -0.021041,0.00437 -0.035051,0.00966 l -0.025475,0.00966 0.019061,0.036921 c 0.024959,0.04835 0.05959,0.079853 0.2074667,0.1887206 0.1998457,0.1471354 0.2229131,0.177058 0.1925031,0.2497179 C 6.3474168,5.7114703 6.2487424,5.8185645 6.2094097,5.838877 6.1758917,5.856191 6.1244667,5.855799 6.0492588,5.837597 5.9645508,5.81718 5.9197984,5.819641 5.8372671,5.849264 5.7782211,5.870451 5.7461591,5.875597 5.6690139,5.87624 5.5512721,5.8772037 5.5395676,5.88551 5.5842479,5.936321 l 0.03269,0.037178 6.236e-4,0.1430429 c 6.236e-4,0.1277061 0.00332,0.1504071 0.025605,0.2117101 0.066485,0.1828462 0.1646709,0.2972064 0.2930851,0.3413653 0.024317,0.00836 0.095401,0.039606 0.1579614,0.069428 0.1667055,0.079466 0.2681272,0.1092432 0.4698979,0.1379638 0.073533,0.010459 0.4674652,0.00708 0.6722397,-0.00578 0.320615,-0.020121 0.4905534,0.00711 0.7092046,0.1136567 0.06418,0.031274 0.1473579,0.082838 0.2047806,0.1269468 0.053185,0.040852 0.1323253,0.093134 0.1758684,0.1161725 0.1577794,0.083495 0.198832,0.1407013 0.2870053,0.3999225 0.024772,0.072833 0.058224,0.1513123 0.074341,0.1743975 0.016119,0.023083 0.029301,0.045748 0.029301,0.050354 0,0.012412 -0.1273367,0.018592 -0.1662841,0.00807 -0.018967,-0.00514 -0.058609,-0.032861 -0.090886,-0.063595 l -0.057244,-0.05452 -1.607e-4,0.067705 c -7.97e-5,0.037236 -0.013376,0.1515693 -0.029542,0.2540733 -0.040273,0.255348 -0.045078,0.3416744 -0.025309,0.454688 0.029095,0.1663299 0.1165346,0.3188507 0.2714673,0.473528 0.053862,0.053772 0.1040275,0.1096891 0.1114791,0.1242685 0.023655,0.046262 0.035276,0.1252662 0.045427,0.30889 0.00546,0.098251 0.014082,0.2150119 0.019234,0.2594722 0.020988,0.1813439 0.081238,0.5719409 0.1002519,0.6499319 0.011185,0.04586 0.022588,0.130753 0.025363,0.188651 0.00443,0.09268 0.00308,0.106038 -0.011577,0.111644 -0.00915,0.0035 -0.028094,0.0011 -0.042124,-0.0052 -0.033297,-0.01515 -0.037705,-0.0073 -0.045446,0.08095 -0.012669,0.144354 -0.041668,0.189598 -0.139804,0.218078 -0.068742,0.01995 -0.2319802,0.02309 -0.2539544,0.0049 -0.018631,-0.01544 -0.018278,-0.01638 0.079075,-0.211515 0.1061663,-0.212821 0.1149105,-0.25134 0.1013307,-0.446332 C 8.5878859,9.9854111 8.4804766,9.5688579 8.3882942,9.423739 8.3372412,9.3433673 8.2040952,9.2325306 7.9455488,9.0551917 7.6466654,8.8501797 7.4637318,8.6583683 7.2585297,8.3348222 7.21598,8.2677349 7.1642582,8.1772487 7.1435917,8.1337399 c -0.043144,-0.090826 -0.046333,-0.089344 -0.017472,0.00811 0.070502,0.2380684 0.2510081,0.5607087 0.4011961,0.7171104 0.086137,0.089704 0.1337928,0.1615483 0.2126607,0.3206134 0.08045,0.1622561 0.081461,0.1880916 0.012076,0.3081992 -0.024609,0.042593 -0.061531,0.1215762 -0.08205,0.1755279 -0.020519,0.053945 -0.074641,0.190785 -0.1202699,0.3040783 -0.1228289,0.3049799 -0.1739104,0.4491859 -0.2089392,0.5898419 -0.042191,0.169423 -0.039724,0.165477 -0.088076,0.140854 l -0.038735,-0.01973 -0.00615,0.02707 c -0.038233,0.168375 -0.07147,0.212688 -0.1720902,0.229409 -0.078931,0.01312 -0.2233971,0.0046 -0.2423345,-0.01434 -0.019633,-0.01959 0.010979,-0.07584 0.1383958,-0.254225 C 7.1544069,10.35459 7.3104372,9.9530723 7.357238,9.5714521 7.3761333,9.4173796 7.3712399,9.3628022 7.331168,9.2801453 7.3049935,9.2261622 7.1550498,9.0523303 7.0313309,8.9325287 6.9301741,8.834575 6.843843,8.7263372 6.7831357,8.6213513 l -0.03629,-0.062759 -0.044215,0.00623 c -0.1111483,0.015592 -0.2559452,0.023597 -0.4337663,0.023988 l -0.1930451,4.6e-4 -0.01134,0.06621 c -0.00623,0.036413 -0.035689,0.1699417 -0.065445,0.2967227 -0.029757,0.126779 -0.058555,0.2658222 -0.063997,0.3089813 -0.011214,0.088917 -0.02072,0.149736 -0.047561,0.3040822 -0.039759,0.2286302 -0.051911,0.3865412 -0.058117,0.7551665 -0.00529,0.314512 -0.00811,0.363198 -0.021125,0.365688 -0.00825,0.0016 -0.024894,-0.0063 -0.036965,-0.01754 -0.025824,-0.02402 -0.02435,-0.02701 -0.045477,0.0924 -0.028469,0.160909 -0.05822,0.183291 -0.2529549,0.190311 -0.1133801,0.0041 -0.1263908,0.0028 -0.1323674,-0.01271 z M 5.6513977,5.3099107 c 0,-0.017667 -0.038119,-0.052044 -0.071873,-0.06481 -0.055755,-0.021091 -0.1383833,-0.00373 -0.1323001,0.027824 0.00695,0.036021 0.2041731,0.071753 0.2041731,0.036991 z"
     id="path68" />
</svg>
