<?xml version="1.0" encoding="UTF-8" standalone="no"?>
<svg
   xmlns:dc="http://purl.org/dc/elements/1.1/"
   xmlns:cc="http://creativecommons.org/ns#"
   xmlns:rdf="http://www.w3.org/1999/02/22-rdf-syntax-ns#"
   xmlns:svg="http://www.w3.org/2000/svg"
   xmlns="http://www.w3.org/2000/svg"
   xmlns:sodipodi="http://sodipodi.sourceforge.net/DTD/sodipodi-0.dtd"
   xmlns:inkscape="http://www.inkscape.org/namespaces/inkscape"
   shape-rendering="geometricPrecision"
   text-rendering="geometricPrecision"
   image-rendering="optimizeQuality"
   fill-rule="evenodd"
   clip-rule="evenodd"
   viewBox="0 0 476 511.89"
   version="1.1"
   id="svg4"
   sodipodi:docname="tolerant-foottraffic-Light.svg"
   inkscape:version="0.92.1 r15371">
  <metadata
     id="metadata10">
    <rdf:RDF>
      <cc:Work
         rdf:about="">
        <dc:format>image/svg+xml</dc:format>
        <dc:type
           rdf:resource="http://purl.org/dc/dcmitype/StillImage" />
        <dc:title></dc:title>
      </cc:Work>
    </rdf:RDF>
  </metadata>
  <defs
     id="defs8" />
  <sodipodi:namedview
     pagecolor="#ffffff"
     bordercolor="#666666"
     borderopacity="1"
     objecttolerance="10"
     gridtolerance="10"
     guidetolerance="10"
     inkscape:pageopacity="0"
     inkscape:pageshadow="2"
     inkscape:window-width="1366"
     inkscape:window-height="705"
     id="namedview6"
     showgrid="false"
     inkscape:zoom="0.46103654"
     inkscape:cx="200.04205"
     inkscape:cy="255.94501"
     inkscape:window-x="-8"
     inkscape:window-y="-8"
     inkscape:window-maximized="1"
     inkscape:current-layer="svg4" />
  <path
     d="m 130.94,50.07 c 0.34,6.68 1.39,12.72 3.01,18.01 1.67,5.44 3.93,10.07 6.6,13.79 l 4.71,6.56 c -4.5,1.45 -9,2.86 -13.47,4.42 l -10.53,4.28 1.05,-9.79 c 0.19,-1.81 0.25,-3.76 0.16,-5.76 -0.27,-6.22 -1.9,-13.13 -5.22,-18.62 -2.96,-4.89 -7.35,-8.58 -13.37,-9.23 -0.99,-0.11 -2.01,-0.14 -3.05,-0.1 -5.01,0.22 -8.98,1.59 -11.94,3.74 -3.2,2.31 -5.35,5.62 -6.53,9.4 -1.52,4.9 -1.48,10.62 -0.02,16.18 1.44,5.54 4.28,10.89 8.34,15.14 0.84,0.88 1.71,1.69 2.61,2.41 0.84,0.66 1.72,1.26 2.64,1.74 l 8.45,4.45 -7.78,5.55 -4.06,2.99 -13.81,11.01 0.25,-13.14 c -0.02,-4 -2.06,-8.48 -5.19,-12.06 -3.05,-3.48 -7,-5.98 -10.91,-6.13 l -0.4,-0.01 c -3.84,0.02 -7.01,1.52 -9.26,3.77 -2.57,2.55 -4.01,6.08 -4.01,9.53 0,3.1 1.66,6.86 4.14,10.53 3.14,4.65 7.48,8.94 11.56,11.7 l 5.73,3.87 c -5.638733,6.01403 -11.238848,12.06416 -16.8,18.15 l -2.52,-10.91 c -0.68,-2.95 -3.42,-6.63 -6.71,-9.66 -3.13,-2.88 -6.42,-4.98 -8.4,-4.98 -1.89,0 -4.07,1.29 -5.83,3.34 -1.78,2.09 -3,4.91 -3,8 l -0.02,0.22 c 0.08,3.13 1.98,6.66 4.75,9.49 2.68,2.75 6.06,4.66 9.2,4.66 l 12.52,-0.13 c -6.2,7.95 -12.33,15.87 -18.44,23.88 l -1.59,5.21 c -2.17,7.14 -3.66,14.13 -4.55,20.95 -0.87,6.8 -1.13,13.47 -0.83,20.01 0.86,18.34 7.91,36.99 15.26,56.42 6.36,16.84 12.95,34.27 16.27,53.13 1.6,9.09 2.96,18.74 4.08,28.89 1.12,10.11 2,20.78 2.64,31.97 0.33,5.7 0.49,11.73 0.63,17.72 0.75,29.69 1.48,58.46 28.35,78.05 14.75,10.77 33.12,13.62 49.75,9.8 6.85,-1.57 13.39,-4.26 19.22,-7.97 5.83,-3.71 11.01,-8.45 15.13,-14.1 9.22,-12.63 13.37,-30.07 8.47,-51.44 l -0.03,-0.05 c -3.54,-16.11 -9.12,-31.82 -14.7,-47.52 C 161.98,345 150.48,312.56 155.6,275.58 c 0.48,-7.88 1.76,-16.09 3.61,-24.35 2.05,-9.16 4.76,-18.27 7.88,-27.04 3.41,-9.56 7.33,-18.85 11.4,-27.44 4.51,-9.5 9.28,-18.21 13.78,-25.52 2.84,-4.6 5.31,-9.72 7.31,-15.1 4.61,-12.38 6.7,-26.07 5.09,-38.15 -1.51,-11.37 -6.33,-21.24 -15.5,-26.89 -1.73,-1.07 -3.64,-2 -5.72,-2.78 l -7.63,-2.84 5.75,-7.17 c 6.05,-7.79 8.55,-17.97 7.92,-28.09 -0.67,-10.5 -4.71,-20.86 -11.69,-28.37 -5.09,-5.47 -10.19,-8.5 -15.02,-9.59 -4.84,-1.09 -9.59,-0.24 -13.82,1.99 -4.51,2.37 -8.5,6.31 -11.59,11.2 -4.39,6.94 -6.89,15.71 -6.43,24.63 z m -8.02,218.16 c 0.43,-3.22 3.4,-5.48 6.62,-5.05 3.22,0.43 5.48,3.4 5.05,6.62 -1.82,13.36 -1.73,26.5 0,39.42 1.73,12.94 5.13,25.73 9.88,38.37 1.14,3.04 -0.4,6.44 -3.44,7.58 -3.04,1.14 -6.44,-0.39 -7.58,-3.43 -5.05,-13.43 -8.66,-27.08 -10.53,-41 -1.86,-13.93 -1.96,-28.1 0,-42.51 z M 105.13,42.02 c 5.5,0.59 10.14,2.58 13.99,5.5 0.09,-10.31 3.2,-20.3 8.29,-28.36 4.17,-6.6 9.71,-11.99 16.06,-15.34 6.63,-3.5 14.12,-4.8 21.89,-3.04 7.07,1.59 14.26,5.72 21.05,13.04 8.87,9.54 14.01,22.54 14.83,35.65 0.67,10.78 -1.54,21.71 -6.96,30.98 l 1.07,0.63 c 12.51,7.72 19.04,20.67 20.99,35.38 1.86,14 -0.49,29.69 -5.73,43.78 -2.27,6.08 -5.08,11.89 -8.34,17.17 -4.23,6.87 -8.77,15.18 -13.13,24.37 -3.91,8.23 -7.67,17.14 -10.94,26.33 -3.02,8.51 -5.62,17.17 -7.52,25.65 -1.72,7.7 -2.9,15.37 -3.35,22.76 l -0.04,0.46 c -4.8,34.23 6.26,65.39 17.31,96.53 5.72,16.12 11.45,32.24 15.12,48.9 5.71,25.02 0.63,45.73 -10.47,60.95 -5.02,6.88 -11.29,12.63 -18.31,17.09 -7.01,4.46 -14.8,7.68 -22.9,9.54 -19.78,4.53 -41.67,1.1 -59.31,-11.78 -31.56,-23.02 -32.36,-54.64 -33.18,-87.28 -0.14,-5.66 -0.29,-11.36 -0.63,-17.35 -0.62,-10.83 -1.49,-21.29 -2.6,-31.32 -1.08,-9.8 -2.41,-19.2 -3.98,-28.15 C 45.2,316.28 38.82,299.4 32.65,283.1 24.98,262.8 17.61,243.32 16.67,223.03 c -0.33,-7.17 -0.04,-14.5 0.92,-21.98 0.61,-4.74 1.49,-9.54 2.66,-14.41 -1.36,-0.05 -2.65,-0.19 -3.87,-0.43 -4.64,-0.89 -8.3,-3.03 -10.97,-5.86 -4.05,-4.3 -5.77,-10.11 -5.35,-15.59 0.26,-3.31 1.29,-6.54 3.04,-9.3 1.87,-2.89 4.49,-5.29 7.85,-6.73 1.99,-0.87 4.23,-1.39 6.67,-1.47 -1.21,-2.77 -1.94,-5.67 -2.01,-8.52 l -0.03,-0.5 c 0,-6.05 2.37,-11.57 5.86,-15.65 3.94,-4.61 9.44,-7.5 14.77,-7.5 0.76,0 1.56,0.08 2.38,0.23 -0.76,-2.39 -1.19,-4.79 -1.19,-7.12 0,-6.47 2.7,-13.07 7.48,-17.85 4.33,-4.36 10.35,-7.24 17.6,-7.24 0.24,0.06 0.61,0.04 0.86,0.04 2.51,0.1 4.97,0.65 7.31,1.55 -1.7,-7.27 -1.6,-14.79 0.46,-21.43 1.91,-6.14 5.49,-11.56 10.86,-15.44 4.75,-3.44 10.85,-5.63 18.36,-5.95 1.69,-0.08 3.29,-0.02 4.8,0.14 z M 32.12,172.83 30.47,167.4 c -0.26,-0.89 -1.39,-2.36 -2.77,-3.82 -1.51,-1.61 -3.11,-2.95 -4.11,-3.35 -3.49,-1.42 -6.15,-1.47 -7.99,-0.68 -1.08,0.47 -1.95,1.27 -2.56,2.22 -0.706611,1.17554 -1.124693,2.50175 -1.22,3.87 -0.19,2.4 0.51,4.88 2.16,6.64 1.05,1.12 2.59,1.97 4.61,2.36 2.17,0.42 4.89,0.32 8.18,-0.49 z"
     id="path2"
     inkscape:connector-curvature="0"
     style="fill-rule:nonzero"
     sodipodi:nodetypes="ccccccccccccccccccccccccccsccccccscccccccccccccccccsccccccccccccccccccccccscccscccccccccccccccccccccccccccccccccccccccccccscscccccccccccccccsccc" />
</svg>
