<?xml version="1.0" encoding="UTF-8" standalone="no"?>
<svg
   xmlns:dc="http://purl.org/dc/elements/1.1/"
   xmlns:cc="http://creativecommons.org/ns#"
   xmlns:rdf="http://www.w3.org/1999/02/22-rdf-syntax-ns#"
   xmlns:svg="http://www.w3.org/2000/svg"
   xmlns="http://www.w3.org/2000/svg"
   xmlns:sodipodi="http://sodipodi.sourceforge.net/DTD/sodipodi-0.dtd"
   xmlns:inkscape="http://www.inkscape.org/namespaces/inkscape"
   version="1.1"
   id="Layer_1"
   x="0px"
   y="0px"
   viewBox="0 0 122.88 108.13"
   style="enable-background:new 0 0 122.88 108.13"
   xml:space="preserve"
   sodipodi:docname="RecommendedForErosionControl.svg"
   inkscape:version="0.92.1 r15371"><metadata
     id="metadata13"><rdf:RDF><cc:Work
         rdf:about=""><dc:format>image/svg+xml</dc:format><dc:type
           rdf:resource="http://purl.org/dc/dcmitype/StillImage" /><dc:title></dc:title></cc:Work></rdf:RDF></metadata><defs
     id="defs11" /><sodipodi:namedview
     pagecolor="#ffffff"
     bordercolor="#666666"
     borderopacity="1"
     objecttolerance="10"
     gridtolerance="10"
     guidetolerance="10"
     inkscape:pageopacity="0"
     inkscape:pageshadow="2"
     inkscape:window-width="1366"
     inkscape:window-height="705"
     id="namedview9"
     showgrid="false"
     inkscape:zoom="2.1825581"
     inkscape:cx="4.3968433"
     inkscape:cy="54.064999"
     inkscape:window-x="1358"
     inkscape:window-y="-8"
     inkscape:window-maximized="1"
     inkscape:current-layer="Layer_1" /><style
     type="text/css"
     id="style2"><![CDATA[
	.st0{fill-rule:evenodd;clip-rule:evenodd;}
]]></style><g
     id="g6"
     transform="matrix(0.61593957,0,0,0.63982423,28.995289,17.55856)"><path
       class="st0"
       d="M 0,12.78 C 6.44,8.97 13.56,5.2 17.58,5.29 c 2.15,0.05 4.24,0.62 6.27,1.72 0.7,-0.82 1.66,-1.8 2.92,-2.99 1.73,-1.64 1.87,-4.18 3.78,-4.01 0.74,0.06 8.83,3.67 8.83,4.94 0,5.59 -1.48,5.75 -3.79,10.4 -0.22,0.44 -0.69,0.77 -1.32,0.99 0.26,0.23 0.52,0.47 0.77,0.71 l 2.73,17.78 1.28,25.85 3.37,-23.04 -4.11,-17.32 c 6.36,6.84 11.62,15.52 15.19,27.02 2.83,0.2 5.95,1.42 9.19,3.51 l 2.4,15.63 -3.39,25.83 7.4,-25.58 -3.2,-13.59 c 8.09,6.42 16.55,17.61 22.78,31.01 13.48,0.96 18.02,2.11 19.43,19.32 4.63,3.03 -2.07,4.66 -4.96,4.66 H 0 Z M 116.52,87.9 c -1,0.09 -5.18,-0.63 -5.18,0.89 0,1.92 -0.94,1.69 1.64,3.64 1.42,1.07 0.36,1.15 3.08,0.72 1.11,-0.17 2.83,-2.74 1.56,-4.15 -0.54,-0.59 -0.52,-1.15 -1.1,-1.1 z m 3.38,-18.7 c -1.92,0.17 -9.94,-1.21 -9.94,1.71 0,3.69 -1.81,3.25 3.15,7 2.73,2.05 0.69,2.2 5.91,1.38 2.14,-0.34 5.44,-5.26 2.99,-7.97 -1.03,-1.14 -1,-2.22 -2.11,-2.12 z m -22.05,3.91 c 0.28,1.61 3.17,7.85 0.78,8.49 -3.01,0.81 -2.26,2.19 -6.4,-1.04 -2.27,-1.78 -1.95,-0.08 -2.42,-4.52 -0.19,-1.82 3.1,-5.59 5.85,-4.19 1.16,0.59 2.03,0.33 2.19,1.26 z M 67.05,41.34 c 1.04,0.09 5.37,-0.66 5.37,0.93 0,1.99 0.98,1.75 -1.7,3.78 -1.47,1.11 -0.37,1.19 -3.19,0.75 -1.15,-0.18 -2.94,-2.84 -1.62,-4.3 0.56,-0.63 0.54,-1.21 1.14,-1.16 z m 24.25,0.44 c 4.99,-0.43 5.81,2.14 9.48,4.33 1.9,1.13 4.83,3.27 4.83,5.71 0,2.11 0.18,3.29 -0.3,5.29 -1.34,5.59 -8.61,8.14 -13.53,5.08 -3.68,-2.29 -1.22,-0.04 -4.09,-3.58 -2.31,-2.84 -5.56,0.12 -5.56,-8.97 0,-3.31 1.29,-4.32 4.15,-5.91 1.26,-0.7 2.94,-0.85 4.82,-1.9 z m 7.91,-20.95 c 11.63,2.76 14.63,-8.08 16.7,1.77 2.25,10.69 -2.43,7.09 -5.56,13.71 C 110.03,37 100.2,38.37 97.71,35.88 93.55,31.72 92.87,23.92 98.66,20.97 Z M 52.18,20.52 c 3.39,-0.2 8.87,-0.6 8.87,1.96 0,4.1 2.01,3.61 -3.5,7.76 -3.02,2.28 -0.76,2.44 -6.56,1.54 -2.37,-0.37 -6.03,-5.84 -3.32,-8.84 2.58,-2.86 0.26,-2.17 4.51,-2.42 z m 15.3,-9.13 c 4.92,-5.52 11.56,0.57 15.81,0.18 3.21,-0.29 4,8.93 2.15,12.09 -1.67,2.86 2.68,7.3 -10.17,6.62 -6.11,-0.32 -6.42,0.44 -9.62,-5.79 -2.7,-5.28 -2.53,-8.88 1.83,-13.1 z"
       id="path4"
       inkscape:connector-curvature="0"
       style="clip-rule:evenodd;fill-rule:evenodd" /></g><g
     id="g4492"
     transform="matrix(0.90305479,0,0,0.88068282,8.8671012,-0.09873727)"><path
       id="path4490"
       d="m 61.44,0 c 16.966,0 32.326,6.877 43.444,17.996 11.118,11.119 17.996,26.479 17.996,43.445 0,16.966 -6.878,32.325 -17.996,43.444 C 93.767,116.003 78.406,122.88 61.44,122.88 44.474,122.88 29.114,116.003 17.996,104.885 6.877,93.766 0,78.406 0,61.44 0,44.474 6.877,29.114 17.996,17.995 29.114,6.877 44.475,0 61.44,0 Z m 42.213,27.788 -75.865,75.864 c 9.229,7.367 20.926,11.771 33.652,11.771 14.907,0 28.403,-6.043 38.172,-15.812 9.769,-9.769 15.812,-23.265 15.812,-38.172 0,-12.726 -4.404,-24.423 -11.771,-33.651 z M 22.289,98.607 98.607,22.289 C 88.929,13.098 75.844,7.457 61.44,7.457 46.532,7.457 33.036,13.499 23.268,23.268 13.5,33.036 7.457,46.532 7.457,61.44 c 0,14.403 5.641,27.488 14.832,37.167 z"
       inkscape:connector-curvature="0" /></g></svg>
