<?xml version="1.0" encoding="UTF-8" standalone="no"?>
<svg
   xmlns:dc="http://purl.org/dc/elements/1.1/"
   xmlns:cc="http://creativecommons.org/ns#"
   xmlns:rdf="http://www.w3.org/1999/02/22-rdf-syntax-ns#"
   xmlns:svg="http://www.w3.org/2000/svg"
   xmlns="http://www.w3.org/2000/svg"
   xmlns:sodipodi="http://sodipodi.sourceforge.net/DTD/sodipodi-0.dtd"
   xmlns:inkscape="http://www.inkscape.org/namespaces/inkscape"
   version="1.1"
   id="Layer_1"
   x="0px"
   y="0px"
   viewBox="0 0 48.000001 48.000001"
   xml:space="preserve"
   sodipodi:docname="RecommendedForRainGardenWithGrass.svg"
   inkscape:version="0.92.1 r15371"
   width="48"
   height="48"><metadata
     id="metadata11"><rdf:RDF><cc:Work
         rdf:about=""><dc:format>image/svg+xml</dc:format><dc:type
           rdf:resource="http://purl.org/dc/dcmitype/StillImage" /><dc:title></dc:title></cc:Work></rdf:RDF></metadata><defs
     id="defs9" /><sodipodi:namedview
     pagecolor="#ffffff"
     bordercolor="#666666"
     borderopacity="1"
     objecttolerance="10"
     gridtolerance="10"
     guidetolerance="10"
     inkscape:pageopacity="0"
     inkscape:pageshadow="2"
     inkscape:window-width="1366"
     inkscape:window-height="705"
     id="namedview7"
     showgrid="false"
     inkscape:zoom="2.1400073"
     inkscape:cx="13.299354"
     inkscape:cy="55.140001"
     inkscape:window-x="-8"
     inkscape:window-y="-8"
     inkscape:window-maximized="1"
     inkscape:current-layer="Layer_1" /><g
     id="g4"
     transform="matrix(0.27748445,0,0,0.27119723,6.5415524,0.80270977)"
     style="fill:#000000;fill-opacity:1"><path
       d="m 23.84,71.8 c 2.01,0.25 3.43,2.09 3.18,4.1 -0.25,2.01 -2.09,3.43 -4.1,3.18 C 20.25,78.74 17.83,78.11 15.63,77.2 13.36,76.26 11.35,75.05 9.58,73.57 7.9,72.17 6.43,70.58 5.18,68.85 1.84,64.25 0.04,58.63 0,53.03 -0.04,47.37 1.72,41.74 5.52,37.18 6.75,35.7 8.2,34.34 9.86,33.14 11.79,31.74 14,30.56 16.5,29.59 18.22,28.92 20.06,28.36 22,27.91 24.2,19.17 28.89,12.44 34.92,7.77 40.56,3.4 47.35,0.85 54.34,0.18 c 6.96,-0.67 14.12,0.51 20.55,3.6 7.02,3.37 13.14,8.98 17.11,16.87 1.6,-0.25 3.2,-0.38 4.79,-0.36 6.72,0.04 13.2,2.45 18.3,7.95 1.07,1.15 2.08,2.45 3.02,3.9 3.2,4.92 4.84,11.49 4.77,17.92 -0.07,6.31 -1.77,12.59 -5.25,17.22 -2.27,3.01 -5.18,5.47 -8.67,7.42 -3.36,1.88 -7.28,3.31 -11.68,4.33 -1.98,0.45 -3.95,-0.78 -4.4,-2.76 -0.45,-1.98 0.78,-3.95 2.76,-4.4 3.71,-0.86 6.97,-2.04 9.72,-3.58 2.63,-1.47 4.78,-3.26 6.39,-5.41 2.5,-3.33 3.73,-8.04 3.78,-12.87 0.06,-5.07 -1.18,-10.16 -3.59,-13.86 -0.69,-1.06 -1.45,-2.03 -2.25,-2.89 -3.61,-3.89 -8.19,-5.59 -12.95,-5.62 -3.46,-0.02 -7.02,0.81 -10.41,2.31 -0.75,0.37 -1.5,0.77 -2.25,1.21 -2.25,1.32 -4.47,2.93 -6.74,4.78 L 72.5,30.4 c 1.67,-1.55 3.48,-2.96 5.4,-4.21 1.53,-1 3.13,-1.88 4.77,-2.65 0.66,-0.33 1.33,-0.64 2,-0.93 C 81.48,16.96 76.89,12.91 71.69,10.41 66.49,7.92 60.67,6.96 55,7.51 49.37,8.05 43.9,10.1 39.38,13.61 34.15,17.67 30.18,23.72 28.65,31.75 l -0.48,2.51 -2.5,0.44 c -2.45,0.43 -4.64,1.02 -6.56,1.77 -1.86,0.72 -3.52,1.61 -4.97,2.66 -1.16,0.84 -2.16,1.78 -3.01,2.8 -2.63,3.15 -3.85,7.1 -3.82,11.1 0.03,4.06 1.35,8.16 3.79,11.53 0.91,1.25 1.96,2.4 3.16,3.4 1.22,1.01 2.59,1.85 4.13,2.48 1.64,0.64 3.45,1.11 5.45,1.36 z m 31.79,7.97 c 2.19,10.17 8.77,15.25 8.77,20.34 0,5.09 -2.19,10.17 -8.77,10.17 -6.58,0 -8.77,-5.08 -8.77,-10.17 0,-5.08 6.57,-10.17 8.77,-20.34 z M 75.09,52.91 c 2.19,11.04 8.77,16.56 8.77,22.08 0,5.52 -2.19,11.04 -8.77,11.04 -6.58,0 -8.77,-5.52 -8.77,-11.04 0,-5.52 6.58,-11.04 8.77,-22.08 z M 45.74,51.84 c 1.58,7.31 6.31,10.97 6.31,14.63 0,3.66 -1.58,7.31 -6.31,7.31 -4.73,0 -6.31,-3.66 -6.31,-7.31 0,-3.66 4.73,-7.32 6.31,-14.63 z"
       id="path2"
       inkscape:connector-curvature="0"
       style="fill:#000000;fill-opacity:1" /></g><style
     id="style4488"
     type="text/css">.st0{fill-rule:evenodd;clip-rule:evenodd;fill:#01A601;}</style><style
     id="style4486"
     type="text/css">.st0{fill-rule:evenodd;clip-rule:evenodd;}</style><g
     id="g4490"
     transform="matrix(0.36493231,0,0,0.44722186,71.607351,-22.52357)"
     style="fill:#000000;fill-opacity:1"><path
       id="path4488"
       d="m -129.00682,152.33675 4.30968,-0.12382 c -1.93032,-2.62003 -1.77286,-4.03389 -1.49877,-6.41828 0.07,-0.63904 0.15163,-1.35396 0.19828,-2.12479 0.11664,-1.98899 0.0758,-4.01392 -0.1108,-6.03885 -0.13996,-1.55366 -0.3674,-3.10331 -0.67066,-4.64098 -1.9828,2.38838 -3.02085,5.12025 -3.37659,8.10373 -0.41406,3.46675 0.0991,7.26102 1.14886,11.24299 z m -1.65623,0.69894 c -3.01502,0.58711 -4.72373,1.66149 -5.17861,3.20315 h 71.660845 c -1.813682,-2.20467 -5.114466,-3.59855 -11.127026,-3.4987 h -0.116635 c 0.915588,-3.45877 1.370467,-6.76177 1.008897,-9.7852 -0.373234,-3.1712 -1.638729,-6.04285 -4.187214,-8.47516 -0.134131,-0.1358 -0.349907,-0.23565 -0.606505,-0.26361 -0.495701,-0.0519 -0.956411,0.17573 -1.032224,0.51522 -0.758131,3.26705 -0.851439,6.59003 -0.944747,9.84909 l -0.0175,0.62706 c -0.02333,0.8547 0,1.56163 0.02333,2.18469 0.06415,1.68145 0.09914,2.73985 -1.067214,4.52915 -0.979739,-4.24158 -1.615402,-8.50313 -1.883664,-12.80862 -0.285757,-4.60503 -0.157458,-9.27396 0.408225,-14.03876 0.04082,-0.33948 -0.332412,-0.63902 -0.833944,-0.66698 -0.454879,-0.024 -0.857274,0.18372 -0.956414,0.48327 -1.195514,2.91957 -2.181084,5.93102 -2.921719,9.03832 -0.746467,3.11528 -1.248,6.32642 -1.487103,9.6454 0,0.024 0,0.048 0,0.0719 l 0.128299,2.46827 c -1.860336,-4.26955 -3.446578,-8.58301 -4.123064,-12.86453 -0.903925,-5.71536 -0.192449,-11.38278 3.627364,-16.83852 0.215775,-0.30753 0.02333,-0.67897 -0.42572,-0.82276 -0.384897,-0.12381 -0.828112,-0.0479 -1.090542,0.16775 v 0 c -3.913121,3.27904 -6.461606,7.70434 -7.627961,13.29588 -1.154694,5.53163 -0.962244,12.21351 0.600673,20.05764 0,0.012 0.0058,0.024 0.01166,0.04 v 0 l 1.04972,3.60256 h -6.642387 l 1.27716,-4.38137 v 0 c 0.006,-0.012 0.006,-0.024 0.0117,-0.04 1.86034,-9.36982 2.09361,-17.35374 0.71731,-23.95974 -1.39379,-6.66591 -4.42632,-11.94192 -9.0859,-15.84801 v 0 c -0.2566,-0.21568 -0.70565,-0.29156 -1.09055,-0.16775 -0.44904,0.14778 -0.64149,0.51522 -0.42572,0.82276 4.58961,6.55008 5.44105,13.35179 4.35634,20.20941 -0.85727,5.43178 -2.93338,10.9035 -5.33607,16.31132 l 0.20411,-3.89412 c 0,-0.024 0,-0.0479 0,-0.0719 -0.28576,-3.966 -0.88643,-7.80419 -1.77286,-11.52656 -0.88643,-3.71438 -2.06445,-7.31293 -3.49323,-10.80365 -0.0991,-0.29555 -0.50154,-0.50723 -0.95642,-0.47927 -0.4957,0.028 -0.86893,0.3235 -0.83394,0.66699 0.68232,5.69937 0.83978,11.29091 0.48987,16.80656 -0.33241,5.29998 -1.12553,10.54404 -2.35604,15.76814 -2.10527,-2.65998 -1.95947,-3.96201 -1.69704,-6.27451 0.07,-0.61906 0.14579,-1.30602 0.19828,-2.16872 0.12246,-2.04091 0.0758,-4.10578 -0.11081,-6.16666 -0.19245,-2.13278 -0.54818,-4.26954 -1.03805,-6.38634 -0.0758,-0.33948 -0.54236,-0.56714 -1.03223,-0.51522 -0.25659,0.028 -0.47237,0.12781 -0.6065,0.2636 -3.02669,2.88764 -4.53129,6.30247 -4.9745,10.07675 -0.43739,3.71838 0.15162,7.78422 1.30631,12.04178 z m 50.188257,-0.7948 3.31828,0.0959 c 0.857271,-3.28703 1.277158,-6.42228 0.938915,-9.28595 -0.279925,-2.35644 -1.073046,-4.52914 -2.571812,-6.44225 -0.437383,2.648 -0.513196,5.34392 -0.589009,7.9959 l -0.0175,0.62705 c -0.02333,0.82675 0,1.51771 0.02333,2.13277 0.06415,1.80926 0.104972,2.96351 -1.102205,4.87662 z m -15.565009,0.0559 h 7.517157 0.01166 4.519628 c -1.014729,-4.34542 -1.66789,-8.71481 -1.947816,-13.13612 -0.151626,-2.42832 -0.192448,-4.86463 -0.110803,-7.32091 -0.215776,0.75884 -0.414056,1.52169 -0.594841,2.28853 -0.734804,3.06337 -1.230505,6.22258 -1.463776,9.48565 l 0.373234,7.08127 c 0.01749,0.33949 -0.373234,0.62706 -0.868935,0.63904 -0.414056,0.008 -0.775626,-0.17174 -0.892261,-0.43135 -2.700112,-5.76327 -5.277756,-11.65436 -6.21084,-17.52547 -0.594841,-3.7703 -0.513196,-7.52461 0.658991,-11.22701 -1.172187,2.08484 -2.03529,4.44128 -2.583477,7.0693 -1.131364,5.41181 -0.938915,11.96589 0.58901,19.67822 v 0 z m -19.221528,-0.012 h 9.13839 l 1.21884,-4.16569 v 0 c 1.83118,-9.23802 2.06445,-17.09413 0.71148,-23.58032 -0.78729,-3.7663 -2.10527,-7.06929 -3.95978,-9.905 1.88367,4.89659 2.09944,9.87705 1.30632,14.88147 -1.10804,7.01339 -4.19888,14.05473 -7.41802,20.94032 -0.12246,0.2596 -0.4782,0.43933 -0.89226,0.43134 -0.4957,-0.012 -0.88643,-0.29955 -0.86893,-0.63904 l 0.44904,-8.47516 c -0.27992,-3.90609 -0.87476,-7.69236 -1.74953,-11.36281 -0.33241,-1.39389 -0.70564,-2.7718 -1.1197,-4.13773 0.16329,3.41882 0.13413,6.80569 -0.0758,10.1726 -0.33241,5.33193 -1.13137,10.59996 -2.35604,15.84002 z"
       class="st0"
       inkscape:connector-curvature="0"
       style="clip-rule:evenodd;fill:#000000;fill-opacity:1;fill-rule:evenodd;stroke-width:0.48261628" /><path
       id="path4488-6"
       d="m -187.82671,152.85229 4.30968,-0.12381 c -1.93032,-2.62004 -1.77286,-4.0339 -1.49877,-6.41829 0.07,-0.63904 0.15163,-1.35396 0.19828,-2.12479 0.11664,-1.98899 0.0758,-4.01392 -0.1108,-6.03885 -0.13996,-1.55366 -0.3674,-3.10331 -0.67066,-4.64098 -1.9828,2.38838 -3.02085,5.12025 -3.37659,8.10373 -0.41406,3.46675 0.0991,7.26102 1.14886,11.24299 z m -1.65623,0.69894 c -3.01502,0.58711 -4.72373,1.66149 -5.17861,3.20315 h 71.66085 c -1.81368,-2.20467 -5.11446,-3.59855 -11.12702,-3.4987 h -0.11663 c 0.91559,-3.45877 1.37047,-6.76177 1.0089,-9.7852 -0.37324,-3.1712 -1.63873,-6.04285 -4.18722,-8.47516 -0.13413,-0.1358 -0.3499,-0.23565 -0.6065,-0.26361 -0.49571,-0.0519 -0.95642,0.17573 -1.03224,0.51522 -0.75813,3.26705 -0.85144,6.59003 -0.94474,9.84909 l -0.0175,0.62706 c -0.0233,0.8547 0,1.56163 0.0233,2.18469 0.0642,1.68145 0.0991,2.73985 -1.06721,4.52915 -0.97974,-4.24158 -1.61541,-8.50313 -1.88367,-12.80862 -0.28576,-4.60503 -0.15745,-9.27396 0.40823,-14.03876 0.0408,-0.33948 -0.33241,-0.63902 -0.83395,-0.66698 -0.45488,-0.024 -0.85727,0.18372 -0.95641,0.48327 -1.19552,2.91957 -2.18109,5.93102 -2.92172,9.03832 -0.74647,3.11528 -1.248,6.32642 -1.4871,9.6454 0,0.024 0,0.048 0,0.0719 l 0.12829,2.46827 c -1.86033,-4.26955 -3.44658,-8.58301 -4.12306,-12.86453 -0.90393,-5.71536 -0.19245,-11.38278 3.62736,-16.83852 0.21577,-0.30753 0.0233,-0.67897 -0.42572,-0.82276 -0.38489,-0.12381 -0.82811,-0.0479 -1.09054,0.16775 v 0 c -3.91312,3.27904 -6.46161,7.70434 -7.62796,13.29588 -1.15469,5.53163 -0.96225,12.21351 0.60067,20.05764 0,0.0121 0.006,0.024 0.0118,0.04 v 0 l 1.04972,3.60256 h -6.64238 l 1.27716,-4.38137 v 0 c 0.006,-0.0121 0.006,-0.024 0.0118,-0.04 1.86034,-9.36982 2.09361,-17.35374 0.71731,-23.95974 -1.39392,-6.66592 -4.42645,-11.94193 -9.08603,-15.84802 v 0 c -0.2566,-0.21568 -0.70565,-0.29156 -1.09055,-0.16775 -0.44904,0.14778 -0.64149,0.51522 -0.42572,0.82276 4.58961,6.55008 5.44105,13.35179 4.35634,20.20941 -0.85727,5.43178 -2.93338,10.9035 -5.33607,16.31132 l 0.20411,-3.89412 c 0,-0.024 0,-0.0479 0,-0.0719 -0.28576,-3.96599 -0.88643,-7.80418 -1.77286,-11.52655 -0.88643,-3.71438 -2.06445,-7.31293 -3.49323,-10.80365 -0.0991,-0.29555 -0.50154,-0.50723 -0.95642,-0.47927 -0.4957,0.028 -0.86893,0.3235 -0.83394,0.66699 0.68232,5.69937 0.83978,11.29091 0.48987,16.80656 -0.33241,5.29998 -1.12553,10.54404 -2.35604,15.76814 -2.10527,-2.65998 -1.95947,-3.96201 -1.69704,-6.27451 0.07,-0.61906 0.14579,-1.30602 0.19828,-2.16872 0.12246,-2.04091 0.0758,-4.10578 -0.11081,-6.16666 -0.19245,-2.13278 -0.54818,-4.26954 -1.03805,-6.38634 -0.0758,-0.33948 -0.54236,-0.56714 -1.03223,-0.51522 -0.25659,0.028 -0.47237,0.12781 -0.6065,0.2636 -3.02669,2.88764 -4.53129,6.30247 -4.9745,10.07675 -0.43739,3.71838 0.15162,7.78422 1.30631,12.04178 z m 50.18826,-0.7948 3.31828,0.0959 c 0.85727,-3.28703 1.27716,-6.42228 0.93892,-9.28595 -0.27993,-2.35644 -1.07305,-4.52914 -2.57181,-6.44225 -0.43739,2.648 -0.5132,5.34392 -0.58901,7.9959 l -0.0175,0.62705 c -0.0233,0.82675 0,1.5177 0.0233,2.13277 0.0642,1.80926 0.10498,2.96351 -1.10221,4.87662 z m -15.56501,0.0559 h 7.51715 0.0118 4.51963 c -1.01473,-4.34542 -1.66789,-8.71481 -1.94781,-13.13612 -0.15162,-2.42832 -0.19245,-4.86463 -0.11082,-7.32091 -0.21577,0.75884 -0.41405,1.52169 -0.59484,2.28853 -0.7348,3.06337 -1.2305,6.22258 -1.46378,9.48565 l 0.37324,7.08127 c 0.0175,0.33949 -0.37324,0.62706 -0.86894,0.63904 -0.41405,0.008 -0.77562,-0.17175 -0.89226,-0.43135 -2.70022,-5.76327 -5.27786,-11.65436 -6.21095,-17.52547 -0.59484,-3.7703 -0.51319,-7.52461 0.65899,-11.22701 -1.17218,2.08484 -2.03529,4.44128 -2.58347,7.0693 -1.13137,5.41181 -0.93892,11.96589 0.58901,19.67822 v 0 z m -19.22153,-0.0121 h 9.13839 l 1.21884,-4.16569 v 0 c 1.83118,-9.23795 2.06445,-17.09406 0.71148,-23.58025 -0.78729,-3.7663 -2.10527,-7.06929 -3.95978,-9.905 1.88367,4.89659 2.09944,9.87705 1.30632,14.88147 -1.10804,7.01339 -4.19888,14.05473 -7.41802,20.94032 -0.12246,0.2596 -0.4782,0.43933 -0.89226,0.43134 -0.4957,-0.0121 -0.88643,-0.29955 -0.86893,-0.63904 l 0.44904,-8.47516 c -0.27992,-3.90609 -0.87476,-7.69236 -1.74953,-11.36281 -0.33241,-1.39389 -0.70564,-2.7718 -1.1197,-4.13773 0.16329,3.41882 0.13413,6.80569 -0.0758,10.1726 -0.33241,5.33193 -1.13137,10.59996 -2.35604,15.84002 z"
       class="st0"
       inkscape:connector-curvature="0"
       style="clip-rule:evenodd;fill:#000000;fill-opacity:1;fill-rule:evenodd;stroke-width:0.48261628" /></g></svg>
