<?xml version="1.0" encoding="UTF-8" standalone="no"?>
<svg
   xmlns:dc="http://purl.org/dc/elements/1.1/"
   xmlns:cc="http://creativecommons.org/ns#"
   xmlns:rdf="http://www.w3.org/1999/02/22-rdf-syntax-ns#"
   xmlns:svg="http://www.w3.org/2000/svg"
   xmlns="http://www.w3.org/2000/svg"
   xmlns:sodipodi="http://sodipodi.sourceforge.net/DTD/sodipodi-0.dtd"
   xmlns:inkscape="http://www.inkscape.org/namespaces/inkscape"
   id="Layer_1"
   data-name="Layer 1"
   viewBox="0 0 47.999999 48.000001"
   version="1.1"
   sodipodi:docname="endangered.svg"
   width="48"
   height="48"
   inkscape:version="0.92.1 r15371">
  <metadata
     id="metadata15">
    <rdf:RDF>
      <cc:Work
         rdf:about="">
        <dc:format>image/svg+xml</dc:format>
        <dc:type
           rdf:resource="http://purl.org/dc/dcmitype/StillImage" />
        <dc:title>high-risk-alert</dc:title>
      </cc:Work>
    </rdf:RDF>
  </metadata>
  <sodipodi:namedview
     pagecolor="#ffffff"
     bordercolor="#666666"
     borderopacity="1"
     objecttolerance="10"
     gridtolerance="10"
     guidetolerance="10"
     inkscape:pageopacity="0"
     inkscape:pageshadow="2"
     inkscape:window-width="1366"
     inkscape:window-height="705"
     id="namedview13"
     showgrid="false"
     inkscape:zoom="7.6822918"
     inkscape:cx="6.9279834"
     inkscape:cy="20.466335"
     inkscape:window-x="-8"
     inkscape:window-y="-8"
     inkscape:window-maximized="1"
     inkscape:current-layer="Layer_1" />
  <defs
     id="defs4">
    <style
       id="style2">.cls-1{fill:#ff1200;fill-rule:evenodd;}.cls-2{fill:#333;}</style>
  </defs>
  <title
     id="title6">high-risk-alert</title>
  <path
     class="cls-1"
     d="M 23.96281,31.083994 14.232509,46.10144 c -0.295091,0.451765 -0.548025,1.377885 0,1.377885 h 20.863237 c 0.548023,0 0.295089,-0.92612 0,-1.377885 L 25.365444,31.083994 a 0.88526957,0.86964903 0 0 0 -1.402634,0 z M 22.882091,19.944204 9.0856821,21.875502 a 0.20311381,0.19952986 0 0 0 -0.1877852,0.192001 l -0.076642,1.64518 a 0.21077847,0.20705929 0 0 0 0.1724579,0.210824 L 22.479703,25.98657 c 1.866349,0.210824 3.065869,-0.463059 3.686707,-1.434356 a 3.0965274,3.0418892 0 0 0 0.448384,-1.584945 3.1808387,3.124713 0 0 0 -0.42539,-1.58118 c -0.567186,-0.960002 -1.686227,-1.626356 -3.299642,-1.44565 z m 2.632814,23.552053 h -1.693891 v 1.472003 h 1.693891 z M 23.821014,42.47602 h 1.693891 c 0.168623,-2.021652 0.521197,-3.301655 0.521197,-5.323307 a 1.3719763,1.3477678 0 0 0 -2.743951,0 c 0,2.017887 0.356406,3.30542 0.528863,5.323307 z"
     id="path8"
     inkscape:connector-curvature="0"
     style="fill:#000000;fill-rule:evenodd;stroke-width:0.37983745;fill-opacity:1" />
  <path
     class="cls-2"
     d="m 39.617901,40.300015 a 22.944195,22.539345 0 0 0 6.771738,-11.885204 23.354255,22.94217 0 0 0 0.471377,-4.577893 23.028506,22.622169 0 0 0 -44.2941385,-8.628725 22.790902,22.388757 0 0 0 2.0924565,21.082401 23.637846,23.220759 0 0 0 2.8474255,3.422125 0.18395212,0.18070629 0 0 0 0.2605996,0 l 1.1497005,-1.129414 a 0.19544913,0.19200044 0 0 0 0.061316,-0.04141 L 12.18604,35.390829 a 0.18395212,0.18070629 0 0 0 0,-0.256001 l -1.682395,-1.652709 a 0.18395212,0.18070629 0 0 0 -0.260599,0 L 7.7711901,35.906595 A 21.03186,20.660753 0 0 1 6.3302262,33.809649 20.311381,19.952986 0 0 1 5.0885499,31.366349 19.782518,19.433456 0 0 1 3.9771726,27.793635 20.027788,19.674398 0 0 1 3.5939388,24.24351 H 7.0047187 A 0.18778446,0.18447101 0 0 0 7.192505,24.059037 V 21.721149 A 0.19161679,0.18823572 0 0 0 7.0047209,21.547972 H 3.7204094 a 20.161919,19.806163 0 0 1 1.7513775,-6.113896 20.545153,20.182634 0 0 1 3.6790421,-5.2706 l 2.195929,2.157181 a 0.18778446,0.18447101 0 0 0 0.264431,0 l 1.682395,-1.65271 a 0.19161679,0.18823572 0 0 0 0,-0.256 L 11.174302,8.3300598 a 20.368866,20.009457 0 0 1 5.572217,-3.1284777 c 1.973652,-0.7454135 3.288144,-1.1783556 5.472576,-1.2611793 v 2.9553008 a 0.19161679,0.18823572 0 0 0 0.187783,0.184471 h 2.383713 a 0.18778446,0.18447101 0 0 0 0.187786,-0.184471 V 4.0119323 c 2.184431,0.2032946 5.077844,0.7529429 7.005509,1.5811801 a 20.207908,19.851339 0 0 1 5.403594,3.4221254 l -2.199761,2.1609462 a 0.19161679,0.18823572 0 0 0 0,0.256 l 1.682395,1.65271 a 0.18778446,0.18447101 0 0 0 0.264431,0 l 2.172935,-2.134593 a 20.127428,19.77228 0 0 1 4.763595,11.704497 h -3.38012 a 0.18395212,0.18070629 0 0 0 -0.187785,0.184471 v 2.341653 a 0.18395212,0.18070629 0 0 0 0.187785,0.180706 h 3.360958 a 20.453177,20.092281 0 0 1 -0.505868,3.158595 20.204074,19.847574 0 0 1 -1.092215,3.211301 20.656289,20.291811 0 0 1 -1.364312,2.571301 20.077607,19.723339 0 0 1 -1.601917,2.194828 l -2.713293,-2.665418 a 0.19544913,0.19200044 0 0 0 -0.264431,0 l -1.682395,1.64518 a 0.19544913,0.19200044 0 0 0 0,0.259766 c 1.532933,1.524709 3.031377,2.985418 4.52982,4.547775 a 0.18011978,0.17694158 0 0 0 0.260599,0 z"
     id="path10"
     inkscape:connector-curvature="0"
     style="fill:#000000;stroke-width:0.37983745" />
</svg>
