<?xml version="1.0" encoding="UTF-8" standalone="no"?>
<svg
   xmlns:dc="http://purl.org/dc/elements/1.1/"
   xmlns:cc="http://creativecommons.org/ns#"
   xmlns:rdf="http://www.w3.org/1999/02/22-rdf-syntax-ns#"
   xmlns:svg="http://www.w3.org/2000/svg"
   xmlns="http://www.w3.org/2000/svg"
   xmlns:sodipodi="http://sodipodi.sourceforge.net/DTD/sodipodi-0.dtd"
   xmlns:inkscape="http://www.inkscape.org/namespaces/inkscape"
   viewBox="0 0 48 48.000001"
   version="1.1"
   id="svg4"
   sodipodi:docname="DoesNotCauseRash.svg"
   width="48"
   height="48"
   style="clip-rule:evenodd;fill-rule:evenodd;image-rendering:optimizeQuality;shape-rendering:geometricPrecision;text-rendering:geometricPrecision"
   inkscape:version="0.92.1 r15371">
  <metadata
     id="metadata10">
    <rdf:RDF>
      <cc:Work
         rdf:about="">
        <dc:format>image/svg+xml</dc:format>
        <dc:type
           rdf:resource="http://purl.org/dc/dcmitype/StillImage" />
        <dc:title></dc:title>
      </cc:Work>
    </rdf:RDF>
  </metadata>
  <defs
     id="defs8" />
  <sodipodi:namedview
     pagecolor="#ffffff"
     bordercolor="#666666"
     borderopacity="1"
     objecttolerance="10"
     gridtolerance="10"
     guidetolerance="10"
     inkscape:pageopacity="0"
     inkscape:pageshadow="2"
     inkscape:window-width="1366"
     inkscape:window-height="705"
     id="namedview6"
     showgrid="false"
     inkscape:zoom="3.8642598"
     inkscape:cx="61.193166"
     inkscape:cy="13.663192"
     inkscape:window-x="-8"
     inkscape:window-y="-8"
     inkscape:window-maximized="1"
     inkscape:current-layer="svg4" />
  <path
     d="m 21.95348,6.8633787 8.942565,9.2009453 c 1.536243,1.764016 2.471191,2.902184 2.459586,5.493684 L 44.381337,32.909826 43.078648,34.251135 32.468556,23.326502 C 31.597437,22.42956 31.607591,22.384749 31.702609,21.947104 32.01305,20.561737 31.194881,18.728269 30.251228,17.756644 27.106208,14.518387 23.957561,11.283865 20.81254,8.045609 19.821741,7.0246913 18.240529,8.6490451 19.229875,9.667724 l 3.306769,3.404799 0.01741,0.01719 c 0.09429,0.09783 0.09429,0.257655 0,0.354741 l -0.800038,0.823755 a 0.24298476,0.25018812 0 0 1 -0.343805,0 L 16.219765,8.9239016 C 15.244924,7.9201612 13.645576,9.5258467 14.640726,10.550494 l 5.189719,5.343571 c 0.09502,0.09783 0.09502,0.257655 0,0.354745 l -0.846457,0.871553 a 0.24385516,0.25108431 0 0 1 -0.34453,0 L 11.698072,9.9731772 C 10.71888,8.9649585 9.1260605,10.57064 10.118309,11.592305 l 6.945011,7.150901 a 0.24385516,0.25108431 0 0 1 0,0.354742 l -0.826147,0.851387 a 0.24516075,0.25242861 0 0 1 -0.344531,0 l -5.173037,-5.326393 c -0.9936986,-1.023904 -2.5567796,0.619123 -1.5754114,1.629584 1.2548164,1.292016 2.6546994,2.748336 4.0560324,4.196439 1.231606,1.283055 2.463213,2.557893 4.041526,4.183743 0.256766,0.29948 2.513985,2.404046 0.851534,2.716968 -1.172129,0.332338 -2.939753,-0.0015 -3.897911,0.455566 -0.635386,0.319643 -0.938574,0.982828 -0.57736,1.622115 0.148692,0.256912 0.401831,0.476478 0.765945,0.615388 0.611452,0.235253 1.627636,0.138909 2.301465,0.138909 1.726281,0 4.886533,-0.0028 7.129971,-0.317399 1.150371,-0.159079 1.816221,0.355488 2.498754,1.058254 l 9.997916,10.295055 -1.30849,1.34803 L 24.332555,31.57823 c -2.156399,0.330843 -5.045378,0.288275 -7.029876,0.260642 -1.109752,-0.01791 -2.652523,0.126963 -3.657102,-0.305452 -2.267374,-0.982829 -2.409538,-3.947744 -0.239358,-5.138939 0.903033,-0.490669 1.777778,-0.450341 2.759871,-0.480213 -2.730858,-2.811067 -5.437781,-5.66844 -8.1737167,-8.483989 -1.3926291,-1.434664 -0.7282289,-3.879038 1.0669571,-4.565375 -2.3312032,-2.40031 0.5657555,-5.7080243 2.9288726,-4.6796373 0.374995,0.1635562 0.646993,0.3898436 0.927695,0.6803624 0.702842,-1.8596061 3.02244,-2.5944874 4.444808,-1.1299552 l 0.171902,0.176999 C 18.346425,6.1210282 20.52531,5.3936161 21.95348,6.8633787 Z M 39.367147,32.714902 c 0.545446,0 1.039394,0.227788 1.39553,0.595224 a 1.9673062,2.0256276 0 0 1 0.578086,1.436903 c 0,0.561617 -0.221224,1.070207 -0.578086,1.4369 a 1.9660732,2.024358 0 0 1 -1.39553,0.595222 c -0.544722,0 -1.039395,-0.227783 -1.395531,-0.595222 a 1.9690471,2.02742 0 0 1 -0.578086,-1.4369 c 0,-0.560869 0.22195,-1.070206 0.578086,-1.436903 a 1.9673062,2.0256276 0 0 1 1.395531,-0.595224 z m 0.725328,1.285299 a 1.0234373,1.0537775 0 0 0 -0.725328,-0.309192 c -0.282878,0 -0.539645,0.11875 -0.725328,0.309192 a 1.025976,1.0563914 0 0 0 0,1.493656 c 0.185683,0.190442 0.44245,0.309188 0.725328,0.309188 0.283603,0 0.540369,-0.118746 0.725328,-0.309188 0.185683,-0.190441 0.300285,-0.455566 0.300285,-0.746828 0,-0.291261 -0.114602,-0.555643 -0.300285,-0.746828 z m -6.216784,-1.673647 c 0.512806,0 0.928419,0.427932 0.928419,0.955943 0,0.528005 -0.415613,0.955943 -0.928419,0.955943 -0.512807,0 -0.928419,-0.427938 -0.928419,-0.955943 0,-0.528011 0.415612,-0.955943 0.928419,-0.955943 z M 29.787744,26.81121 c 0.545447,0 1.039396,0.227783 1.395531,0.595224 a 1.9673062,2.0256276 0 0 1 0.578086,1.436903 c 0,0.561617 -0.221225,1.070206 -0.578086,1.436899 a 1.9660732,2.024358 0 0 1 -1.395531,0.595224 c -0.544721,0 -1.039395,-0.227783 -1.39553,-0.595224 a 1.9660732,2.024358 0 0 1 -0.578086,-1.436899 c 0,-0.560869 0.221225,-1.070211 0.578086,-1.436903 a 1.9673062,2.0256276 0 0 1 1.39553,-0.595224 z m 0.725328,1.285294 a 1.0234373,1.0537775 0 0 0 -0.725328,-0.309187 c -0.282878,0 -0.539644,0.118745 -0.725328,0.309187 -0.184959,0.190442 -0.300285,0.455567 -0.300285,0.746833 0,0.291262 0.115326,0.556387 0.300285,0.746828 0.185684,0.190442 0.44245,0.309188 0.725328,0.309188 0.283604,0 0.540369,-0.118746 0.725328,-0.309188 0.184958,-0.190441 0.300286,-0.455566 0.300286,-0.746828 0,-0.291266 -0.115328,-0.556391 -0.300286,-0.746833 z m -2.609003,-6.648281 c 0.446076,0 0.808014,0.37267 0.808014,0.831971 0,0.459296 -0.361938,0.831968 -0.808014,0.831968 -0.446078,0 -0.808016,-0.372672 -0.808016,-0.831968 0,-0.459301 0.361938,-0.831971 0.808016,-0.831971 z m -3.658554,3.746845 c 0.512808,0 0.92842,0.427938 0.92842,0.955943 0,0.527262 -0.415612,0.955944 -0.92842,0.955944 -0.512806,0 -0.92842,-0.428682 -0.92842,-0.955944 0,-0.528005 0.415614,-0.955943 0.92842,-0.955943 z m -4.524593,-5.678895 c 0.512806,0 0.928419,0.428681 0.928419,0.955942 0,0.528011 -0.415613,0.955944 -0.928419,0.955944 -0.512807,0 -0.92842,-0.427933 -0.92842,-0.955944 0,-0.527261 0.415613,-0.955942 0.92842,-0.955942 z m 5.111384,-3.707266 c 0.544721,0 1.038668,0.228531 1.39553,0.595224 0.356136,0.36744 0.578087,0.876034 0.578087,1.436903 0,0.561618 -0.221951,1.070207 -0.578087,1.437647 -0.356862,0.366693 -0.850809,0.595224 -1.39553,0.595224 -0.545447,0 -1.039396,-0.228531 -1.396256,-0.595224 -0.356137,-0.36744 -0.578086,-0.876029 -0.578086,-1.437647 0,-0.560869 0.221949,-1.069463 0.578086,-1.436903 0.35686,-0.366693 0.850809,-0.595224 1.396256,-0.595224 z m 0.724602,1.285295 a 1.0230021,1.0533293 0 0 0 -0.724602,-0.309188 c -0.283604,0 -0.54037,0.118746 -0.725328,0.309188 -0.185684,0.191189 -0.301011,0.455566 -0.301011,0.746832 0,0.292011 0.115327,0.556387 0.301011,0.746829 0.184958,0.19119 0.441724,0.309935 0.725328,0.309935 0.282878,0 0.539643,-0.118745 0.724602,-0.309935 0.185684,-0.190442 0.301011,-0.454818 0.301011,-0.746829 0,-0.291266 -0.115327,-0.555643 -0.301011,-0.746832 z"
     id="path2"
     inkscape:connector-curvature="0"
     style="fill-rule:nonzero;stroke-width:0.07360002" />
  <g
     id="g4503"
     transform="matrix(0.37786292,0,0,0.38456693,-2.3613501,55.699803)"
     style="clip-rule:evenodd;fill:#000000;fill-opacity:1;fill-rule:evenodd;image-rendering:optimizeQuality;shape-rendering:geometricPrecision;text-rendering:geometricPrecision">
    <path
       id="path4501"
       d="m 70.968138,-143.03395 c 16.966,0 32.326002,6.877 43.444002,17.996 11.118,11.119 17.996,26.478995 17.996,43.444995 0,16.966 -6.878,32.325 -17.996,43.444 -11.117,11.118 -26.478002,17.995 -43.444002,17.995 -16.966,0 -32.326,-6.877 -43.444,-17.995 -11.119,-11.119 -17.9960002,-26.479 -17.9960002,-43.445 0,-16.966 6.8770002,-32.325995 17.9960002,-43.444995 11.118,-11.118 26.479,-17.995 43.444,-17.995 z m 42.213002,27.788 -75.865002,75.863995 c 9.229,7.367 20.926,11.771 33.652,11.771 14.907,0 28.403,-6.043 38.172002,-15.812 9.769,-9.769 15.812,-23.265 15.812,-38.172 0,-12.726 -4.404,-24.422995 -11.771,-33.650995 z m -81.364002,70.818995 76.318002,-76.317995 c -9.678002,-9.191 -22.763002,-14.832 -37.167002,-14.832 -14.908,0 -28.404,6.042 -38.172,15.811 -9.768,9.768 -15.811,23.263995 -15.811,38.171995 0,14.403 5.641,27.488 14.832,37.167 z"
       inkscape:connector-curvature="0"
       style="fill:#000000;fill-opacity:1" />
  </g>
</svg>
