<?xml version="1.0" encoding="UTF-8" standalone="no"?>
<!-- Created with Inkscape (http://www.inkscape.org/) -->

<svg
   width="48"
   height="48"
   viewBox="0 0 12.7 12.7"
   version="1.1"
   id="svg1"
   xmlns="http://www.w3.org/2000/svg"
   xmlns:svg="http://www.w3.org/2000/svg">
  <defs
     id="defs1" />
  <g
     id="layer1">
    <g
       id="g3">
      <g
         id="g4"
         transform="matrix(0.79373724,0,0,0.79373724,15.023339,8.8022729)">
        <path
           d="m -4.3804698,-4.6446415 v 0.010443 a 0.27995712,0.2571948 0 0 1 -0.011363,0.055045 l -2.124989,8.1362769 v 0.0095 0 c -0.4194187,1.414096 -1.4669341,1.373287 -2.6249855,1.328682 -1.0082577,-0.04176 -2.0661037,-0.02373 -3.0805617,-0.0095 -1.615693,0.02373 -2.30164,0.03227 -2.824364,-1.978787 v 0 l -0.03099,-0.101548 a 3.1952302,2.9354373 0 0 1 -0.665285,-0.47453 c -1.120862,-1.027831 -1.695239,-3.8930372 -0.987598,-7.1729833 0,-0.5637408 0.801648,-1.0116955 2.097095,-1.280279 1.061978,-0.2201816 2.510317,-0.3568463 4.101217,-0.3568463 1.5909016,0 3.0330411,0.1366647 4.0939864,0.3568463 1.295447,0.2685835 2.0970947,0.7174876 2.0970947,1.280279 a 0.69214492,0.63586906 0 0 1 -0.03409,0.1974042 z m -11.6920842,-0.2771245 0.01136,0.05979 a 0.03718988,0.0341661 0 0 0 -0.02376,0.00855 c 0,0 0,0.0076 0,0.011391 -0.001,0.6406142 2.483457,1.1531062 5.552655,1.1531062 3.0691977,0 5.5474907,-0.5162871 5.5474907,-1.1531062 0,-0.6368178 -2.488623,-1.1531049 -5.5474907,-1.1531049 -2.935934,0 -5.338813,0.4745286 -5.535093,1.0733845 z m 0.103305,0.9376692 1.42148,6.4137372 a 2.7737449,2.5482216 0 0 0 0.947309,0.213538 c 0.655988,0.04176 1.679743,-0.106294 2.345028,-0.411892 a 5.5784815,5.1249148 0 0 0 2.9855211,-3.9651656 0.85536716,0.78582028 0 0 1 -0.4824362,-0.707049 c 0,-0.8655404 1.7128006,-0.8626934 1.7128006,0 a 0.85846632,0.78866745 0 0 1 -0.6260289,0.7592474 6.1983128,5.6943499 0 0 1 -3.3191966,4.4083762 c -0.76136,0.349253 -1.893585,0.518186 -2.655977,0.468834 a 3.449361,3.1689057 0 0 1 -0.736566,-0.119581 c 0.368799,1.275535 1.003093,1.269841 2.141517,1.25086 1.026853,-0.01613 2.090898,-0.03227 3.1156851,0.0085 0.9039201,0.03701 1.7220973,0.06833 2.0134184,-0.915841 v 0 l 1.925609,-7.3693973 a 5.6621587,5.2017886 0 0 1 -1.262389,0.3881647 c -1.0609453,0.2211297 -2.5092845,0.3568449 -4.0888215,0.3568449 -1.579536,0 -3.034074,-0.1357152 -4.093985,-0.3568449 a 5.4214575,4.980658 0 0 1 -1.339868,-0.4223316 z m 0.684914,5.9515442 -1.097101,-4.6200148 c -0.230371,2.16575075 0.247932,3.8436858 1.069208,4.5953398 a 0.28615544,0.26288915 0 0 0 0.02789,0.02468 z"
           id="path4"
           style="stroke-width:0.0990164" />
        <g
           id="g6-4-9"
           transform="matrix(0.08206801,0,0,0.05838806,-14.277659,-11.089656)">
          <path
             class="st0"
             d="m 39.1,30.89 c 4.53,0 8.21,3.68 8.21,8.21 0,4.54 -3.68,8.21 -8.21,8.21 -4.54,0 -8.21,-3.68 -8.21,-8.21 0,-4.54 3.67,-8.21 8.21,-8.21 z M 39.1,0 c 2.95,0 5.64,1.21 7.58,3.15 1.94,1.94 3.15,4.63 3.15,7.58 v 2.47 l 1.75,-1.75 v 0 c 2.09,-2.09 4.84,-3.13 7.58,-3.13 2.75,0 5.5,1.04 7.58,3.13 v 0 0 c 2.09,2.09 3.13,4.84 3.13,7.58 0,2.74 -1.04,5.5 -3.13,7.58 v 0 L 65,28.37 h 2.47 c 2.95,0 5.64,1.21 7.58,3.15 1.94,1.94 3.15,4.63 3.15,7.58 0,2.95 -1.21,5.64 -3.15,7.58 -1.94,1.94 -4.63,3.15 -7.58,3.15 H 65 l 1.75,1.75 v 0 c 2.09,2.09 3.13,4.84 3.13,7.58 0,2.75 -1.04,5.5 -3.13,7.58 v 0 0 c -2.09,2.09 -4.84,3.13 -7.58,3.13 -1.89,0 -3.78,-0.5 -5.46,-1.49 0.94,5.58 0.48,11.29 -0.52,16.81 2.45,-3.65 5.42,-6.52 8.81,-8.67 7.34,-4.64 16.53,-5.79 26.72,-4.03 1.71,0.29 2.87,1.92 2.57,3.63 -0.01,0.05 -0.02,0.09 -0.03,0.13 v 0 c -2.01,9.2 -6.67,16.37 -13.93,20.96 -6.84,4.32 -15.89,6.26 -27.09,5.34 -0.41,-0.03 -0.79,-0.14 -1.13,-0.31 -0.46,1.93 -0.83,3.73 -1.04,5.37 -0.28,2.15 -0.3,4.29 -0.06,6.44 0.24,2.16 0.74,1.92 1.5,4.03 0.64,1.78 -0.14,3.81 -1.74,4.53 -1.61,0.72 -3.43,-0.15 -4.07,-1.94 -0.98,-2.72 -1.62,-3.06 -1.92,-5.78 -0.08,-0.75 -0.14,-1.5 -0.17,-2.25 C 30.24,110.89 21.57,106.84 15.57,100.95 8.95,94.44 5.65,85.8 5.6,75.6 c 0,-0.09 0,-0.18 0,-0.27 0.07,-1.73 1.53,-3.08 3.26,-3.02 11.27,0.48 20.81,3.81 27.54,10.44 3.45,3.4 6.14,7.62 7.92,12.72 l 0.09,-0.34 c 1.76,-6.76 3.74,-14.39 3.5,-21.56 -0.36,0.52 -0.77,1.01 -1.22,1.45 -1.94,1.94 -4.63,3.15 -7.58,3.15 -2.95,0 -5.64,-1.21 -7.58,-3.15 -1.94,-1.94 -3.15,-4.63 -3.15,-7.58 V 65 l -1.75,1.75 v 0 c -2.09,2.09 -4.84,3.13 -7.58,3.13 -2.74,0 -5.5,-1.04 -7.58,-3.13 v 0 C 9.38,64.66 8.34,61.91 8.34,59.17 c 0,-2.74 1.04,-5.5 3.13,-7.59 l 1.75,-1.75 H 10.75 C 7.8,49.83 5.11,48.62 3.17,46.68 1.21,44.73 0,42.05 0,39.1 0,36.15 1.21,33.46 3.15,31.52 5.09,29.58 7.78,28.37 10.73,28.37 H 13.2 L 11.45,26.62 C 9.36,24.53 8.32,21.78 8.32,19.03 c 0,-2.75 1.04,-5.5 3.13,-7.58 v 0 c 2.09,-2.09 4.84,-3.13 7.58,-3.13 2.75,0 5.5,1.04 7.58,3.13 v 0 l 1.75,1.75 v -2.47 c 0,-2.95 1.21,-5.64 3.15,-7.58 C 33.46,1.21 36.15,0 39.1,0 Z M 12.02,78.87 c 0.64,7.05 3.28,13.03 7.95,17.62 4.66,4.58 11.4,7.87 20.25,9.56 C 39.34,97.84 36.44,91.64 31.98,87.26 27.09,82.45 20.22,79.73 12.02,78.87 Z M 73.98,91.91 C 78.87,88.82 82.29,84.17 84.22,78.24 76.94,77.5 70.49,78.61 65.35,81.86 60.68,84.81 57,89.61 54.64,96.49 62.61,96.62 69.07,95.01 73.98,91.91 Z M 42.69,7.14 C 41.77,6.22 40.5,5.64 39.1,5.64 c -1.4,0 -2.67,0.57 -3.59,1.5 -0.92,0.92 -1.5,2.19 -1.5,3.59 v 9.28 0 c 0,0.72 -0.28,1.44 -0.83,1.99 -1.1,1.1 -2.89,1.1 -3.99,0 l -6.56,-6.56 v 0 c -0.99,-0.99 -2.29,-1.48 -3.6,-1.48 -1.31,0 -2.61,0.49 -3.6,1.48 v 0 c -0.99,0.99 -1.48,2.29 -1.48,3.6 0,1.31 0.49,2.61 1.48,3.6 l 6.55,6.55 c 0.52,0.51 0.84,1.22 0.84,2.01 0,1.56 -1.26,2.82 -2.82,2.82 h -9.28 c -1.4,0 -2.67,0.57 -3.59,1.5 -0.92,0.92 -1.5,2.19 -1.5,3.59 0,1.4 0.57,2.67 1.5,3.59 0.92,0.92 2.19,1.5 3.59,1.5 H 20 v 0 c 0.72,0 1.44,0.28 1.99,0.83 1.1,1.1 1.1,2.89 0,3.99 l -6.56,6.56 c -0.99,0.99 -1.48,2.29 -1.48,3.6 0,1.31 0.49,2.61 1.48,3.6 v 0 c 0.99,0.99 2.29,1.48 3.6,1.48 1.31,0 2.61,-0.49 3.6,-1.48 v 0 l 6.54,-6.54 c 0.51,-0.52 1.23,-0.85 2.02,-0.85 1.56,0 2.82,1.26 2.82,2.82 v 9.28 c 0,1.4 0.57,2.67 1.5,3.59 0.92,0.92 2.19,1.5 3.59,1.5 1.4,0 2.67,-0.57 3.59,-1.5 0.92,-0.92 1.5,-2.19 1.5,-3.59 v -9.28 0 c 0,-0.72 0.28,-1.44 0.83,-1.99 1.1,-1.1 2.89,-1.1 3.99,0 l 6.56,6.56 v 0 c 0.99,0.99 2.29,1.48 3.6,1.48 1.31,0 2.61,-0.49 3.6,-1.48 v 0 0 c 0.99,-0.99 1.48,-2.29 1.48,-3.6 0,-1.31 -0.49,-2.61 -1.48,-3.6 v 0 l -6.55,-6.55 c -0.52,-0.51 -0.84,-1.22 -0.84,-2.01 0,-1.56 1.26,-2.82 2.82,-2.82 h 9.28 c 1.4,0 2.67,-0.57 3.59,-1.5 0.92,-0.92 1.5,-2.19 1.5,-3.59 0,-1.4 -0.57,-2.67 -1.5,-3.59 -0.92,-0.92 -2.19,-1.5 -3.59,-1.5 H 58.2 v 0 c -0.72,0 -1.44,-0.28 -1.99,-0.83 -1.1,-1.1 -1.1,-2.89 0,-3.99 l 6.56,-6.56 v 0 c 0.99,-0.99 1.48,-2.29 1.48,-3.6 0,-1.31 -0.49,-2.61 -1.48,-3.6 v 0 0 c -0.99,-0.99 -2.29,-1.48 -3.6,-1.48 -1.31,0 -2.61,0.49 -3.6,1.48 v 0 l -6.55,6.55 c -0.51,0.52 -1.22,0.84 -2.01,0.84 -1.56,0 -2.82,-1.26 -2.82,-2.82 V 10.73 C 44.18,9.33 43.61,8.06 42.69,7.14 Z"
             id="path4-7-3"
             style="clip-rule:evenodd;fill-rule:evenodd" />
        </g>
        <g
           id="g2">
          <path
             style="opacity:1;fill:#1a1a1a;stroke-width:0.0146809"
             d="m -11.10609,-4.9223432 c -0.95369,-0.1696018 -1.542516,-0.4421142 -1.881455,-0.8707503 -0.146766,-0.1856073 -0.244177,-0.4003011 -0.289114,-0.6372077 l -0.0093,-0.048867 0.09896,0.00974 c 1.261339,0.1242084 2.005235,0.6243453 2.18185,1.4669024 0.02292,0.1093629 0.03028,0.1035193 -0.100971,0.080177 z"
             id="path1" />
        </g>
        <path
           style="opacity:1;fill:#1a1a1a;stroke-width:0.0146809"
           d="m -9.7275538,-5.5595921 c 0.2883326,-0.5245571 0.8144867,-0.8422444 1.5547226,-0.9387284 0.1650129,-0.021508 0.7883456,-0.033097 0.7883456,-0.014658 0,0.01728 -0.066021,0.136268 -0.1218637,0.2196285 -0.08252,0.1231841 -0.2748433,0.3097125 -0.4139885,0.4015134 -0.3958563,0.2611659 -0.9165449,0.3990107 -1.5992141,0.4233682 l -0.2632535,0.00939 z"
           id="path2" />
      </g>
    </g>
  </g>
</svg>
