<?xml version="1.0" encoding="UTF-8" standalone="no"?>
<svg
   xmlns:dc="http://purl.org/dc/elements/1.1/"
   xmlns:cc="http://creativecommons.org/ns#"
   xmlns:rdf="http://www.w3.org/1999/02/22-rdf-syntax-ns#"
   xmlns:svg="http://www.w3.org/2000/svg"
   xmlns="http://www.w3.org/2000/svg"
   xmlns:sodipodi="http://sodipodi.sourceforge.net/DTD/sodipodi-0.dtd"
   xmlns:inkscape="http://www.inkscape.org/namespaces/inkscape"
   version="1.1"
   id="Layer_1"
   x="0px"
   y="0px"
   viewBox="0 0 47.999999 48.000001"
   xml:space="preserve"
   sodipodi:docname="plant-type-Flowering plant.svg"
   width="48"
   height="48"
   inkscape:version="0.92.1 r15371"><metadata
     id="metadata13"><rdf:RDF><cc:Work
         rdf:about=""><dc:format>image/svg+xml</dc:format><dc:type
           rdf:resource="http://purl.org/dc/dcmitype/StillImage" /><dc:title></dc:title></cc:Work></rdf:RDF></metadata><defs
     id="defs11" /><sodipodi:namedview
     pagecolor="#ffffff"
     bordercolor="#666666"
     borderopacity="1"
     objecttolerance="10"
     gridtolerance="10"
     guidetolerance="10"
     inkscape:pageopacity="0"
     inkscape:pageshadow="2"
     inkscape:window-width="1366"
     inkscape:window-height="705"
     id="namedview9"
     showgrid="false"
     inkscape:zoom="1.920573"
     inkscape:cx="-19.159404"
     inkscape:cy="61.439999"
     inkscape:window-x="-8"
     inkscape:window-y="-8"
     inkscape:window-maximized="1"
     inkscape:current-layer="Layer_1" /><style
     type="text/css"
     id="style2">.st0{fill-rule:evenodd;clip-rule:evenodd;}</style><g
     id="g6"
     transform="matrix(0.37863375,0,0,0.36008057,9.3722032,2.7010183)"><path
       class="st0"
       d="m 39.1,30.89 c 4.53,0 8.21,3.68 8.21,8.21 0,4.54 -3.68,8.21 -8.21,8.21 -4.54,0 -8.21,-3.68 -8.21,-8.21 0,-4.54 3.67,-8.21 8.21,-8.21 z M 39.1,0 c 2.95,0 5.64,1.21 7.58,3.15 1.94,1.94 3.15,4.63 3.15,7.58 v 2.47 l 1.75,-1.75 v 0 c 2.09,-2.09 4.84,-3.13 7.58,-3.13 2.75,0 5.5,1.04 7.58,3.13 v 0 0 c 2.09,2.09 3.13,4.84 3.13,7.58 0,2.74 -1.04,5.5 -3.13,7.58 v 0 L 65,28.37 h 2.47 c 2.95,0 5.64,1.21 7.58,3.15 1.94,1.94 3.15,4.63 3.15,7.58 0,2.95 -1.21,5.64 -3.15,7.58 -1.94,1.94 -4.63,3.15 -7.58,3.15 H 65 l 1.75,1.75 v 0 c 2.09,2.09 3.13,4.84 3.13,7.58 0,2.75 -1.04,5.5 -3.13,7.58 v 0 0 c -2.09,2.09 -4.84,3.13 -7.58,3.13 -1.89,0 -3.78,-0.5 -5.46,-1.49 0.94,5.58 0.48,11.29 -0.52,16.81 2.45,-3.65 5.42,-6.52 8.81,-8.67 7.34,-4.64 16.53,-5.79 26.72,-4.03 1.71,0.29 2.87,1.92 2.57,3.63 -0.01,0.05 -0.02,0.09 -0.03,0.13 v 0 c -2.01,9.2 -6.67,16.37 -13.93,20.96 -6.84,4.32 -15.89,6.26 -27.09,5.34 -0.41,-0.03 -0.79,-0.14 -1.13,-0.31 -0.46,1.93 -0.83,3.73 -1.04,5.37 -0.28,2.15 -0.3,4.29 -0.06,6.44 0.24,2.16 0.74,1.92 1.5,4.03 0.64,1.78 -0.14,3.81 -1.74,4.53 -1.61,0.72 -3.43,-0.15 -4.07,-1.94 -0.98,-2.72 -1.62,-3.06 -1.92,-5.78 -0.08,-0.75 -0.14,-1.5 -0.17,-2.25 C 30.24,110.89 21.57,106.84 15.57,100.95 8.95,94.44 5.65,85.8 5.6,75.6 c 0,-0.09 0,-0.18 0,-0.27 0.07,-1.73 1.53,-3.08 3.26,-3.02 11.27,0.48 20.81,3.81 27.54,10.44 3.45,3.4 6.14,7.62 7.92,12.72 l 0.09,-0.34 c 1.76,-6.76 3.74,-14.39 3.5,-21.56 -0.36,0.52 -0.77,1.01 -1.22,1.45 -1.94,1.94 -4.63,3.15 -7.58,3.15 -2.95,0 -5.64,-1.21 -7.58,-3.15 -1.94,-1.94 -3.15,-4.63 -3.15,-7.58 V 65 l -1.75,1.75 v 0 c -2.09,2.09 -4.84,3.13 -7.58,3.13 -2.74,0 -5.5,-1.04 -7.58,-3.13 v 0 C 9.38,64.66 8.34,61.91 8.34,59.17 c 0,-2.74 1.04,-5.5 3.13,-7.59 l 1.75,-1.75 H 10.75 C 7.8,49.83 5.11,48.62 3.17,46.68 1.21,44.73 0,42.05 0,39.1 0,36.15 1.21,33.46 3.15,31.52 5.09,29.58 7.78,28.37 10.73,28.37 H 13.2 L 11.45,26.62 C 9.36,24.53 8.32,21.78 8.32,19.03 c 0,-2.75 1.04,-5.5 3.13,-7.58 v 0 c 2.09,-2.09 4.84,-3.13 7.58,-3.13 2.75,0 5.5,1.04 7.58,3.13 v 0 l 1.75,1.75 v -2.47 c 0,-2.95 1.21,-5.64 3.15,-7.58 C 33.46,1.21 36.15,0 39.1,0 Z M 12.02,78.87 c 0.64,7.05 3.28,13.03 7.95,17.62 4.66,4.58 11.4,7.87 20.25,9.56 C 39.34,97.84 36.44,91.64 31.98,87.26 27.09,82.45 20.22,79.73 12.02,78.87 Z M 73.98,91.91 C 78.87,88.82 82.29,84.17 84.22,78.24 76.94,77.5 70.49,78.61 65.35,81.86 60.68,84.81 57,89.61 54.64,96.49 62.61,96.62 69.07,95.01 73.98,91.91 Z M 42.69,7.14 C 41.77,6.22 40.5,5.64 39.1,5.64 c -1.4,0 -2.67,0.57 -3.59,1.5 -0.92,0.92 -1.5,2.19 -1.5,3.59 v 9.28 0 c 0,0.72 -0.28,1.44 -0.83,1.99 -1.1,1.1 -2.89,1.1 -3.99,0 l -6.56,-6.56 v 0 c -0.99,-0.99 -2.29,-1.48 -3.6,-1.48 -1.31,0 -2.61,0.49 -3.6,1.48 v 0 c -0.99,0.99 -1.48,2.29 -1.48,3.6 0,1.31 0.49,2.61 1.48,3.6 l 6.55,6.55 c 0.52,0.51 0.84,1.22 0.84,2.01 0,1.56 -1.26,2.82 -2.82,2.82 h -9.28 c -1.4,0 -2.67,0.57 -3.59,1.5 -0.92,0.92 -1.5,2.19 -1.5,3.59 0,1.4 0.57,2.67 1.5,3.59 0.92,0.92 2.19,1.5 3.59,1.5 H 20 v 0 c 0.72,0 1.44,0.28 1.99,0.83 1.1,1.1 1.1,2.89 0,3.99 l -6.56,6.56 c -0.99,0.99 -1.48,2.29 -1.48,3.6 0,1.31 0.49,2.61 1.48,3.6 v 0 c 0.99,0.99 2.29,1.48 3.6,1.48 1.31,0 2.61,-0.49 3.6,-1.48 v 0 l 6.54,-6.54 c 0.51,-0.52 1.23,-0.85 2.02,-0.85 1.56,0 2.82,1.26 2.82,2.82 v 9.28 c 0,1.4 0.57,2.67 1.5,3.59 0.92,0.92 2.19,1.5 3.59,1.5 1.4,0 2.67,-0.57 3.59,-1.5 0.92,-0.92 1.5,-2.19 1.5,-3.59 v -9.28 0 c 0,-0.72 0.28,-1.44 0.83,-1.99 1.1,-1.1 2.89,-1.1 3.99,0 l 6.56,6.56 v 0 c 0.99,0.99 2.29,1.48 3.6,1.48 1.31,0 2.61,-0.49 3.6,-1.48 v 0 0 c 0.99,-0.99 1.48,-2.29 1.48,-3.6 0,-1.31 -0.49,-2.61 -1.48,-3.6 v 0 l -6.55,-6.55 c -0.52,-0.51 -0.84,-1.22 -0.84,-2.01 0,-1.56 1.26,-2.82 2.82,-2.82 h 9.28 c 1.4,0 2.67,-0.57 3.59,-1.5 0.92,-0.92 1.5,-2.19 1.5,-3.59 0,-1.4 -0.57,-2.67 -1.5,-3.59 -0.92,-0.92 -2.19,-1.5 -3.59,-1.5 H 58.2 v 0 c -0.72,0 -1.44,-0.28 -1.99,-0.83 -1.1,-1.1 -1.1,-2.89 0,-3.99 l 6.56,-6.56 v 0 c 0.99,-0.99 1.48,-2.29 1.48,-3.6 0,-1.31 -0.49,-2.61 -1.48,-3.6 v 0 0 c -0.99,-0.99 -2.29,-1.48 -3.6,-1.48 -1.31,0 -2.61,0.49 -3.6,1.48 v 0 l -6.55,6.55 c -0.51,0.52 -1.22,0.84 -2.01,0.84 -1.56,0 -2.82,-1.26 -2.82,-2.82 V 10.73 C 44.18,9.33 43.61,8.06 42.69,7.14 Z"
       id="path4"
       inkscape:connector-curvature="0"
       style="clip-rule:evenodd;fill-rule:evenodd" /></g><path
     style="opacity:1;fill:#ff00ff;fill-opacity:1;stroke:none;stroke-width:1.56203389;stroke-linejoin:round;stroke-miterlimit:4;stroke-dasharray:none;stroke-dashoffset:0;stroke-opacity:1"
     d="m 22.875198,27.704045 c -0.131886,-0.378052 -0.306567,-1.622639 -0.388181,-2.765748 -0.1979,-2.771855 -1.495323,-3.012473 -3.864041,-0.716622 -1.416095,1.372534 -1.961104,1.616084 -2.647516,1.183107 -1.433518,-0.904239 -1.332785,-1.60681 0.5289,-3.688874 2.271819,-2.540748 2.004223,-3.290416 -1.174519,-3.290416 -2.664755,0 -3.908266,-0.843211 -3.358048,-2.277056 0.237319,-0.618442 0.995326,-0.847012 2.808958,-0.847012 3.70475,0 4.187394,-0.967294 1.800762,-3.60901 -1.587601,-1.757285 -1.80602,-2.2560538 -1.270521,-2.901291 0.910866,-1.097526 1.353674,-0.9944862 3.647286,0.8487102 2.704037,2.1730238 3.64069,1.7727448 3.64069,-1.555852 0,-1.7988123 0.233088,-2.6534688 0.781016,-2.8637288 1.595787,-0.6123609 2.288698,0.2264156 2.447601,2.9628492 0.192594,3.3166174 1.120863,3.6738024 3.688583,1.4193147 2.04682,-1.7971321 2.574925,-1.9197263 3.494842,-0.8112933 0.535499,0.6452372 0.317081,1.144006 -1.27052,2.901291 -2.386632,2.641716 -1.903988,3.60901 1.800762,3.60901 1.813632,0 2.571639,0.22857 2.808958,0.847012 0.550217,1.433845 -0.693294,2.277056 -3.358048,2.277056 -3.196951,0 -3.475427,0.780187 -1.148439,3.217505 1.168446,1.223846 1.714109,2.215435 1.510754,2.745369 -0.610983,1.592197 -1.919165,1.516183 -3.705624,-0.215321 -2.455443,-2.379909 -3.596008,-2.006254 -3.925818,1.28612 -0.220917,2.205336 -0.438089,2.62411 -1.434192,2.765558 -0.645619,0.09168 -1.28176,-0.142627 -1.413645,-0.520678 z m 3.457686,-8.578235 c 1.168177,-1.057185 1.238748,-3.463441 0.133977,-4.568211 -0.450014,-0.450015 -1.487651,-0.818208 -2.30586,-0.818208 -1.852652,0 -3.124067,1.21689 -3.124067,2.990091 0,2.824956 3.214906,4.279648 5.29595,2.396328 z"
     id="path4490"
     inkscape:connector-curvature="0" /><path
     style="opacity:1;fill:#00da00;fill-opacity:1;stroke:none;stroke-width:1.56203389;stroke-linejoin:round;stroke-miterlimit:4;stroke-dasharray:none;stroke-dashoffset:0;stroke-opacity:1"
     d="m 20.27543,39.223262 c -1.13476,-0.566066 -2.710903,-1.649751 -3.502541,-2.408188 -1.442296,-1.381806 -2.87952,-4.650763 -2.29968,-5.230603 0.616311,-0.616311 4.543367,0.985888 6.389577,2.606882 1.712452,1.503553 3.298215,4.179276 3.298215,5.565212 0,0.82489 -1.604286,0.604698 -3.885571,-0.533303 z"
     id="path4492"
     inkscape:connector-curvature="0" /><path
     style="opacity:1;fill:#00da00;fill-opacity:1;stroke:none;stroke-width:1.56203389;stroke-linejoin:round;stroke-miterlimit:4;stroke-dasharray:none;stroke-dashoffset:0;stroke-opacity:1"
     d="m 31.290886,35.572934 c 0.517343,-0.878331 1.335148,-1.954982 1.817343,-2.392558 1.889818,-1.714943 7.714467,-2.980885 7.714467,-1.676679 0,0.320064 -0.883927,1.465861 -1.964282,2.546216 -1.889459,1.889459 -4.752823,3.110905 -7.307189,3.117082 -1.197633,0.0029 -1.198355,-0.0015 -0.260339,-1.594061 z"
     id="path4494"
     inkscape:connector-curvature="0" /><path
     style="opacity:1;fill:#ffff00;fill-opacity:1;stroke:none;stroke-width:1.56203389;stroke-linejoin:round;stroke-miterlimit:4;stroke-dasharray:none;stroke-dashoffset:0;stroke-opacity:1"
     d="m 22.468798,18.904464 c -1.046688,-0.609639 -1.222904,-3.08305 -0.286373,-4.019582 0.805446,-0.805446 3.151706,-0.805446 3.957153,0 0.990053,0.990053 0.759128,3.432088 -0.382313,4.042969 -1.247659,0.667727 -2.112457,0.661577 -3.288467,-0.02339 z"
     id="path4496"
     inkscape:connector-curvature="0" /></svg>
