<?xml version="1.0" encoding="UTF-8" standalone="no"?>
<svg
   version="1.1"
   id="Layer_1"
   x="0px"
   y="0px"
   viewBox="0 0 48 48"
   xml:space="preserve"
   sodipodi:docname="partial-sun.svg"
   width="48"
   height="48"
   inkscape:version="1.3.2 (091e20e, 2023-11-25)"
   xmlns:inkscape="http://www.inkscape.org/namespaces/inkscape"
   xmlns:sodipodi="http://sodipodi.sourceforge.net/DTD/sodipodi-0.dtd"
   xmlns="http://www.w3.org/2000/svg"
   xmlns:svg="http://www.w3.org/2000/svg"
   xmlns:rdf="http://www.w3.org/1999/02/22-rdf-syntax-ns#"
   xmlns:cc="http://creativecommons.org/ns#"
   xmlns:dc="http://purl.org/dc/elements/1.1/"><metadata
     id="metadata11"><rdf:RDF><cc:Work
         rdf:about=""><dc:format>image/svg+xml</dc:format><dc:type
           rdf:resource="http://purl.org/dc/dcmitype/StillImage" /></cc:Work></rdf:RDF></metadata><defs
     id="defs9" /><sodipodi:namedview
     pagecolor="#ffffff"
     bordercolor="#666666"
     borderopacity="1"
     objecttolerance="10"
     gridtolerance="10"
     guidetolerance="10"
     inkscape:pageopacity="0"
     inkscape:pageshadow="2"
     inkscape:window-width="1312"
     inkscape:window-height="795"
     id="namedview7"
     showgrid="false"
     inkscape:zoom="6.0460615"
     inkscape:cx="25.636524"
     inkscape:cy="35.394942"
     inkscape:window-x="0"
     inkscape:window-y="38"
     inkscape:window-maximized="0"
     inkscape:current-layer="Layer_1"
     inkscape:showpageshadow="0"
     inkscape:pagecheckerboard="0"
     inkscape:deskcolor="#d1d1d1" /><path
     id="path2"
     style="stroke-width:0.153946"
     d="M 19.089844 0 C 18.421046 -1.4802959e-16 17.878906 0.52098714 17.878906 1.1640625 L 17.878906 4.1445312 C 17.878906 4.7876056 18.421046 5.3085938 19.089844 5.3085938 C 19.758642 5.3085938 20.298828 4.7876056 20.298828 4.1445312 L 20.298828 1.1640625 C 20.298828 0.52098714 19.758642 0 19.089844 0 z M 10.322266 2.15625 C 10.090251 2.1408861 9.8508299 2.1899702 9.6347656 2.3105469 C 9.0585952 2.6320846 8.8609138 3.3424729 9.1953125 3.8964844 L 10.746094 6.4785156 C 11.080492 7.0340361 11.820314 7.2219283 12.396484 6.9003906 C 12.972655 6.5788529 13.170336 5.8684626 12.835938 5.3144531 L 11.285156 2.7324219 C 11.076157 2.3852222 10.708957 2.1818565 10.322266 2.15625 z M 27.783203 2.3984375 C 27.397324 2.425533 27.033209 2.6303053 26.826172 2.9765625 L 25.275391 5.5585938 C 24.944132 6.1141142 25.14258 6.8221073 25.71875 7.140625 C 26.29649 7.4591437 27.032022 7.2669011 27.363281 6.7128906 L 28.916016 4.1308594 C 29.247275 3.5753389 29.046874 2.8673458 28.470703 2.5488281 C 28.25405 2.429384 28.014731 2.3821802 27.783203 2.3984375 z M 18.839844 7.7246094 C 15.856944 7.7246094 13.155373 8.888169 11.199219 10.767578 C 9.2430637 12.648496 8.0332031 15.245551 8.0332031 18.115234 C 8.0332031 20.984918 9.2446337 23.580018 11.199219 25.460938 C 11.513214 25.762855 11.852685 26.03968 12.203125 26.302734 C 12.518219 25.617252 12.903274 24.948667 13.335938 24.333984 C 13.162607 24.192033 12.992913 24.047272 12.832031 23.892578 C 11.295053 22.414713 10.34375 20.372034 10.34375 18.115234 C 10.34375 15.858435 11.295053 13.815754 12.832031 12.337891 C 14.36901 10.860027 16.492772 9.9453125 18.839844 9.9453125 C 21.186916 9.9453125 23.310678 10.860027 24.847656 12.337891 C 26.384635 13.815754 27.335938 15.858435 27.335938 18.115234 C 27.335937 18.91012 27.212258 19.675947 26.992188 20.402344 C 27.71456 20.673207 28.412223 21.016716 29.074219 21.431641 C 29.439595 20.389109 29.644531 19.276581 29.644531 18.115234 C 29.644531 15.247061 28.435054 12.648496 26.480469 10.767578 C 24.524315 8.88666 21.824315 7.7246094 18.839844 7.7246094 z M 3.609375 8.2753906 C 3.223496 8.3024861 2.859381 8.5072585 2.6523438 8.8535156 C 2.3210851 9.4090351 2.5195327 10.117029 3.0957031 10.435547 L 5.78125 11.927734 C 6.3589904 12.246252 7.0945226 12.05401 7.4257812 11.5 C 7.7570399 10.944481 7.5585933 10.236486 6.9824219 9.9179688 L 4.296875 8.4257812 C 4.0802223 8.3063367 3.8409024 8.2591333 3.609375 8.2753906 z M 34.314453 8.6875 C 34.082438 8.6719504 33.843017 8.7212206 33.626953 8.8417969 L 30.941406 10.332031 C 30.363666 10.653568 30.167554 11.365912 30.501953 11.919922 C 30.836352 12.473932 31.576172 12.663335 32.152344 12.341797 L 34.837891 10.851562 C 35.415631 10.530025 35.611742 9.8176823 35.277344 9.2636719 C 35.068345 8.9174147 34.701145 8.713416 34.314453 8.6875 z M 1.2109375 16.710938 C 0.54213967 16.710938 0 17.231925 0 17.875 C 1.4802959e-16 18.518075 0.54213967 19.039062 1.2109375 19.039062 L 4.3105469 19.039062 C 4.9793442 19.039062 5.5214844 18.518075 5.5214844 17.875 C 5.5214844 17.231925 4.9793442 16.710938 4.3105469 16.710938 L 1.2109375 16.710938 z M 33.367188 17.191406 C 32.69839 17.191406 32.158203 17.712394 32.158203 18.355469 C 32.158203 18.998543 32.69839 19.519531 33.367188 19.519531 L 36.46875 19.519531 C 37.137548 19.519531 37.679688 18.998543 37.679688 18.355469 C 37.679688 17.712394 37.137548 17.191406 36.46875 17.191406 L 33.367188 17.191406 z M 6.2128906 23.734375 C 5.9808756 23.718825 5.7414549 23.766142 5.5253906 23.886719 L 2.8417969 25.378906 C 2.2640565 25.700444 2.0679451 26.410832 2.4023438 26.964844 C 2.7367434 27.518855 3.476564 27.71021 4.0527344 27.388672 L 6.7363281 25.896484 C 7.3140685 25.574947 7.5101799 24.864557 7.1757812 24.310547 C 6.9667821 23.964291 6.5995823 23.760291 6.2128906 23.734375 z M 32.376953 24.568359 C 32.682426 24.98888 32.867425 25.3149 32.796875 25.378906 C 32.749075 25.422266 32.214134 25.70706 31.607422 26.011719 C 31.399217 26.116268 31.15166 26.262725 30.894531 26.421875 L 33.380859 27.802734 C 33.9586 28.121251 34.696084 27.930962 35.027344 27.376953 C 35.358602 26.821434 35.158203 26.113442 34.582031 25.794922 L 32.376953 24.568359 z M 11.273438 28.9375 C 10.887559 28.964596 10.52149 29.16937 10.314453 29.515625 L 9.8417969 30.302734 L 11.164062 30.052734 L 11.369141 28.939453 C 11.337163 28.939255 11.305212 28.935269 11.273438 28.9375 z " /><path
     style="opacity:1;fill:#ffffff;fill-opacity:0;stroke:#ffffff;stroke-width:3.05085;stroke-linejoin:round;stroke-miterlimit:4;stroke-dasharray:none;stroke-dashoffset:0;stroke-opacity:1"
     d=""
     id="path4589"
     inkscape:connector-curvature="0" /><path
     style="opacity:1;fill:#ffffff;fill-opacity:0;stroke:#ffffff;stroke-width:3.05085;stroke-linejoin:round;stroke-miterlimit:4;stroke-dasharray:none;stroke-dashoffset:0;stroke-opacity:1"
     d=""
     id="path4591"
     inkscape:connector-curvature="0" /><path
     style="opacity:1;fill:#ffffff;fill-opacity:0;stroke:#ffffff;stroke-width:1.07864;stroke-linejoin:round;stroke-miterlimit:4;stroke-dasharray:none;stroke-dashoffset:0;stroke-opacity:1"
     d=""
     id="path4609"
     inkscape:connector-curvature="0" /><path
     style="opacity:1;fill:#ffffff;fill-opacity:0;stroke:#ffffff;stroke-width:1.07864;stroke-linejoin:round;stroke-miterlimit:4;stroke-dasharray:none;stroke-dashoffset:0;stroke-opacity:1"
     d=""
     id="path4627"
     inkscape:connector-curvature="0" /><path
     style="opacity:1;fill:#ffffff;fill-opacity:0;stroke:#ffffff;stroke-width:1.07864;stroke-linejoin:round;stroke-miterlimit:4;stroke-dasharray:none;stroke-dashoffset:0;stroke-opacity:1"
     d=""
     id="path4629"
     inkscape:connector-curvature="0" /><path
     style="opacity:1;fill:#ffffff;fill-opacity:0;stroke:#ffffff;stroke-width:1.07864;stroke-linejoin:round;stroke-miterlimit:4;stroke-dasharray:none;stroke-dashoffset:0;stroke-opacity:1"
     d=""
     id="path4639"
     inkscape:connector-curvature="0" /><path
     style="opacity:1;fill:#ffffff;fill-opacity:0;stroke:#ffffff;stroke-width:1.07864;stroke-linejoin:round;stroke-miterlimit:4;stroke-dasharray:none;stroke-dashoffset:0;stroke-opacity:1"
     d=""
     id="path4676"
     inkscape:connector-curvature="0" /><path
     style="opacity:1;fill:#ffffff;fill-opacity:0;stroke:#ffffff;stroke-width:1.07864;stroke-linejoin:round;stroke-miterlimit:4;stroke-dasharray:none;stroke-dashoffset:0;stroke-opacity:1"
     d=""
     id="path4678"
     inkscape:connector-curvature="0" /><path
     style="opacity:1;fill:#ffffff;fill-opacity:0;stroke:#ffffff;stroke-width:1.07864;stroke-linejoin:round;stroke-miterlimit:4;stroke-dasharray:none;stroke-dashoffset:0;stroke-opacity:1"
     d=""
     id="path4686"
     inkscape:connector-curvature="0" /><path
     style="opacity:1;fill:#ffffff;fill-opacity:0;stroke:#ffffff;stroke-width:1.07864;stroke-linejoin:round;stroke-miterlimit:4;stroke-dasharray:none;stroke-dashoffset:0;stroke-opacity:1"
     d=""
     id="path4688"
     inkscape:connector-curvature="0" /><path
     style="opacity:1;fill:#ffffff;fill-opacity:0;stroke:#ffffff;stroke-width:1.07864;stroke-linejoin:round;stroke-miterlimit:4;stroke-dasharray:none;stroke-dashoffset:0;stroke-opacity:1"
     d=""
     id="path4692"
     inkscape:connector-curvature="0" /><path
     style="opacity:1;fill:#ffffff;fill-opacity:0;stroke:#ffffff;stroke-width:1.07864;stroke-linejoin:round;stroke-miterlimit:4;stroke-dasharray:none;stroke-dashoffset:0;stroke-opacity:1"
     d=""
     id="path4694"
     inkscape:connector-curvature="0" /><path
     style="opacity:1;fill:#ffffff;fill-opacity:0;stroke:#ffffff;stroke-width:1.07864;stroke-linejoin:round;stroke-miterlimit:4;stroke-dasharray:none;stroke-dashoffset:0;stroke-opacity:1"
     d=""
     id="path4698"
     inkscape:connector-curvature="0" /><path
     style="opacity:1;fill:#ffffff;fill-opacity:0;stroke:#ffffff;stroke-width:1.07864;stroke-linejoin:round;stroke-miterlimit:4;stroke-dasharray:none;stroke-dashoffset:0;stroke-opacity:1"
     d=""
     id="path4704"
     inkscape:connector-curvature="0" /><g
     transform="matrix(0.46113834,0,0,0.46113834,-82.150814,-17.437262)"
     id="g4"
     style="fill:#000000;fill-opacity:1;stroke:#000000;stroke-opacity:1"><path
       d="m 251.30204,99.1698 c -0.63531,0.313415 -1.27907,0.660707 -1.91438,1.02495 -1.9059,1.11813 -3.78639,2.48192 -5.70924,4.04899 l -4.09982,-4.69276 c 1.41461,-1.31295 2.9478,-2.50732 4.57418,-3.566159 1.29602,-0.847065 2.65132,-1.600964 4.04899,-2.244733 0.55906,-0.279538 1.11812,-0.542126 1.69414,-0.787775 -2.70216,-4.785939 -6.5902,-8.216569 -10.99497,-10.334242 -4.40476,-2.109203 -9.33471,-2.922389 -14.13758,-2.456501 -4.769,0.457417 -9.40247,2.19391 -13.23122,5.167123 -4.43018,3.43063 -7.79304,8.563865 -9.08905,15.365827 l -0.40659,2.12614 -2.11767,0.37272 c -2.07532,0.36423 -3.9304,0.864 -5.55678,1.49931 -1.57555,0.60989 -2.98168,1.36378 -4.20993,2.25321 -0.98261,0.71153 -1.82967,1.50777 -2.54968,2.37179 -2.2278,2.66826 -3.26122,6.01419 -3.23581,9.40247 0.0254,3.4391 1.14355,6.91209 3.21039,9.76671 0.77084,1.05884 1.66026,2.03296 2.67675,2.88004 1.03342,0.85554 2.1939,1.56708 3.49839,2.10073 1.29601,0.53365 2.72757,0.91483 4.31158,1.13508 h 61.45487 c 2.99016,-0.72001 5.63301,-1.69415 7.87774,-2.94781 2.2278,-1.2452 4.049,-2.76144 5.41277,-4.58264 2.11768,-2.82075 3.15958,-6.81044 3.20193,-10.90179 0.0509,-4.29464 -0.99954,-8.60623 -3.04098,-11.74038 -0.58448,-0.90637 -1.22825,-1.71955 -1.9059,-2.44803 -3.05793,-3.295094 -6.9375,-4.735113 -10.96955,-4.760527 -2.90545,-0.02544 -5.92948,0.677658 -8.79258,1.948257 z m 4.77747,-7.860803 c 1.35531,-0.211761 2.71063,-0.321879 4.05747,-0.30494 5.6923,0.04232 11.18131,2.075312 15.50136,6.734199 0.90636,0.974134 1.7619,2.075312 2.56662,3.303574 2.71062,4.16757 4.09981,9.73282 4.04052,15.17948 -0.0593,5.345 -1.49931,10.6646 -4.44712,14.57806 -1.92284,2.54967 -4.38781,4.63347 -7.34409,6.28525 -2.84615,1.59249 -6.16666,2.8038 -9.89376,3.66782 l -0.6946,0.0847 H 197.9621 l -0.38966,-0.0339 c -2.26167,-0.28801 -4.31158,-0.82166 -6.17513,-1.5925 -1.92284,-0.79624 -3.62545,-1.82119 -5.12477,-3.07486 -1.42307,-1.18589 -2.66827,-2.53273 -3.72711,-3.99817 -2.82921,-3.89651 -4.35393,-8.65704 -4.38781,-13.40063 -0.0339,-4.79442 1.45696,-9.56342 4.67581,-13.42606 1.0419,-1.25366 2.27015,-2.40566 3.67629,-3.42215 1.63484,-1.18589 3.50687,-2.185441 5.62454,-3.007093 1.45695,-0.56754 3.01557,-1.0419 4.65888,-1.423081 1.86355,-7.403378 5.83631,-13.104154 10.94413,-17.059968 4.77747,-3.701692 10.52907,-5.861718 16.45008,-6.429254 5.89559,-0.567537 11.96062,0.432004 17.40727,3.049448 5.93796,2.854623 11.12203,7.606682 14.48489,14.290053 z"
       id="path2-2"
       inkscape:connector-curvature="0"
       style="fill:#000000;fill-opacity:1;stroke:#000000;stroke-width:0.84707;stroke-opacity:1" /></g></svg>
