<?xml version="1.0" encoding="UTF-8" standalone="no"?>
<!-- Created with Inkscape (http://www.inkscape.org/) -->

<svg
   width="48"
   height="48"
   viewBox="0 0 12.7 12.7"
   version="1.1"
   id="svg1"
   xmlns="http://www.w3.org/2000/svg"
   xmlns:svg="http://www.w3.org/2000/svg">
  <defs
     id="defs1">
    <clipPath
       clipPathUnits="userSpaceOnUse"
       id="clipPath4631">
      <ellipse
         style="opacity:0.072;fill:#000000;fill-opacity:1;stroke:#000000;stroke-width:4.26227;stroke-linejoin:round;stroke-miterlimit:4;stroke-dasharray:none;stroke-dashoffset:0;stroke-opacity:1"
         id="ellipse4633"
         cx="60.685066"
         cy="61.588734"
         rx="58.861824"
         ry="58.212814" />
    </clipPath>
  </defs>
  <g
     id="layer1">
    <g
       id="g3">
      <g
         transform="matrix(0.03089884,0.07050436,-0.09343939,0.03226348,-1.0647137,-4.9976622)"
         id="g4">
        <g
           id="g4590"
           clip-path="url(#clipPath4631)"
           transform="matrix(0.4588891,-1.0027958,1.3290047,0.43947959,62.807494,11.479696)">
          <ellipse
             ry="56.180893"
             rx="58.127937"
             cy="60.507053"
             cx="60.574646"
             id="path4516"
             style="opacity:1;fill:none;fill-opacity:1;stroke:#000000;stroke-width:2.70131;stroke-linejoin:round;stroke-miterlimit:4;stroke-dasharray:none;stroke-dashoffset:0;stroke-opacity:1" />
          <path
             id="path4504"
             d="m 31.65361,45.659002 c -3.7254,-0.615323 -9.99073,-3.940578 -10.65719,-5.656188 -0.16921,-0.435564 -0.62096,-0.203323 -1.93903,0.996829 -2.061,1.876605 -5.04112,3.288174 -8.14635,3.858615 -2.8511197,0.523757 -3.6248197,0.272823 -3.4622997,-1.122921 0.11116,-0.95462 0.29869,-1.070177 2.08647,-1.285735 4.1266997,-0.497564 6.9087397,-2.064468 9.0023197,-5.070293 0.70577,-1.013296 1.50716,-1.734471 1.92739,-1.734471 0.41462,0 1.29961,0.780873 2.08927,1.843498 3.22838,4.344344 9.59207,6.679982 14.761836,5.417978 2.670698,-0.651951 5.596935,-2.700658 7.0743,-4.952832 1.599141,-2.437816 2.936796,-2.642832 4.188652,-0.641976 1.953764,3.122733 5.748628,5.629526 9.276645,6.127923 3.528824,0.498511 8.847767,-2.02886 12.694939,-6.032178 1.826739,-1.900884 2.724635,-1.803084 4.383234,0.477431 4.291828,5.901102 11.863023,7.090333 18.073574,2.838872 0.841663,-0.576161 2.303543,-2.040217 3.248622,-3.253456 1.03263,-1.325618 2.012157,-2.205888 2.454622,-2.205888 0.466902,0 1.210039,0.731103 2.031166,1.998295 2.48994,3.842515 4.88156,5.227146 9.03621,5.231506 l 2.02295,0.0021 v 1.387135 1.387136 l -2.88609,-0.215614 c -3.65351,-0.272947 -6.50576,-1.528003 -8.69491,-3.825964 l -1.645929,-1.727741 -2.152642,1.896112 c -2.688706,2.368277 -5.39746,3.696071 -8.669664,4.249745 -4.848159,0.820333 -9.432709,-0.601917 -13.279322,-4.119598 l -2.167122,-1.981806 -1.926619,1.684814 c -1.05964,0.926646 -3.218092,2.318481 -4.796563,3.092964 -2.73608,1.34247 -3.050604,1.408137 -6.743165,1.407857 -3.513224,-2.65e-4 -4.067233,-0.101149 -5.960645,-1.085411 -1.148084,-0.596815 -2.983265,-1.922041 -4.078177,-2.944946 l -1.99076,-1.859828 -1.853566,1.754384 c -3.413021,3.230392 -8.653838,4.831391 -13.302156,4.06363 z"
             style="opacity:1;fill:#000000;fill-opacity:1;stroke:none;stroke-width:1.14891;stroke-linejoin:round;stroke-miterlimit:4;stroke-dasharray:none;stroke-dashoffset:0;stroke-opacity:1" />
          <rect
             transform="matrix(0.48770125,-0.87301059,0.89358823,0.44888761,0,0)"
             y="26.615877"
             x="-38.397221"
             height="111.87835"
             width="2.1389017"
             id="rect4506"
             style="opacity:1;fill:#000000;fill-opacity:1;stroke:none;stroke-width:2.61681;stroke-linejoin:round;stroke-miterlimit:4;stroke-dasharray:none;stroke-dashoffset:0;stroke-opacity:1" />
          <path
             id="path4504-5"
             d="m 58.57421,59.756371 c -3.7254,-0.615323 -9.99073,-3.940578 -10.65719,-5.656188 -0.16921,-0.435564 -0.62096,-0.203323 -1.93903,0.996829 -2.060999,1.876605 -5.041119,3.288174 -8.146349,3.858615 -2.85112,0.523757 -3.62482,0.272823 -3.4623,-1.122921 0.11116,-0.95462 0.29869,-1.070177 2.08647,-1.285735 4.1267,-0.497564 6.90874,-2.064468 9.002319,-5.070293 0.70577,-1.013296 1.50716,-1.734471 1.92739,-1.734471 0.41462,0 1.29961,0.780873 2.08927,1.843498 3.22838,4.344344 9.59207,6.679982 14.761836,5.417978 2.670698,-0.651951 5.596935,-2.700658 7.0743,-4.952832 1.599141,-2.437816 2.936796,-2.642832 4.188652,-0.641976 1.953764,3.122733 5.748628,5.629526 9.276645,6.127923 3.528824,0.498511 8.847767,-2.02886 12.694939,-6.032178 1.826739,-1.900884 2.724638,-1.803084 4.383238,0.477431 4.29182,5.901102 11.86302,7.090333 18.07357,2.838872 0.84166,-0.576161 2.30354,-2.040217 3.24862,-3.253456 1.03263,-1.325618 2.01216,-2.205888 2.45462,-2.205888 0.46691,0 1.21004,0.731103 2.03117,1.998295 2.48994,3.842515 4.88156,5.227146 9.03621,5.231506 l 2.02295,0.0021 v 1.387135 1.387136 l -2.88609,-0.215614 c -3.65351,-0.272947 -6.50576,-1.528003 -8.69491,-3.825964 l -1.64593,-1.727741 -2.15264,1.896112 c -2.68871,2.368277 -5.39746,3.696071 -8.66966,4.249745 -4.84816,0.820333 -9.43271,-0.601917 -13.27933,-4.119598 l -2.167119,-1.981806 -1.926619,1.684814 c -1.05964,0.926646 -3.218092,2.318481 -4.796563,3.092964 -2.73608,1.34247 -3.050604,1.408137 -6.743165,1.407857 -3.513224,-2.65e-4 -4.067233,-0.101149 -5.960645,-1.085411 -1.148084,-0.596815 -2.983265,-1.922041 -4.078177,-2.944946 l -1.99076,-1.859828 -1.853566,1.754384 c -3.413021,3.230392 -8.653838,4.831391 -13.302156,4.06363 z"
             style="opacity:1;fill:#000000;fill-opacity:1;stroke:none;stroke-width:1.14891;stroke-linejoin:round;stroke-miterlimit:4;stroke-dasharray:none;stroke-dashoffset:0;stroke-opacity:1" />
          <path
             id="path4504-7"
             d="m 91.130829,76.467357 c -3.7254,-0.615323 -9.99073,-3.940578 -10.65719,-5.656188 -0.16921,-0.435564 -0.62096,-0.203323 -1.93903,0.996829 -2.060999,1.876605 -5.041119,3.288174 -8.146349,3.858615 -2.85112,0.523757 -3.62482,0.272823 -3.4623,-1.122921 0.11116,-0.95462 0.29869,-1.070177 2.08647,-1.285735 4.1267,-0.497564 6.90874,-2.064468 9.002319,-5.070293 0.70577,-1.013296 1.50716,-1.734471 1.92739,-1.734471 0.41462,0 1.29961,0.780873 2.08927,1.843498 3.22838,4.344344 9.59207,6.679982 14.761836,5.417978 2.670698,-0.651951 5.596935,-2.700658 7.074305,-4.952832 1.59914,-2.437816 2.93679,-2.642832 4.18865,-0.641976 1.95376,3.122733 5.74862,5.629526 9.27664,6.127923 3.52882,0.498511 8.84777,-2.02886 12.69494,-6.032178 1.82674,-1.900884 2.72463,-1.803084 4.38323,0.477431 4.29183,5.901102 11.86303,7.090333 18.07358,2.838872 0.84166,-0.576161 2.30354,-2.040217 3.24862,-3.253456 1.03263,-1.325618 2.01216,-2.205888 2.45462,-2.205888 0.4669,0 1.21004,0.731103 2.03117,1.998295 2.48994,3.842515 4.88156,5.227146 9.03621,5.231506 l 2.02295,0.0021 v 1.387135 1.387136 l -2.88609,-0.215614 c -3.65351,-0.272947 -6.50576,-1.528003 -8.69491,-3.825964 l -1.64593,-1.727741 -2.15264,1.896112 c -2.68871,2.368277 -5.39746,3.696071 -8.66967,4.249745 -4.84816,0.820333 -9.43271,-0.601917 -13.27932,-4.119598 l -2.16712,-1.981806 -1.92662,1.684814 c -1.05964,0.926646 -3.21809,2.318481 -4.79656,3.092964 -2.73608,1.34247 -3.05061,1.408137 -6.74317,1.407857 -3.51322,-2.65e-4 -4.06723,-0.101149 -5.96064,-1.085411 -1.14809,-0.596815 -2.98327,-1.922041 -4.07818,-2.944946 l -1.99076,-1.859828 -1.85356,1.754384 c -3.41303,3.230392 -8.653843,4.831391 -13.302161,4.06363 z"
             style="opacity:1;fill:#000000;fill-opacity:1;stroke:none;stroke-width:1.14891;stroke-linejoin:round;stroke-miterlimit:4;stroke-dasharray:none;stroke-dashoffset:0;stroke-opacity:1" />
        </g>
      </g>
    </g>
  </g>
</svg>
