<?xml version="1.0" encoding="UTF-8" standalone="no"?>
<!-- Created with Inkscape (http://www.inkscape.org/) -->

<svg
   width="48"
   height="48"
   viewBox="0 0 48 48"
   version="1.1"
   id="svg1"
   inkscape:version="1.3.2 (091e20e, 2023-11-25)"
   sodipodi:docname="moisture-dry.svg"
   xmlns:inkscape="http://www.inkscape.org/namespaces/inkscape"
   xmlns:sodipodi="http://sodipodi.sourceforge.net/DTD/sodipodi-0.dtd"
   xmlns="http://www.w3.org/2000/svg"
   xmlns:svg="http://www.w3.org/2000/svg">
  <sodipodi:namedview
     id="namedview1"
     pagecolor="#505050"
     bordercolor="#0834ee"
     borderopacity="1"
     inkscape:showpageshadow="0"
     inkscape:pageopacity="0"
     inkscape:pagecheckerboard="0"
     inkscape:deskcolor="#d1d1d1"
     inkscape:document-units="px"
     inkscape:zoom="5.5400366"
     inkscape:cx="-16.064876"
     inkscape:cy="23.10454"
     inkscape:window-width="1728"
     inkscape:window-height="1051"
     inkscape:window-x="0"
     inkscape:window-y="38"
     inkscape:window-maximized="1"
     inkscape:current-layer="layer1" />
  <defs
     id="defs1" />
  <g
     inkscape:label="Layer 1"
     inkscape:groupmode="layer"
     id="layer1">
    <path
       d="m 24.774891,12.030297 c 0.913817,4.388629 2.16402,6.120611 3.527552,8.008389 0.881438,1.222101 1.809647,2.506922 2.73246,4.546453 0.235637,0.522021 0.429923,1.062254 0.564839,1.630815 0.1367,0.574628 0.21407,1.171514 0.21407,1.794706 0,1.149257 -0.187091,2.223652 -0.559444,3.221162 -0.372377,0.993459 -0.928208,1.901939 -1.667535,2.723418 -0.74113,0.819455 -1.55601,1.438594 -2.446444,1.853384 -0.89223,0.414782 -1.852817,0.623188 -2.879963,0.623188 -1.027146,0 -1.985934,-0.208418 -2.876368,-0.623188 -0.886834,-0.412762 -1.699914,-1.031907 -2.441045,-1.853384 -0.739326,-0.821479 -1.296974,-1.729959 -1.669335,-2.723418 -0.374141,-0.99751 -0.561243,-2.071905 -0.561243,-3.221162 0,-0.588796 0.06835,-1.153309 0.190658,-1.697587 0.120545,-0.534162 0.295007,-1.048092 0.510877,-1.54988 0.903026,-2.100231 1.851018,-3.407309 2.763039,-4.66785 1.368928,-1.889804 2.660502,-3.670346 3.559932,-8.063023 0.06474,-0.32171 0.35077,-0.522024 0.636793,-0.449181 0.206854,0.05463 0.356182,0.232686 0.401145,0.447158 z m -4.371216,13.886201 c 0.377749,-0.03844 0.710547,0.275172 0.74293,0.698054 0.08635,1.023812 0.286028,1.966689 0.665572,2.780072 0.366966,0.785058 0.913818,1.462877 1.705314,1.982875 0.325595,0.214466 0.435324,0.687938 0.244657,1.054163 -0.190658,0.366224 -0.61161,0.48965 -0.935404,0.275172 -1.030742,-0.677818 -1.743089,-1.559999 -2.226983,-2.593924 -0.48569,-1.039999 -0.717743,-2.197353 -0.816676,-3.358752 -0.03408,-0.422878 0.246461,-0.799219 0.620602,-0.837663 z m 7.074892,-5.123105 c -1.201632,-1.66521 -2.32052,-3.213068 -3.219949,-6.361388 -0.903022,3.168554 -2.050692,4.754854 -3.255925,6.418042 -0.874242,1.205913 -1.780864,2.456339 -2.629923,4.433143 -0.183483,0.424904 -0.33277,0.865994 -0.435323,1.325291 -0.100741,0.449184 -0.158308,0.914551 -0.158308,1.402179 0,0.995481 0.158308,1.914081 0.473099,2.757814 0.316614,0.845757 0.796892,1.624744 1.435486,2.334937 0.642193,0.712217 1.343744,1.24638 2.104658,1.600464 0.757318,0.35206 1.579394,0.530116 2.468028,0.530116 0.892233,0 1.717905,-0.178071 2.477023,-0.530116 0.759113,-0.354085 1.462465,-0.888247 2.104658,-1.600464 0.638593,-0.710193 1.117087,-1.48918 1.433686,-2.334937 0.314811,-0.841711 0.473098,-1.760307 0.473098,-2.757814 0,-0.520001 -0.06294,-1.011674 -0.176307,-1.485135 -0.115132,-0.479531 -0.280615,-0.942879 -0.485689,-1.396108 -0.877843,-1.93836 -1.764677,-3.166531 -2.60834,-4.336024 z"
       id="path2-2-4"
       inkscape:connector-curvature="0"
       style="stroke-width:0.120193" />
  </g>
</svg>
