<?xml version="1.0" encoding="UTF-8" standalone="no"?>
<svg
   xmlns:dc="http://purl.org/dc/elements/1.1/"
   xmlns:cc="http://creativecommons.org/ns#"
   xmlns:rdf="http://www.w3.org/1999/02/22-rdf-syntax-ns#"
   xmlns:svg="http://www.w3.org/2000/svg"
   xmlns="http://www.w3.org/2000/svg"
   xmlns:sodipodi="http://sodipodi.sourceforge.net/DTD/sodipodi-0.dtd"
   xmlns:inkscape="http://www.inkscape.org/namespaces/inkscape"
   id="Layer_1"
   data-name="Layer 1"
   viewBox="0 0 48.000001 47.999999"
   version="1.1"
   sodipodi:docname="PlantTypeTreeDeciduous.svg"
   inkscape:version="0.92.1 r15371"
   width="48"
   height="48">
  <metadata
     id="metadata21">
    <rdf:RDF>
      <cc:Work
         rdf:about="">
        <dc:format>image/svg+xml</dc:format>
        <dc:type
           rdf:resource="http://purl.org/dc/dcmitype/StillImage" />
        <dc:title>tree-color</dc:title>
      </cc:Work>
    </rdf:RDF>
  </metadata>
  <sodipodi:namedview
     pagecolor="#ffffff"
     bordercolor="#666666"
     borderopacity="1"
     objecttolerance="10"
     gridtolerance="10"
     guidetolerance="10"
     inkscape:pageopacity="0"
     inkscape:pageshadow="2"
     inkscape:window-width="1366"
     inkscape:window-height="705"
     id="namedview19"
     showgrid="false"
     inkscape:zoom="1.927947"
     inkscape:cx="154.28605"
     inkscape:cy="61.205002"
     inkscape:window-x="-8"
     inkscape:window-y="-8"
     inkscape:window-maximized="1"
     inkscape:current-layer="Layer_1" />
  <defs
     id="defs4">
    <style
       id="style2">.cls-1{fill:#8c5d0f;fill-rule:evenodd;}.cls-2{fill:#56b320;}.cls-3{fill:#4da11d;}.cls-4{fill:#af7311;}</style>
  </defs>
  <title
     id="title6">tree-color</title>
  <polygon
     class="cls-1"
     points="46.97,85.48 38.7,70.36 27.47,73.34 45.03,95.33 39.64,122.41 72.77,122.41 67.19,103.39 87.62,78.57 77.56,71.42 65.81,90.15 64.48,68.24 47.57,66.8 "
     id="polygon8"
     style="fill:#786721;fill-opacity:1;fill-rule:evenodd;stroke:#000000;stroke-width:3;stroke-miterlimit:4;stroke-dasharray:none;stroke-opacity:1"
     transform="matrix(0.35706993,0,0,0.35044336,2.6023497,2.9502689)" />
  <path
     class="cls-2"
     d="m 12.925242,29.583964 1.460416,-0.371469 v 0 a 12.793816,12.556386 0 0 0 3.649255,-1.965988 14.814832,14.539896 0 0 0 0.992654,1.145951 c 1.317588,1.370233 2.742297,2.176252 4.252703,2.376005 1.510405,0.199753 3.099366,-0.21377 4.706181,-1.275614 a 12.40818,12.177907 0 0 0 1.039074,-0.784992 l 1.628238,1.356215 a 7.244949,7.1104959 0 0 0 1.106918,0.595753 4.9989791,4.9062071 0 0 0 3.692102,0.192744 c 1.128342,-0.385487 3.517139,-1.180993 4.341971,-2.31643 a 12.211792,11.985163 0 0 0 1.896042,-4.667906 c 2.263823,-1.226551 3.659966,-2.701918 4.324117,-4.20532 a 5.2524987,5.1550219 0 0 0 0.31065,-3.350239 5.8666591,5.7577845 0 0 0 -1.828198,-2.849104 C 43.126216,12.265053 39.709057,11.427494 37.191714,11.248768 36.834644,10.610961 36.477574,8.6624957 36.088368,8.0947774 34.220892,5.4033724 32.110608,3.8789438 29.861069,3.3007122 27.611528,2.7224807 25.219159,3.1465171 22.862498,4.3520423 22.451867,4.5588039 22.041236,4.7971053 21.619895,5.052929 18.063478,3.0904462 14.49992,2.5998255 11.529098,3.1745526 9.665193,3.5249959 6.6443813,4.9863448 5.3767831,6.0727192 4.1091847,7.1590936 3.1879444,9.2582494 2.8023088,10.905333 c -0.449908,1.930944 -0.1642521,4.135232 1.1069169,6.43414 -1.2854518,3.052362 -1.3711486,5.72274 -0.6427259,7.793861 a 6.8914497,6.7635569 0 0 0 2.4316463,3.287158 c 1.0962046,0.784994 3.8099362,1.237066 5.2846349,1.300146 a 8.6303803,8.4702161 0 0 0 1.942461,-0.136674 z m 0,0 z"
     id="path10"
     style="fill:#009600;fill-opacity:1;stroke:#000000;stroke-width:1.06122351;stroke-miterlimit:4;stroke-dasharray:none;stroke-opacity:1"
     inkscape:connector-curvature="0" />
</svg>
