<?xml version="1.0" encoding="UTF-8" standalone="no"?>
<svg
   xmlns:dc="http://purl.org/dc/elements/1.1/"
   xmlns:cc="http://creativecommons.org/ns#"
   xmlns:rdf="http://www.w3.org/1999/02/22-rdf-syntax-ns#"
   xmlns:svg="http://www.w3.org/2000/svg"
   xmlns="http://www.w3.org/2000/svg"
   xmlns:sodipodi="http://sodipodi.sourceforge.net/DTD/sodipodi-0.dtd"
   xmlns:inkscape="http://www.inkscape.org/namespaces/inkscape"
   version="1.1"
   id="Layer_1"
   x="0px"
   y="0px"
   viewBox="0 0 48 48.000001"
   xml:space="preserve"
   sodipodi:docname="PlantTypeTreeConifer.svg"
   inkscape:version="0.92.1 r15371"
   width="48"
   height="48"><metadata
     id="metadata11"><rdf:RDF><cc:Work
         rdf:about=""><dc:format>image/svg+xml</dc:format><dc:type
           rdf:resource="http://purl.org/dc/dcmitype/StillImage" /><dc:title></dc:title></cc:Work></rdf:RDF></metadata><defs
     id="defs9" /><sodipodi:namedview
     pagecolor="#ffffff"
     bordercolor="#666666"
     borderopacity="1"
     objecttolerance="10"
     gridtolerance="10"
     guidetolerance="10"
     inkscape:pageopacity="0"
     inkscape:pageshadow="2"
     inkscape:window-width="1366"
     inkscape:window-height="705"
     id="namedview7"
     showgrid="false"
     inkscape:zoom="1.920573"
     inkscape:cx="-111.69305"
     inkscape:cy="61.44"
     inkscape:window-x="-8"
     inkscape:window-y="-8"
     inkscape:window-maximized="1"
     inkscape:current-layer="Layer_1" /><g
     id="g4"
     style="fill:#ffffff;fill-opacity:1;stroke:#000000;stroke-width:3;stroke-miterlimit:4;stroke-dasharray:none;stroke-opacity:1"
     transform="matrix(0.35704014,0,0,0.35889893,9.028851,2.8615517)"><path
       d="M 36.19,122.88 V 96.34 H 5.13 C -0.07,96.82 -1.13,92.71 1.1,89.3 L 20.94,66.04 20.37,65.47 H 9.75 C 5.9,66.04 4.48,61.87 6.81,58.94 l 21.37,-25.1 h -6.24 c -3.91,0.1 -4.87,-3.49 -2.37,-6.88 L 39.04,3.84 C 40.37,2.26 41.79,-0.05 44.1,0 c 1.99,0.04 3.19,1.93 4.37,3.31 l 20.7,24.14 c 2.25,3.22 0.33,6.61 -3.59,6.61 H 60 l 21.22,24.87 c 2.55,2.52 1.25,6.55 -1.68,7.11 H 67.21 l 18.5,21.7 c 2.17,2.55 5.27,7.91 -0.54,8.6 H 51.83 v 26.54 z"
       id="path2"
       inkscape:connector-curvature="0"
       style="fill:#ffffff;fill-opacity:1;stroke:#000000;stroke-width:3;stroke-miterlimit:4;stroke-dasharray:none;stroke-opacity:1" /></g><path
     style="opacity:1;fill:#008000;fill-opacity:1;stroke:#000000;stroke-width:0.17467405;stroke-linejoin:round;stroke-miterlimit:4;stroke-dasharray:none;stroke-dashoffset:0;stroke-opacity:1"
     d="m 22.541271,41.481549 v -4.771395 l -6.2235,0.01986 c -3.422926,0.01091 -6.309069,-0.0333 -6.413651,-0.09828 -0.272815,-0.169486 -0.234307,-0.883899 0.07128,-1.32246 0.143788,-0.206354 1.858825,-2.258786 3.811191,-4.560957 l 3.549758,-4.185764 -0.399367,-0.42732 c -0.369115,-0.394951 -0.576841,-0.431266 -2.74225,-0.479415 l -2.342882,-0.0521 -0.05441,-0.467942 c -0.04365,-0.375347 0.792373,-1.466202 4.224865,-5.512688 2.353602,-2.77461 4.28127,-5.107813 4.283705,-5.184897 0.0024,-0.07709 -0.915793,-0.140154 -2.040506,-0.140154 h -2.044932 l 0.0023,-0.513894 c 0.0017,-0.394439 0.91015,-1.599857 3.907889,-5.185663 2.148082,-2.5694738 4.071176,-4.7871591 4.273542,-4.9281906 0.311823,-0.2173136 0.415313,-0.2173136 0.67857,0 0.501421,0.4139139 7.979235,9.2021416 8.228702,9.6707016 0.189749,0.356397 0.174909,0.486073 -0.08921,0.779441 -0.262764,0.291864 -0.63407,0.360959 -2.175921,0.404914 l -1.859092,0.053 4.220621,4.952075 c 2.321341,2.723641 4.28783,5.120259 4.369973,5.325817 0.08214,0.205557 0.07264,0.520902 -0.02113,0.700765 -0.151219,0.290081 -0.496994,0.327023 -3.060923,0.327023 -1.708338,0 -2.865103,0.07128 -2.828478,0.1743 0.03408,0.09586 1.776922,2.202952 3.872977,4.682417 2.096056,2.479465 3.921877,4.720509 4.05738,4.980099 0.527687,1.010909 0.586371,1.001689 -6.375333,1.001689 h -6.419485 v 4.765203 4.765206 h -2.230835 -2.230835 z"
     id="path4483"
     inkscape:connector-curvature="0" /><rect
     style="opacity:1;fill:#28220b;fill-opacity:1;stroke:#000000;stroke-width:0.33471915;stroke-linejoin:round;stroke-miterlimit:4;stroke-dasharray:none;stroke-dashoffset:0;stroke-opacity:1"
     id="rect4485"
     width="4.9929705"
     height="10.206795"
     x="22.541271"
     y="36.756256" /></svg>
