<?xml version="1.0" encoding="UTF-8" standalone="no"?>
<svg
   xmlns:dc="http://purl.org/dc/elements/1.1/"
   xmlns:cc="http://creativecommons.org/ns#"
   xmlns:rdf="http://www.w3.org/1999/02/22-rdf-syntax-ns#"
   xmlns:svg="http://www.w3.org/2000/svg"
   xmlns="http://www.w3.org/2000/svg"
   xmlns:sodipodi="http://sodipodi.sourceforge.net/DTD/sodipodi-0.dtd"
   xmlns:inkscape="http://www.inkscape.org/namespaces/inkscape"
   version="1.1"
   id="Layer_1"
   x="0px"
   y="0px"
   viewBox="0 0 48.000001 47.999999"
   xml:space="preserve"
   sodipodi:docname="RecommendedForGroundCoverFt.svg"
   inkscape:version="0.92.1 r15371"
   width="48"
   height="48"><metadata
     id="metadata13"><rdf:RDF><cc:Work
         rdf:about=""><dc:format>image/svg+xml</dc:format><dc:type
           rdf:resource="http://purl.org/dc/dcmitype/StillImage" /><dc:title /></cc:Work></rdf:RDF></metadata><defs
     id="defs11" /><sodipodi:namedview
     pagecolor="#ffffff"
     bordercolor="#666666"
     borderopacity="1"
     objecttolerance="10"
     gridtolerance="10"
     guidetolerance="10"
     inkscape:pageopacity="0"
     inkscape:pageshadow="2"
     inkscape:window-width="1366"
     inkscape:window-height="705"
     id="namedview9"
     showgrid="false"
     inkscape:zoom="2.1501457"
     inkscape:cx="127.10441"
     inkscape:cy="54.879999"
     inkscape:window-x="-8"
     inkscape:window-y="-8"
     inkscape:window-maximized="1"
     inkscape:current-layer="Layer_1" /><style
     type="text/css"
     id="style2">.st0{fill-rule:evenodd;clip-rule:evenodd;fill:#01A601;}</style><style
     id="style4486"
     type="text/css">.st0{fill-rule:evenodd;clip-rule:evenodd;}</style><g
     id="g4490"
     transform="matrix(0.27512906,0,0,0.27361875,21.097059,7.9121987)"
     style="fill:#000000;fill-opacity:1"><path
       id="path4488"
       d="m 39.1,30.89 c 4.53,0 8.21,3.68 8.21,8.21 0,4.54 -3.68,8.21 -8.21,8.21 -4.54,0 -8.21,-3.68 -8.21,-8.21 0,-4.54 3.67,-8.21 8.21,-8.21 z M 39.1,0 c 2.95,0 5.64,1.21 7.58,3.15 1.94,1.94 3.15,4.63 3.15,7.58 v 2.47 l 1.75,-1.75 v 0 c 2.09,-2.09 4.84,-3.13 7.58,-3.13 2.75,0 5.5,1.04 7.58,3.13 v 0 0 c 2.09,2.09 3.13,4.84 3.13,7.58 0,2.74 -1.04,5.5 -3.13,7.58 v 0 L 65,28.37 h 2.47 c 2.95,0 5.64,1.21 7.58,3.15 1.94,1.94 3.15,4.63 3.15,7.58 0,2.95 -1.21,5.64 -3.15,7.58 -1.94,1.94 -4.63,3.15 -7.58,3.15 H 65 l 1.75,1.75 v 0 c 2.09,2.09 3.13,4.84 3.13,7.58 0,2.75 -1.04,5.5 -3.13,7.58 v 0 0 c -2.09,2.09 -4.84,3.13 -7.58,3.13 -1.89,0 -3.78,-0.5 -5.46,-1.49 0.94,5.58 0.48,11.29 -0.52,16.81 2.45,-3.65 5.42,-6.52 8.81,-8.67 7.34,-4.64 16.53,-5.79 26.72,-4.03 1.71,0.29 2.87,1.92 2.57,3.63 -0.01,0.05 -0.02,0.09 -0.03,0.13 v 0 c -2.01,9.2 -6.67,16.37 -13.93,20.96 -6.84,4.32 -15.89,6.26 -27.09,5.34 -0.41,-0.03 -0.79,-0.14 -1.13,-0.31 -0.46,1.93 -0.83,3.73 -1.04,5.37 -0.28,2.15 -0.3,4.29 -0.06,6.44 0.24,2.16 0.74,1.92 1.5,4.03 0.64,1.78 -0.14,3.81 -1.74,4.53 -1.61,0.72 -3.43,-0.15 -4.07,-1.94 -0.98,-2.72 -1.62,-3.06 -1.92,-5.78 -0.08,-0.75 -0.14,-1.5 -0.17,-2.25 C 30.24,110.89 21.57,106.84 15.57,100.95 8.95,94.44 5.65,85.8 5.6,75.6 c 0,-0.09 0,-0.18 0,-0.27 0.07,-1.73 1.53,-3.08 3.26,-3.02 11.27,0.48 20.81,3.81 27.54,10.44 3.45,3.4 6.14,7.62 7.92,12.72 l 0.09,-0.34 c 1.76,-6.76 3.74,-14.39 3.5,-21.56 -0.36,0.52 -0.77,1.01 -1.22,1.45 -1.94,1.94 -4.63,3.15 -7.58,3.15 -2.95,0 -5.64,-1.21 -7.58,-3.15 -1.94,-1.94 -3.15,-4.63 -3.15,-7.58 V 65 l -1.75,1.75 v 0 c -2.09,2.09 -4.84,3.13 -7.58,3.13 -2.74,0 -5.5,-1.04 -7.58,-3.13 v 0 C 9.38,64.66 8.34,61.91 8.34,59.17 c 0,-2.74 1.04,-5.5 3.13,-7.59 l 1.75,-1.75 H 10.75 C 7.8,49.83 5.11,48.62 3.17,46.68 1.21,44.73 0,42.05 0,39.1 0,36.15 1.21,33.46 3.15,31.52 5.09,29.58 7.78,28.37 10.73,28.37 H 13.2 L 11.45,26.62 C 9.36,24.53 8.32,21.78 8.32,19.03 c 0,-2.75 1.04,-5.5 3.13,-7.58 v 0 c 2.09,-2.09 4.84,-3.13 7.58,-3.13 2.75,0 5.5,1.04 7.58,3.13 v 0 l 1.75,1.75 v -2.47 c 0,-2.95 1.21,-5.64 3.15,-7.58 C 33.46,1.21 36.15,0 39.1,0 Z M 12.02,78.87 c 0.64,7.05 3.28,13.03 7.95,17.62 4.66,4.58 11.4,7.87 20.25,9.56 C 39.34,97.84 36.44,91.64 31.98,87.26 27.09,82.45 20.22,79.73 12.02,78.87 Z M 73.98,91.91 C 78.87,88.82 82.29,84.17 84.22,78.24 76.94,77.5 70.49,78.61 65.35,81.86 60.68,84.81 57,89.61 54.64,96.49 62.61,96.62 69.07,95.01 73.98,91.91 Z M 42.69,7.14 C 41.77,6.22 40.5,5.64 39.1,5.64 c -1.4,0 -2.67,0.57 -3.59,1.5 -0.92,0.92 -1.5,2.19 -1.5,3.59 v 9.28 0 c 0,0.72 -0.28,1.44 -0.83,1.99 -1.1,1.1 -2.89,1.1 -3.99,0 l -6.56,-6.56 v 0 c -0.99,-0.99 -2.29,-1.48 -3.6,-1.48 -1.31,0 -2.61,0.49 -3.6,1.48 v 0 c -0.99,0.99 -1.48,2.29 -1.48,3.6 0,1.31 0.49,2.61 1.48,3.6 l 6.55,6.55 c 0.52,0.51 0.84,1.22 0.84,2.01 0,1.56 -1.26,2.82 -2.82,2.82 h -9.28 c -1.4,0 -2.67,0.57 -3.59,1.5 -0.92,0.92 -1.5,2.19 -1.5,3.59 0,1.4 0.57,2.67 1.5,3.59 0.92,0.92 2.19,1.5 3.59,1.5 H 20 v 0 c 0.72,0 1.44,0.28 1.99,0.83 1.1,1.1 1.1,2.89 0,3.99 l -6.56,6.56 c -0.99,0.99 -1.48,2.29 -1.48,3.6 0,1.31 0.49,2.61 1.48,3.6 v 0 c 0.99,0.99 2.29,1.48 3.6,1.48 1.31,0 2.61,-0.49 3.6,-1.48 v 0 l 6.54,-6.54 c 0.51,-0.52 1.23,-0.85 2.02,-0.85 1.56,0 2.82,1.26 2.82,2.82 v 9.28 c 0,1.4 0.57,2.67 1.5,3.59 0.92,0.92 2.19,1.5 3.59,1.5 1.4,0 2.67,-0.57 3.59,-1.5 0.92,-0.92 1.5,-2.19 1.5,-3.59 v -9.28 0 c 0,-0.72 0.28,-1.44 0.83,-1.99 1.1,-1.1 2.89,-1.1 3.99,0 l 6.56,6.56 v 0 c 0.99,0.99 2.29,1.48 3.6,1.48 1.31,0 2.61,-0.49 3.6,-1.48 v 0 0 c 0.99,-0.99 1.48,-2.29 1.48,-3.6 0,-1.31 -0.49,-2.61 -1.48,-3.6 v 0 l -6.55,-6.55 c -0.52,-0.51 -0.84,-1.22 -0.84,-2.01 0,-1.56 1.26,-2.82 2.82,-2.82 h 9.28 c 1.4,0 2.67,-0.57 3.59,-1.5 0.92,-0.92 1.5,-2.19 1.5,-3.59 0,-1.4 -0.57,-2.67 -1.5,-3.59 -0.92,-0.92 -2.19,-1.5 -3.59,-1.5 H 58.2 v 0 c -0.72,0 -1.44,-0.28 -1.99,-0.83 -1.1,-1.1 -1.1,-2.89 0,-3.99 l 6.56,-6.56 v 0 c 0.99,-0.99 1.48,-2.29 1.48,-3.6 0,-1.31 -0.49,-2.61 -1.48,-3.6 v 0 0 c -0.99,-0.99 -2.29,-1.48 -3.6,-1.48 -1.31,0 -2.61,0.49 -3.6,1.48 v 0 l -6.55,6.55 c -0.51,0.52 -1.22,0.84 -2.01,0.84 -1.56,0 -2.82,-1.26 -2.82,-2.82 V 10.73 C 44.18,9.33 43.61,8.06 42.69,7.14 Z"
       class="st0"
       inkscape:connector-curvature="0"
       style="clip-rule:evenodd;fill:#000000;fill-opacity:1;fill-rule:evenodd" /></g><path
     style="fill:#000000;fill-opacity:1;stroke:#000000;stroke-width:0.67702878px;stroke-linecap:butt;stroke-linejoin:miter;stroke-opacity:1"
     d="m 11.160824,7.5927117 17.47672,-0.35173"
     id="path4502"
     inkscape:connector-curvature="0" /><path
     style="fill:#000000;fill-opacity:1;stroke:#000000;stroke-width:0.67702878px;stroke-linecap:butt;stroke-linejoin:miter;stroke-opacity:1"
     d="M 11.160824,40.971744 28.637546,40.620015"
     id="path4502-7"
     inkscape:connector-curvature="0" /><path
     style="fill:#000000;fill-opacity:1;stroke:#000000;stroke-width:0.82974488px;stroke-linecap:butt;stroke-linejoin:miter;stroke-opacity:1"
     d="M 19.533566,7.0309677 19.701037,40.455172"
     id="path4502-6"
     inkscape:connector-curvature="0" /><text
     xml:space="preserve"
     style="font-style:normal;font-weight:normal;font-size:16.49934578px;line-height:1.25;font-family:sans-serif;letter-spacing:0px;word-spacing:0px;fill:#000000;fill-opacity:1;stroke:none;stroke-width:1.23745108"
     x="0.008339026"
     y="28.602581"
     id="text4536"
     transform="scale(0.95629109,1.0457067)"><tspan
       sodipodi:role="line"
       id="tspan4534"
       x="0.008339026"
       y="28.602581"
       style="fill:#000000;fill-opacity:1;stroke-width:1.23745108">6&quot;</tspan></text>
</svg>
