<?xml version="1.0" encoding="UTF-8" standalone="no"?>
<!-- Created with Inkscape (http://www.inkscape.org/) -->

<svg
   width="29.946201mm"
   height="34.648918mm"
   viewBox="0 0 29.946201 34.648918"
   version="1.1"
   id="svg1"
   xmlns="http://www.w3.org/2000/svg"
   xmlns:svg="http://www.w3.org/2000/svg">
  <defs
     id="defs1" />
  <g
     id="layer1"
     transform="translate(387.09205,-371.8582)">
    <path
       id="Rabbit"
       d="m -363.19957,406.47028 c 0.35983,-0.0374 0.60679,-0.15663 0.79729,-0.38312 l 0.15521,-0.18838 0.127,0.0829 c 0.21873,0.14429 0.56798,0.28681 0.75848,0.30868 0.1764,0.0201 0.17992,0.0177 0.10231,-0.0483 -0.0811,-0.0677 -0.0811,-0.0688 0.0212,-0.042 0.16227,0.0441 0.57854,0.10372 0.73022,0.10478 0.13407,10e-4 0.13407,10e-4 0.0459,-0.0706 -0.0847,-0.0691 -0.0741,-0.0716 0.41275,-0.0748 0.34219,-0.002 0.55737,-0.0233 0.66675,-0.0645 l 0.15875,-0.0614 -0.20108,-0.0536 c -0.18346,-0.0483 -0.19405,-0.0564 -0.0988,-0.0843 0.0529,-0.0159 0.1764,-0.0328 0.26813,-0.0353 0.20109,-0.005 0.49036,-0.1009 0.62794,-0.20849 l 0.10231,-0.0794 -0.14113,-0.006 c -0.0811,-0.004 -0.18695,-0.0198 -0.24341,-0.036 -0.11287,-0.0346 -0.10229,-0.0406 0.20463,-0.12418 0.2187,-0.0596 0.49741,-0.19826 0.69143,-0.34431 l 0.1411,-0.10512 -0.22225,-8e-4 -0.22225,-2.6e-4 0.22932,-0.13264 c 0.127,-0.0727 0.31043,-0.20003 0.40568,-0.28293 l 0.16934,-0.15064 -0.23987,0.0212 -0.2399,0.0215 0.12348,-0.0674 c 0.16227,-0.0892 0.37039,-0.29492 0.46919,-0.46037 l 0.0776,-0.13371 -0.16227,0.0822 c -0.24342,0.12418 -0.26458,0.0995 -0.0952,-0.0967 0.1411,-0.16122 0.3316,-0.56092 0.40568,-0.85901 l 0.0282,-0.1136 -0.21167,0.10619 c -0.1129,0.0582 -0.20815,0.0991 -0.20815,0.0903 0,-0.01 0.0494,-0.10548 0.1129,-0.21519 0.0952,-0.16969 0.10935,-0.24483 0.10583,-0.508 0,-0.40887 -0.0212,-0.43251 -0.22931,-0.28258 -0.0917,0.067 -0.17285,0.11607 -0.17992,0.10866 0,-0.008 0.0246,-0.085 0.067,-0.17251 0.0459,-0.0878 0.0811,-0.24024 0.0811,-0.34043 0,-0.1725 0,-0.17815 -0.0741,-0.11536 -0.10583,0.0935 -0.39862,0.19121 -0.57853,0.19121 -0.0812,0 -0.17288,0.0222 -0.19757,0.049 -0.0847,0.0854 -0.0529,-0.0289 0.0353,-0.12311 0.0776,-0.0822 0.0776,-0.0893 0.0177,-0.0885 -0.0388,2.6e-4 -0.22577,0.0462 -0.41627,0.10195 -0.46215,0.13582 -0.46215,0.13582 -0.37042,-0.0723 0.0423,-0.0956 0.10936,-0.31185 0.14817,-0.48013 l 0.0705,-0.30656 0.0494,0.14287 0.0494,0.14288 0.0318,-0.11571 c 0.0353,-0.13582 0,-0.8703 -0.0459,-0.98425 -0.0494,-0.11994 0.0529,-0.0406 0.14817,0.11359 l 0.0776,0.12842 v -0.26565 c 0,-0.1464 -0.0282,-0.38523 -0.06,-0.53128 -0.0811,-0.36371 -0.0776,-0.40992 0.0212,-0.29174 l 0.0811,0.0963 v -0.24517 c 0,-0.13794 -0.0423,-0.39441 -0.10231,-0.58667 -0.0529,-0.18803 -0.0917,-0.3489 -0.0811,-0.35772 0,-0.01 0.0706,0.0452 0.14113,0.11924 0.11642,0.12665 0.127,0.12876 0.10583,0.0363 -0.0953,-0.4572 -0.13054,-0.57961 -0.23283,-0.79974 -0.067,-0.13794 -0.11996,-0.26423 -0.11996,-0.28081 0,-0.0155 0.0635,0.0198 0.14113,0.0797 0.0811,0.06 0.1411,0.0928 0.1411,0.073 0,-0.072 -0.19757,-0.52634 -0.34219,-0.7814 -0.0811,-0.14358 -0.14113,-0.26705 -0.13758,-0.27446 0,-0.008 0.0811,0.0325 0.16579,0.0889 l 0.15171,0.10231 -0.0847,-0.2159 c -0.0459,-0.11889 -0.17639,-0.34925 -0.28575,-0.51224 -0.11289,-0.16298 -0.1905,-0.29633 -0.17991,-0.29633 0.0212,0 0.0988,0.0385 0.1905,0.0857 0.1552,0.0797 0.16578,0.0804 0.13758,0.0116 -0.06,-0.16334 -0.29988,-0.52141 -0.48683,-0.73237 -0.10584,-0.1217 -0.18698,-0.22154 -0.16934,-0.22154 0.0177,0 0.0882,0.0275 0.16934,0.061 0.0811,0.0335 0.16578,0.0614 0.18695,0.0614 0.0494,0 -0.16227,-0.26705 -0.46918,-0.59654 -0.127,-0.13864 -0.23284,-0.26282 -0.23284,-0.27658 0,-0.0138 0.10232,0.0201 0.22577,0.0748 l 0.22225,0.0995 -0.12345,-0.17921 c -0.067,-0.0988 -0.26813,-0.32773 -0.44805,-0.50906 -0.17992,-0.18097 -0.31043,-0.32949 -0.29279,-0.32949 0.0212,0 0.11642,0.0275 0.21167,0.0617 0.0952,0.0339 0.18344,0.0529 0.19402,0.0423 0.0212,-0.012 -0.19757,-0.23283 -0.46567,-0.49354 -0.47977,-0.46884 -0.48331,-0.47307 -0.28575,-0.38876 0.10935,0.0469 0.20815,0.0769 0.21873,0.0667 0.0353,-0.0346 -0.37396,-0.43921 -0.71614,-0.71014 -0.18344,-0.14711 -0.33513,-0.28257 -0.33513,-0.30162 0,-0.0452 0,-0.0466 0.26811,0.0466 l 0.24341,0.0808 -0.19402,-0.17921 c -0.18346,-0.16687 -0.86431,-0.64065 -1.09714,-0.76059 -0.13759,-0.0734 -0.0459,-0.0928 0.21518,-0.0455 0.11642,0.0219 0.22225,0.0342 0.22932,0.0275 0.0212,-0.0233 -0.58561,-0.40922 -0.90311,-0.57326 l -0.3175,-0.16369 0.23284,-0.0201 0.23283,-0.0204 -0.40571,-0.19156 c -0.22225,-0.10548 -0.48329,-0.21414 -0.57854,-0.24165 -0.0952,-0.0272 -0.17288,-0.0632 -0.17288,-0.0794 0,-0.0155 0.0847,-0.0427 0.19405,-0.0589 l 0.19402,-0.0293 -0.18344,-0.0931 c -0.10231,-0.0511 -0.29633,-0.12523 -0.4304,-0.16439 -0.13406,-0.0395 -0.3175,-0.0945 -0.40923,-0.12277 l -0.16579,-0.0508 0.12346,-0.0286 c 0.24342,-0.0575 0.2399,-0.072 -0.0423,-0.16933 -0.43389,-0.15099 -0.51504,-0.17428 -0.70202,-0.20391 -0.16934,-0.0261 -0.23284,-0.085 -0.12346,-0.11571 0.0282,-0.008 0.11287,-0.0325 0.19402,-0.0533 l 0.1411,-0.0388 -0.28575,-0.0854 c -0.15875,-0.0469 -0.43037,-0.10795 -0.60677,-0.13546 -0.32808,-0.0515 -0.36335,-0.10125 -0.10231,-0.15805 l 0.13758,-0.0296 -0.16227,-0.0483 c -0.0917,-0.0268 -0.35276,-0.0692 -0.58208,-0.0949 -0.41981,-0.0473 -0.48683,-0.085 -0.24693,-0.13829 l 0.13403,-0.0293 -0.10228,-0.0392 c -0.0529,-0.0215 -0.31399,-0.0515 -0.5715,-0.0663 l -0.46922,-0.0275 0.28223,-0.16228 -0.2046,-0.0138 c -0.1129,-0.008 -0.35631,-0.008 -0.53975,0 -0.18698,0.008 -0.33866,0.001 -0.33866,-0.0134 0,-0.0159 0.06,-0.0512 0.13406,-0.0818 0.13052,-0.0547 0.11994,-0.0568 -0.23638,-0.0804 -0.20108,-0.0138 -0.4586,-0.012 -0.5715,0.005 l -0.20108,0.0296 0.11996,-0.10301 0.11994,-0.10301 -0.44802,0.0208 c -0.24697,0.012 -0.48684,0.0335 -0.52917,0.0497 -0.06,0.0205 -0.0459,-10e-4 0.0388,-0.0765 l 0.12348,-0.10478 -0.22577,0.0208 c -0.12348,0.012 -0.28575,0.0307 -0.35983,0.0423 -0.38455,0.0624 -0.4304,0.0624 -0.37748,-10e-4 0.0459,-0.0519 0.0388,-0.0617 -0.0459,-0.0614 -0.0529,2.7e-4 -0.21521,0.0363 -0.35983,0.0804 -0.28223,0.0854 -0.3316,0.0815 -0.24694,-0.0176 0.0423,-0.0519 0.0388,-0.0621 -0.0212,-0.0621 -0.0388,0 -0.14817,0.0198 -0.2399,0.0437 -0.0917,0.0243 -0.2399,0.0624 -0.32456,0.0847 -0.18344,0.0469 -0.22577,0.025 -0.14463,-0.0737 0.0494,-0.0624 0.0459,-0.0667 -0.0246,-0.0388 -0.30692,0.11607 -0.66321,0.15134 -1.06185,0.10619 -0.22577,-0.0258 -0.41627,-0.0635 -0.42334,-0.084 0,-0.0208 -0.10231,-0.0378 -0.21166,-0.0378 -0.20815,0 -0.25752,-0.0455 -0.13052,-0.11924 0.0529,-0.0328 0.0318,-0.042 -0.11642,-0.0427 -0.18698,-0.001 -0.4304,-0.0635 -0.50096,-0.127 -0.0212,-0.0177 0.0246,-0.0494 0.10231,-0.0698 l 0.13759,-0.0371 -0.16227,-0.0695 c -0.15875,-0.0667 -0.51152,-0.37359 -0.51152,-0.44274 0,-0.0176 0.0494,-0.0219 0.11287,-0.008 0.0635,0.0138 0.14817,0.0335 0.19402,0.0437 0.06,0.0138 0.0388,-0.0205 -0.0741,-0.1203 -0.15875,-0.14393 -0.43746,-0.47836 -0.43746,-0.52493 0,-0.0159 0.0776,-0.0159 0.17288,-0.004 l 0.17285,0.0233 -0.14465,-0.16474 c -0.1552,-0.17216 -0.38452,-0.53446 -0.35629,-0.56304 0,-0.009 0.0882,0 0.17638,0.0201 0.0882,0.0201 0.16581,0.0303 0.17287,0.0233 0,-0.008 -0.0317,-0.066 -0.0847,-0.13053 -0.13407,-0.15946 -0.31398,-0.42792 -0.31398,-0.46814 0,-0.0176 0.0811,-0.0451 0.18343,-0.0603 l 0.17992,-0.0275 -0.16227,-0.18944 -0.16227,-0.18944 0.0847,-0.0702 c 0.0459,-0.0388 0.13404,-0.10619 0.19402,-0.15029 l 0.10935,-0.0797 -0.10935,-0.0427 c -0.0635,-0.0236 -0.1129,-0.0575 -0.1129,-0.0748 0,-0.0155 0.06,-0.13264 0.13054,-0.25647 0.17638,-0.31326 0.53621,-0.64558 0.93131,-0.86007 0.71263,-0.39017 1.40758,-0.82197 1.73921,-1.08126 0.74084,-0.57961 1.50987,-1.47849 2.01436,-2.35373 0.77258,-1.34549 1.45695,-3.42934 1.58395,-4.82634 0.0494,-0.56303 -0.14462,-1.03751 -0.50445,-1.22131 -0.1764,-0.0892 -0.24342,-0.0984 -0.70557,-0.0967 -0.68792,0.001 -1.07598,0.11077 -2.09195,0.5842 -0.38807,0.18027 -1.1924,0.70414 -1.58398,1.03046 -0.55034,0.45684 -1.51342,1.43968 -1.92263,1.96073 -0.12348,0.15981 -0.0952,0.14147 0.23636,-0.14428 0.77258,-0.66287 0.7761,-0.61207 0.0212,0.21554 -0.89606,0.97402 -1.07598,1.21073 -0.68085,0.88653 0.28221,-0.23142 0.89604,-0.66851 0.91369,-0.65052 0.0212,0.0198 -0.13052,0.1905 -0.91017,1.02094 -0.762,0.8128 -0.82902,0.89535 -0.51506,0.62582 0.34925,-0.29809 1.14654,-0.89711 1.143,-0.86042 0,0.048 -0.68086,0.7366 -1.18886,1.20368 -0.26106,0.2413 -0.53623,0.51681 -0.61383,0.61277 l -0.13406,0.17392 0.20462,-0.1838 c 0.11288,-0.10125 0.31044,-0.25753 0.44096,-0.34748 0.13054,-0.09 0.3669,-0.26106 0.52213,-0.38065 0.15875,-0.11959 0.29633,-0.2099 0.30691,-0.20073 0.0246,0.0268 -0.34221,0.39158 -0.80433,0.79198 -0.23283,0.20567 -0.52917,0.50024 -0.64913,0.65405 -0.32102,0.40287 -0.3316,0.42686 -0.0811,0.19368 0.12346,-0.11466 0.35983,-0.3168 0.52562,-0.44944 0.16582,-0.13264 0.3528,-0.28363 0.41982,-0.33584 0.25752,-0.21132 0.0882,7.1e-4 -0.33867,0.42298 -0.46567,0.45896 -0.75848,0.78175 -1.03717,1.14299 -0.0988,0.12594 0.0388,0.008 0.35632,-0.30444 0.28575,-0.27976 0.52916,-0.49918 0.53975,-0.48754 0.0212,0.012 -0.16582,0.24059 -0.39513,0.5087 -0.55385,0.65264 -0.88194,1.09643 -1.00187,1.35643 -0.0529,0.11853 -0.1129,0.20673 -0.13052,0.19614 -0.0177,-0.012 -0.0177,-0.1531 0,-0.31714 0.0317,-0.26106 0.0564,-0.40146 0.1411,-0.74754 0.0388,-0.17074 -0.22577,0.38735 -0.31043,0.647 -0.0494,0.14993 -0.0988,0.27234 -0.10938,0.27234 -0.0741,0 0.16581,-1.00718 0.37748,-1.57339 0.74435,-1.98895 1.70037,-3.45474 3.29845,-5.05494 l 0.47625,-0.47942 0.067,-0.35454 c 0.127,-0.66745 -0.0246,-1.26859 -0.39862,-1.5875 -0.28927,-0.24729 -0.60677,-0.28716 -1.05833,-0.1337 -1.27352,0.43498 -2.32834,1.99601 -2.74812,4.07493 -0.0988,0.48577 -0.13055,0.76693 -0.23284,2.04363 -0.0565,0.72672 -0.0741,0.87489 -0.14113,1.15358 -0.17285,0.69215 -0.55385,1.02658 -1.397,1.22273 -1.72153,0.39934 -2.07078,0.52176 -2.73402,0.95285 -0.4586,0.29739 -1.02303,0.86254 -1.37228,1.37054 -0.14465,0.21343 -0.4939,0.7687 -0.76907,1.23401 -0.27516,0.46531 -0.65616,1.05233 -0.84312,1.30422 -0.46567,0.62018 -0.54329,0.90487 -0.35631,1.27 0.0318,0.0607 0.0882,0.13405 0.13052,0.16368 0.0635,0.0434 0.0847,0.13159 0.10937,0.46214 0.0459,0.64735 0.1905,0.8643 0.92075,1.39418 0.59619,0.4325 0.80431,0.5087 1.58748,0.58278 0.3669,0.0342 0.45156,0.0568 0.58915,0.15522 0.24693,0.17322 0.33514,0.37748 0.3316,0.75283 0,0.26 -0.0246,0.35666 -0.13759,0.59196 -0.0705,0.15487 -0.16226,0.31715 -0.19753,0.36054 -0.067,0.0748 -0.067,0.0776 0,0.0519 0.0388,-0.0159 0.11641,-0.0388 0.16933,-0.0519 l 0.0988,-0.0243 -0.0988,0.27975 c -0.0529,0.15416 -0.127,0.34854 -0.1623,0.43215 -0.0882,0.20214 -0.0847,0.20743 0.0529,0.13512 0.067,-0.0342 0.13758,-0.0621 0.15875,-0.0621 0.0177,0 -0.0353,0.20425 -0.11993,0.45402 -0.0882,0.24976 -0.15875,0.47272 -0.15875,0.4953 0,0.0226 0.067,-0.01 0.14816,-0.0702 0.0776,-0.061 0.15169,-0.10301 0.16227,-0.0928 0.0212,0.01 -0.0529,0.24519 -0.1411,0.52247 -0.0917,0.27728 -0.15523,0.51258 -0.14465,0.52317 0.0177,0.0116 0.0952,-0.0314 0.18698,-0.0924 0.0917,-0.061 0.17285,-0.10548 0.17992,-0.0981 0,0.008 -0.0458,0.21907 -0.11994,0.47095 l -0.13406,0.45756 0.1129,-0.0589 c 0.0635,-0.0324 0.127,-0.0776 0.14462,-0.10019 0.10938,-0.18274 0.0177,0.38206 -0.13052,0.75353 -0.0282,0.0737 -0.0177,0.073 0.12348,-0.0155 0.0811,-0.0519 0.16227,-0.0857 0.17285,-0.0748 0.0212,0.0159 -0.0988,0.3623 -0.20815,0.617 -0.0317,0.0727 -0.0246,0.073 0.0988,0.008 0.0741,-0.0374 0.13758,-0.0621 0.14462,-0.0543 0,0.008 -0.0212,0.16793 -0.0635,0.35596 -0.0459,0.18838 -0.0741,0.3496 -0.067,0.35771 0,0.01 0.067,-0.0229 0.12348,-0.0702 l 0.10936,-0.0854 v 0.88441 l 0.11993,-0.14287 0.11996,-0.14288 v 0.2861 c 0,0.15734 0.0212,0.35948 0.0353,0.44944 l 0.0317,0.16369 0.0706,-0.13688 c 0.0388,-0.0751 0.0847,-0.12382 0.10228,-0.10901 0.0353,0.0342 0.11997,0.52141 0.127,0.71579 v 0.14287 l 0.0988,-0.18379 0.0952,-0.1838 0.0282,0.12277 c 0.0177,0.0674 0.0459,0.18697 0.0635,0.26564 0.0212,0.0787 0.0353,0.20179 0.0353,0.2734 0,0.16369 0.0741,0.21413 0.10938,0.0755 0.0459,-0.18662 0.0917,-0.11959 0.24342,0.34572 l 0.0741,0.22472 0.0388,-0.13264 c 0.0212,-0.073 0.0494,-0.13264 0.067,-0.13264 0.0388,0 0.1552,0.36406 0.18695,0.59195 l 0.0246,0.20391 0.06,-0.11183 c 0.0317,-0.0614 0.0776,-0.11183 0.0952,-0.11183 0.0529,0 0.0952,0.31609 0.0776,0.60784 0,0.13758 0,0.25047 0,0.25047 0.0212,0 0.0776,-0.0589 0.1552,-0.13089 l 0.13407,-0.13052 v 0.1203 c 0,0.0663 -0.0388,0.22154 -0.0811,0.34501 -0.0847,0.24941 -0.0811,0.2914 0.0317,0.19085 0.0423,-0.0374 0.0882,-0.0677 0.10232,-0.0677 0.06,0 0.0212,0.27834 -0.0706,0.50059 -0.10229,0.24447 -0.0953,0.27552 0.0388,0.17498 0.0459,-0.0332 0.0917,-0.0607 0.10935,-0.0614 0.0388,-0.002 -0.15521,0.52106 -0.21871,0.59937 -0.0811,0.0956 -0.0212,0.0991 0.10584,0.005 l 0.11641,-0.0899 -0.0317,0.16121 c -0.0177,0.0882 -0.0882,0.28329 -0.15875,0.43286 -0.0988,0.20567 -0.10938,0.26282 -0.06,0.23495 0.16582,-0.0889 0.15523,-0.006 -0.06,0.48401 -0.2187,0.49318 -0.39862,0.77611 -0.70202,1.10313 -0.19756,0.21555 -0.3175,0.29563 -0.79375,0.53764 -0.30691,0.15663 -0.67027,0.36512 -0.80433,0.4639 -0.35983,0.26529 -0.5856,0.63182 -0.58912,0.96026 v 0.13299 h 2.03197 l 0.0246,-0.16827 c 0.067,-0.50553 0.55737,-1.10525 1.22412,-1.49965 0.508,-0.29987 0.6985,-0.46144 0.94898,-0.79481 0.44802,-0.59584 0.70556,-1.30845 0.91723,-2.5474 0.0776,-0.47766 0.17285,-1.60126 0.13756,-1.66123 -0.0177,-0.0159 0,-0.0307 0.0212,-0.0307 0.067,0 0.14817,0.6551 0.14817,1.16346 v 0.4893 l 0.0917,-0.30551 c 0.11994,-0.38699 0.17285,-0.83043 0.18344,-1.42804 v -0.47095 l 0.0529,0.26564 c 0.0741,0.35031 0.10232,1.02164 0.0529,1.3282 -0.0212,0.13476 -0.0847,0.42721 -0.1411,0.65017 -0.0529,0.22295 -0.0952,0.41134 -0.0847,0.4191 0,0.008 0.0882,-0.14817 0.18344,-0.34572 0.20814,-0.43956 0.36338,-0.98425 0.40923,-1.45591 0.06,-0.57715 0.0988,-0.45932 0.0776,0.22154 -0.0282,0.75036 -0.13404,1.19591 -0.41627,1.77764 l -0.18343,0.3676 0.17637,-0.1905 c 0.33163,-0.36089 0.68791,-1.09573 0.80081,-1.64853 l 0.0318,-0.16334 v 0.18663 c 0,0.16227 -0.0177,0.30903 -0.0952,0.72319 -0.0635,0.32561 -0.52565,1.18991 -0.91017,1.70567 l -0.15168,0.20426 0.17992,-0.15945 c 0.70201,-0.6096 1.11828,-1.32574 1.34408,-2.31316 0.0388,-0.16016 0.0388,-0.14146 0.0212,0.14322 -0.0423,0.56974 -0.3669,1.38959 -0.77259,1.93957 -0.10938,0.14535 -0.37041,0.44732 -0.58915,0.67098 -0.21518,0.22367 -0.36335,0.39123 -0.32808,0.37183 0.29282,-0.16757 0.61383,-0.42756 0.95957,-0.77364 0.32453,-0.32738 0.45153,-0.49177 0.62793,-0.80927 0.11994,-0.21907 0.22577,-0.39828 0.23283,-0.39828 0.0282,0 -0.18698,0.54045 -0.31043,0.7754 -0.27871,0.51752 -0.83257,1.09573 -1.5099,1.57338 -0.3316,0.23248 -0.33512,0.24307 -0.0353,0.10972 0.37746,-0.16969 1.02659,-0.59937 1.34054,-0.88759 l 0.26106,-0.24271 -0.13758,0.20426 c -0.29985,0.44062 -0.9525,0.96308 -1.70743,1.36666 -0.22932,0.12241 -0.40924,0.22824 -0.40217,0.2353 0.0246,0.0282 0.65617,-0.19967 0.93485,-0.33973 0.16227,-0.0815 0.41275,-0.22965 0.5574,-0.32914 0.1411,-0.0995 0.2681,-0.17321 0.27517,-0.16369 0.0246,0.0244 -0.32457,0.32985 -0.61738,0.5387 -0.13759,0.0963 -0.53269,0.33019 -0.88194,0.51964 -0.81492,0.44555 -0.96308,0.53763 -1.1712,0.73942 -0.0988,0.0924 -0.17288,0.15381 -0.17288,0.13687 0,-0.0691 0.17288,-0.36194 0.29633,-0.50306 0.11996,-0.13828 0.12348,-0.1464 0.0317,-0.0974 -0.21518,0.11289 -0.70554,0.46813 -0.80079,0.58243 -0.21166,0.25188 -0.0706,-0.0914 0.17637,-0.43356 0.11642,-0.16051 0.13055,-0.1905 0.06,-0.1524 -0.16227,0.0861 -0.64207,0.46214 -0.75494,0.59196 l -0.1129,0.12771 0.0847,-0.22473 c 0.0494,-0.12382 0.11642,-0.25964 0.15168,-0.30232 0.0565,-0.0632 0.06,-0.0737 0,-0.0579 -0.0317,0.012 -0.13758,0.11395 -0.23283,0.22966 -0.25752,0.31856 -0.2822,0.62865 -0.0635,0.77364 0.10232,0.0656 0.25048,0.072 1.6863,0.072 h 1.57337 l 0.21518,-0.11959 c 0.29282,-0.16086 0.51859,-0.44061 1.40759,-1.74201 0.19404,-0.28257 0.35983,-0.54892 0.36689,-0.59266 0.0212,-0.1016 0.0988,-0.0815 0.0917,0.0247 0,0.0437 0,0.0797 0.0212,0.0797 0.0388,0 0.254,-0.52493 0.254,-0.623 0.003,-0.0621 0.0212,-0.11254 0.0423,-0.11254 0.0212,0 0.0423,0.0356 0.0423,0.0794 0,0.0437 0.0177,0.0889 0.0353,0.1009 0.0317,0.0205 0.22931,-0.57785 0.26106,-0.79304 0.0212,-0.11183 0.0353,-0.0797 0.0988,0.16333 l 0.0388,0.14323 0.11287,-0.30868 c 0.06,-0.17004 0.11289,-0.36759 0.11289,-0.43921 0,-0.25611 0.0988,-0.13088 0.12346,0.17569 0.0212,0.1217 0.0212,0.12135 0.13054,-0.079 0.0635,-0.11112 0.14111,-0.29457 0.16934,-0.40887 l 0.0494,-0.20707 0.10231,0.22154 c 0.0917,0.20038 0.10232,0.21202 0.127,0.12277 0.0212,-0.0543 0.0246,-0.14958 0.0282,-0.21132 0,-0.0617 0.0177,-0.11218 0.0388,-0.11218 0.0565,0 0.3175,0.33302 0.38455,0.48789 l 0.0564,0.13511 0.0282,-0.10724 c 0.0388,-0.16051 0.0882,-0.13124 0.18696,0.11606 0.0952,0.23883 0.20463,0.37147 0.20463,0.25189 0,-0.19897 0.17637,0.037 0.30691,0.40992 0.0847,0.24271 0.0917,0.248 0.13052,0.14323 0.0423,-0.10478 0.0459,-0.0963 0.19402,0.21802 0.0847,0.17991 0.1764,0.38417 0.20463,0.45402 l 0.0529,0.12665 -0.74084,0.024 c -0.54681,0.0155 -0.81846,0.0448 -1.03716,0.10337 -0.889,0.23953 -1.6369,0.91792 -1.71098,1.55292 -0.0212,0.16546 0,0.20602 0.0811,0.30374 l 0.10232,0.11219 h 2.32127 l 0.0246,-0.16334 c 0.0847,-0.65228 0.79727,-1.37477 1.58044,-1.61184 0.46215,-0.13899 1.55223,-0.12206 2.67406,0.042 0.58913,0.0864 1.47813,0.30586 1.88736,0.46638 0.24693,0.0952 0.21518,0.0981 -0.22932,0.0208 -0.41627,-0.073 -1.39345,-0.18415 -1.59102,-0.18203 -0.0882,10e-4 0.0988,0.0639 0.46919,0.15839 0.33515,0.0861 0.72318,0.19685 0.85725,0.2466 0.13406,0.0494 0.27868,0.0998 0.3175,0.11182 0.0388,0.0117 0.0706,0.0342 0.0706,0.0498 0,0.0159 -0.16581,-0.0159 -0.37396,-0.0663 -0.53268,-0.13441 -1.13239,-0.21661 -1.58043,-0.21661 -0.42686,0 -0.46919,0.0198 -0.13052,0.0596 0.38806,0.0452 0.95956,0.17886 1.14652,0.26811 l 0.18346,0.0861 -0.1623,-0.0275 c -0.68437,-0.1143 -1.2206,-0.12771 -1.7427,-0.043 -0.381,0.0621 -0.88548,0.25294 -1.1289,0.42827 -0.23635,0.17039 -0.27517,0.19086 -0.23635,0.12383 0.10229,-0.17286 0.3457,-0.43039 0.508,-0.5327 0.21166,-0.13652 0.20812,-0.1404 -0.06,-0.049 -0.26107,0.0882 -0.52565,0.2353 -0.74436,0.4131 -0.254,0.20673 -0.21873,0.0741 0.06,-0.2346 0.18695,-0.20919 0.21518,-0.25188 0.13403,-0.22754 -0.17637,0.0526 -0.46212,0.23495 -0.6632,0.42263 -0.10583,0.10019 -0.19405,0.16968 -0.19405,0.15452 0,-0.066 0.1764,-0.3616 0.29634,-0.5006 l 0.13406,-0.15204 -0.21873,0.12029 c -0.11994,0.066 -0.32808,0.22825 -0.46567,0.3609 -0.22577,0.22189 -0.24341,0.23177 -0.2187,0.12276 0.0212,-0.0653 0.0847,-0.20108 0.15168,-0.30233 l 0.127,-0.18379 -0.19401,0.18379 c -0.28224,0.27129 -0.45863,0.68368 -0.3528,0.84525 0.0177,0.0272 0.0812,0.0681 0.14465,0.0924 0.13052,0.0487 9.36622,0.0519 9.83189,0.004 z m -7.54237,-0.68051 c 0.34573,-0.29316 0.8749,-0.40181 1.45346,-0.29774 l 0.30337,0.055 -0.49035,0.0272 c -0.4586,0.0257 -0.73377,0.0783 -1.09008,0.21025 -0.0847,0.031 -0.16582,0.0692 -0.17992,0.0843 -0.0212,0.0159 -0.0494,0.0275 -0.0741,0.0268 -0.0246,-8e-4 0.0212,-0.0483 0.0776,-0.10584 z m -8.80531,-0.11606 c 0,-0.085 1.32644,-0.8763 1.37935,-0.82303 0.0246,0.0257 -0.53975,0.4004 -0.82902,0.54822 -0.13403,0.0695 -0.29985,0.16369 -0.36687,0.20955 -0.11641,0.0815 -0.18346,0.10442 -0.18346,0.0653 z m 19.47328,-0.98778 c 0.23638,-0.15733 0.61032,-0.45649 0.92075,-0.73871 0.0317,-0.0307 -0.27517,0.10089 -0.68792,0.29245 -0.4092,0.19156 -0.79375,0.36019 -0.85725,0.375 -0.0988,0.0233 0.46215,-0.38311 1.0654,-0.77081 0.381,-0.24801 0.1411,-0.18063 -0.7479,0.20566 -0.7126,0.31115 -0.91014,0.38665 -0.88193,0.33938 0.0282,-0.043 1.28058,-0.79587 1.59808,-0.9585 0.19402,-0.0998 0.19757,-0.10407 0.06,-0.0811 -0.0811,0.0138 -0.43746,0.12277 -0.80081,0.24377 -0.97012,0.32562 -0.95954,0.30057 0.0812,-0.22719 0.68791,-0.34819 0.72318,-0.37041 0.56091,-0.37041 -0.14816,0 -0.64206,0.10513 -0.889,0.18909 -0.17639,0.0593 0.15521,-0.13865 0.65617,-0.39441 0.79375,-0.40357 0.96308,-0.45367 1.62277,-0.47836 0.35277,-0.0138 0.5856,-0.006 0.63148,0.0222 0.0635,0.0356 0.067,0.0469 0.0212,0.0663 -0.0317,0.0138 -0.21873,0.079 -0.40923,0.14711 l -0.34574,0.12418 0.37749,-0.0116 c 0.23989,-0.008 0.37393,0.004 0.36335,0.0293 0,0.0226 -0.18344,0.12982 -0.3951,0.23847 l -0.38452,0.19791 0.31395,-0.0138 c 0.17288,-0.008 0.3175,-0.002 0.3175,0.0138 0,0.0452 -0.26458,0.19473 -0.49742,0.28117 l -0.2187,0.0808 0.33867,-0.0201 0.34218,-0.0198 -0.127,0.1591 c -0.2681,0.33937 -0.70556,0.77823 -0.91723,0.91793 -0.12345,0.0808 -0.22929,0.14675 -0.23987,0.14675 -0.0212,0 0.10229,-0.12418 0.25045,-0.27587 0.28224,-0.28575 0.56447,-0.62335 0.51859,-0.62335 -0.0212,0 -0.16227,0.0995 -0.32454,0.22118 -0.37748,0.27835 -0.83608,0.55739 -1.21708,0.74048 -0.40572,0.19333 -0.43392,0.17816 -0.0953,-0.048 z m -2.63877,-3.22649 c -0.47625,-1.86831 -2.23305,-4.23474 -3.9017,-5.25426 -0.1905,-0.11571 -0.34573,-0.21661 -0.34573,-0.22437 0,-0.0325 0.5715,0.20567 0.81846,0.33937 0.47977,0.26318 0.78668,0.51118 1.43227,1.15535 0.7126,0.71084 1.02304,1.13629 1.45343,1.98507 0.26459,0.52352 0.41275,0.92675 0.54327,1.50319 0.0811,0.35348 0.14817,0.8837 0.10584,0.84066 -0.0212,-0.0138 -0.06,-0.16721 -0.10584,-0.34501 z m 0.95605,-0.54822 c -0.254,-0.83679 -0.72321,-1.64711 -1.3829,-2.39077 l -0.14465,-0.16333 0.15875,0.26846 c 0.2893,0.47978 0.6209,1.18251 0.762,1.60584 0.12348,0.37218 0.24342,0.91899 0.20815,0.95426 0,0.008 -0.0529,-0.11112 -0.10583,-0.26317 -0.254,-0.76729 -0.80434,-1.69791 -1.49225,-2.52482 -0.22577,-0.26988 -0.5574,-0.67451 -0.73732,-0.89888 -0.17637,-0.22437 -0.48329,-0.56621 -0.6773,-0.75918 -0.33867,-0.33619 -1.09009,-0.93697 -1.17124,-0.93697 -0.0212,0 -0.0635,-0.0272 -0.0917,-0.061 -0.0741,-0.0885 -0.0388,-0.079 0.34222,0.097 0.45153,0.20849 0.76903,0.42616 1.31233,0.89958 0.42685,0.37148 0.44095,0.3803 0.31043,0.1905 -0.31043,-0.45226 -0.94898,-1.04104 -1.45343,-1.34549 -0.34221,-0.20708 -0.1764,-0.18485 0.23987,0.0321 0.49742,0.25753 0.90665,0.54752 1.30175,0.91864 0.25752,0.23989 0.17285,0.0811 -0.127,-0.24589 -0.29985,-0.3242 -0.6985,-0.66675 -1.06185,-0.91016 -0.11994,-0.0808 -0.1905,-0.14676 -0.15523,-0.14676 0.15875,0 1.07246,0.58173 1.45698,0.92534 0.41627,0.37394 0.24341,0.12805 -0.29988,-0.42828 -0.25752,-0.26493 -0.89252,-0.74083 -0.99129,-0.7433 -0.0212,-7.9e-4 -0.0811,-0.037 -0.13758,-0.0808 l -0.10232,-0.0801 0.14113,0.0395 c 0.31044,0.0864 0.93134,0.44591 1.42873,0.82479 0.16933,0.12876 0.31398,0.22437 0.32456,0.21308 0.0212,-0.0222 -0.0635,-0.11818 -0.53269,-0.58773 l -0.30339,-0.3055 0.2046,0.11888 c 0.28575,0.1651 0.76554,0.52035 1.10421,0.81668 0.15875,0.13723 0.44096,0.38029 0.635,0.5401 0.5221,0.43921 0.97012,0.89358 1.26646,1.28834 0.26812,0.35631 0.64558,1.03576 0.59973,1.07985 -0.0177,0.0138 -0.0529,-0.0328 -0.0882,-0.1016 -0.14462,-0.28292 -0.70201,-0.96202 -1.07595,-1.31338 -0.3316,-0.31433 -1.06185,-0.85761 -1.15358,-0.85761 -0.0177,0 0.21873,0.24377 0.51152,0.54152 0.42687,0.42827 0.61737,0.66004 0.91371,1.10842 0.381,0.58138 0.48683,0.80186 0.22225,0.47519 -0.2399,-0.29774 -1.16065,-1.1938 -1.3829,-1.34514 -0.20108,-0.1397 -0.20108,-0.1397 -0.0988,-0.0205 0.85725,0.98072 1.56633,2.10855 1.65452,2.64195 0.0212,0.11359 0,0.097 -0.1129,-0.11148 -0.41627,-0.74965 -1.18179,-1.70638 -1.72508,-2.16041 -0.23635,-0.19649 -0.21871,-0.15381 0.10231,0.23954 0.33161,0.41169 0.81492,1.12994 1.03011,1.53246 0.32808,0.61066 0.61031,1.58997 0.59621,2.0701 v 0.19826 l -0.0388,-0.1838 c -0.0212,-0.1016 -0.10231,-0.39546 -0.18343,-0.65405 z m -2.80813,-1.05374 c -0.19754,-0.28575 -0.40214,-0.58244 -0.46564,-0.65899 -0.20108,-0.25259 0.0353,-0.0776 0.3457,0.25753 0.29282,0.31397 0.51152,0.67556 0.68792,1.14723 0.14465,0.38699 0.12348,0.41451 -0.06,0.0716 -0.0847,-0.16404 -0.31396,-0.53163 -0.508,-0.81738 z m 0.86079,0.36935 c -0.53271,-1.05692 -1.86973,-2.67404 -2.71639,-3.27976 -0.16579,-0.11748 -0.28927,-0.22296 -0.27869,-0.23425 0.0212,-0.012 0.14465,0.048 0.29985,0.13124 0.74438,0.40816 1.39348,0.94262 1.82034,1.50106 0.31398,0.40993 0.68439,1.07985 0.85725,1.54446 0.24341,0.65793 0.25048,0.79869 0.0212,0.33725 z m 2.032,-3.00389 c -0.29987,-0.375 -1.10066,-1.19662 -1.63337,-1.68098 -0.53269,-0.48295 -1.59102,-1.27952 -2.13781,-1.61043 -0.4304,-0.25894 -1.53813,-0.8255 -1.88032,-0.96237 -0.254,-0.10125 -0.18698,-0.1203 0.0988,-0.0293 0.59973,0.18873 1.42172,0.54398 1.91913,0.82902 0.15875,0.091 0.32454,0.18592 0.37042,0.21096 0.0459,0.0251 0.28927,0.18979 0.54327,0.36618 1.09712,0.75953 2.30716,1.98296 2.83985,2.87231 0.14465,0.23707 0.17285,0.30092 0.13406,0.30092 0,0 -0.11996,-0.13335 -0.25048,-0.29633 z m 0.90311,-0.26564 c -0.45157,-0.68263 -0.98777,-1.28799 -1.69686,-1.92228 -0.35983,-0.32244 -0.94546,-0.74859 -1.18533,-0.86148 l -0.10231,-0.0487 0.10231,0.073 c 0.17285,0.12417 0.8255,0.71296 1.10771,1.004 0.28223,0.29034 0.62441,0.74154 0.87137,1.15147 0.16934,0.27904 0.19402,0.38946 0.0459,0.18308 -0.14465,-0.1979 -0.99132,-1.0488 -1.44286,-1.45273 -0.71966,-0.64452 -1.99673,-1.55645 -2.76225,-1.97202 -0.57856,-0.31609 -1.75683,-0.81598 -2.45885,-1.04422 -0.24693,-0.0804 -0.47273,-0.14676 -0.49741,-0.14676 -0.0246,0 -0.0564,-0.0159 -0.0706,-0.0388 -0.0212,-0.0219 0.0212,-0.0307 0.067,-0.0208 0.0529,0.01 0.1905,0.036 0.30691,0.0575 0.55031,0.10195 1.55221,0.43921 2.97389,0.99942 1.12536,0.44273 1.25236,0.49812 1.99673,0.87029 0.33161,0.16652 0.59267,0.28187 0.57854,0.25683 -0.0423,-0.0702 -0.94895,-0.81703 -1.24883,-1.028 -0.34219,-0.24412 -1.10064,-0.70414 -1.59102,-0.96519 -1.17827,-0.62794 -3.22789,-1.42699 -4.34269,-1.69051 -0.2187,-0.0519 -0.39862,-0.11006 -0.39862,-0.12911 0,-0.0198 0.0494,-0.0247 0.11287,-0.0138 0.0635,0.0138 0.20463,0.0342 0.3175,0.0494 0.27872,0.0371 1.18534,0.23707 1.63338,0.36019 1.71802,0.47237 3.43252,1.38253 5.35866,2.84585 0.91371,0.69497 1.98967,1.80728 2.47298,2.55517 0.11642,0.18132 0.36336,0.65228 0.36336,0.69708 0,0.0155 -0.1129,-0.12665 -0.254,-0.31573 -0.25752,-0.35243 -1.24884,-1.37301 -1.50284,-1.55011 -0.13404,-0.0914 -0.13758,-0.0924 -0.0811,-0.0137 0.0317,0.0476 0.16227,0.21272 0.28927,0.36688 0.32456,0.39864 0.6209,0.81633 0.762,1.07774 0.0705,0.12347 0.1905,0.33866 0.2681,0.47801 0.1411,0.2473 0.21519,0.42086 0.17992,0.42086 -0.0212,0 -0.0882,-0.10548 -0.17285,-0.23495 z m -14.79548,-1.74695 c -0.30691,-0.72425 -0.82195,-1.48237 -1.44285,-2.11984 l -0.35277,-0.36265 0.30337,0.20461 c 0.35632,0.23565 0.76907,0.65122 1.01955,1.02481 0.26104,0.38771 0.55033,1.05692 0.65262,1.52259 0.0529,0.23918 0,0.15628 -0.17992,-0.26952 z m 13.40554,-1.1938 c -0.94898,-0.78352 -1.34763,-1.09008 -2.159,-1.66158 -1.32292,-0.92957 -3.51367,-1.87466 -5.60562,-2.41758 -0.62442,-0.16192 -0.67381,-0.18027 -0.46921,-0.18062 0.12348,-2.7e-4 0.35279,0.0176 0.51154,0.0399 0.15521,0.0226 0.35629,0.0508 0.44802,0.0639 0.0917,0.0138 0.44098,0.0935 0.7761,0.17991 1.73567,0.4445 3.28436,1.18145 4.80129,2.28106 1.651,1.19662 2.79752,2.2807 3.27025,3.09315 0.0706,0.12029 -0.0635,0.01 -0.49387,-0.41487 -0.32456,-0.3182 -0.80788,-0.76059 -1.0795,-0.98319 z m -13.15857,0.53269 c -0.12349,-0.28751 -0.84315,-1.38747 -1.35822,-2.07538 l -0.30337,-0.40711 0.25752,0.22719 c 0.56092,0.49248 1.04069,1.14688 1.3335,1.81821 0.14465,0.32985 0.26104,0.71014 0.21871,0.71014 -0.0177,0 -0.0811,-0.12312 -0.14463,-0.27305 z m -0.21522,-1.3282 c -0.32808,-0.47272 -1.19237,-1.46649 -1.58395,-1.82562 -0.13055,-0.1203 -0.34573,-0.29351 -0.47625,-0.38559 -0.13055,-0.0917 -0.22932,-0.17533 -0.21873,-0.18591 0.0317,-0.0303 0.50448,0.23213 0.85725,0.47625 0.41627,0.28539 1.04775,0.91969 1.30175,1.30739 0.36335,0.55104 0.84666,1.54375 0.84666,1.73531 0,0.0275 -0.0952,-0.11395 -0.21166,-0.31503 -0.1129,-0.20073 -0.34573,-0.56374 -0.51507,-0.8068 z m 13.12683,-0.12136 c -0.35983,-0.27269 -0.77962,-0.58102 -0.93837,-0.68474 -0.15523,-0.10371 -0.40571,-0.27305 -0.55034,-0.37641 -0.82198,-0.58032 -2.15193,-1.25377 -3.47485,-1.76036 -1.143,-0.43638 -2.74815,-0.89817 -3.53483,-1.01599 -0.55033,-0.0822 -0.57502,-0.12242 -0.06,-0.1009 0.90665,0.0381 1.73566,0.18309 2.83281,0.4953 0.42685,0.12136 0.78669,0.22013 0.79727,0.21907 0.0529,-0.004 -0.21167,-0.12664 -0.47273,-0.21977 -0.99481,-0.35278 -2.26835,-0.68827 -3.11502,-0.8188 -0.36687,-0.0568 -0.68085,-0.11536 -0.69495,-0.12982 -0.0212,-0.0247 0.81491,0.004 1.38641,0.0487 0.14462,0.012 0.51504,0.067 0.81844,0.12347 0.8114,0.15135 0.80785,0.15064 0.72673,0.10019 -0.10938,-0.067 -1.27706,-0.39264 -1.68981,-0.47025 -1.32996,-0.25047 -1.3335,-0.27481 -0.0177,-0.16475 0.77613,0.0653 0.93488,0.0843 1.24531,0.14923 1.08654,0.22789 2.20486,0.58596 3.08679,0.98636 1.11832,0.50976 2.63525,1.36454 3.16442,1.7847 0.381,0.30268 0.41275,0.37147 0.0635,0.1397 -0.86077,-0.57291 -2.11667,-1.1818 -3.24909,-1.57585 -0.63145,-0.21979 -0.69143,-0.20461 -0.12345,0.03 1.45695,0.59866 3.17497,1.67852 4.12044,2.58868 0.127,0.12488 0.23283,0.2413 0.23283,0.25894 0,0.0176 -0.17992,-0.10301 -0.39865,-0.26776 -0.83256,-0.62759 -1.65806,-1.12818 -2.60702,-1.58503 -0.3669,-0.17709 -0.6844,-0.32208 -0.70556,-0.32208 -0.0212,0 -0.14462,-0.0476 -0.27869,-0.10548 -0.34925,-0.15417 -0.22225,-0.0632 0.29282,0.20708 1.45695,0.76588 3.00212,1.89688 3.80293,2.78235 0.53621,0.59407 0.68789,0.85654 0.25046,0.43074 -0.14111,-0.13758 -0.55034,-0.47343 -0.91017,-0.74648 z m -12.69997,-0.19508 c -0.0952,-0.12171 -0.27163,-0.33479 -0.39511,-0.47343 -0.12345,-0.13864 -0.35277,-0.39723 -0.508,-0.57538 -0.58912,-0.67486 -1.29116,-1.30951 -1.88383,-1.70603 -0.35983,-0.2413 -0.28927,-0.24377 0.18698,-0.005 0.63852,0.32138 1.04423,0.62336 1.7286,1.28552 0.52213,0.50588 0.84667,0.9719 1.20298,1.71732 0.32809,0.6858 0.34925,0.78987 0.0705,0.34748 -0.127,-0.20249 -0.31043,-0.46743 -0.40216,-0.58949 z m 0.54681,-0.14464 c -0.10231,-0.13582 -0.41275,-0.47943 -0.69495,-0.76412 -0.28224,-0.28433 -0.70557,-0.7246 -0.94192,-0.97789 -0.58563,-0.62936 -1.15713,-1.12748 -1.71805,-1.4986 -0.69495,-0.46143 -0.69143,-0.46919 0.0635,-0.11183 0.5433,0.25753 1.04072,0.60924 1.56282,1.10243 0.45508,0.42756 0.41981,0.31044 -0.0776,-0.25753 -0.40572,-0.46602 -0.91372,-0.92286 -1.34409,-1.2065 -0.51858,-0.34113 -0.54681,-0.36688 -0.29633,-0.27269 0.5362,0.2039 1.21002,0.6223 1.6792,1.04633 0.14113,0.12735 0.26459,0.21943 0.28223,0.20532 0.0494,-0.0508 -1.27,-1.30951 -1.61573,-1.53811 -0.18343,-0.12312 -0.33512,-0.23742 -0.33512,-0.254 0,-0.0949 1.02659,0.47484 1.49225,0.82832 0.14462,0.11007 0.26459,0.18909 0.26459,0.17604 0,-0.0522 -0.73025,-0.77188 -1.0019,-0.98531 -0.381,-0.30092 -0.38807,-0.30762 -0.24694,-0.25435 0.35629,0.1337 1.0301,0.55457 1.40052,0.87065 0.35983,0.30657 0.35983,0.29598 0.0212,-0.0737 -0.37042,-0.39334 -0.74435,-0.74683 -0.99484,-0.93662 -0.0847,-0.0642 -0.14464,-0.12488 -0.13758,-0.13441 0.0318,-0.0321 0.61383,0.28258 0.9384,0.50659 0.17637,0.12206 0.32808,0.2152 0.33867,0.20673 0.0177,-0.0159 -0.54682,-0.58067 -0.80082,-0.80398 l -0.1411,-0.12594 0.11993,0.0522 c 0.21167,0.0903 0.56444,0.28116 0.73732,0.39687 0.36335,0.24871 0.3457,0.18768 -0.0741,-0.22189 -0.24342,-0.23742 -0.43747,-0.43145 -0.4304,-0.4311 0.0635,8e-4 0.94191,0.49248 1.04423,0.58526 0.0494,0.0455 0.0917,0.0656 0.0917,0.0448 0,-0.0473 -0.37745,-0.44273 -0.59618,-0.62194 -0.12348,-0.10372 -0.13759,-0.12595 -0.06,-0.0967 0.22579,0.0843 0.69498,0.32914 0.83256,0.43532 0.26104,0.19862 0.15875,0.0367 -0.16581,-0.26176 -0.17286,-0.1591 -0.30337,-0.28963 -0.28927,-0.28963 0.0388,0 0.40568,0.1644 0.74083,0.33232 0.35629,0.17639 0.44096,0.18732 0.20108,0.0254 -0.21166,-0.14217 -0.63148,-0.52635 -0.60676,-0.5521 0.0212,-0.012 0.0988,-10e-4 0.19753,0.0226 0.0952,0.0243 0.42334,0.1009 0.72673,0.17075 0.39159,0.0907 0.65617,0.17921 0.91721,0.30938 0.381,0.18838 0.37396,0.19332 -0.1411,0.0833 -0.16934,-0.036 -0.35277,-0.0748 -0.40923,-0.0864 -0.0529,-0.012 0.13758,0.0963 0.43391,0.23918 0.61384,0.29916 1.09009,0.56092 1.06892,0.5849 0,0.009 -0.17992,-0.0388 -0.381,-0.10583 -0.46567,-0.15557 -1.12887,-0.33302 -1.1571,-0.30762 -0.0177,0.012 0,0.0198 0.0212,0.0198 0.0741,0 1.17827,0.73272 1.14652,0.76165 0,0.005 -0.23987,-0.0621 -0.51858,-0.15064 -0.28221,-0.0889 -0.52917,-0.15557 -0.55033,-0.14816 -0.0212,0.008 0.18698,0.12911 0.46921,0.27022 0.56795,0.2854 1.2841,0.69497 1.25941,0.72002 0,0.01 -0.30339,-0.0949 -0.64912,-0.23107 -0.64911,-0.25364 -1.43579,-0.53375 -1.45344,-0.51611 0,0.005 0.27869,0.17286 0.63148,0.37218 0.35277,0.19967 0.762,0.43991 0.90662,0.5341 0.14465,0.0946 0.39865,0.25753 0.56092,0.36301 0.16229,0.10513 0.29633,0.20002 0.29633,0.21061 0,0.0268 -0.13404,-0.0346 -0.89958,-0.4131 -0.95954,-0.47237 -1.88029,-0.87454 -1.88029,-0.82162 0,0.01 0.26458,0.18979 0.5856,0.4004 0.75848,0.50059 1.85561,1.30457 1.778,1.30457 0,0 -0.381,-0.19473 -0.82902,-0.43321 -1.67571,-0.8897 -1.82387,-0.9652 -1.8415,-0.9465 -0.0212,0.012 0.10584,0.11183 0.25752,0.22507 0.53975,0.40393 1.30175,1.06891 1.59809,1.39523 0.16227,0.18239 0.28575,0.33161 0.27164,0.33161 -0.0212,0 -0.254,-0.16545 -0.53623,-0.36759 -1.41816,-1.0287 -1.73918,-1.24954 -2.18016,-1.50142 -0.11642,-0.0667 -0.0811,-0.0346 0.46566,0.38982 0.70557,0.54892 1.51694,1.35925 1.93675,1.92863 0.36336,0.49636 0.34573,0.51153 -0.0988,0.0787 -0.42333,-0.41204 -0.80433,-0.73519 -1.34408,-1.14617 -0.47625,-0.3616 -0.48683,-0.33302 -0.0388,0.12982 0.52564,0.54504 1.06539,1.2887 1.2065,1.66299 0.0529,0.13758 0.0212,0.11465 -0.16582,-0.12206 -0.23283,-0.29457 -0.65616,-0.72707 -1.06537,-1.09396 -0.4939,-0.4385 -0.53623,-0.46214 -0.29281,-0.16263 0.11641,0.14605 0.3316,0.44132 0.47625,0.65652 0.27164,0.40534 0.74083,1.25447 0.70908,1.28657 -0.0177,0.01 -0.0776,-0.0617 -0.14465,-0.1598 -0.1905,-0.26282 -0.38452,-0.49283 -0.77962,-0.91687 -0.51152,-0.55174 -0.5856,-0.57714 -0.28223,-0.10054 0.28575,0.45614 0.80785,1.44532 0.80433,1.52823 0,0.0303 -0.0317,0.01 -0.0706,-0.0455 -0.0388,-0.0554 -0.15169,-0.21167 -0.254,-0.34749 z m 8.14914,-0.54222 c -0.68085,-0.3108 -1.37229,-0.57362 -2.40945,-0.91616 -0.20461,-0.067 -0.38807,-0.14111 -0.40924,-0.16439 -0.0282,-0.0296 -0.0212,-0.0363 0.0423,-0.0212 0.0459,0.012 0.25048,0.06 0.45508,0.10689 0.73377,0.16722 2.00732,0.66569 2.75167,1.07773 0.16933,0.0928 0.3951,0.21449 0.50093,0.26988 0.31398,0.16369 0.21873,0.1778 -0.12345,0.0177 -0.17288,-0.0811 -0.53623,-0.24801 -0.80433,-0.37113 z m 2.08492,-2.08879 c -0.91369,-0.45191 -2.95627,-1.23578 -3.92287,-1.50248 -0.43744,-0.12135 -1.27352,-0.34466 -1.36525,-0.36477 -0.51859,-0.11359 -0.93134,-0.19509 -1.22061,-0.24024 -0.24341,-0.0381 -0.31046,-0.0589 -0.21521,-0.066 0.2258,-0.0159 0.27871,-0.0159 0.7973,0.0155 1.55927,0.0938 3.09385,0.54751 4.78364,1.41146 0.79375,0.40711 1.36173,0.73202 1.70391,0.97684 0.22225,0.15805 0.26107,0.21908 0.06,0.0953 -0.0741,-0.0459 -0.35279,-0.19226 -0.62441,-0.32561 z m -0.93837,-0.81774 c -0.38455,-0.17992 -0.87842,-0.39158 -1.10422,-0.47095 -0.22577,-0.0794 -0.59266,-0.21061 -0.81843,-0.2921 -0.77259,-0.2794 -2.41652,-0.74048 -2.921,-0.81809 -0.10229,-0.0159 -0.22225,-0.0356 -0.26459,-0.0448 -0.0459,-0.01 -0.14816,-0.0272 -0.22576,-0.0399 -0.29986,-0.0494 -0.16582,-0.0667 0.34573,-0.0444 0.85018,0.036 1.92968,0.25612 2.88218,0.58667 0.45509,0.15769 1.37935,0.54292 1.63335,0.68156 0.4445,0.23813 1.18534,0.69145 1.23825,0.75459 0.0635,0.0808 0.10584,0.0981 -0.76551,-0.31256 z m -16.77808,-1.88206 c -0.27869,-0.11607 -0.6209,-0.23954 -0.75494,-0.27446 -0.31046,-0.0804 -0.43039,-0.14923 -0.20462,-0.11501 0.31398,0.0469 0.81843,0.18768 1.12183,0.31327 0.28927,0.11818 1.02306,0.50835 1.02306,0.54222 0,0.0159 -0.36689,-0.12877 -1.18533,-0.46567 z m 1.6016,0.20284 c -0.21873,-0.0885 -0.55033,-0.22577 -0.73731,-0.3048 -0.43392,-0.18203 -1.21002,-0.43603 -1.76387,-0.57643 -0.23636,-0.0596 -0.43744,-0.11818 -0.44802,-0.12947 -0.0212,-0.0233 0.47625,0.0134 0.67379,0.0494 0.29633,0.0533 0.68085,0.15769 1.00189,0.27163 0.32809,0.11642 1.75684,0.79305 1.75684,0.83256 0,0.0423 -0.1129,0.009 -0.48332,-0.14252 z m 0.6844,-0.20919 c -0.1905,-0.0688 -0.6209,-0.23389 -0.95605,-0.36724 -0.94191,-0.37183 -2.04255,-0.69497 -2.58585,-0.76024 -0.36335,-0.0434 -0.24693,-0.10618 0.14113,-0.0772 1.16769,0.0868 1.42169,0.16051 2.76222,0.80009 1.13242,0.53869 1.29472,0.64241 0.63855,0.40499 z m 0.5362,-0.26635 c -0.21518,-0.0744 -0.69143,-0.24447 -1.06537,-0.37818 -0.635,-0.22895 -1.47108,-0.49494 -2.02141,-0.6424 -0.254,-0.0681 -0.50094,-0.12101 -1.16417,-0.24977 l -0.38806,-0.0751 0.52564,-0.012 c 0.41982,-0.009 0.63852,0.01 1.11477,0.0942 0.32809,0.0579 0.60325,0.0988 0.61032,0.0907 0.0212,-0.0194 -0.84315,-0.25753 -1.1289,-0.31115 -0.22929,-0.0441 -0.34925,-0.0621 -0.73377,-0.11112 -0.12348,-0.0155 -0.254,-0.0335 -0.28575,-0.0399 -0.0353,-0.005 -0.0988,-0.0159 -0.1411,-0.0208 -0.0459,-0.005 0.0353,-0.0212 0.18343,-0.036 0.32457,-0.0332 1.32292,-0.0236 1.49225,0.0155 0.0917,0.0208 0.10229,0.0176 0.0353,-0.012 -0.16933,-0.0744 -0.94191,-0.2159 -1.34408,-0.24448 l -0.40921,-0.0293 0.22225,-0.0508 c 0.11994,-0.0279 0.35629,-0.0617 0.52211,-0.0759 0.16581,-0.0159 0.31043,-0.0388 0.3175,-0.055 0.0212,-0.0155 -0.10936,-0.0423 -0.26459,-0.0575 -0.29985,-0.0296 -0.35983,-0.10478 -0.0811,-0.10478 0.0882,0 0.16933,-0.0176 0.18698,-0.0409 0.0177,-0.0226 0.0177,-0.0409 0,-0.0416 -0.10584,-10e-4 -0.13759,-0.0702 -0.0917,-0.18662 0.0246,-0.0656 0.0988,-0.32102 0.16581,-0.56761 0.14465,-0.52599 0.29281,-0.85302 0.55033,-1.21215 l 0.18696,-0.26034 -0.32102,0.32702 c -0.17285,0.17956 -0.35277,0.39123 -0.39158,0.4699 -0.0741,0.14111 -0.0741,0.14146 -0.0494,0.0205 0.0741,-0.34008 0.51504,-0.87842 1.07948,-1.3148 0.19404,-0.14993 0.46215,-0.37641 0.59621,-0.50306 0.25752,-0.24236 0.75845,-0.59972 0.75845,-0.54222 0,0.0176 -0.10583,0.13406 -0.22928,0.25682 -0.127,0.12312 -0.32457,0.33197 -0.43747,0.46426 l -0.21166,0.24094 0.42688,-0.28645 c 0.38452,-0.25612 1.14652,-0.68509 1.14652,-0.64488 0,0.01 -0.17286,0.15381 -0.381,0.32279 -0.20815,0.16898 -0.47977,0.40005 -0.60325,0.51435 l -0.22225,0.20744 0.55033,-0.26847 c 0.3034,-0.14746 0.60325,-0.29704 0.66675,-0.33196 0.33867,-0.18697 0,0.14464 -0.57502,0.55456 -0.1623,0.11748 -0.29633,0.21978 -0.29633,0.2279 0,0.0399 0.55033,-0.15099 0.80785,-0.28152 0.16227,-0.0818 0.29633,-0.13511 0.29633,-0.11783 0,0.0409 -0.46215,0.38453 -0.69498,0.51965 l -0.18343,0.10618 0.22576,-0.0261 c 0.12349,-0.0159 0.32105,-0.079 0.4445,-0.14428 0.29282,-0.15593 0.33515,-0.14852 0.16582,0.03 -0.1411,0.14958 -0.5715,0.38312 -0.70202,0.38312 -0.0388,0 -0.0741,0.0208 -0.0741,0.0455 0,0.0695 0.52562,0.0261 0.69143,-0.0575 0.17992,-0.09 0.20815,-0.0635 0.0494,0.048 -0.34925,0.25048 -0.762,0.31115 -1.24531,0.18451 -0.29986,-0.0783 -0.6844,-0.0589 -0.889,0.0444 -0.34574,0.17568 -0.49742,0.42192 -0.61384,0.98989 -0.0423,0.21096 -0.0952,0.41874 -0.11641,0.46143 -0.0388,0.0727 -0.0353,0.0748 0.0847,0.0332 0.0847,-0.0293 0.2399,-0.0332 0.46215,-0.012 0.50445,0.0508 0.68437,0.0399 0.86429,-0.0529 0.27871,-0.14464 0.508,-0.46178 0.508,-0.70344 0,-0.0952 0.0246,-0.0977 0.40216,-0.0444 0.14817,0.0212 0.53975,0.0684 0.86432,0.10478 0.57502,0.0642 1.4111,0.23883 1.4887,0.31009 0.0246,0.0198 0,0.0265 -0.06,0.0159 -0.0952,-0.0197 -1.36525,-0.10195 -1.52752,-0.10018 -0.16581,10e-4 0.0353,0.0688 0.40569,0.13828 0.80078,0.14817 1.72153,0.36266 1.77093,0.41134 0.0282,0.0275 0.0388,0.0286 -0.64558,-0.0568 -0.508,-0.0632 -1.56279,-0.11183 -1.26646,-0.0582 0.0529,0.01 0.32102,0.0713 0.59264,0.13546 0.26813,0.0642 0.70909,0.16581 0.98073,0.22578 0.26811,0.0596 0.53624,0.12559 0.59267,0.14605 0.14465,0.0536 -0.33867,0.0159 -1.04423,-0.0801 -0.7267,-0.0998 -1.1712,-0.13617 -1.06185,-0.0875 0.10231,0.0448 1.21002,0.32526 1.8909,0.47731 0.27516,0.0617 0.49035,0.12065 0.47976,0.13088 -0.0282,0.03 -0.92781,-0.073 -1.55223,-0.17886 -0.31395,-0.0529 -0.64555,-0.10689 -0.73728,-0.11924 -0.0882,-0.0138 -0.23636,-0.0339 -0.32457,-0.048 -0.0917,-0.0159 -0.1552,-0.0159 -0.1411,-0.005 0.0388,0.0388 1.49577,0.44485 2.59292,0.72355 l 0.32808,0.0829 -0.32457,-0.0229 c -0.49035,-0.0346 -1.94733,-0.30092 -2.67051,-0.48824 -0.53975,-0.1397 -0.3034,-0.0289 0.51151,0.24059 1.50284,0.49706 1.62632,0.5334 1.95086,0.57961 0.11289,0.0159 0.24341,0.0438 0.28575,0.0617 0.127,0.0494 -0.22929,0.0459 -0.55034,-0.005 -0.14462,-0.0233 -0.32102,-0.0515 -0.38803,-0.0621 -0.16582,-0.0268 -0.6985,-0.15064 -1.68627,-0.39264 -0.45509,-0.11148 -0.85022,-0.19474 -0.87842,-0.18486 -0.0282,0.009 0.0317,0.0406 0.13404,0.0684 0.10231,0.0279 0.37748,0.12453 0.61031,0.21484 0.78317,0.29845 1.68979,0.60748 2.14842,0.72919 l 0.44802,0.11994 -0.28575,-0.0204 c -0.15875,-0.012 -0.50448,-0.066 -0.77259,-0.12171 -0.47273,-0.0988 -0.65262,-0.14887 -1.70391,-0.47413 -0.53621,-0.1651 -1.35112,-0.37006 -1.37584,-0.34537 0,0.008 0.0882,0.0448 0.21874,0.0822 0.27164,0.0797 0.81843,0.29422 1.50989,0.59302 0.26811,0.11712 0.75139,0.31468 1.07244,0.43921 0.32102,0.12453 0.57502,0.2353 0.56443,0.24588 -0.0388,0.0381 -0.46918,-0.085 -1.61925,-0.46108 -1.07595,-0.35278 -1.7286,-0.55033 -1.81678,-0.55033 -0.0917,0 0.0705,0.0864 0.4092,0.21837 0.20108,0.0787 0.635,0.27023 0.95957,0.42474 0.32456,0.15487 0.71966,0.33444 0.87841,0.39935 0.15875,0.0645 0.32102,0.14322 0.36687,0.17462 0.0776,0.0519 0.0706,0.0543 -0.0599,0.0275 -0.0776,-0.0159 -0.3175,-0.0907 -0.53269,-0.16475 z m -7.23545,-0.38523 c 0.26458,-0.18203 0.41275,-0.3489 0.48683,-0.54469 l 0.0812,-0.21131 v 0.23918 c 0,0.31538 -0.0741,0.46284 -0.34218,0.65652 -0.12349,0.0882 -0.23638,0.19861 -0.254,0.24518 -0.0212,0.0632 -0.0353,0.0321 -0.0459,-0.11924 -0.0212,-0.17321 0,-0.21343 0.0706,-0.26564 z m 7.39069,-3.1182 c -0.17286,-0.004 -0.30692,-0.0155 -0.29986,-0.0229 0.0529,-0.0543 0.41627,-0.0755 0.69144,-0.0416 0.4092,0.0508 0.56795,0.13018 0.18695,0.0953 -0.14462,-0.0138 -0.40568,-0.0275 -0.57853,-0.031 z m -2.4624,-0.0409 c -0.10935,-0.0794 -0.0705,-0.24271 0.0706,-0.29175 0.20815,-0.072 0.35984,0.13053 0.21167,0.2787 -0.0812,0.0801 -0.18344,0.085 -0.28223,0.0138 z m -1.35464,-0.96343 c 0.16933,-0.32385 0.89604,-0.97226 1.3476,-1.19627 l 0.25045,-0.12523 -0.16578,0.17321 c -0.0917,0.0952 -0.3669,0.32491 -0.61384,0.51082 -0.24693,0.18556 -0.53975,0.43145 -0.65264,0.5461 -0.10936,0.115 -0.20813,0.2092 -0.21519,0.2092 0,0 0.0177,-0.0533 0.0459,-0.11783 z m 0.29279,-0.74542 c 0.15171,-0.17004 0.5715,-0.46531 0.87135,-0.61736 0.16933,-0.0847 0.32456,-0.15416 0.34221,-0.15416 0.0705,0 -0.0212,0.0702 -0.20108,0.16615 -0.10938,0.0547 -0.38807,0.23284 -0.62442,0.39547 -0.2399,0.16263 -0.44098,0.29633 -0.44802,0.29633 0,0 0.0177,-0.0388 0.06,-0.0864 z m 5.47158,-0.79728 c 0.12345,-0.23883 0.29633,-0.5147 0.37393,-0.61312 0.23636,-0.28716 0.0917,-0.20532 -0.22576,0.12806 -0.1623,0.16862 -0.2893,0.29668 -0.2893,0.28469 0,-0.0579 0.17288,-0.35102 0.34573,-0.58667 0.1905,-0.25859 0.1905,-0.26035 0.0564,-0.16722 -0.0776,0.0515 -0.17992,0.13265 -0.23636,0.17957 -0.13051,0.11324 -0.10583,0.0684 0.41627,-0.66852 0.68792,-0.97825 0.83963,-1.31832 1.3829,-3.10831 0.17285,-0.57609 0.40569,-1.13065 0.56796,-1.37372 0.28929,-0.42509 0.77612,-0.88794 1.29116,-1.22484 0.34573,-0.22754 0.95605,-0.56903 0.95605,-0.53551 0,0.012 -0.19757,0.17674 -0.44098,0.3683 -0.53269,0.41733 -0.94544,0.8523 -1.29117,1.3536 -0.33867,0.4893 -0.35631,0.53305 -0.11994,0.28363 0.21519,-0.2293 0.48329,-0.45049 0.82902,-0.68862 l 0.22577,-0.15416 -0.20812,0.21943 c -0.44804,0.47801 -0.80788,0.90381 -0.98073,1.16628 -0.0988,0.15134 -0.17992,0.2861 -0.17992,0.29915 0,0.0138 0.12348,-0.0974 0.27517,-0.24553 0.2399,-0.2346 0.97719,-0.77576 1.05833,-0.77576 0.0212,0 -0.21166,0.24377 -0.50093,0.54152 -0.50448,0.51646 -0.65617,0.7052 -0.87138,1.07279 -0.0847,0.14287 -0.0529,0.12206 0.24696,-0.16722 0.1905,-0.18168 0.41979,-0.3877 0.51152,-0.45755 0.254,-0.19438 0.72673,-0.49812 0.74435,-0.47977 0,0.009 -0.10935,0.13158 -0.26458,0.27269 -0.44802,0.40993 -1.17475,1.14617 -1.28058,1.30069 -0.0847,0.11783 -0.0282,0.0854 0.33514,-0.19226 0.2399,-0.18415 0.635,-0.46637 0.87842,-0.62724 0.24342,-0.16087 0.50448,-0.34255 0.5856,-0.40358 0.61384,-0.4773 0,0.1203 -0.9172,0.89853 -0.37396,0.31503 -0.75848,0.65969 -0.78671,0.70308 -0.0177,0.0275 0.0212,0.01 0.0847,-0.0413 0.0635,-0.0501 0.14113,-0.0914 0.1764,-0.0914 0.0988,0 0.85373,-0.48013 1.76742,-1.12289 l 0.22577,-0.15769 -0.22577,0.2353 c -0.21519,0.22436 -0.56798,0.51505 -1.48519,1.22202 -0.22931,0.17603 -0.40923,0.33831 -0.40217,0.36089 0,0.0222 0,0.0293 -0.0282,0.0155 -0.0246,-0.0155 -0.12348,0.0494 -0.21873,0.14076 -0.16579,0.16087 -0.1552,0.15593 0.39865,-0.1464 0.89958,-0.49142 1.77094,-1.08091 2.21898,-1.50177 0.11642,-0.11113 0.22225,-0.19262 0.23635,-0.18098 0.0423,0.0416 -0.87489,0.87736 -1.36877,1.24883 -0.27871,0.20814 -0.79375,0.56197 -1.143,0.78669 -0.8396,0.53728 -0.92075,0.60431 -0.53623,0.43639 0.16934,-0.0734 0.35277,-0.16369 0.40923,-0.20038 0.0564,-0.037 0.18344,-0.10019 0.28575,-0.1397 0.58209,-0.22895 1.78504,-1.0287 2.32127,-1.54093 0.35277,-0.33761 0.32102,-0.22648 -0.0459,0.16369 -0.50096,0.53128 -1.54165,1.24883 -2.91748,2.01365 -0.254,0.14041 -0.50094,0.29034 -0.55385,0.33338 l -0.0917,0.078 0.10231,-0.036 c 0.32808,-0.11642 1.397,-0.58914 1.79917,-0.79516 0.25752,-0.13265 0.6632,-0.37395 0.89958,-0.53587 0.53269,-0.36618 0.5715,-0.38841 0.46919,-0.26882 -0.13052,0.15275 -0.84315,0.66993 -1.2559,0.91193 -0.20812,0.12277 -0.7761,0.42474 -1.25942,0.67134 -0.9807,0.50023 -1.11122,0.57714 -1.5522,0.91263 -0.29282,0.2219 -0.68792,0.63323 -0.89252,0.92745 -0.17288,0.24624 -0.13758,0.13547 0.0952,-0.30162 z m 0.37042,0.30163 c 0.0423,-0.0995 0.57501,-0.48436 0.9172,-0.66075 0.3528,-0.18133 1.3829,-0.57468 1.41817,-0.54046 0.0212,0.012 -0.13407,0.0889 -0.32102,0.17498 -0.63852,0.29281 -1.36173,0.66499 -1.68982,0.86818 -0.17991,0.11113 -0.3316,0.20391 -0.33512,0.20603 0,10e-4 0,-0.0198 0.0212,-0.048 z m -1.81682,-0.16404 c 0.10583,-0.38982 0.32808,-0.75636 0.70202,-1.16911 0.19756,-0.21731 0.22931,-0.21519 0.0776,0.005 -0.17288,0.25329 -0.59621,0.96237 -0.70205,1.16875 -0.10583,0.20778 -0.13758,0.20602 -0.0776,-0.004 z m 2.26483,-0.58773 c 0.32102,-0.2854 0.81492,-0.57185 1.35113,-0.78352 0.48683,-0.19226 1.53812,-0.66639 1.86973,-0.84313 0.20108,-0.10619 0.35277,-0.17357 0.33866,-0.15029 -0.0776,0.11889 -0.91016,0.57115 -2.01789,1.0922 -0.68086,0.31997 -1.33348,0.63747 -1.44989,0.7052 -0.27872,0.15946 -0.29282,0.15628 -0.0917,-0.0205 z"
       style="clip-rule:evenodd;fill:#192832;fill-rule:nonzero;stroke-width:0.352777;stroke-linejoin:round;stroke-miterlimit:2" />
  </g>
</svg>
