<?xml version="1.0" encoding="UTF-8" standalone="no"?>
<svg
   version="1.1"
   id="Layer_1"
   x="0px"
   y="0px"
   viewBox="0 0 160.00013 126.18498"
   xml:space="preserve"
   sodipodi:docname="plant-limestone-tolerant.svg"
   inkscape:version="1.3.2 (091e20e, 2023-11-25)"
   width="160.00012"
   height="126.185"
   xmlns:inkscape="http://www.inkscape.org/namespaces/inkscape"
   xmlns:sodipodi="http://sodipodi.sourceforge.net/DTD/sodipodi-0.dtd"
   xmlns="http://www.w3.org/2000/svg"
   xmlns:svg="http://www.w3.org/2000/svg"
   xmlns:rdf="http://www.w3.org/1999/02/22-rdf-syntax-ns#"
   xmlns:cc="http://creativecommons.org/ns#"
   xmlns:dc="http://purl.org/dc/elements/1.1/"><metadata
   id="metadata11"><rdf:RDF><cc:Work
       rdf:about=""><dc:format>image/svg+xml</dc:format><dc:type
         rdf:resource="http://purl.org/dc/dcmitype/StillImage" /></cc:Work></rdf:RDF></metadata><defs
   id="defs9" /><sodipodi:namedview
   pagecolor="#ffffff"
   bordercolor="#666666"
   borderopacity="1"
   objecttolerance="10"
   gridtolerance="10"
   guidetolerance="10"
   inkscape:pageopacity="0"
   inkscape:pageshadow="2"
   inkscape:window-width="2560"
   inkscape:window-height="1547"
   id="namedview7"
   showgrid="false"
   inkscape:zoom="7.4713031"
   inkscape:cx="35.067511"
   inkscape:cy="66.253503"
   inkscape:window-x="0"
   inkscape:window-y="25"
   inkscape:window-maximized="1"
   inkscape:current-layer="g5"
   inkscape:showpageshadow="0"
   inkscape:pagecheckerboard="0"
   inkscape:deskcolor="#d1d1d1" /><flowRoot
   xml:space="preserve"
   id="flowRoot4488"
   style="font-style:normal;font-variant:normal;font-weight:bold;font-stretch:normal;font-size:26.6667px;line-height:1.25;font-family:sans-serif;-inkscape-font-specification:'sans-serif Bold';letter-spacing:0px;word-spacing:0px;fill:#000000;fill-opacity:1;stroke:none;stroke-width:0.910223"
   transform="matrix(1.0986314,0,0,1.0986314,5.5667637e-5,0.00147276)"><flowRegion
     id="flowRegion4490"
     style="font-style:normal;font-variant:normal;font-weight:bold;font-stretch:normal;font-family:sans-serif;-inkscape-font-specification:'sans-serif Bold';stroke-width:0.910223"><rect
       id="rect4492"
       width="129.80281"
       height="57.545914"
       x="-144.94647"
       y="-13.422388"
       style="font-style:normal;font-variant:normal;font-weight:bold;font-stretch:normal;font-family:sans-serif;-inkscape-font-specification:'sans-serif Bold';stroke-width:0.910223" /></flowRegion><flowPara
     id="flowPara4494"
     style="stroke-width:0.910223" /></flowRoot>
<text
   xml:space="preserve"
   style="font-size:29.297px;font-family:'Comic Sans MS';-inkscape-font-specification:'Comic Sans MS, Normal';opacity:0.7;fill:#2b0000;fill-opacity:0.709193;stroke-width:30.528"
   x="84.436089"
   y="14.298945"
   id="text2"
   inkscape:export-filename="../Documents/gitprojects/owsl/djbp/static/images/plant-limestone-tolerant.svg"
   inkscape:export-xdpi="96"
   inkscape:export-ydpi="96"><tspan
     sodipodi:role="line"
     id="tspan2"
     x="84.436089"
     y="14.298945"
     style="stroke-width:30.528" /></text><g
   id="g5"><g
     id="g6"
     transform="matrix(1.1851949,0,0,1.1851949,1.1021351e-4,0.00275482)"
     style="stroke-width:0.843742"><g
       id="g4"
       transform="matrix(-1.0986314,0,0,-1.0986314,134.99876,106.43503)"
       inkscape:export-filename="../Documents/gitprojects/owsl/djbp/static/images/plant-limestone-tolerant.svg"
       inkscape:export-xdpi="96"
       inkscape:export-ydpi="96"
       style="stroke-width:0.767995"><path
         d="m 105.84,42.5 c 0.23,-1.17 1.36,-1.93 2.52,-1.7 1.17,0.23 1.93,1.36 1.7,2.52 -0.39,1.98 -0.84,3.87 -1.35,5.68 -0.51,1.82 -1.08,3.53 -1.7,5.14 -0.69,1.81 -1.46,3.51 -2.29,5.13 -0.84,1.62 -1.73,3.12 -2.69,4.52 -0.67,0.98 -2.01,1.23 -2.98,0.56 -0.98,-0.67 -1.23,-2.01 -0.56,-2.98 0.86,-1.27 1.67,-2.62 2.42,-4.07 0.75,-1.45 1.45,-3.01 2.09,-4.69 0.58,-1.52 1.11,-3.11 1.58,-4.77 0.47,-1.67 0.89,-3.45 1.26,-5.34 z M 12.42,9.88 C 15.68,6.48 20.49,4 26.78,2.39 26.84,2.37 26.9,2.36 26.97,2.35 33.05,0.82 40.54,0.07 49.37,0.07 c 1.78,0 3.74,-0.02 5.82,-0.04 6.44,-0.06 14.04,-0.13 21.62,0.3 3.79,0.22 7.57,0.56 11.22,1.08 3.68,0.53 7.25,1.25 10.55,2.23 3.4,1 6.53,2.28 9.24,3.89 2.8,1.66 5.15,3.69 6.93,6.15 1.22,1.69 2.31,3.55 3.27,5.59 0.96,2.02 1.8,4.24 2.51,6.64 l 0.01,0.05 v 0 c 2.69,10.08 3,19.47 1.24,27.92 -1.84,8.88 -5.94,16.69 -11.92,23.14 -4.08,4.41 -8.98,8.22 -14.73,11.28 -5.46,2.9 -11.7,5.14 -18.77,6.58 -9.34,1.9 -17.79,2.41 -25.43,1.72 C 43.24,95.9 36.36,93.99 30.22,91.04 20.2,86.26 12.17,77.54 6.93,67.3 1.46,56.65 -1.01,44.32 0.38,33.05 0.95,28.48 2.23,24.13 4.31,20.14 6.28,16.36 8.96,12.9 12.42,9.88 Z M 27.83,6.57 c -5.54,1.42 -9.69,3.52 -12.37,6.34 v 0 c -0.05,0.05 -0.1,0.1 -0.15,0.14 -3.06,2.66 -5.43,5.72 -7.18,9.07 -1.83,3.53 -2.97,7.38 -3.48,11.45 -1.3,10.44 1.01,21.88 6.09,31.78 4.84,9.44 12.19,17.46 21.33,21.84 5.69,2.73 12.08,4.5 19.25,5.15 7.23,0.65 15.26,0.16 24.18,-1.65 6.63,-1.35 12.49,-3.45 17.61,-6.17 5.35,-2.84 9.87,-6.36 13.61,-10.39 5.44,-5.87 9.18,-12.99 10.86,-21.09 1.62,-7.8 1.32,-16.53 -1.19,-25.95 v 0 c -0.65,-2.16 -1.4,-4.15 -2.26,-5.97 -0.86,-1.82 -1.82,-3.46 -2.87,-4.92 -1.4,-1.95 -3.32,-3.59 -5.63,-4.96 -2.4,-1.43 -5.2,-2.56 -8.26,-3.47 C 94.28,6.86 90.92,6.18 87.42,5.68 83.88,5.17 80.22,4.84 76.57,4.63 69.03,4.2 61.55,4.27 55.22,4.33 53.14,4.35 51.18,4.37 49.37,4.37 40.89,4.37 33.75,5.07 28.02,6.51 27.95,6.53 27.89,6.55 27.83,6.57 Z M 15.15,44.43 c -0.23,-1.17 0.53,-2.29 1.7,-2.52 1.17,-0.23 2.29,0.53 2.52,1.7 1.31,6.66 3.31,12.1 5.88,16.53 2.53,4.37 5.63,7.78 9.15,10.45 0.95,0.71 1.14,2.06 0.42,3.01 -0.71,0.95 -2.06,1.14 -3.01,0.42 -3.96,-3 -7.44,-6.83 -10.28,-11.73 -2.8,-4.84 -4.98,-10.72 -6.38,-17.86 z"
         id="path2"
         inkscape:connector-curvature="0"
         style="stroke-width:0.767995" /></g><text
       xml:space="preserve"
       style="font-size:21.3062px;font-family:'Comic Sans MS';-inkscape-font-specification:'Comic Sans MS, Normal';opacity:1;fill:#000000;fill-opacity:1;stroke-width:25.7578"
       x="35.951511"
       y="55.864243"
       id="text1"
       transform="scale(0.98041965,1.0199714)"><tspan
         sodipodi:role="line"
         id="tspan1"
         x="35.951511"
         y="55.864243"
         dy="0 0 0 0 7.9898996"
         style="stroke-width:25.7578">CaCO3</tspan></text><text
       xml:space="preserve"
       style="font-size:21.3062px;font-family:'Comic Sans MS';-inkscape-font-specification:'Comic Sans MS, Normal';opacity:1;fill:#000000;fill-opacity:1;stroke-width:25.7578"
       x="18.022346"
       y="83.869324"
       id="text3"
       transform="scale(0.98041965,1.0199714)"><tspan
         sodipodi:role="line"
         id="tspan3"
         x="18.022346"
         y="83.869324"
         style="stroke-width:25.7578">Limestone</tspan></text></g></g><text
   xml:space="preserve"
   style="font-size:29.297px;font-family:'Comic Sans MS';-inkscape-font-specification:'Comic Sans MS, Normal';fill:#000000;stroke-width:30.528"
   x="83.669678"
   y="86.759132"
   id="text4"><tspan
     sodipodi:role="line"
     id="tspan4"
     x="83.669678"
     y="86.759132"
     style="stroke-width:30.528"></tspan></text></svg>
