<?xml version="1.0" encoding="UTF-8" standalone="no"?>
<!-- Created with Inkscape (http://www.inkscape.org/) -->

<svg
   width="200"
   height="307"
   viewBox="0 0 200 307"
   version="1.1"
   id="svg1"
   sodipodi:docname="plant-deer-tolerant.svg"
   inkscape:version="1.3.2 (091e20e, 2023-11-25)"
   xmlns:inkscape="http://www.inkscape.org/namespaces/inkscape"
   xmlns:sodipodi="http://sodipodi.sourceforge.net/DTD/sodipodi-0.dtd"
   xmlns="http://www.w3.org/2000/svg"
   xmlns:svg="http://www.w3.org/2000/svg"
   xmlns:rdf="http://www.w3.org/1999/02/22-rdf-syntax-ns#"
   xmlns:cc="http://creativecommons.org/ns#">
  <sodipodi:namedview
     id="namedview1"
     pagecolor="#505050"
     bordercolor="#eeeeee"
     borderopacity="1"
     inkscape:showpageshadow="0"
     inkscape:pageopacity="0"
     inkscape:pagecheckerboard="0"
     inkscape:deskcolor="#d1d1d1"
     inkscape:document-units="px"
     inkscape:zoom="1.8754153"
     inkscape:cx="181.82639"
     inkscape:cy="203.68822"
     inkscape:window-width="1568"
     inkscape:window-height="945"
     inkscape:window-x="79"
     inkscape:window-y="38"
     inkscape:window-maximized="0"
     inkscape:current-layer="svg1"
     showguides="false" />
  <defs
     id="defs1" />
  <path
     style="fill:#000000;stroke-width:0.264583"
     d="m 65.206333,306.44796 c -0.337097,-0.87776 0.361248,-2.68975 2.56338,-6.64571 4.399934,-7.90484 5.55374,-13.20752 6.559263,-30.14384 1.005648,-16.9399 -2.326468,-46.82004 -5.741087,-51.48195 -0.388367,-0.53069 -0.495626,-0.29594 -0.713218,1.56195 -0.140863,1.20241 -0.734727,5.00975 -1.319935,8.46054 -0.585205,3.45103 -1.251046,8.10158 -1.479651,10.33449 -0.228662,2.23303 -0.815349,7.71398 -1.303907,12.18009 -1.498923,13.70215 -1.772784,19.38526 -1.520787,31.55694 0.265777,12.84616 0.216303,13.15846 -2.078413,13.02396 -1.513474,-0.0888 -1.558088,-0.0177 -1.927545,3.24034 -0.422553,3.72373 -2.622198,6.02059 -6.348811,6.62988 -3.240942,0.52951 -7.26034,0.45008 -8.096729,-0.16062 -0.682391,-0.49833 -0.583439,-0.77957 2.505097,-7.10481 5.534524,-11.33574 6.373861,-15.65053 6.379046,-32.79159 0.0045,-17.27614 -0.709034,-26.7154 -3.155842,-41.7071 -0.59635,-3.65401 -1.330015,-8.53167 -1.630402,-10.8393 l -0.546317,-4.19569 -1.780211,-1.8942 c -7.688138,-8.18048 -12.836293,-18.75855 -15.11249,-31.05225 -1.059452,-5.72223 -0.965924,-20.3828 0.172086,-26.99293 1.952946,-11.34227 7.122788,-28.67307 12.283261,-41.17676 2.036101,-4.93343 4.101138,-10.07232 4.588872,-11.419933 l 0.886895,-2.450243 -2.842374,-0.262992 c -3.577922,-0.331247 -7.652248,-1.604316 -10.052029,-3.14168 -2.616893,-1.676384 -6.329304,-5.81825 -7.672758,-8.560199 -1.167772,-2.383408 -1.939273,-5.612279 -1.939273,-8.116354 0,-1.683681 -0.07543,-1.673267 6.337497,-0.879052 8.98356,1.112565 12.298525,2.507841 16.635929,7.001778 4.023049,4.168343 5.533345,4.227005 4.18111,0.162399 C 51.768146,75.769542 47.826659,72.961758 33.858367,65.921557 25.194933,61.554879 23.64368,60.978586 18.490103,60.212085 14.220649,59.576963 11.045419,58.524227 8.3517942,56.850488 5.9036869,55.329251 2.3430884,51.762493 1.0734203,49.559475 0.02422328,47.738943 -0.34735381,45.683952 0.37258049,45.683952 c 0.20332138,0 0.36951444,0.147683 0.36951444,0.329477 0,0.181189 0.75329077,1.165638 1.67401237,2.187898 3.0356758,3.370834 9.4464277,6.716784 12.8454297,6.704487 2.819153,-0.01773 2.819448,-0.260653 0.0046,-4.469577 C 10.830252,43.802347 5.9013886,35.471129 4.390446,32.052813 1.6897492,25.942854 1.3237118,20.829971 2.9875876,12.45445 4.3011612,5.8418037 6.6280413,0.28636383 8.0841168,0.28636383 c 0.5751908,0 0.5351164,0.55952125 -0.2946716,4.12298307 -2.160155,9.2761091 -1.8475706,17.1491201 0.9318026,23.4662971 0.6789757,1.543301 1.0287474,1.937732 1.7178002,1.937732 0.700899,0 1.097759,-0.473033 2.089083,-2.491311 2.4949,-5.079112 7.98817,-12.29164 8.922565,-11.715057 0.206272,0.12767 -0.05304,1.029437 -0.617154,2.138242 -1.764358,3.474974 -4.546089,10.230472 -5.11474,12.421371 -0.710623,2.737712 -0.714335,6.646065 -0.01179,9.349829 1.13577,4.353441 4.853251,10.227709 6.472395,10.227709 1.019967,0 1.369856,-0.736323 1.578187,-3.321771 0.22218,-2.756597 2.066865,-8.756653 3.687895,-11.995286 1.303614,-2.604804 4.233622,-6.828218 4.736916,-6.828218 0.552207,0 0.413125,1.291723 -0.345941,3.215923 -0.383651,0.97166 -1.170534,3.593762 -1.749146,5.826787 -0.920426,3.552049 -1.052203,4.729512 -1.053263,9.411665 -7.67e-4,4.00237 0.157939,5.869618 0.630355,7.40545 0.755531,2.456597 2.447164,4.898074 4.081867,5.891205 2.047358,1.243831 7.964598,3.368665 9.038134,3.245518 1.620854,-0.185906 2.337961,-2.114883 2.690384,-7.235882 0.289966,-4.213588 0.947594,-6.868225 2.392474,-9.657596 0.947065,-1.828357 1.447177,-0.96207 0.960796,1.664385 -0.987434,5.332691 -0.006,11.902678 2.432903,16.315838 1.863543,3.369596 5.205791,7.64314 8.35957,10.689093 3.786076,3.656598 5.217991,4.120333 8.134974,2.634632 4.854782,-2.472426 12.329403,-12.96801 13.615224,-19.117857 0.27345,-1.307432 0.361248,-4.102452 0.241626,-7.690271 -0.212146,-6.370833 0.02343,-6.685775 1.768721,-2.372405 0.784704,1.938852 1.099464,3.604531 1.458369,7.717276 0.487965,5.589386 0.950546,6.925 2.537215,7.322606 1.162056,0.291216 8.502371,-2.937455 10.238736,-4.503642 5.082317,-4.583781 5.687807,-14.242022 1.600049,-25.521582 -0.684165,-1.887782 -1.236427,-3.88076 -1.227352,-4.429043 0.01776,-0.960953 0.07601,-0.930418 1.67342,0.848872 3.09974,3.452558 5.79159,9.738728 7.38881,17.254847 0.54395,2.561028 0.69666,2.860383 1.45673,2.860383 1.99508,0 5.33486,-5.803312 6.37604,-11.079522 0.96126,-4.871129 0.58638,-6.342358 -4.48722,-17.618329 -2.62131,-5.825669 -2.25769,-6.848104 0.98396,-2.766953 2.55825,3.220924 3.89405,5.213785 5.62829,8.396878 2.33036,4.276954 3.41515,4.618962 4.60266,1.450461 2.07317,-5.531906 2.33914,-13.432511 0.75565,-22.4505104 -0.73997,-4.214589 -0.75035,-5.67193299 -0.0355,-5.23184686 0.56399,0.3483034 3.35097,7.82258906 4.11646,11.04039526 2.21809,9.323765 1.59958,16.113682 -2.14029,23.495891 -1.80438,3.561698 -8.21701,14.933334 -10.09618,17.903797 -0.79725,1.260304 -1.44953,2.379702 -1.44953,2.487721 0,0.18768 0.97913,0.120026 4.27688,-0.295932 2.60876,-0.328911 5.82354,-2.142953 8.79828,-4.963974 1.53652,-1.457051 2.89446,-2.966402 3.01769,-3.354009 0.37716,-1.186466 0.91371,-0.784389 0.91371,0.684781 0,1.790644 -1.11213,3.874757 -3.27029,6.127729 -3.35315,3.500802 -7.65767,5.619451 -13.95898,6.870519 -7.54263,1.497707 -18.464169,6.355306 -28.059935,12.480382 -4.191185,2.675292 -5.616324,4.343616 -6.261763,7.33067 -0.233954,1.08345 -0.169739,1.18341 0.918008,1.421869 0.966628,0.21179 1.436099,0.05294 2.702233,-0.90394 5.565936,-4.214829 8.540673,-5.498018 13.894388,-5.993172 4.284949,-0.396542 6.124329,-0.207678 6.459249,0.663888 0.50388,1.311673 -4.020219,8.808432 -6.934314,11.490134 -1.551194,1.427511 -4.210987,3.043946 -5.008537,3.043946 -0.19801,0 -0.791719,0.163568 -1.318885,0.363586 l -0.958555,0.363587 0.717228,1.389333 c 0.939166,1.819234 2.242248,3.004644 7.806476,7.101092 7.519707,5.536323 8.387677,6.662243 7.243427,9.396253 -0.6458,1.54312 -4.358684,5.57291 -5.838679,6.33724 -1.26119,0.6513 -3.196215,0.63665 -6.026095,-0.0471 -3.18737,-0.76838 -4.871283,-0.67572 -7.976736,0.43891 -2.221748,0.79727 -3.42818,0.99078 -6.330959,1.0149 -4.43034,0.0355 -4.870755,0.34887 -3.189552,2.26062 l 1.230066,1.39886 0.02343,5.38235 c 0.02343,4.80529 0.124951,5.65946 0.963449,7.96615 2.50168,6.88005 6.196174,11.18313 11.028089,12.84475 0.915004,0.31476 3.589714,1.49023 5.943705,2.61239 6.272724,2.99012 10.088982,4.11057 17.681122,5.19125 2.76687,0.3936 17.58959,0.26654 25.29476,-0.21711 12.06397,-0.75715 18.45834,0.26771 26.68566,4.27665 2.41492,1.1767 5.54472,3.11697 7.7054,4.7767 2.00122,1.53719 4.97908,3.50439 6.6175,4.37127 5.93686,3.14173 7.48157,5.29427 10.79931,15.04812 0.93215,2.74053 2.19092,5.69352 2.79729,6.56217 0.60643,0.86864 1.10253,1.72139 1.10253,1.89478 0,0.46714 -4.79137,0.69973 -6.25687,0.30359 -0.71369,-0.19296 -2.20531,-1.23648 -3.41981,-2.39294 l -2.15397,-2.05111 -0.006,2.54756 c -0.003,1.40116 -0.50328,5.70318 -1.1116,9.56016 -1.51537,9.60812 -1.69617,12.8564 -0.95231,17.10882 1.09475,6.25858 4.38491,11.99758 10.21463,17.81773 2.02661,2.02321 3.91432,4.12733 4.19472,4.67591 0.89008,1.7407 1.32725,4.71345 1.70926,11.6228 0.20451,3.69696 0.5298,8.09035 0.7237,9.76332 0.78978,6.82351 3.05678,21.52074 3.77223,24.45538 0.42078,1.72557 0.85006,4.9199 0.95431,7.09845 0.16679,3.48744 0.11494,3.98995 -0.43551,4.20087 -0.34417,0.13237 -1.05721,0.0412 -1.58496,-0.19707 -1.25299,-0.5701 -1.41859,-0.27477 -1.71002,3.04594 -0.47677,5.43171 -1.56788,7.13411 -5.26049,8.20573 -2.5866,0.75073 -8.72885,0.86876 -9.55569,0.18357 -0.70101,-0.5807 -0.68775,-0.61612 2.97539,-7.9588 3.99471,-8.00709 4.32373,-9.45649 3.81277,-16.79357 -0.76242,-10.94797 -4.80398,-26.62186 -8.27258,-32.08234 -1.921,-3.02418 -6.93096,-7.1947 -16.65944,-13.86753 -11.24626,-7.71411 -18.12961,-14.93151 -25.85087,-27.10578 -1.60105,-2.52432 -3.54721,-5.9291 -4.32484,-7.56624 -1.62339,-3.41756 -1.74339,-3.36178 -0.65741,0.30536 2.65284,8.95794 9.44483,21.09813 15.09604,26.98316 3.24112,3.37531 5.0343,6.07866 8.00191,12.06389 3.02713,6.10532 3.0652,7.07745 0.45437,11.5968 -0.92596,1.60261 -2.31526,4.5746 -3.08736,6.6047 -0.77209,2.02987 -2.80854,7.17876 -4.52546,11.44172 -4.62176,11.47565 -6.54383,16.90177 -7.86188,22.19434 -1.58755,6.37501 -1.49473,6.22651 -3.31407,5.29997 l -1.4575,-0.74237 -0.23161,1.01837 c -1.43863,6.33553 -2.68926,8.00292 -6.47534,8.6321 -2.96997,0.49362 -8.40589,0.1724 -9.11846,-0.53951 -0.73874,-0.73738 0.41312,-2.85356 5.2075,-9.56593 8.37619,-11.72741 14.24723,-26.83555 16.00823,-41.195 0.71097,-5.79737 0.52686,-7.85095 -0.98096,-10.96114 -0.9849,-2.03116 -6.62691,-8.57215 -11.28215,-13.07998 -3.80629,-3.68578 -7.05472,-7.75851 -9.33899,-11.70887 l -1.36549,-2.36147 -1.6637,0.23356 c -4.18224,0.58658 -9.6306,0.88794 -16.32158,0.90271 l -7.26382,0.0177 -0.426672,2.49131 c -0.234559,1.37016 -1.342863,6.39449 -2.462547,11.16496 -1.11968,4.7704 -2.2033,10.00225 -2.40803,11.62621 -0.421959,3.34577 -0.779635,5.63422 -1.789581,11.44188 -1.496031,8.60281 -1.953299,14.54461 -2.186798,28.4151 -0.199182,11.83431 -0.305274,13.66626 -0.794898,13.75992 -0.310564,0.0594 -0.93669,-0.23711 -1.390892,-0.65983 -0.9717,-0.90383 -0.916247,-1.01638 -1.711204,3.47668 -1.071235,6.05465 -2.190681,6.89682 -9.518085,7.16099 -4.266217,0.15413 -4.755777,0.10768 -4.980663,-0.47832 z M 76.902436,94.653176 c 0,-0.664835 -1.43433,-1.958265 -2.70441,-2.438651 -2.097919,-0.793626 -5.207031,-0.140024 -4.978134,1.046847 0.261657,1.355269 7.682544,2.699882 7.682544,1.391804 z"
     id="path68" />
  <metadata
     id="metadata1">
    <rdf:RDF>
      <cc:Work
         rdf:about="">
        <cc:license
           rdf:resource="http://creativecommons.org/licenses/by-sa/4.0/" />
      </cc:Work>
      <cc:License
         rdf:about="http://creativecommons.org/licenses/by-sa/4.0/">
        <cc:permits
           rdf:resource="http://creativecommons.org/ns#Reproduction" />
        <cc:permits
           rdf:resource="http://creativecommons.org/ns#Distribution" />
        <cc:requires
           rdf:resource="http://creativecommons.org/ns#Notice" />
        <cc:requires
           rdf:resource="http://creativecommons.org/ns#Attribution" />
        <cc:permits
           rdf:resource="http://creativecommons.org/ns#DerivativeWorks" />
        <cc:requires
           rdf:resource="http://creativecommons.org/ns#ShareAlike" />
      </cc:License>
    </rdf:RDF>
  </metadata>
</svg>
