<?xml version="1.0" encoding="UTF-8" standalone="no"?>
<!-- Created with Inkscape (http://www.inkscape.org/) -->

<svg
   width="48"
   height="48"
   viewBox="0 0 12.7 12.7"
   version="1.1"
   id="svg1"
   xmlns="http://www.w3.org/2000/svg"
   xmlns:svg="http://www.w3.org/2000/svg">
  <defs
     id="defs1">
    <clipPath
       clipPathUnits="userSpaceOnUse"
       id="clipPath4631">
      <ellipse
         style="opacity:0.072;fill:#000000;fill-opacity:1;stroke:#000000;stroke-width:4.26227;stroke-linejoin:round;stroke-miterlimit:4;stroke-dasharray:none;stroke-dashoffset:0;stroke-opacity:1"
         id="ellipse4633"
         cx="60.685066"
         cy="61.588734"
         rx="58.861824"
         ry="58.212814" />
    </clipPath>
  </defs>
  <g
     id="layer1">
    <path
       d="m 9.2174007,0.15087538 c -0.5397003,-0.311597 -1.236986,-0.12476 -1.548583,0.414942 -0.062627,0.108475 -0.1041915,0.223396 -0.1277323,0.340176 -0.059962,-0.04795 -0.122795,-0.09333 -0.1912301,-0.132843 -0.7377358,-0.425931 -1.6881219,-0.171414 -2.1140548,0.56632202 -0.42593,0.737736 -0.1712747,1.688258 0.5664611,2.114189 0.093702,0.0541 0.1908964,0.09701 0.2899505,0.129555 0.043864,0.225898 0.146063,0.436387 0.2964455,0.610561 l -1.8403899,3.187648 -0.052561,-0.03035 c -0.059373,-0.03428 -0.134767,-0.01408 -0.1690469,0.0453 l -0.1675123,0.290142 c -0.03428,0.05937 -0.014069,0.134766 0.045295,0.169045 l 0.052564,0.03035 -2.249576,3.8963826 c -0.070231,0.12164 -0.028835,0.276106 0.092803,0.346337 l 0.3026767,0.174751 c 0.1216433,0.07023 0.2761074,0.02884 0.3463381,-0.0928 l 0.1580612,-0.273771 0.4852852,0.280181 0.2701344,-0.467888 0.2979831,0.172041 -0.2701344,0.467887 0.5097108,0.294282 c 0.059373,0.03428 0.1347669,0.01408 0.1690439,-0.0453 l 0.7400159,-1.281745 -0.4499987,-0.259807 -0.099132,0.171701 -0.6413826,-0.370303 0.3703053,-0.641384 0.6413826,0.370302 -0.099132,0.1717 0.4499987,0.259807 0.740016,-1.2817433 c 0.03428,-0.059372 0.014069,-0.1347661 -0.045295,-0.1690446 L 5.4663999,9.3132216 5.1962654,9.781109 4.8982824,9.6090685 5.1684168,9.1411805 4.6831316,8.8610002 l 0.315693,-0.5467998 0.052524,0.03032 c 0.059373,0.03428 0.134767,0.01408 0.169044,-0.04529 l 0.1675152,-0.290143 c 0.034277,-0.05937 0.014069,-0.134766 -0.045295,-0.169044 l -0.052524,-0.03032 1.8403871,-3.187647 c 0.2260321,0.04315 0.4594238,0.02641 0.6769853,-0.04855 0.077718,0.06953 0.1634597,0.13222 0.2571703,0.186325 0.7377387,0.425933 1.6881219,0.171142 2.1140545,-0.566594 0.425933,-0.737736 0.171278,-1.687984 -0.5664608,-2.113917 -0.068429,-0.03951 -0.1391125,-0.0712 -0.2106167,-0.09916 0.089374,-0.07877 0.1681099,-0.172231 0.2307374,-0.280705 C 9.9439428,1.1597714 9.7571076,0.46248738 9.2174016,0.15088938 Z m -0.2414388,0.418182 C 9.2896417,0.75016038 9.395098,1.1442494 9.2139979,1.4579274 9.0328949,1.7716064 8.6389705,1.8771594 8.3252907,1.6960564 8.0116138,1.5149544 7.9060212,1.1210044 8.0871213,0.80732638 c 0.181103,-0.313678 0.5751637,-0.41937 0.8888406,-0.238269 z M 7.1084398,1.1912924 c 0.1924658,0.111119 0.3369885,0.272058 0.4267916,0.456772 -0.3237373,0.05029 -0.6231243,0.238673 -0.8019385,0.539539 -0.00232,0.0041 -0.00548,0.0077 -0.00789,0.0119 -0.1778888,0.308112 -0.1927501,0.667357 -0.072824,0.977102 -0.1867597,0.01333 -0.378744,-0.02397 -0.5570911,-0.114594 -0.017318,-0.0088 -0.034901,-0.01677 -0.051946,-0.02661 C 5.5318294,2.7399634 5.3585124,2.0926144 5.6539513,1.5809024 5.9493874,1.0691914 6.5965717,0.89577738 7.1082841,1.1912144 Z m 2.2623719,1.30618 c 0.5117124,0.295437 0.6851253,0.942624 0.3896891,1.454336 -0.2954361,0.511712 -0.942719,0.685287 -1.4544314,0.38985 -0.017057,-0.0098 -0.032719,-0.02107 -0.049017,-0.03168 -0.1676283,-0.10913 -0.295935,-0.256721 -0.3777664,-0.425093 0.3282162,-0.05101 0.6319111,-0.243539 0.8098028,-0.551661 0.00261,-0.0043 0.00418,-0.009 0.00667,-0.0133 0.1708715,-0.305179 0.1842417,-0.658401 0.065984,-0.963736 0.2048671,-0.01459 0.4165079,0.03011 0.6089679,0.141224 z M 8.0326134,2.2029884 c 0.029836,0.01723 0.055952,0.03804 0.081956,0.05886 0.082078,0.06574 0.1450216,0.147049 0.186107,0.238199 0.082736,0.18356 0.079566,0.401984 -0.029934,0.591646 -0.1094972,0.189654 -0.2971098,0.301649 -0.4974603,0.321829 -0.099533,0.01003 -0.2015079,-0.0037 -0.2995148,-0.04196 -0.031008,-0.0121 -0.062041,-0.02433 -0.091848,-0.04154 -0.029818,-0.01722 -0.05595,-0.03798 -0.081939,-0.0588 -0.08211,-0.06576 -0.1450158,-0.147202 -0.1860954,-0.23841 -0.082684,-0.183593 -0.079508,-0.402084 0.029981,-0.591728 0.1094915,-0.189644 0.297078,-0.301562 0.4973908,-0.321706 0.099483,-0.01001 0.201389,0.0038 0.2993668,0.04204 0.031048,0.01211 0.062143,0.02434 0.09199,0.04157 z"
       style="fill:#000000;fill-rule:evenodd;stroke-width:0.29009;stroke-linecap:round;stroke-miterlimit:2.6;paint-order:fill markers stroke"
       id="path22-1" />
  </g>
</svg>
