<?xml version="1.0" encoding="UTF-8" standalone="no"?>
<!-- Created with Inkscape (http://www.inkscape.org/) -->

<svg
   width="42.105663mm"
   height="41.924374mm"
   viewBox="0 0 42.105663 41.924374"
   version="1.1"
   id="svg1"
   xmlns="http://www.w3.org/2000/svg"
   xmlns:svg="http://www.w3.org/2000/svg">
  <defs
     id="defs1" />
  <g
     id="layer1"
     transform="translate(461.90928,-50.531233)">
    <path
       id="path14"
       style="fill:none;stroke:#000000;stroke-width:0.132292;stroke-linecap:round;stroke-linejoin:round"
       d="m -472.87102,39.478844 h 64.02917 V 103.508 h -64.02917 z" />
    <path
       id="path494"
       style="fill:#000000;stroke-width:0.999996"
       d="m -423.01214,50.531304 c -0.59292,0 -1.08922,0.11023 -1.53676,0.34135 -0.23363,0.12066 -1.54237,1.39601 -5.61814,5.47467 -2.92248,2.92456 -5.65871,5.65525 -6.08046,6.06787 l -0.7668,0.75017 0.48077,0.0404 c 0.26504,0.0226 0.60261,0.095 0.75286,0.16145 l 0.27254,0.12053 0.79604,-0.84775 c 1.64739,-1.75434 2.18655,-2.30991 5.02583,-5.17649 1.60209,-1.6175 3.44949,-3.51383 4.10521,-4.21405 1.18344,-1.26373 1.43911,-1.47134 1.69057,-1.37485 0.14755,0.0567 0.0991,0.19344 -0.18529,0.52664 -0.16507,0.19338 -0.30698,0.43804 -0.36024,0.62019 -0.0483,0.16542 -0.13496,0.37197 -0.19249,0.45918 -0.19044,0.28852 -4.16281,4.36259 -9.01187,9.24213 -0.61095,0.6148 -1.12069,1.14621 -1.13243,1.18146 -0.0118,0.0352 0.0677,0.11027 0.17629,0.16641 0.32377,0.16742 1.13745,0.85281 1.48054,1.24712 0.3551,0.4081 0.70536,0.97505 0.9476,1.53361 l 0.15966,0.36744 0.63683,-0.60984 c 0.35026,-0.33538 1.05523,-1.03271 1.56689,-1.5498 0.51166,-0.51711 1.71159,-1.69504 2.66651,-2.61748 2.78245,-2.68786 5.35411,-5.21683 6.16366,-6.06159 0.63583,-0.66347 0.77457,-0.84339 0.90757,-1.1756 0.53141,-1.32745 0.2482,-2.73928 -0.74746,-3.72834 -0.66043,-0.65604 -1.33212,-0.9449 -2.19743,-0.9449 z m 0.0567,1.74948 c 0.10179,0.008 0.2005,0.0335 0.28873,0.0792 0.59304,0.30667 0.68711,1.05709 0.179,1.42792 -0.36881,0.26917 -1.01436,0.12589 -1.26198,-0.28019 -0.13716,-0.22489 -0.1494,-0.67729 -0.0234,-0.8572 0.17715,-0.25287 0.51223,-0.39266 0.81763,-0.36968 z m -14.23243,11.64823 c -0.25871,-0.008 -0.4712,0.0534 -0.64762,0.18304 -0.6506,0.47842 -1.51248,1.25359 -1.51248,1.36046 0,0.0283 0.19603,5.2e-4 0.43536,-0.0616 0.55408,-0.14378 1.01922,-0.14473 1.47558,-0.002 l 0.36069,0.11245 0.0346,-0.13718 c 0.0465,-0.18517 0.69104,-0.98762 0.79333,-0.98762 0.2082,0 -0.002,0.84567 -0.27614,1.10771 -0.21529,0.20625 -0.20575,0.22325 0.34405,0.60759 1.17807,0.82353 1.92399,1.8027 2.25904,2.96603 l 0.0953,0.33056 0.57027,-0.54824 c 0.49982,-0.48069 0.57005,-0.57338 0.56937,-0.75062 -0.002,-0.67598 -0.63965,-1.77275 -1.52012,-2.61522 -0.57915,-0.55416 -0.97497,-0.82511 -1.73194,-1.18641 -0.50789,-0.24241 -0.91676,-0.36777 -1.24937,-0.37823 z m -1.45401,2.04452 c -0.36027,-0.006 -0.75579,0.1558 -1.04519,0.43309 l -0.2775,0.2658 0.0292,0.40746 c 0.0294,0.4101 0.18685,0.81917 0.37464,0.97503 0.11887,0.0986 0.0791,0.16562 -0.53383,0.90128 -0.59398,0.7129 -0.67991,0.83684 -1.14415,1.65189 -0.83499,1.46601 -1.0508,1.71152 -1.67077,1.90059 -1.00779,0.30734 -1.84583,-0.006 -2.92016,-1.09241 -0.60325,-0.6099 -0.91101,-1.00159 -1.46029,-1.85832 -0.15325,-0.239 -0.29754,-0.39676 -0.37238,-0.40747 -0.089,-0.0127 -0.34212,0.20616 -0.93052,0.80593 -0.44443,0.45304 -2.25283,2.22058 -4.01887,3.92757 -3.6951,3.57156 -4.28065,4.16024 -5.03886,5.06676 -1.36693,1.63428 -2.1343,3.07001 -2.64626,4.95163 -0.32935,1.21042 -0.42132,1.84816 -0.45874,3.18639 -0.0315,1.12528 -0.0222,1.29481 0.0998,1.8907 0.0737,0.35999 0.21913,0.9383 0.32336,1.2849 l 0.18934,0.63009 1.70991,-0.007 c 1.63939,-0.006 1.76803,-0.0153 3.12029,-0.22082 1.45391,-0.2209 2.76832,-0.5118 4.26936,-0.94445 0.88299,-0.25449 1.0884,-0.33362 2.54058,-0.97728 2.33415,-1.0346 4.25135,-2.53048 9.47374,-7.39325 0.46086,-0.42913 1.18039,-1.09103 1.59883,-1.47065 1.28539,-1.16617 1.86632,-1.69481 2.28871,-2.08318 0.47519,-0.43693 0.65609,-0.50502 0.88554,-0.33371 0.0879,0.0656 0.1601,0.15979 0.1601,0.20958 0,0.11178 -0.38812,0.53588 -0.78389,0.85675 -0.16286,0.13204 -0.75595,0.68582 -1.31818,1.23048 -0.97165,0.94131 -2.63904,2.49633 -3.64154,3.39643 -0.25402,0.22806 -0.85985,0.77945 -1.34606,1.22508 -2.31236,2.11939 -3.03627,2.71278 -4.45332,3.65143 -2.14289,1.41944 -4.43957,2.31714 -7.78677,3.04293 -2.60468,0.5648 -4.28906,0.71742 -6.00896,0.54464 -0.53419,-0.0537 -1.01469,-0.1142 -1.06768,-0.13448 -0.19812,-0.0761 -0.50048,-0.95155 -0.6917,-2.00313 -0.11011,-0.60561 -0.23358,-2.36439 -0.23881,-3.40587 -7.9e-4,-0.17331 -0.0259,-0.31527 -0.0553,-0.31527 -0.093,0 -0.23908,0.45255 -0.3427,1.06048 -0.13599,0.79779 -0.0875,2.78605 0.0877,3.60376 0.19209,0.89636 0.49811,1.62246 0.75511,1.79086 0.0931,0.061 0.44172,0.12475 0.97458,0.1781 v 4.5e-4 c 0.90745,0.0909 2.55054,0.0753 3.50031,-0.0333 1.25331,-0.14327 3.56412,-0.54578 4.46681,-0.77806 2.66206,-0.68499 4.35977,-1.36772 6.27655,-2.52348 1.71081,-1.03156 2.98875,-2.03573 5.34335,-4.19876 0.73663,-0.67671 2.16252,-1.98642 3.16841,-2.91071 2.82235,-2.59341 2.90235,-2.66595 3.22192,-2.90936 0.58318,-0.4442 0.57005,-0.42056 0.56982,-1.03934 -3.9e-4,-0.96136 -0.24466,-1.16487 -1.31998,-1.09916 -0.73707,0.045 -1.75292,-0.0398 -2.21767,-0.1853 -0.42729,-0.1338 -0.70442,-0.41556 -1.01146,-1.029 -0.60687,-1.2125 -0.55718,-2.57426 0.14167,-3.89159 0.28086,-0.52941 0.50998,-0.7974 1.10366,-1.2903 0.28237,-0.23443 0.53603,-0.46537 0.56397,-0.51315 0.069,-0.1179 -0.0532,-0.57804 -0.23655,-0.89093 -0.29676,-0.50639 -0.60727,-0.79103 -1.17428,-1.07488 -0.48296,-0.24178 -0.58734,-0.27164 -0.9485,-0.27164 -0.33615,0 -0.444,0.0267 -0.63143,0.15381 -0.16763,0.11375 -0.21646,0.1278 -0.18843,0.0549 0.0208,-0.0542 0.0378,-0.14924 0.0378,-0.21138 0,-0.0621 0.0819,-0.20644 0.18214,-0.32066 0.31382,-0.35741 1.02986,-0.4207 1.58803,-0.14032 0.7555,0.37952 1.31676,0.9194 1.68608,1.62221 0.36494,0.69449 0.30079,1.03016 -0.28109,1.47424 -0.14548,0.11104 -0.27269,0.22276 -0.28244,0.24826 -0.0308,0.0806 0.35337,0.17989 0.6953,0.17989 0.47791,0 0.76674,-0.10622 1.00517,-0.37013 0.1972,-0.21853 0.20772,-0.25203 0.20598,-0.66517 -0.002,-0.56207 -0.12892,-0.91819 -0.55004,-1.54889 -0.48085,-0.72017 -0.72343,-0.98306 -1.21474,-1.31459 -0.79284,-0.53501 -1.46719,-0.82378 -2.17719,-0.9332 -0.0496,-0.008 -0.10009,-0.0118 -0.15155,-0.0126 z m 0.71778,2.26308 c 0.04,0.005 0.0728,0.0166 0.0944,0.0382 0.0893,0.0893 -0.25289,0.5948 -0.88867,1.31279 -0.61791,0.69782 -0.95971,1.17124 -1.31594,1.82324 -0.17348,0.31754 -0.50978,0.86094 -0.74747,1.20754 -0.89064,1.29877 -1.54119,2.21685 -1.66628,2.35169 -0.071,0.0765 -0.39496,0.50701 -0.72003,0.9566 -1.31964,1.82512 -2.92577,3.70001 -3.48997,4.07373 -0.40052,0.26529 -0.44792,0.23812 -0.28154,-0.16011 0.12992,-0.31094 0.59162,-0.97286 1.5561,-2.23025 0.46417,-0.60515 1.0604,-1.39216 1.32448,-1.74904 0.26408,-0.35689 0.80424,-1.08553 1.20035,-1.61906 0.39613,-0.53353 0.8219,-1.11031 0.9467,-1.28176 0.39907,-0.54823 1.33809,-1.97697 1.60467,-2.44207 0.45226,-0.78908 1.09732,-1.49922 1.92533,-2.11917 0.15113,-0.11317 0.33764,-0.175 0.45783,-0.16236 z m -6.81174,4.9089 0.35215,0.0251 c 0.19358,0.014 0.36566,0.0392 0.38227,0.0558 0.0838,0.0838 -0.97933,2.20348 -1.44545,2.88192 -0.65855,0.95852 -1.47156,2.20956 -1.77782,2.73576 -0.57823,0.99341 -0.84163,1.99048 -0.61704,2.33324 0.10099,0.15413 0.12032,0.15888 0.50326,0.12502 0.95503,-0.0844 3.07257,-1.03781 5.07979,-2.28691 0.3301,-0.20541 0.88388,-0.54365 1.23049,-0.75152 0.34661,-0.20786 1.02897,-0.62099 1.51652,-0.91836 0.65047,-0.39676 0.95569,-0.54832 1.14638,-0.56982 0.21211,-0.024 0.26775,-0.01 0.30178,0.0791 0.0977,0.25465 -1.19116,1.26306 -3.32492,2.60128 -0.41263,0.25879 -0.96641,0.60658 -1.23049,0.7731 -1.11672,0.70418 -3.69492,1.85137 -4.81805,2.14392 v 4.4e-4 c -0.18625,0.0485 -0.56318,0.0881 -0.83786,0.0881 -0.59328,0 -0.58849,0.006 -0.57927,-0.69035 0.0131,-0.98843 0.36345,-2.19367 0.98088,-3.37124 0.15868,-0.30262 0.59569,-0.98548 0.97099,-1.51741 0.91538,-1.29745 1.17808,-1.72934 1.71261,-2.81538 z m -5.98062,9.97609 c 0.10603,0 0.26534,0.14034 0.26534,0.23342 0,0.10888 -0.3948,0.5101 -1.02675,1.04339 -0.37452,0.31606 -0.46872,0.34153 -0.58286,0.15877 -0.0994,-0.15915 -0.0109,-0.30649 0.38093,-0.63324 0.15299,-0.12761 0.4248,-0.3604 0.60399,-0.5172 0.17918,-0.1568 0.34099,-0.28514 0.35935,-0.28514 z m -1.80795,1.70991 c 0.0436,0.002 0.0677,0.0361 0.0801,0.0998 0.0364,0.18787 -1.06089,1.23381 -2.56126,2.44164 -0.37584,0.30256 -0.7051,0.55048 -0.73173,0.55048 -0.0815,0 -0.12485,-0.11484 -0.0737,-0.19474 0.12105,-0.18937 1.45137,-1.40697 2.86528,-2.62287 0.22134,-0.19035 0.34871,-0.2774 0.42141,-0.27435 z" />
  </g>
</svg>
