<?xml version="1.0" encoding="UTF-8" standalone="no"?>
<!-- Created with Inkscape (http://www.inkscape.org/) -->

<svg
   width="48"
   height="48"
   viewBox="0 0 12.7 12.7"
   version="1.1"
   id="svg1"
   xmlns="http://www.w3.org/2000/svg"
   xmlns:svg="http://www.w3.org/2000/svg">
  <defs
     id="defs1" />
  <g
     id="layer1">
    <path
       style="fill:#00104c;fill-opacity:1;stroke-width:0.360003"
       d="m 10.558438,11.279738 c -0.03323,-0.01936 -0.03204,-0.0561 0.0018,-0.0561 0.03222,0 0.06516,0.0357 0.05223,0.05662 -0.01134,0.01835 -0.02182,0.01825 -0.05405,-5.4e-4 z m -0.311284,-0.09273 c 0,-0.01227 0.0064,-0.01833 0.01429,-0.01347 0.0079,0.0049 0.01429,0.0149 0.01429,0.02231 0,0.0074 -0.0064,0.01347 -0.01429,0.01347 -0.0078,0 -0.01429,-0.01004 -0.01429,-0.02231 z m -0.219451,-0.04448 c -0.0052,-0.0053 -0.0095,-0.02158 -0.0095,-0.03628 0,-0.02231 0.0047,-0.0242 0.02862,-0.01142 0.03218,0.01722 0.03885,0.05725 0.0095,0.05725 -0.01048,0 -0.02336,-0.0043 -0.02862,-0.0095 z M 9.5172399,11.007827 C 8.7449212,10.804717 8.558335,10.760631 8.558335,10.78126 c 0,0.0066 0.02736,0.01894 0.06083,0.02753 0.057291,0.01471 0.1440697,0.04447 0.540275,0.18527 0.1424353,0.05062 0.1549562,0.05747 0.093028,0.05089 -0.039356,-0.0042 -0.1649427,-0.03346 -0.2790817,-0.06507 -0.1141391,-0.0316 -0.2783726,-0.07583 -0.364957,-0.09827 C 8.5218415,10.859174 8.2610047,10.788846 8.0287882,10.725335 7.4273486,10.560836 6.895379,10.427817 6.7621741,10.408617 6.5645899,10.380137 6.3281397,10.339985 6.0465739,10.287104 5.7811327,10.23725 5.6987388,10.228216 5.1234499,10.185885 c -0.4666111,-0.03433 -0.5659468,-0.02806 -1.0161526,0.06417 -0.1913633,0.0392 -0.7802964,0.129331 -1.1735856,0.1796 -0.090526,0.01157 -0.2032362,0.02746 -0.2504615,0.03531 -0.1130554,0.0188 -0.1222175,0.01825 -0.1126234,-0.0068 0.00446,-0.01165 0.031644,-0.02778 0.060376,-0.03585 0.05197,-0.01458 0.5324197,-0.125245 0.696286,-0.160374 0.084928,-0.01821 0.085245,-0.01846 0.02862,-0.0227 -0.0315,-0.0024 -0.1216523,0.009 -0.200367,0.02516 -0.1402573,0.02886 -0.3227106,0.06407 -0.5653312,0.109096 -0.066903,0.01242 -0.1695544,0.03487 -0.2281053,0.0499 -0.1193843,0.03064 -0.1345873,0.03251 -0.1239348,0.01527 0.0041,-0.0066 -0.1704183,-0.01601 -0.3878135,-0.02084 -0.2173916,-0.0048 -0.4007197,-0.01425 -0.4073906,-0.02092 -0.00666,-0.0067 -0.00403,-0.0232 0.00587,-0.03672 0.026136,-0.03573 0.4380556,-0.117405 0.8479986,-0.16813 0.3112588,-0.03851 0.5482598,-0.07587 0.8945038,-0.140997 0.5830758,-0.1096722 0.7417184,-0.1303087 0.786042,-0.1022543 0.02232,0.01413 -0.042218,0.035626 -0.1760704,0.058633 -0.2338509,0.0402 -0.4323064,0.07158 -0.545567,0.08627 -0.1785689,0.02316 -0.1995102,0.04118 -0.048467,0.04172 0.189999,6.84e-4 0.8999723,-0.133105 1.1403753,-0.2148733 0.1081306,-0.036778 0.1839761,-0.072689 0.1103014,-0.052225 -0.035964,0.00999 -0.3311778,0.064027 -0.3792706,0.069423 -0.045577,0.00511 -0.071554,-0.011081 -0.071554,-0.044611 0,-0.020016 0.018072,-0.030575 0.075136,-0.043925 C 4.2894896,9.8008042 4.508044,9.7072562 4.508044,9.667023 c 0,-0.00635 -0.02952,-0.022479 -0.065589,-0.035849 -0.05872,-0.021762 -0.069891,-0.022086 -0.1066294,-0.0031 -0.048255,0.024952 -0.076558,0.026647 -0.1106362,0.00662 C 4.2115094,9.6266629 3.9556009,9.5369637 3.6564814,9.4353653 2.5872175,9.0721847 1.7870634,8.717774 0.96880879,8.2449219 c -0.177396,-0.1025117 -0.425618,-0.2721726 -0.417478,-0.2853455 0.0092,-0.014879 -0.03395,-0.084967 -0.0523,-0.084967 -0.007,0 -0.01267,0.013263 -0.01267,0.02947 0,0.016211 -0.0064,0.025477 -0.01433,0.020599 -0.01228,-0.00758 7.2e-4,-0.051245 0.02293,-0.076956 0.0025,-0.00299 0.0355,0.014018 0.0732,0.037779 C 0.87268379,8.0774671 1.9042657,8.5610001 2.3756,8.7327015 2.434633,8.7542081 2.5795455,8.8072435 2.6976194,8.8505576 2.9079909,8.927729 3.006297,8.9585222 2.9898772,8.9421011 2.9774572,8.929699 2.5780515,8.7547759 2.3827533,8.6762195 1.8005811,8.4420449 1.1931158,8.1411362 0.87999179,7.9318238 c -0.0551,-0.036833 -0.133997,-0.088401 -0.175322,-0.1145941 -0.04133,-0.026194 -0.07514,-0.049318 -0.07514,-0.051388 0,-0.00205 0.0789,0.033466 0.175326,0.078967 0.47708001,0.2251223 0.98394961,0.442803 0.98394961,0.4225661 0,-0.00368 -0.033804,-0.021795 -0.075136,-0.040235 C 1.5517579,8.1548804 1.4830837,8.1221298 1.1376068,7.9524271 0.94081779,7.8557604 0.70252479,7.7333737 0.60806279,7.6804554 c -0.159996,-0.089632 -0.500199,-0.3124309 -0.578089,-0.3785909 -0.06999,-0.059453 -0.01721,-0.038145 0.156277,0.0631 0.310687,0.1813041 0.594927,0.3297619 1.04438801,0.5454805 0.4679969,0.2246169 0.7287473,0.3422116 0.738093,0.3328695 0.00324,-0.0032 -0.07302,-0.04386 -0.1693564,-0.090373 C 1.3650208,7.9432298 1.0739938,7.7806109 0.63993379,7.505067 c -0.174734,-0.1109228 -0.330889,-0.2307074 -0.317814,-0.2437871 0.0032,-0.00338 0.0532,0.026374 0.110701,0.066125 0.05751,0.039751 0.1591,0.1008957 0.225772,0.1358757 0.06667,0.034982 0.177568,0.093637 0.246448,0.130349 0.06887,0.036711 0.12522301,0.060207 0.12522301,0.052212 0,-0.008 -0.0098,-0.014537 -0.02182,-0.014537 -0.01199,0 -0.02758,-0.015138 -0.0346,-0.033646 -0.0085,-0.022313 -0.03919,-0.044358 -0.09116,-0.065454 -0.0783,-0.031778 -0.126544,-0.071919 -0.143213,-0.1191593 -0.01249,-0.035381 0.01138,-0.031335 0.09586,0.016236 C 1.2850438,7.6825626 1.9947148,8.021743 2.411397,8.1825486 c 0.086584,0.033416 0.1697596,0.065839 0.1848257,0.072051 0.019476,0.00803 0.024372,0.00639 0.01692,-0.00565 C 2.5992827,8.2264655 2.5498467,8.2012584 2.1036912,7.989003 1.6770878,7.7860512 1.1871228,7.5213728 0.95157679,7.366638 c -0.335944,-0.2206939 -0.405263,-0.2671469 -0.538709,-0.3610261 -0.285191,-0.2006302 -0.376268,-0.2759637 -0.33363,-0.2759637 0.0043,0 0.08321,0.047395 0.175322,0.1053229 0.09211,0.057927 0.249979,0.152924 0.350816,0.2111027 0.100841,0.058179 0.258119,0.1494986 0.349509,0.2029335 0.24313201,0.1421588 0.81850391,0.4262075 0.86083671,0.4249759 0.0049,-1.624e-4 -0.042635,-0.029927 -0.105607,-0.066192 -0.1866797,-0.1075016 -0.3667997,-0.22133 -0.4508247,-0.284907 -0.04329,-0.032757 -0.125033,-0.089185 -0.181636,-0.1253945 -0.05661,-0.03621 -0.11048501,-0.079972 -0.11973401,-0.097249 -0.0167,-0.031245 -0.01656,-0.031234 0.03136,0.00227 0.0265,0.018515 0.07071,0.051241 0.09826,0.072718 0.108394,0.084499 0.5816073,0.3395555 0.8873473,0.4782666 0.2559444,0.1161219 0.3005524,0.135066 0.3005524,0.1276445 0,-0.00363 -0.1293096,-0.071137 -0.2873547,-0.1500238 -0.4232667,-0.2112708 -0.777168,-0.4226788 -0.907702,-0.5422276 -0.0315,-0.028836 -0.09911,-0.077526 -0.15027601,-0.1081983 -0.05117,-0.030672 -0.132488,-0.0836 -0.180718,-0.1176181 -0.04823,-0.034017 -0.09176,-0.06185 -0.09674,-0.06185 -0.005,0 -0.02927,-0.019321 -0.05398,-0.042937 -0.0247,-0.023613 -0.05019,-0.042936 -0.05661,-0.042936 -0.0064,0 -0.01922,-0.014051 -0.0284,-0.031234 l -0.0167,-0.03123 0.04149,0.027655 c 0.02282,0.01521 0.06714,0.045742 0.0985,0.067849 0.108498,0.07648 0.67323801,0.4143515 0.87280261,0.5221804 0.2913831,0.1574349 0.5310949,0.2699906 0.9732186,0.4569731 0.3383779,0.143102 0.4555302,0.1900896 0.4608078,0.1848141 0.00288,-0.00288 -0.08032,-0.04271 -0.1848581,-0.088537 C 2.5329416,7.7247606 1.8950266,7.4028263 1.7029612,7.2909153 1.4165642,7.1240401 0.73998079,6.6622606 0.64608879,6.569581 l -0.03355,-0.033131 0.03424,-0.00424 c 0.05021,-0.00623 0.301319,0.1191802 0.55529401,0.2773232 0.2279687,0.1419493 0.4692789,0.2714173 0.4820554,0.2586361 0.00396,-0.00397 -0.014328,-0.018227 -0.04063,-0.031691 C 1.6171822,7.0230173 1.5570112,6.9817703 1.5097785,6.9448213 1.4625535,6.9078733 1.3562878,6.8316633 1.2736348,6.775466 1.1369128,6.682505 1.0160198,6.5825788 1.0160198,6.5625327 c 0,-0.00941 0.05925,0.027832 0.128809,0.080961 0.02754,0.021046 0.09195,0.063279 0.143119,0.093857 0.05116,0.030579 0.1735291,0.107731 0.2719288,0.1714519 0.287369,0.1861019 0.5298817,0.3133613 1.2809206,0.6721719 0.108433,0.051802 0.3653637,0.1558522 0.769273,0.3115331 0.08216,0.031666 0.1053118,0.053682 0.056452,0.053682 -0.046855,0 -0.2094428,0.06042 -0.2562432,0.095221 -0.025272,0.018789 -0.086444,0.046723 -0.1359624,0.062076 -0.049515,0.015354 -0.1059634,0.039376 -0.1254432,0.053383 -0.019476,0.014008 -0.06911,0.04479 -0.1103014,0.068404 -0.1368157,0.078435 -0.3045628,0.3043897 -0.2883771,0.3884403 0.00371,0.019249 0.017568,0.00485 0.050098,-0.052112 0.049864,-0.08727 0.218576,-0.2576115 0.2551416,-0.2576115 0.038265,0 0.079273,-0.028109 0.092758,-0.063577 0.00965,-0.025373 0.036713,-0.040528 0.1146863,-0.064211 0.056128,-0.01705 0.153023,-0.057047 0.2153179,-0.088883 0.1159139,-0.059242 0.2284797,-0.087395 0.2284797,-0.057142 0,0.00891 -0.00886,0.016197 -0.019764,0.016197 -0.038308,0 -0.1777697,0.1233278 -0.2994076,0.2647727 -0.084936,0.09877 -0.1426837,0.1830354 -0.1863521,0.2719285 -0.088798,0.1807786 -0.1016433,0.2267197 -0.1022338,0.3655855 -7.2e-4,0.099214 0.0049,0.1302629 0.028116,0.1645885 l 0.02862,0.042306 0.00778,-0.1288084 c 0.00536,-0.088778 0.017604,-0.1505005 0.039359,-0.1986088 0.018684,-0.041324 0.031572,-0.098255 0.031572,-0.1395427 0,-0.059711 0.00403,-0.069741 0.028044,-0.069741 0.020916,0 0.03456,-0.018781 0.053669,-0.073894 0.018756,-0.054002 0.038355,-0.081467 0.072872,-0.1020264 0.02862,-0.01705 0.050253,-0.043189 0.054886,-0.066355 0.00421,-0.021024 0.0216,-0.044396 0.038636,-0.05194 0.023328,-0.010318 0.030456,-0.025135 0.028908,-0.05982 -0.0018,-0.039927 0.00144,-0.044287 0.023256,-0.032552 0.018576,0.00994 0.031536,0.0067 0.04859,-0.012161 0.012816,-0.014141 0.023256,-0.033257 0.023256,-0.042476 0,-0.00922 0.013176,-0.016762 0.029268,-0.016762 0.016128,0 0.044576,-0.0153 0.063281,-0.034002 0.036493,-0.036493 0.114553,-0.094805 0.1269155,-0.094805 0.02268,0 -0.027612,0.1000024 -0.1024065,0.203597 -0.047031,0.065133 -0.1134947,0.1722627 -0.1476986,0.2380648 -0.058022,0.1116291 -0.062122,0.1269631 -0.061211,0.228992 7.2e-4,0.066648 0.00896,0.1233249 0.021348,0.1451317 0.020376,0.035766 0.020376,0.035756 0.02448,-0.021471 0.011376,-0.1588838 0.088269,-0.3792786 0.1391665,-0.3988099 0.010872,-0.00417 0.024048,-0.03046 0.029304,-0.058423 0.0054,-0.028833 0.018,-0.050844 0.029124,-0.050844 0.010764,0 0.032112,-0.024153 0.047387,-0.053671 0.0153,-0.029517 0.044407,-0.075852 0.064696,-0.1029641 0.048475,-0.064777 0.047679,-0.1085252 -0.00252,-0.1357314 -0.051931,-0.028174 -0.02502,-0.028062 0.058054,2.175e-4 0.099775,0.033999 0.1122742,0.016938 0.027972,-0.03821 -0.1099486,-0.071934 -0.09778,-0.090952 0.030276,-0.047321 0.037249,0.01269 0.072209,0.018533 0.077689,0.012978 0.00547,-0.00556 -0.01566,-0.031655 -0.046955,-0.058001 -0.03132,-0.026345 -0.053547,-0.05127 -0.049428,-0.055388 0.0041,-0.00412 0.042311,0.00173 0.084871,0.012928 0.042563,0.011228 0.080709,0.017093 0.08477,0.013028 0.00407,-0.00406 -0.01332,-0.023613 -0.03869,-0.043446 -0.05476,-0.042858 -0.059631,-0.066558 -0.01116,-0.054395 0.0216,0.00543 0.069319,-0.00476 0.1252308,-0.026716 0.049677,-0.019512 0.1241363,-0.043871 0.1654647,-0.05413 0.041325,-0.010256 0.075136,-0.023321 0.075136,-0.029031 0,-0.014922 -0.1098802,-0.080424 -0.3226098,-0.1923138 C 3.8317784,7.3102089 3.7629746,7.2557426 3.5685008,7.023044 3.4213854,6.8470153 3.2543727,6.6008393 3.2820641,6.6008393 c 0.00288,0 0.059231,0.062794 0.1250436,0.1395423 C 3.5731268,6.9339914 3.7692422,7.1346281 3.8712095,7.2151842 4.032959,7.3429689 4.0327106,7.3309455 3.8701295,7.1555132 3.6948763,6.9665698 3.6772686,6.9269864 3.8212555,7.0456615 c 0.089605,0.073854 0.2289909,0.1602644 0.2289909,0.1419612 0,-0.00836 -0.00936,-0.018789 -0.020772,-0.023177 -0.011412,-0.00438 -0.045242,-0.037915 -0.075136,-0.07451 -0.051884,-0.063511 -0.052402,-0.065144 -0.011412,-0.03591 0.023616,0.016845 0.059037,0.048053 0.078715,0.069353 0.038369,0.041529 0.2041579,0.164438 0.2218125,0.164438 0.00587,0 -0.030384,-0.043668 -0.080536,-0.09704 -0.080986,-0.08619 -0.2414578,-0.3015579 -0.2414578,-0.3240631 0,-0.00469 0.056351,0.040034 0.1252272,0.099392 0.130584,0.1125337 0.4257471,0.3290405 0.4711255,0.3455765 0.014436,0.00525 -0.0324,-0.04788 -0.1040662,-0.1180746 C 4.3420846,7.1234125 4.2484367,7.0241176 4.2056395,6.9729525 4.0270635,6.7594763 3.9943212,6.6857659 4.1588315,6.8675874 c 0.089169,0.098559 0.3207953,0.2926157 0.3207953,0.2687684 0,-0.0053 -0.059573,-0.071978 -0.1323876,-0.1481831 C 4.2141136,6.8488413 4.0903013,6.6816248 4.0710411,6.6151513 c -0.00742,-0.025506 0.017424,-0.00586 0.086386,0.068451 0.1227071,0.1321882 0.6622549,0.55906 0.7972921,0.6307903 l 0.061607,0.032724 -0.081433,-0.076165 C 4.8277562,7.1707508 4.58767,6.8727667 4.6140691,6.8727667 c 0.00385,0 0.044417,0.03293 0.090138,0.07318 0.04572,0.040248 0.13143,0.1056948 0.190467,0.1454366 0.115003,0.077416 0.110917,0.065622 -0.027252,-0.078699 -0.091254,-0.095305 -0.091808,-0.1209834 -0.00108,-0.043223 0.037257,0.031878 0.058724,0.043437 0.053014,0.028537 -0.00529,-0.013774 -0.00554,-0.025045 -7.2e-4,-0.025045 0.015552,0 0.1366104,0.073002 0.2285193,0.1378125 0.08535,0.060184 0.088046,0.061035 0.084262,0.026583 -0.00216,-0.01957 -0.00144,-0.03559 0.00144,-0.03559 0.00288,0 0.082491,0.038643 0.1767112,0.085872 0.09422,0.04723 0.1741516,0.085872 0.1776364,0.085872 0.0036,0 -0.039892,-0.046885 -0.096387,-0.1041897 C 5.434326,7.1120101 5.3609612,7.0347244 5.3277905,6.9975692 c -0.064268,-0.07199 -0.1064889,-0.091763 -0.066889,-0.031328 0.013068,0.019926 0.01962,0.040345 0.01458,0.045378 -0.012096,0.012071 -0.077797,-0.050237 -0.088471,-0.083868 -0.00464,-0.014497 -0.01404,-0.026359 -0.020988,-0.026359 -0.00695,0 -0.00288,0.023238 0.00896,0.051639 0.01188,0.028401 0.019152,0.054081 0.016128,0.057067 C 5.1813505,7.0198682 5.0036388,6.8653668 4.9137963,6.7689978 4.8654763,6.7171708 4.786204,6.6167431 4.7376323,6.5458267 4.6890573,6.4749107 4.6400393,6.4091853 4.6286917,6.3997709 c -0.01134,-0.00941 -0.020628,-0.022997 -0.020628,-0.030179 0,-0.025589 0.065845,0.021193 0.1610115,0.1143983 0.053133,0.052038 0.096481,0.088347 0.096333,0.080686 C 4.865239,6.5570162 4.8295162,6.5033132 4.7859522,6.445338 4.7424062,6.387362 4.7095162,6.3371844 4.7128712,6.3338309 c 0.00324,-0.00335 0.024588,0.00914 0.04725,0.027756 0.022644,0.018616 0.107569,0.080959 0.188739,0.1385343 0.081174,0.057576 0.1772044,0.1389908 0.2134099,0.1809233 0.073923,0.085624 0.147983,0.1260087 0.2566608,0.1399502 l 0.073793,0.00946 -0.063062,-0.122552 c -0.034704,-0.067402 -0.063065,-0.1356874 -0.063065,-0.1517432 0,-0.042854 0.1189379,0.088937 0.2977299,0.3298962 0.08517,0.1147864 0.1242336,0.1327311 0.051948,0.023868 -0.029412,-0.044289 -0.050091,-0.0839 -0.045965,-0.088024 0.00911,-0.00911 0.1271388,0.07816 0.2005254,0.1482627 0.059969,0.057289 0.084478,0.05591 0.03878,-0.00216 -0.037721,-0.047951 -0.015228,-0.048448 0.059465,-0.0013 0.062561,0.039492 0.2559984,0.1208031 0.2872467,0.1207426 C 6.2668389,7.0874252 6.2397669,7.065913 6.1961959,7.03964 5.9914944,6.9161999 5.7914478,6.7625117 5.6550245,6.6238794 5.5751035,6.5426644 5.5097164,6.4787081 5.5097164,6.4817555 c 0,0.00306 0.00972,0.028865 0.021672,0.05737 0.01188,0.028505 0.018936,0.054577 0.015552,0.057934 -0.00324,0.00335 -0.032544,-0.027339 -0.064851,-0.068217 C 5.336198,6.3442771 5.2133757,6.2298129 5.2652702,6.3267766 c 0.039456,0.073726 -0.016164,0.045323 -0.06137,-0.031338 -0.033228,-0.056365 -0.1235243,-0.1544072 -0.1235243,-0.134134 0,0.0052 0.019332,0.058099 0.042934,0.1175458 0.049328,0.124182 0.050807,0.1316921 0.021096,0.1070221 C 5.0762279,6.3292895 4.9170386,6.1036962 4.8610112,5.984273 4.8192292,5.895204 4.7774182,5.8300731 4.7377389,5.7922422 l -0.060045,-0.057248 0.030996,0.083282 c 0.017064,0.045805 0.02718,0.087131 0.022428,0.091835 -0.00472,0.00471 -0.010584,0.00587 -0.013104,0.00259 -0.00252,-0.00328 -0.05629,-0.070367 -0.1195607,-0.1490834 C 4.5351822,5.6849018 4.4572491,5.5754145 4.4252736,5.5203133 4.3690486,5.4234393 4.272859,5.3140227 4.2574545,5.3294248 c -0.00414,0.00414 0.00108,0.032679 0.01188,0.063426 0.02556,0.073548 0.039266,0.1632429 0.024948,0.1632429 -0.0063,0 -0.034704,-0.033812 -0.063242,-0.075138 C 4.2025285,5.4396297 4.1602165,5.3832757 4.1370365,5.3557253 4.1138885,5.3281743 4.0464565,5.2108405 3.9872607,5.0949825 3.8952907,4.9149842 3.8783921,4.8705528 3.8711164,4.7896384 c -0.00673,-0.075144 -0.00468,-0.092451 0.00997,-0.083831 0.1270308,0.074634 0.232231,0.166068 0.3095093,0.2690017 0.040929,0.054514 0.03914,0.066052 -0.010224,0.066052 h -0.041253 l 0.051988,0.055634 c 0.028584,0.030599 0.068678,0.074072 0.089079,0.096606 0.020412,0.022536 0.071925,0.053004 0.1144991,0.067711 0.1664259,0.057493 0.2122291,0.099338 0.2510735,0.2293952 0.013932,0.046661 0.00684,0.041941 0.1914749,0.1269731 0.1838429,0.084657 0.2218665,0.1324726 0.2503895,0.3148748 0.00839,0.053656 0.00972,0.054573 0.2474591,0.174113 0.1824677,0.091737 0.26196,0.1406962 0.3359263,0.2069076 0.1004013,0.089867 0.153563,0.1260836 0.153563,0.1046159 0,-0.022248 -0.1117306,-0.1726543 -0.221708,-0.2984503 -0.059109,-0.067609 -0.1074682,-0.1286756 -0.1074682,-0.1357043 0,-0.014411 0.088928,0.019966 0.1427701,0.055187 0.019476,0.012748 0.067403,0.052669 0.1064818,0.088716 0.070175,0.064722 0.070557,0.06487 0.030852,0.011869 -0.02214,-0.02952 -0.036749,-0.053671 -0.032544,-0.053671 0.02646,0 0.1527098,0.066605 0.2810401,0.148267 0.2060947,0.1311539 0.2211501,0.1287307 0.084475,-0.013601 -0.048507,-0.050517 -0.084698,-0.095345 -0.080428,-0.099618 0.00428,-0.00427 0.1003185,0.043015 0.2134279,0.1050835 0.2633281,0.1444982 0.4959406,0.2188363 0.7423593,0.2372447 0.1005885,0.00751 0.1046421,0.00673 0.064408,-0.01242 C 6.9841021,6.4200623 6.7068927,6.3340159 6.561131,6.2993983 6.4099872,6.2635023 6.3971315,6.2573623 6.3050678,6.1771297 c -0.038776,-0.033794 -0.075849,-0.058135 -0.08239,-0.054093 -0.00655,0.00404 -0.029556,-0.00522 -0.051153,-0.020574 C 6.1499248,6.0871047 6.0614214,6.0332687 5.974837,5.9828293 5.888249,5.9323903 5.7993318,5.8791696 5.7772456,5.8645618 l -0.040155,-0.026558 0.031212,0.052872 c 0.061625,0.1044564 0.014004,0.083876 -0.1581423,-0.068354 -0.058889,-0.052073 -0.1118098,-0.094678 -0.117595,-0.094678 -0.00576,0 0.00374,0.024153 0.021132,0.05367 l 0.031644,0.05367 -0.04742,-0.029981 C 5.4309503,5.7628858 5.3584488,5.6919832 5.2955886,5.6073644 5.2334736,5.5237424 4.8532562,5.1487259 4.8420025,5.1599799 c -0.0041,0.00412 0.02016,0.045029 0.053983,0.090902 0.052906,0.071773 0.055552,0.078416 0.019008,0.047626 C 4.8916295,5.2788299 4.8442675,5.2320039 4.809761,5.1944532 4.750803,5.1302962 4.71009,5.1101272 4.751876,5.1657762 4.762352,5.1797412 4.746476,5.1670262 4.716488,5.1374982 4.645413,5.0674292 4.626577,5.0691592 4.67436,5.1413682 4.734412,5.2321152 4.704672,5.2227492 4.620457,5.1243982 4.578221,5.0750662 4.4985779,4.9926234 4.4434758,4.9411918 4.3001801,4.8074399 4.2202414,4.7231834 4.2053984,4.6902477 c -0.00932,-0.020704 -0.010728,-0.014082 -0.00504,0.023929 0.00432,0.028905 0.00144,0.056548 -0.00652,0.061431 C 4.1702224,4.7902017 4.0141752,4.5652675 3.9642391,4.4446459 3.9313351,4.3651609 3.8956221,4.3090841 3.8417732,4.2523216 3.7614352,4.1676376 3.7380814,4.1060651 3.7547282,4.0228325 c 0.00677,-0.033845 -1.62e-4,-0.056483 -0.030528,-0.099373 -0.043971,-0.062176 -0.078495,-0.073276 -0.074503,-0.023951 0.00558,0.068643 0.00108,0.074382 -0.033696,0.041853 -0.064448,-0.060546 -0.067925,-0.035561 -0.016848,0.1209631 0.037088,0.113617 0.037271,0.1365787 7.201e-4,0.1063421 -0.03312,-0.027475 -0.051067,-0.00481 -0.051067,0.064441 0,0.1383415 -0.091113,0.035597 -0.1435297,-0.1618549 -0.018396,-0.069332 -0.038841,-0.1180743 -0.049497,-0.1180743 -0.010008,0 -0.0261,-0.00959 -0.03582,-0.021311 -0.03024,-0.036438 -0.04418,-0.00836 -0.0342,0.068887 0.00954,0.073802 0.00947,0.07398 -0.019692,0.048097 -0.023328,-0.020701 -0.03168,-0.022155 -0.041091,-0.00716 -0.016164,0.025712 -0.0095,0.328055 0.00828,0.374754 0.01296,0.034088 0.011124,0.037649 -0.019584,0.037649 -0.037329,0 -0.051268,0.023673 -0.051268,0.087043 0,0.055292 -0.035388,0.054953 -0.064117,-5.976e-4 -0.023328,-0.045078 -0.064689,-0.2234858 -0.064689,-0.2789074 0,-0.021139 0.010404,-0.035891 0.02862,-0.04066 0.023184,-0.00607 0.028512,-0.01924 0.028044,-0.069651 -7.2e-4,-0.034191 -0.012204,-0.083924 -0.026388,-0.110518 l -0.025776,-0.048352 -0.038042,0.1220074 c -0.020916,0.067104 -0.038034,0.1323358 -0.038034,0.1449585 0,0.039669 -0.02214,0.025018 -0.04099,-0.027141 -0.00997,-0.027551 -0.022824,-0.050092 -0.02862,-0.050092 -0.052348,0 -0.060805,0.3316201 -0.011844,0.4640614 0.037491,0.1013973 0.073779,0.1267261 0.060081,0.04194 -0.0049,-0.030345 -0.01188,-0.069664 -0.015516,-0.087375 -0.013248,-0.064653 0.01656,-0.029067 0.061924,0.073923 0.025596,0.058069 0.046512,0.1123775 0.046512,0.1206861 0,0.00831 0.0225,0.066292 0.050012,0.1288511 0.027504,0.06256 0.057647,0.1468196 0.066979,0.1872443 0.014544,0.063041 0.013788,0.076705 -0.00554,0.096026 -0.020484,0.020495 -0.025956,0.016687 -0.06047,-0.042216 -0.043676,-0.074526 -0.079881,-0.1110049 -0.079071,-0.079658 1.944e-4,0.010803 0.00961,0.057805 0.020736,0.1044475 0.022896,0.095831 0.019584,0.108407 -0.02826,0.108407 -0.077167,0 -0.1049553,-0.078024 -0.1937214,-0.5438568 -0.00673,-0.035422 -0.012672,-0.094996 -0.013104,-0.1323861 -0.00108,-0.081347 -0.03114,-0.092561 -0.057669,-0.021469 -0.039363,0.1055022 -0.042444,0.1103738 -0.064523,0.1019014 -0.031068,-0.011921 -0.040857,-0.064045 -0.032904,-0.1752718 0.00619,-0.086577 0.01332,-0.1049236 0.07226,-0.184926 0.076458,-0.1038615 0.1052001,-0.185454 0.1156402,-0.3282411 0.00965,-0.1318323 0.031212,-0.1781277 0.044986,-0.096443 0.014436,0.085708 0.015516,0.087627 0.032364,0.056204 0.010872,-0.020323 0.011304,-0.049441 0.00144,-0.095988 -0.00943,-0.044102 -0.00943,-0.075417 -1.116e-4,-0.092119 0.012096,-0.021591 0.01782,-0.016143 0.039154,0.03716 0.0234,0.058493 0.02628,0.060747 0.045249,0.035458 0.014076,-0.01878 0.018432,-0.05316 0.014256,-0.1128769 -0.00324,-0.04723 7.2e-4,-0.096118 0.00806,-0.1086403 0.016344,-0.026441 0.00324,-0.1115406 -0.022356,-0.1468248 -0.014616,-0.020051 -0.016848,-0.00873 -0.012708,0.064848 0.0045,0.080359 0.00288,0.087267 -0.017892,0.070143 -0.015948,-0.013241 -0.022932,-0.043391 -0.023112,-0.099536 -1.98e-4,-0.084331 -0.015228,-0.126177 -0.039698,-0.1110307 -0.00878,0.00542 -0.013968,-0.00995 -0.013104,-0.038897 7.2e-4,-0.02925 -0.010872,-0.063373 -0.030024,-0.08777 -0.034056,-0.043311 -0.039881,-0.079099 -0.016632,-0.1023604 0.018936,-0.018951 0.00288,-0.062504 -0.023472,-0.062504 -0.017676,0 -0.022248,-0.0089 -0.018972,-0.036822 0.00288,-0.023445 -0.079312,-0.077879 -0.1197767,-0.07944 C 2.4520263,2.9983633 2.415936,2.9924843 2.2536537,2.9387613 2.1592137,2.9074993 2.0368669,2.8612973 1.9817648,2.8360922 1.9266628,2.8108862 1.8633705,2.7862192 1.8411115,2.7812752 l -0.040468,-0.00899 0.053378,-0.053378 C 1.9243265,2.6486042 2.1426506,2.5386715 2.343608,2.4723886 l 0.1614759,-0.05326 0.04117,-0.090795 c 0.068012,-0.1500034 0.2778793,-0.4323217 0.3859019,-0.5191325 0.062097,-0.049904 0.090174,-0.060391 0.055426,-0.020704 -0.060664,0.069293 -0.2078731,0.3041306 -0.1906397,0.3041306 0.004,0 0.067573,-0.075674 0.1412653,-0.1681659 0.1881233,-0.2361298 0.310366,-0.3440107 0.4522937,-0.3991599 0.046585,-0.018102 0.042887,-0.01258 -0.041937,0.062627 -0.051167,0.045363 -0.1220123,0.1116361 -0.157433,0.1472741 -0.067288,0.067698 -0.151565,0.1820059 -0.1415641,0.1920071 0.00324,0.00319 0.097799,-0.084337 0.2102239,-0.194514 0.2256429,-0.2211174 0.2869911,-0.2591615 0.458079,-0.2840733 0.052708,-0.00768 0.1344757,-0.020446 0.1817081,-0.02838 0.105463,-0.017716 0.3792671,-0.019242 0.3792671,-0.00212 0,0.00686 -0.033804,0.022862 -0.07514,0.035554 l -0.075136,0.023075 0.1457366,-0.0084 c 0.1508017,-0.0087 0.2907818,0.00261 0.2907818,0.023515 0,0.00659 -0.014472,0.014425 -0.032184,0.017422 -0.029448,0.00498 0.00616,0.010857 0.2103176,0.034676 0.060732,0.00709 0.067331,0.010775 0.046512,0.025998 -0.037034,0.027078 -0.029484,0.036053 0.030384,0.036053 0.066619,0 0.2029662,0.038832 0.2029662,0.057803 0,0.00757 -0.024156,0.014101 -0.053669,0.014526 -0.04648,6.804e-4 -0.038923,0.00513 0.056438,0.033356 0.060563,0.017922 0.1185275,0.039481 0.1288127,0.047905 0.010296,0.00842 0.071709,0.035698 0.1365061,0.06061 0.1200611,0.04616 0.1577355,0.072042 0.104869,0.072042 -0.047639,0 -0.03384,0.024991 0.024192,0.043792 0.080745,0.026161 0.1753216,0.072334 0.1753216,0.085596 0,0.00646 -0.014472,0.013799 -0.032184,0.016314 -0.023364,0.00332 0.00396,0.021839 0.1000629,0.067714 0.072746,0.034728 0.1430185,0.075027 0.1561659,0.089555 0.02286,0.025252 0.021924,0.026017 -0.021348,0.017364 -0.024876,-0.00498 -0.045249,-0.00548 -0.045249,-0.00109 0,0.00437 0.051765,0.035524 0.1150319,0.069234 0.1222139,0.06512 0.194085,0.1244695 0.1318512,0.1088874 -0.045184,-0.011314 -0.040342,-0.0037 0.021492,0.033763 0.1270092,0.076977 0.1941066,0.145579 0.08945,0.09146 -0.065708,-0.033978 -0.068314,-0.016757 -0.00454,0.02985 0.064347,0.04701 0.1905749,0.1653923 0.1905749,0.1787292 0,0.00511 -0.016128,0.00621 -0.035784,0.00245 -0.019692,-0.00376 -0.035784,-0.004 -0.035784,-5.184e-4 0,0.00874 0.1208135,0.09271 0.3077056,0.2138667 0.4232631,0.274385 0.6862959,0.5245504 1.0271327,0.9768778 l 0.160763,0.2133561 0.2289945,0.1375558 c 0.4004677,0.2405599 0.5895919,0.3832503 0.5544951,0.4183498 -0.00706,0.00705 -0.033768,0.0054 -0.061632,-0.0038 -0.1409809,-0.046556 -0.6737822,-0.2498283 -0.7325888,-0.279496 -0.037386,-0.018864 -0.067983,-0.031033 -0.067983,-0.027046 0,0.022013 0.1703068,0.1142356 0.3005524,0.1627525 0.5115467,0.190552 0.7520541,0.3082031 0.8777348,0.4293671 0.097197,0.093705 0.1340365,0.173961 0.079852,0.173961 -0.00767,0 -0.1378741,-0.054124 -0.2893347,-0.1202745 C 8.4595173,4.9546773 8.2745728,4.8772456 8.1999909,4.8487583 7.9698156,4.7608403 7.9713564,4.7618063 7.9713564,4.7056623 c 0,-0.027215 -0.00644,-0.05346 -0.014292,-0.058324 -0.00788,-0.00486 -0.014292,0.00511 -0.014292,0.022174 0,0.026599 -0.00562,0.029668 -0.039356,0.021532 C 7.8529334,4.6788733 7.5729046,4.5368948 7.4706348,4.471622 7.4274268,4.444045 7.4010098,4.432248 7.4119288,4.445407 c 0.026316,0.031714 0.2465591,0.1673434 0.3996613,0.2461244 0.067357,0.034658 0.128208,0.068757 0.1352244,0.075775 0.00749,0.00747 -0.00454,0.032121 -0.02898,0.059479 l -0.041742,0.046719 -0.082308,-0.037682 C 7.6611701,4.7751094 7.320085,4.568574 7.2164436,4.486226 c -0.033444,-0.02658 -0.06083,-0.041958 -0.06083,-0.034172 0,0.030575 0.145751,0.1357148 0.4006117,0.2889856 0.3534585,0.2125723 0.3277398,0.1914385 0.2864655,0.2353707 -0.01854,0.019738 -0.045443,0.035884 -0.059782,0.035884 -0.067007,0 -0.6396251,-0.3260101 -0.8097698,-0.4610276 -0.049198,-0.03904 -0.08945,-0.064736 -0.08945,-0.057103 0,0.044201 0.2978704,0.2520626 0.6082616,0.4244595 0.1102042,0.061208 0.2229105,0.1250359 0.2504615,0.1418378 0.02754,0.016804 0.062968,0.031375 0.078715,0.032385 0.059879,0.00384 0.6432071,0.2506838 0.9537171,0.4035778 0.2940039,0.1447666 0.3307603,0.1669417 0.3971593,0.2395908 0.040241,0.044033 0.073171,0.085899 0.073171,0.093038 0,0.00714 -0.037034,-0.00382 -0.082297,-0.024351 C 8.9935571,5.7278976 8.147409,5.4354497 7.8855318,5.363221 7.8107478,5.342596 7.7205854,5.315674 7.6851611,5.303394 7.6497371,5.291117 7.6123001,5.278602 7.6019611,5.27559 7.5916291,5.27258 7.5872011,5.263609 7.5921011,5.255659 c 0.00598,-0.00967 0.017784,-0.00971 0.035676,-1.405e-4 0.022032,0.011796 0.034488,0.00493 0.070694,-0.039002 0.024156,-0.029324 0.043942,-0.057883 0.043942,-0.063467 0,-0.00558 -0.021816,-0.00661 -0.048514,-0.00229 C 7.6176361,5.1631355 7.4597997,5.0974305 7.2128699,4.9505177 6.9114643,4.7711899 6.8117686,4.7078484 6.7049304,4.6277896 c -0.0629,-0.047132 -0.1171739,-0.082882 -0.1206119,-0.079446 -0.010836,0.010813 0.07366,0.091347 0.1777228,0.1694304 0.086347,0.06479 0.5281357,0.330121 0.7012937,0.4211804 0.073765,0.038795 0.1285536,0.085869 0.115327,0.099096 -0.00572,0.0057 -0.048136,0.010378 -0.094288,0.010378 -0.076144,0 -0.1041706,-0.010212 -0.3029356,-0.1103577 C 6.9333169,5.0130538 6.7852763,4.9194271 6.6647832,4.8113172 c -0.096978,-0.087009 -0.1223111,-0.086022 -0.043395,0.00169 0.083467,0.092774 0.2461163,0.2068352 0.4837005,0.339206 0.1183187,0.065921 0.2212436,0.1258078 0.2287173,0.1330815 0.02106,0.020492 -0.1500458,0.016023 -0.2224209,-0.00581 C 7.0275011,5.2541807 6.6890329,5.058946 6.5545176,4.9582775 6.4954806,4.9140945 6.3970126,4.8268449 6.3356968,4.7643906 6.2241642,4.6507851 6.1830914,4.6291037 6.2351371,4.7113066 c 0.060542,0.095619 0.3647661,0.3405642 0.5841522,0.4703277 0.055102,0.032591 0.1195067,0.076077 0.1431229,0.096633 l 0.042934,0.037376 -0.105913,-0.00886 C 6.8411812,5.3019133 6.7574587,5.2832873 6.7133763,5.2654023 6.5512416,5.1996123 6.0484142,4.8866691 5.8836226,4.7489871 c -0.068509,-0.057238 -0.087643,-0.063235 -0.087643,-0.027471 0,0.057767 0.2423651,0.2425965 0.5497395,0.4192354 0.3763367,0.216273 0.5037166,0.2527358 0.8360681,0.2393292 0.2162792,-0.00872 0.1331004,-0.027256 0.811091,0.1807016 0.6548065,0.2008475 1.043916,0.3394595 1.2337314,0.4394904 0.196821,0.1037206 0.2708773,0.151124 0.2821994,0.1806266 0.00569,0.014865 -0.00288,0.012582 -0.028512,-0.0076 C 9.460137,6.1574343 9.391322,6.1275233 9.3273964,6.1068293 9.2634744,6.0861363 9.1882083,6.0574913 9.1601497,6.0431763 9.0832277,6.0039353 8.625408,5.852583 8.1646253,5.7140653 8.0308085,5.6738373 7.9052177,5.6350903 7.88554,5.6279583 7.78849,5.5927893 7.2523661,5.4403176 7.2464729,5.4462106 c -0.00832,0.0083 0.7244814,0.2502866 0.9181524,0.3031974 0.047229,0.012903 0.1534946,0.044853 0.2361478,0.071 0.08265,0.026147 0.2694265,0.084622 0.4150514,0.1299446 0.1456249,0.045323 0.3066328,0.1033969 0.3577965,0.129054 0.051167,0.025657 0.1187111,0.057197 0.1501034,0.070091 0.074211,0.030482 0.1889333,0.1043128 0.1977354,0.1272536 0.00421,0.010962 -0.019548,0.00532 -0.06092,-0.014487 C 9.3399819,6.2045672 8.5136951,5.9384524 8.0000352,5.7918922 7.9095092,5.7660622 7.7517229,5.7177822 7.649392,5.6846004 7.5102723,5.6394894 7.1214075,5.5309783 7.0876428,5.5278489 c -0.0018,-1.837e-4 -0.0036,0.0051 -0.0036,0.011733 0,0.00664 0.049914,0.025783 0.110917,0.042546 0.06101,0.016762 0.2043055,0.060289 0.3184445,0.096722 0.187407,0.059821 0.3133289,0.098508 0.8801901,0.2704136 0.734054,0.2226095 1.0844596,0.3424067 1.2363954,0.4227044 0.06799,0.035932 0.027396,0.035914 -0.077095,-3.35e-5 C 9.5071528,6.3561984 9.3692823,6.3169884 9.2465212,6.2848054 8.7974746,6.167085 7.6986797,5.8389039 7.2711326,5.6948089 7.1392382,5.6503569 7.1247445,5.6406019 7.0331812,5.534671 l -0.037113,-0.042936 0.0081,0.059155 C 7.0183882,5.6546392 6.9948782,5.6583973 6.7190779,5.596492 6.6133846,5.572768 6.5170837,5.531246 6.1823778,5.3650703 5.7064246,5.1287682 5.6907645,5.1214117 5.7018814,5.1394052 c 0.018108,0.029295 0.196857,0.1461482 0.4017817,0.2626496 0.3178505,0.1807038 0.486188,0.2483063 0.7288555,0.2927037 0.1062585,0.01944 0.1421005,0.020535 0.2104255,0.00642 0.080659,-0.016661 0.085958,-0.015711 0.2585112,0.046476 0.4181654,0.1506988 1.2890098,0.4103994 1.9508507,0.5817765 0.2517863,0.065198 0.3506432,0.096827 0.3506432,0.1121892 0,0.021658 -0.073149,0.013072 -0.2870018,-0.033675 C 8.7120959,6.2759443 8.1294773,6.1122529 7.3713571,5.8615967 6.9592145,5.7253322 6.9484144,5.7596927 7.3559491,5.9105577 7.933794,6.1244616 8.7389666,6.3475215 9.3357225,6.4590199 9.475321,6.4851019 9.4175435,6.4882959 9.2149882,6.4656899 8.7527547,6.4141139 8.0046822,6.2186762 7.3830501,5.9870861 7.1019163,5.8823492 6.8945076,5.7935303 6.8322163,5.7512033 6.7754793,5.7126493 6.7438503,5.7119373 6.7916693,5.7503032 7.04212,5.9511667 7.718199,6.2087876 8.4651303,6.3879768 c 0.3529112,0.084662 0.5991103,0.1171835 1.023313,0.1351736 0.2140544,0.00908 0.2256033,0.01116 0.3291726,0.059315 0.059041,0.02745 0.152429,0.067798 0.2075271,0.089664 1.169158,0.4639658 1.924927,0.7903624 2.294068,0.9907457 0.254475,0.1381368 0.414928,0.2905326 0.374601,0.3557839 -0.01091,0.017651 -0.02344,0.016823 -0.08839,-0.00583 -0.04162,-0.014519 -0.124453,-0.054278 -0.184073,-0.088353 C 12.177841,7.7852926 11.81558,7.6136402 11.42057,7.4502643 11.298561,7.3998012 11.163308,7.3431147 11.120014,7.3242941 10.947256,7.2491898 10.513797,7.0798331 10.304229,7.0055586 10.003716,6.899047 9.6720269,6.7867548 9.6615796,6.7879903 c -0.019656,0.0023 0.2813066,0.1231841 1.1364154,0.4563618 0.613165,0.2389093 1.235006,0.5048531 1.509919,0.6457533 0.139011,0.071246 0.286242,0.1853539 0.286242,0.2218456 0,0.033088 -0.111461,0.024876 -0.311601,-0.022954 -0.09968,-0.023821 -0.216866,-0.05924 -0.260419,-0.078707 -0.09064,-0.040518 -0.100312,-0.051664 0.104123,0.1199895 0.102148,0.085771 0.142285,0.143543 0.128183,0.1845078 -0.0086,0.024955 -0.06436,0.022021 -0.191824,-0.010105 -0.194161,-0.048936 -0.369749,-0.1333795 -0.59911,-0.2881319 -0.06691,-0.045143 -0.166739,-0.1055163 -0.221841,-0.1341617 -0.111342,-0.057882 -0.10767,-0.054886 0.09832,0.080289 0.148609,0.097521 0.26817,0.2047231 0.303313,0.2719537 0.01699,0.032516 0.01688,0.040347 -7.2e-4,0.054963 -0.04387,0.036413 -0.184894,-0.0319 -0.500307,-0.2423517 C 10.710057,7.7588471 10.18236,7.4590231 9.6608236,7.205521 9.4761887,7.115775 9.3064579,7.0290579 9.2836517,7.0128156 c -0.04013,-0.028574 -0.059905,-0.029581 -0.6088952,-0.031079 -0.3120797,-8.28e-4 -0.5853906,0.00346 -0.6073616,0.00961 -0.064199,0.017928 -0.029952,0.038938 0.063447,0.038938 0.058774,0 0.084471,0.00526 0.080716,0.01651 -0.00742,0.022227 -0.2611212,0.106157 -0.4119266,0.1362702 -0.1793933,0.03582 -0.1753648,0.051146 0.01188,0.045119 l 0.1621347,-0.00522 -0.040482,0.033275 c -0.094126,0.077367 -0.5851062,0.2878896 -0.6737894,0.2889074 -0.017712,2.178e-4 -0.03222,0.00747 -0.03222,0.01615 0,0.010667 0.03982,0.014145 0.1228547,0.010735 l 0.1228512,-0.00505 -0.046315,0.035781 c -0.094044,0.072653 -0.3737266,0.1693041 -0.5807177,0.2006805 -0.091416,0.013857 -0.1155827,0.023249 -0.1400809,0.054445 -0.016272,0.020733 -0.067144,0.07969 -0.113023,0.1310121 -0.1732336,0.1937782 -0.3817223,0.4942449 -0.3817223,0.55013 0,0.036425 0.09319,0.027951 0.2344845,-0.021323 0.095538,-0.033322 0.1393105,-0.041723 0.1808189,-0.034712 0.070687,0.011941 0.1715956,0.076267 0.2207612,0.1407264 0.040806,0.053499 0.1003221,0.1938607 0.087596,0.206585 -0.0041,0.00411 -0.05593,-0.038546 -0.1151506,-0.094799 -0.120252,-0.114229 -0.1480694,-0.1225052 -0.2284401,-0.067967 -0.027792,0.018871 -0.082858,0.042061 -0.1223328,0.051531 -0.039474,0.00947 -0.075162,0.022705 -0.079305,0.029409 -0.00846,0.013709 0.065625,0.037313 0.2652432,0.084496 0.07478,0.017676 0.2776526,0.066052 0.450825,0.107502 0.4564914,0.1092614 0.610832,0.1441461 0.9231277,0.2086533 0.4476317,0.092462 0.6578736,0.1364884 1.0233094,0.2142894 0.1889189,0.04022 0.4108646,0.085642 0.4932117,0.1009359 0.082351,0.015296 0.2176004,0.043753 0.3005524,0.063241 0.082955,0.019491 0.2409969,0.048381 0.3512009,0.064207 0.110197,0.015826 0.329173,0.053904 0.486606,0.084622 0.157433,0.030715 0.334544,0.063417 0.393581,0.072668 0.131145,0.020549 0.200367,0.041096 0.200367,0.059477 0,0.00777 -0.02041,0.010238 -0.04652,0.00562 -0.0256,-0.00452 -0.0916,-0.013864 -0.146694,-0.020747 -0.0551,-0.00688 -0.212896,-0.031911 -0.350647,-0.055618 -0.373284,-0.064248 -0.408406,-0.06713 -0.410926,-0.033714 -0.0018,0.022551 0.01044,0.028872 0.06842,0.035745 0.03876,0.00459 0.110758,0.017788 0.159982,0.02933 0.395298,0.092668 0.482516,0.1145203 0.477425,0.1196122 -0.0032,0.0032 -0.08536,-0.010127 -0.182561,-0.029621 -0.221651,-0.044451 -0.293183,-0.056663 -0.284082,-0.0485 0.03089,0.027688 0.845111,0.2395563 1.115722,0.2903133 0.150251,0.02818 0.146194,0.05323 -0.0066,0.04038 C 11.409216,10.119321 10.032649,9.8699335 9.6987823,9.7840566 9.6531015,9.7723061 9.4598841,9.7313654 9.2694244,9.6930765 9.0789538,9.654788 8.813635,9.6006216 8.6798182,9.5727069 8.5459977,9.5447922 8.3527839,9.5058248 8.2504566,9.4861128 7.9883922,9.435631 7.551341,9.3451794 7.2486106,9.2787725 7.0087908,9.2261641 6.8080313,9.1786084 6.3028783,9.0547453 6.1920477,9.0275686 6.0841727,9.0053356 6.0631521,9.0053356 c -0.068354,0 -0.040418,0.027141 0.058393,0.056729 0.1719628,0.051495 0.9309794,0.2251666 1.3131229,0.3004602 0.2046655,0.040323 0.4848237,0.098422 0.6225753,0.1291084 0.1377517,0.030687 0.2858823,0.062305 0.3291763,0.070265 0.088086,0.016193 0.268314,0.054875 0.4722955,0.1013621 0.07478,0.017043 0.2261289,0.049683 0.3363367,0.072536 0.1102006,0.022853 0.2969739,0.063586 0.4150442,0.090517 0.1180775,0.026932 0.2694229,0.059847 0.3363367,0.073145 0.066907,0.013299 0.2150373,0.046365 0.3291723,0.073482 0.114143,0.027115 0.29125,0.069198 0.393581,0.093515 0.418472,0.09944 0.681317,0.169714 0.634794,0.169714 -0.01825,0 -0.64757,-0.129451 -0.721713,-0.148453 C 10.454696,10.055021 10.033485,9.9647113 9.83909,9.9283768 9.744632,9.9107218 9.4717426,9.8565328 9.232668,9.8079575 8.9936006,9.7593812 8.7953972,9.722236 8.792222,9.7254123 c -0.00684,0.00682 0.3137141,0.092684 0.9466827,0.2536041 0.4551233,0.1157066 1.0619193,0.2856886 1.1290923,0.3162956 0.02743,0.01249 0.03143,0.01999 0.01836,0.03418 -0.0092,0.01 -0.0216,0.01525 -0.0275,0.01168 -0.0059,-0.0036 -0.01073,3.18e-4 -0.01073,0.0087 0,0.0281 -0.05966,0.01618 -0.06741,-0.01347 -0.009,-0.03426 -0.03276,-0.03824 -0.03276,-0.0055 0,0.0165 -0.0092,0.02115 -0.03222,0.01623 -0.01771,-0.0038 -0.08694,-0.01786 -0.153854,-0.03125 -0.06691,-0.01339 -0.2247,-0.04657 -0.350644,-0.07375 -0.2238029,-0.04829 -0.3321243,-0.07303 -0.7200531,-0.16443 -0.1047789,-0.02469 -0.1932066,-0.04219 -0.1965042,-0.03889 -0.00324,0.0033 0.059894,0.02407 0.1404157,0.04616 0.080526,0.02209 0.2140364,0.06128 0.2966931,0.08708 0.08265,0.0258 0.1976454,0.06084 0.2555484,0.07787 0.3570081,0.104997 -0.3113273,-0.01257 -0.8924374,-0.156987 -0.3273402,-0.08135 -0.8001938,-0.1868723 -0.8192488,-0.1828212 -0.036695,0.0078 1.3557365,0.3728902 1.7640703,0.4625312 0.09433,0.02071 0.213381,0.04682 0.264545,0.05802 0.137175,0.03003 0.33018,0.08124 0.32514,0.08628 -0.0025,0.0024 -0.142565,-0.02118 -0.311457,-0.05242 -0.168895,-0.03124 -0.3682649,-0.06362 -0.4430448,-0.07195 C 9.6409191,10.366459 9.3434592,10.304321 8.7370984,10.154853 8.6583834,10.135449 8.51669,10.101479 8.4222323,10.079363 8.2658072,10.042739 8.0503417,9.9869343 7.4323276,9.8229779 7.1864993,9.7577611 6.6103464,9.6342076 6.5637836,9.6367226 c -0.028944,0.00155 -0.029088,0.00205 -0.00216,0.00864 0.015732,0.00384 0.1606479,0.039038 0.3220193,0.078219 0.1613679,0.039182 0.3577965,0.089682 0.4365185,0.1122231 0.078715,0.02254 0.2751433,0.073981 0.4365148,0.1143126 0.3751918,0.093772 0.5594163,0.1399527 0.8873469,0.2224367 0.145625,0.03663 0.3259542,0.08127 0.4007341,0.09919 0.2578704,0.06181 0.866798,0.22496 1.2022128,0.322106 0.599359,0.173596 0.663058,0.193265 0.640302,0.197722 -0.02189,0.0043 -0.415685,-0.09107 -0.905077,-0.219135 -0.2268849,-0.05937 -0.6711289,-0.165752 -0.9016571,-0.215911 -0.055102,-0.01199 -0.1271891,-0.02787 -0.1601906,-0.0353 -0.064948,-0.01461 -0.098839,-0.0173 -0.088564,-0.007 0.0036,0.0036 0.2670792,0.08125 0.5855993,0.172649 0.4824729,0.13844 0.9731714,0.286329 1.4521594,0.437657 0.09353,0.02955 0.132485,0.04982 0.119907,0.0624 -0.01534,0.01534 -0.458022,-0.0878 -0.576704,-0.134365 -0.03262,-0.01279 -0.04423,-0.01237 -0.05308,0.0019 -0.009,0.01459 -0.01494,0.01471 -0.02909,5.4e-4 -0.0098,-0.0098 -0.03294,-0.01777 -0.05144,-0.01777 -0.01854,0 -0.0788,-0.01027 -0.133968,-0.02281 -0.08197,-0.01864 -0.102687,-0.0291 -0.11339,-0.05725 -0.01721,-0.04528 -0.03114,-0.04433 -0.01966,0.0013 0.01069,0.04266 -0.0067,0.04544 -0.097392,0.01561 -0.033732,-0.0111 -0.1547078,-0.0268 -0.2688505,-0.0349 -0.1500313,-0.01065 -0.2550983,-0.02727 -0.3792671,-0.06001 -0.094454,-0.02491 -0.2103823,-0.05457 -0.2576147,-0.06593 -0.047229,-0.01135 -0.1470542,-0.03909 -0.2218341,-0.06164 -0.2648436,-0.07986 -0.5674156,-0.161475 -0.7728515,-0.208456 -0.093028,-0.02127 0.1271892,0.05729 0.2790854,0.09956 0.2921679,0.08132 0.9071615,0.274257 0.9374378,0.2941 0.018936,0.01241 0.018828,0.0141 -7.2e-4,0.01429 -0.050616,5.04e-4 -0.5125151,-0.10926 -0.7650214,-0.181794 -0.070849,-0.02035 -0.1932138,-0.05149 -0.2719285,-0.06921 -0.078718,-0.01771 -0.281591,-0.06745 -0.4508286,-0.110532 -0.1692411,-0.04308 -0.3431335,-0.08219 -0.3864275,-0.08692 -0.068336,-0.0075 -0.072109,-0.0067 -0.02862,0.0059 0.02754,0.008 0.1660047,0.04732 0.3076805,0.0875 0.1416757,0.04018 0.2930246,0.0853 0.336333,0.100264 0.043305,0.01497 0.1656844,0.04998 0.2719537,0.07781 0.1062658,0.02783 0.2672773,0.07313 0.3578001,0.100676 0.090523,0.02754 0.2257725,0.0686 0.3005524,0.09124 0.07478,0.02264 0.1746052,0.05484 0.221834,0.07155 0.047233,0.01671 0.1659508,0.0526 0.2638213,0.07974 0.3993912,0.110769 0.5897898,0.180023 0.4848272,0.176349 -0.01818,-6.48e-4 -0.1779532,-0.03927 -0.355064,-0.08584 z M 8.5006733,10.765092 c -0.033948,-0.02146 -0.052276,-0.01481 -0.022104,0.008 0.015192,0.01148 0.031068,0.01736 0.035352,0.01308 0.00432,-0.0043 -0.0018,-0.01378 -0.013284,-0.0211 z m 1.1481082,-0.106666 c -0.00324,-0.02749 -0.011556,-0.04643 -0.018576,-0.04209 -0.019224,0.01187 -0.015336,0.07434 0.00515,0.08259 0.00983,0.004 0.018216,0.0077 0.018612,0.0084 7.2e-4,6.12e-4 -0.0018,-0.02136 -0.00515,-0.04885 z M 8.7300782,10.429319 c 0,-0.01181 -0.00965,-0.02147 -0.021492,-0.02147 -0.022356,0 -0.028404,0.01693 -0.011916,0.03339 0.016452,0.01647 0.033408,0.01042 0.033408,-0.01193 z M 6.618342,10.35191 c -0.036101,-0.03452 -0.8282164,-0.276978 -1.0082829,-0.308616 -0.091542,-0.01609 -0.012672,0.01594 0.1359625,0.05521 0.078718,0.0208 0.3041308,0.08848 0.500923,0.150416 0.3823955,0.120344 0.3924612,0.123135 0.3713974,0.102989 z m -4.2941303,-0.06517 c 0.3441992,-0.05475 0.3198198,-0.06456 -0.073693,-0.02967 -0.2359138,0.02092 -0.3229482,0.03212 -0.3615874,0.04653 -0.011808,0.0044 -0.047164,0.01081 -0.078571,0.01424 -0.031392,0.0034 -0.060387,0.0099 -0.064405,0.01431 -0.016596,0.01835 0.3666778,-0.01175 0.5782553,-0.04541 z m 4.8038626,-0.137005 c 0.055646,-0.02978 0.014976,-0.1569288 -0.050224,-0.1569288 -0.024264,0 -0.065215,0.053905 -0.065215,0.085872 0,0.03251 0.041109,0.08587 0.066154,0.08587 0.01188,0 0.034056,-0.0067 0.049284,-0.01481 z M 6.9950459,10.134942 C 6.9814379,10.127012 6.8848273,10.095372 6.7803651,10.064634 6.6759029,10.033897 6.5520942,9.9953965 6.5052362,9.9790795 6.3967456,9.9412975 6.0248297,9.8451881 6.0170861,9.8529325 c -0.00324,0.0032 0.056844,0.023868 0.1334676,0.045886 0.07663,0.022018 0.2488127,0.07452 0.3826331,0.1166685 0.3698818,0.116504 0.5261557,0.156921 0.4618591,0.119455 z M 5.2349969,9.9525527 c -0.00144,-0.1232205 0.038643,-0.3178912 0.069488,-0.3361531 0.010656,-0.0063 0.019332,-0.034045 0.019332,-0.061671 0,-0.030582 0.00572,-0.046687 0.014652,-0.041179 0.00821,0.00508 0.030636,-0.027515 0.051102,-0.074293 0.020052,-0.045837 0.053108,-0.1076637 0.073448,-0.1373928 0.036,-0.052605 0.036249,-0.054605 0.00972,-0.074683 -0.025884,-0.019595 -0.025272,-0.02065 0.011844,-0.021082 0.029412,-3.265e-4 0.041278,-0.00918 0.047934,-0.035716 0.00486,-0.019393 0.030744,-0.066077 0.057543,-0.1037432 0.026784,-0.037666 0.052535,-0.088979 0.05723,-0.1140282 0.00587,-0.031097 0.014904,-0.043117 0.028476,-0.037892 0.033012,0.012669 0.040637,-0.038221 0.012924,-0.086364 l -0.025848,-0.044918 0.038974,0.035594 0.03897,0.035597 0.02736,-0.035597 c 0.031644,-0.041176 0.035172,-0.072793 0.0108,-0.097138 -0.024048,-0.024055 0.014544,-0.022914 0.074262,0.0022 0.03204,0.013471 0.039622,0.021838 0.024912,0.027486 -0.011664,0.00447 -0.024264,0.026345 -0.028008,0.048614 -0.012024,0.071073 -0.053594,0.2792668 -0.084828,0.4249778 -0.045972,0.2144687 -0.021816,0.4128378 0.066773,0.5480244 0.035568,0.05431 0.039863,0.032433 0.013428,-0.068625 -0.017244,-0.065949 -0.02196,-0.1276161 -0.0171,-0.2237953 0.00414,-0.081663 0.00108,-0.1362123 -0.00778,-0.1417268 -0.00868,-0.00536 -0.00443,-0.016323 0.010476,-0.027242 0.0189,-0.013839 0.022608,-0.029096 0.015228,-0.062806 -0.00587,-0.02668 -0.00324,-0.052416 0.00655,-0.064201 0.009,-0.010818 0.01908,-0.050809 0.022428,-0.088864 0.00324,-0.038056 0.012528,-0.094955 0.020376,-0.1264408 0.00785,-0.031486 0.014436,-0.078179 0.01458,-0.1037619 1.98e-4,-0.031223 0.00727,-0.046515 0.021348,-0.046515 0.014904,0 0.020484,-0.014753 0.019116,-0.050468 -0.0018,-0.044882 -0.00954,-0.05464 -0.071122,-0.088147 -0.038077,-0.020722 -0.069229,-0.043095 -0.069229,-0.049715 0,-0.015858 -0.00288,-0.01633 0.093028,0.016585 0.097529,0.033556 0.107353,0.034539 0.107299,0.010735 -2.16e-5,-0.00984 -0.0306,-0.033992 -0.067925,-0.05367 -0.037336,-0.019678 -0.069967,-0.046908 -0.072508,-0.060509 -0.00428,-0.022835 -7.2e-4,-0.023109 0.046001,-0.00356 0.027828,0.011632 0.068534,0.020866 0.090433,0.020513 l 0.03982,-6.12e-4 -0.033084,-0.024408 c -0.01818,-0.013428 -0.05039,-0.039322 -0.071561,-0.057549 l -0.038484,-0.033138 0.1073386,0.00874 0.1073422,0.00874 -0.050095,-0.030924 c -0.02754,-0.017007 -0.052366,-0.032991 -0.055142,-0.035518 -0.00288,-0.00252 0.042304,-0.060854 0.1001818,-0.1296153 0.2328105,-0.2765837 0.31114,-0.3770332 0.2995803,-0.3841786 -0.00666,-0.00412 -0.048017,-8.28e-4 -0.09188,0.00725 -0.043863,0.00811 -0.2297721,0.01589 -0.413129,0.017291 -0.3266886,0.00252 -0.3361495,0.00173 -0.4718024,-0.037655 -0.177532,-0.051559 -0.2187668,-0.04548 -0.112033,0.016517 0.1146647,0.066606 0.056502,0.057883 -0.2027467,-0.030406 -0.1251731,-0.042628 -0.2326485,-0.07173 -0.2433082,-0.065882 -0.010476,0.00576 -0.07383,0.025132 -0.1407361,0.043047 -0.1500746,0.040183 -0.302806,0.101535 -0.3004732,0.1207016 0.00108,0.00787 0.03258,0.024365 0.070269,0.036652 0.1137214,0.037073 0.1677831,0.089877 0.2411374,0.2355375 l 0.043377,0.086133 0.2268813,0.066914 c 0.1247879,0.036802 0.281627,0.080351 0.3485372,0.096776 0.2187056,0.053687 0.3721102,0.1045011 0.3721102,0.123258 0,0.031025 -0.155453,0.079596 -0.3721102,0.116263 L 5.1591466,8.7500301 4.937309,8.6931499 C 4.8153038,8.6618656 4.5903522,8.6000498 4.4374264,8.5557802 4.1605946,8.4756438 4.0499656,8.4500987 4.0499656,8.4663133 c 0,0.01291 0.5775965,0.1971965 0.8372561,0.2671351 0.1259435,0.033923 0.2311149,0.063329 0.2337141,0.065346 0.00288,0.00205 -0.019908,0.026251 -0.050044,0.053855 -0.030132,0.027605 -0.050887,0.054072 -0.046138,0.058817 0.00472,0.00474 0.062756,-0.017341 0.1289135,-0.04909 0.073941,-0.035478 0.1560723,-0.062807 0.2131616,-0.070925 0.1018773,-0.014487 0.2242353,-0.04694 0.2706649,-0.071789 0.020844,-0.011153 0.029736,-0.011315 0.029736,-5.76e-4 0,0.00845 -0.029484,0.032829 -0.065553,0.054174 -0.036054,0.021345 -0.092409,0.058367 -0.1252308,0.082274 C 5.2655885,9.0091144 5.193955,9.0525445 5.153415,9.0513918 5.100639,9.0498798 4.6051588,8.9079952 4.1930918,8.7763723 4.0238507,8.7223127 3.8504731,8.667999 3.8078091,8.6556743 c -0.075374,-0.021777 -0.106147,-0.020128 -0.078906,0.00422 0.041879,0.037438 0.6522504,0.2446097 0.9722646,0.3300071 0.1180739,0.031508 0.2597604,0.072682 0.3148661,0.091498 0.096052,0.0328 0.098335,0.034622 0.055343,0.044216 -0.065157,0.01454 -0.154607,0.097573 -0.1972026,0.1830585 -0.037415,0.075081 -0.049173,0.1740259 -0.022644,0.1904313 0.01476,0.00915 0.020124,-0.00119 0.034308,-0.06621 0.014184,-0.065194 0.098446,-0.1711402 0.1659723,-0.2086885 0.035424,-0.019696 0.074064,-0.043721 0.085875,-0.053389 0.011808,-0.00967 0.050447,-0.034107 0.085868,-0.054309 0.035424,-0.0202 0.1025649,-0.066376 0.1492034,-0.1026064 0.046635,-0.03623 0.096081,-0.065874 0.1098766,-0.065874 0.013788,0 0.03775,-0.016103 0.05323,-0.035781 0.026028,-0.033074 0.059807,-0.048101 0.059807,-0.026597 0,0.00505 -0.034632,0.064625 -0.076969,0.1323861 -0.080317,0.1285695 -0.083974,0.1354534 -0.2138456,0.4022868 -0.1103266,0.2266847 -0.131394,0.2979182 -0.131394,0.4443215 0,0.092987 0.00608,0.1315791 0.02538,0.1610107 0.013968,0.02129 0.028116,0.03871 0.031464,0.03871 0.00324,0 0.0054,-0.05031 0.00464,-0.1118087 z M 8.5544578,9.8410343 c -0.00472,-0.00476 -0.0171,-0.00526 -0.027432,-0.00112 -0.011412,0.00457 -0.00803,0.00796 0.00864,0.00865 0.01512,6.12e-4 0.023544,-0.00277 0.018792,-0.00752 z m -0.057248,-0.01431 c -0.00475,-0.00476 -0.0171,-0.00526 -0.027432,-0.00112 -0.011412,0.00457 -0.00806,0.00796 0.00864,0.00865 0.015084,6.12e-4 0.023544,-0.00277 0.018792,-0.00752 z m -0.057248,-0.014314 c -0.00472,-0.00476 -0.0171,-0.00526 -0.027432,-0.00112 -0.011412,0.00457 -0.00806,0.00796 0.00864,0.00865 0.01512,6.12e-4 0.023544,-0.00277 0.018792,-0.00752 z M 10.411739,9.763809 c -0.0049,-0.00787 -0.02293,-0.013669 -0.0402,-0.012885 -0.0292,0.00133 -0.02887,0.0022 0.0044,0.012885 0.01969,0.0063 0.03777,0.0121 0.04021,0.012888 0.0025,7.92e-4 7.2e-4,-0.00502 -0.0044,-0.012888 z M 9.9956699,9.7270072 c 0.045447,-0.045444 0.019332,-0.1206299 -0.041912,-0.1206299 -0.062025,0 -0.085512,0.067454 -0.04072,0.1169467 0.029052,0.032094 0.053147,0.033171 0.082632,0.00369 z M 10.297104,9.677704 c -0.005,-0.008 -0.01501,-0.01084 -0.02232,-0.00631 -0.0073,0.00452 -0.01332,0.00245 -0.01332,-0.00462 0,-0.014954 -0.06329,-0.046078 -0.0937,-0.046078 -0.02095,0 -0.02898,0.044289 -0.01127,0.062019 0.01598,0.015991 0.150608,0.011203 0.140592,-0.005 z M 4.6502003,9.392018 C 4.6047423,9.3654209 3.7589005,9.1039588 3.7260934,9.1063633 c -0.03861,0.00284 0.3024424,0.1186697 0.6316654,0.2145476 0.2892843,0.084248 0.3331039,0.094903 0.2924415,0.071107 z m 3.5396426,-0.073673 c 0.032292,-0.043451 0.017784,-0.089675 -0.033264,-0.1058723 -0.083359,-0.026457 -0.1397424,0.043974 -0.09269,0.1157875 0.030636,0.046775 0.087132,0.042329 0.1259544,-0.00991 z M 7.2571319,9.095169 c 0.024624,-0.064694 -0.053939,-0.1088517 -0.086242,-0.048491 -0.01116,0.020801 -0.00763,0.035792 0.014976,0.064541 0.032796,0.04169 0.050883,0.037616 0.071288,-0.016049 z M 4.6958055,8.264254 c -0.00749,-0.013979 -0.039172,-0.054231 -0.070427,-0.08945 -0.055624,-0.062682 -0.058745,-0.064066 -0.147911,-0.065555 -0.050098,-8.28e-4 -0.1184627,-0.00649 -0.1519142,-0.012561 -0.041591,-0.00755 -0.060822,-0.00603 -0.060822,0.00481 0,0.031918 0.2581727,0.1415846 0.4405972,0.1871571 0.00216,5.76e-4 -0.0018,-0.010419 -0.0095,-0.024394 z M 11.134501,7.8250334 c 0,-0.00366 -0.01447,-0.013673 -0.03219,-0.022259 -0.03092,-0.014987 -0.0311,-0.014721 -0.0044,0.00665 0.0292,0.023393 0.03662,0.026558 0.03662,0.015606 z M 2.7734131,7.700015 c 0.041235,-0.041234 0.00965,-0.1116337 -0.050087,-0.1116337 -0.02772,0 -0.03294,0.00749 -0.03294,0.04723 0,0.047526 0.020916,0.081578 0.050095,0.081578 0.00864,0 0.023472,-0.00773 0.032904,-0.017176 z M 2.985293,7.663818 C 2.970749,7.649267 2.958761,7.671178 2.970677,7.690487 c 0.009,0.014591 0.012384,0.014602 0.017244,5.36e-5 0.00324,-0.00994 0.00216,-0.021971 -0.00288,-0.026727 z M 5.7492004,6.604168 C 5.7284644,6.582543 5.6903034,6.553162 5.6643694,6.53888 c -0.039125,-0.021546 -0.034056,-0.013493 0.0297,0.047292 0.078365,0.074692 0.1235891,0.089456 0.055127,0.017997 z M 6.3279345,5.7946415 C 6.2836185,5.7474695 6.0691714,5.6373251 5.9174732,5.5838193 5.7951944,5.5406903 5.6243729,5.4623657 5.6243729,5.449428 c 0,-0.00333 0.023544,-0.00223 0.052312,0.00245 C 5.7469469,5.463279 5.7303039,5.437924 5.6362459,5.390262 5.5203896,5.331554 5.5657429,5.33554 5.7317149,5.398652 5.8163049,5.430821 5.8887735,5.453882 5.8927587,5.4499 5.8967187,5.44592 5.8814547,5.434503 5.8587747,5.424539 5.7687087,5.38493 5.4490154,5.1971105 5.4573962,5.1887285 c 0.00385,-0.00385 0.053543,0.00979 0.1104274,0.030308 0.056884,0.020519 0.1059562,0.034777 0.1090522,0.031685 C 5.6919598,5.2356375 5.4185411,5.0904101 5.1880058,4.9910576 5.0857684,4.9469966 4.995602,4.9038046 4.9876351,4.8950766 c -0.010404,-0.011388 -0.00637,-0.012863 0.014148,-0.00523 0.015732,0.00585 0.083362,0.02348 0.1502726,0.039167 0.06691,0.015688 0.175966,0.047163 0.2423507,0.069943 0.066385,0.022781 0.1233587,0.038754 0.1266167,0.035498 C 5.5345591,5.0208846 5.3948204,4.9641716 5.1149682,4.8696891 4.9513575,4.8144501 4.8106538,4.7623345 4.8022945,4.753876 c -0.010188,-0.010364 -0.00108,-0.010084 0.027756,8.424e-4 0.041317,0.01562 0.4566066,0.1148531 0.4767631,0.1139209 0.0054,-2.688e-4 -0.00288,-0.00991 -0.017928,-0.021469 -0.015264,-0.011556 -0.021384,-0.021011 -0.013572,-0.021011 0.00778,0 0.02052,0.00634 0.028296,0.014093 0.00774,0.00775 0.1233588,0.042351 0.2568984,0.076887 0.1335432,0.034536 0.2957967,0.086539 0.3605649,0.1155621 0.064765,0.029023 0.1420501,0.055666 0.1717396,0.059207 0.053878,0.00642 0.053903,0.0064 0.011772,-0.010147 -0.02322,-0.00912 -0.084399,-0.039035 -0.1359661,-0.066474 C 5.8220791,4.9373104 5.640731,4.8488715 5.5340476,4.8033561 5.4177378,4.7537381 5.3182581,4.6799597 5.2764545,4.6123209 c -0.021636,-0.035011 -0.024336,-0.04664 -0.00943,-0.040224 0.1207451,0.051827 0.2287749,0.093921 0.2621544,0.1021455 0.0733,0.018061 0.03564,-0.023831 -0.07005,-0.077905 -0.1017837,-0.05208 -0.3558956,-0.2173171 -0.3704722,-0.2408996 -0.00443,-0.0072 0.035208,0.00869 0.088147,0.035327 0.1965222,0.098876 0.2411338,0.094046 0.064275,-0.00696 -0.1891349,-0.108013 -0.288107,-0.191377 -0.2093347,-0.1763189 0.018936,0.00363 0.034488,3.266e-4 0.034488,-0.00733 0,-0.016017 -0.2159191,-0.1238748 -0.3220193,-0.1608574 C 4.7048537,4.0255805 4.6252712,3.9904915 4.5673682,3.9613245 4.4393007,3.8968185 4.4158141,3.9009175 4.4296526,3.9853575 l 0.00997,0.060794 -0.040918,-0.036069 C 4.3370936,3.9557705 4.2681638,3.9101875 4.24764,3.9101875 c -0.010044,0 0.017064,0.023578 0.060247,0.052398 0.04319,0.028819 0.096038,0.066878 0.1174402,0.084574 0.021384,0.017697 0.072926,0.043212 0.1144955,0.056701 0.1718368,0.055757 0.3403543,0.1446931 0.3403543,0.1796192 0,0.0087 -0.028008,0.010405 -0.073001,0.00443 -0.066493,-0.00882 -0.072551,-0.00727 -0.067979,0.017397 0.00324,0.018331 0.056675,0.052515 0.1648959,0.1057972 0.087931,0.043294 0.1772657,0.094817 0.1985167,0.1144964 0.033624,0.031126 0.1001925,0.1545372 0.089216,0.1653699 -0.00216,0.00212 -0.029232,-0.00843 -0.060164,-0.023494 -0.1025757,-0.049951 -0.110647,-0.025805 -0.014472,0.043269 0.065042,0.046709 0.079546,0.080874 0.01746,0.04114 C 5.1166856,4.7403912 5.0343742,4.7064262 4.9517211,4.6764062 4.7703694,4.6105362 4.7020372,4.5640499 4.61699,4.4486976 4.4746051,4.2555714 4.3982016,4.2083517 4.4504489,4.3457678 c 0.022248,0.058578 -0.00972,0.043891 -0.04193,-0.019251 -0.015732,-0.03078 -0.063677,-0.089875 -0.1066186,-0.1313206 -0.042938,-0.041446 -0.08131,-0.087761 -0.085278,-0.1029219 -0.0063,-0.023984 -7.2e-4,-0.02682 0.041922,-0.021828 0.027036,0.00315 0.049133,0.00139 0.049133,-0.00388 0,-0.011888 -0.124644,-0.1277573 -0.1374313,-0.1277573 -0.00511,0 -0.0054,0.019321 -7.2e-4,0.042936 C 4.181874,4.04346 4.153794,4.036822 4.078647,3.960276 4.039763,3.920655 4.002675,3.895872 3.982271,3.895872 c -0.032472,0 -0.032688,9.252e-4 -0.01026,0.044266 C 4.007147,4.008098 3.984647,4.00751 3.921233,3.938808 3.872057,3.885543 3.863982,3.881169 3.863982,3.907801 c 0,0.039601 -0.00785,0.038973 -0.059854,-0.00477 C 3.761162,3.86688 3.735177,3.85771 3.735177,3.878702 c 0,0.0063 0.00709,0.018581 0.01584,0.027298 0.00875,0.00872 0.020052,0.036517 0.025236,0.061779 0.0081,0.03965 0.019944,0.049866 0.08653,0.074705 0.074992,0.027974 0.201555,0.134346 0.201555,0.1693984 0,0.02776 0.084529,0.1245026 0.1372585,0.1570924 0.061564,0.038047 0.057273,0.046449 -0.012744,0.024961 -0.029124,-0.00894 -0.056268,-0.012906 -0.060351,-0.00883 -0.00407,0.00408 0.02124,0.036105 0.05633,0.071165 0.044212,0.044217 0.068797,0.083819 0.080241,0.1292681 0.016272,0.064654 0.017424,0.065646 0.086732,0.074838 0.1344468,0.017835 0.2598072,0.095923 0.2794165,0.1740514 0.0063,0.02505 0.024912,0.036436 0.081904,0.050113 0.040572,0.00973 0.1464421,0.048881 0.2352694,0.086995 0.088827,0.038114 0.1665339,0.069298 0.1726863,0.069298 0.00616,0 0.023688,0.00985 0.038967,0.021899 0.025488,0.020081 0.0207,0.021096 -0.057993,0.012226 -0.079035,-0.00891 -0.084219,-0.00779 -0.065956,0.014213 0.010908,0.013138 0.07204,0.050926 0.1358688,0.083981 0.1238555,0.064143 0.2327709,0.1551916 0.2831462,0.2367016 0.029736,0.048086 0.029916,0.050794 0.00486,0.069112 -0.021456,0.015688 -0.022392,0.020478 -0.00529,0.02704 0.030384,0.011665 0.3155249,0.111728 0.5704001,0.2001772 0.1220123,0.042341 0.2443774,0.086818 0.2719285,0.098837 0.066226,0.02889 0.067418,0.028491 0.030888,-0.010386 z M 4.420583,4.4790946 c -0.016776,-0.03203 -0.01674,-0.032056 0.013788,-0.00493 0.034128,0.030289 0.037232,0.03714 0.01692,0.03714 -0.0076,0 -0.02142,-0.01449 -0.030708,-0.032202 z M 6.317246,5.6623281 C 6.277196,5.6433631 6.22245,5.6244021 6.1955937,5.6201911 c -0.033984,-0.00533 -0.01836,0.0051 0.051351,0.034312 0.1206299,0.050535 0.1727476,0.056335 0.070301,0.00782 z M 8.6585204,5.4778133 c 0,-0.010089 -0.4251927,-0.1430302 -0.6368855,-0.1991295 -0.1994022,-0.052842 -0.2649912,-0.059442 -0.090825,-0.00914 0.057827,0.0167 0.240385,0.071266 0.4056913,0.1212565 0.3198557,0.09673 0.3220194,0.097315 0.3220194,0.087011 z M 5.1234499,5.2633655 c 0,-0.020995 -0.1253352,-0.1162722 -0.1372657,-0.1043438 -0.00659,0.00661 0.1163243,0.1251243 0.129792,0.1251243 0.0041,0 0.00749,-0.00935 0.00749,-0.02078 z m 2.6835042,-0.050779 c -0.00486,-0.00787 -0.016524,-0.014216 -0.025884,-0.014093 -0.010224,1.299e-4 -0.00846,0.00576 0.00443,0.014093 0.027504,0.017767 0.032436,0.017767 0.021456,0 z M 5.4240022,4.3110243 c -0.043571,-0.033967 -0.1491997,-0.071769 -0.199341,-0.071341 -0.030996,2.688e-4 -0.026676,0.00505 0.027612,0.030399 0.066954,0.031276 0.1684132,0.067087 0.1932102,0.068195 0.00785,3.538e-4 -0.0018,-0.011913 -0.021492,-0.027253 z M 5.5385013,4.0969771 c 0,-0.023518 -0.1589883,-0.1295364 -0.1942542,-0.1295364 -0.019764,0 0.031392,0.04815 0.1007109,0.094841 0.074902,0.050443 0.093543,0.057355 0.093543,0.034695 z M 6.0830927,3.9837255 C 6.0523127,3.9014545 5.9620848,3.7823889 5.944117,3.8003577 c -0.0049,0.00488 0.0072,0.029978 0.026892,0.055775 0.019656,0.025796 0.056412,0.087808 0.081652,0.1378021 0.025236,0.049994 0.04954,0.087236 0.054015,0.08276 0.00446,-0.00448 -0.00612,-0.046312 -0.023616,-0.092969 z M 3.3623065,3.87647 c -0.013788,-0.0127 -0.015696,-0.010495 -0.0085,0.00985 0.00511,0.014419 0.010008,0.03374 0.010908,0.042936 0.00108,0.0092 0.00472,0.00476 0.00853,-0.00985 0.00374,-0.01461 -0.00108,-0.033933 -0.010944,-0.042936 z M 4.7656498,3.8633 c 0,-0.022879 -0.1112771,-0.096226 -0.145985,-0.096226 -0.038693,0 -0.03132,0.020764 0.024804,0.070078 0.051027,0.044802 0.1211519,0.059938 0.1211519,0.026147 z m 1.00352,-0.00678 C 5.7485778,3.818712 5.6700318,3.7482006 5.5754844,3.6826504 5.4948474,3.6267424 5.4857394,3.6239494 5.3840959,3.6239494 c -0.09111,0 -0.1042246,0.00301 -0.08967,0.020546 0.0094,0.011298 0.059447,0.034243 0.1112699,0.050984 0.1056789,0.034141 0.2294445,0.094538 0.3045448,0.1486149 0.059469,0.04282 0.077563,0.046634 0.058929,0.012424 z M 3.5634403,3.797447 c 0,-0.018039 -0.042016,-0.050383 -0.052208,-0.040189 -0.014652,0.014657 0.00724,0.052749 0.030276,0.052749 0.01206,0 0.021924,-0.00565 0.021924,-0.012561 z M 4.9665568,3.766489 c -0.064635,-0.055247 -0.093378,-0.054362 -0.032508,0.00101 0.025704,0.023385 0.054688,0.042255 0.064405,0.041935 0.00972,-3.265e-4 -0.00464,-0.019642 -0.031896,-0.042936 z M 6.3681109,3.736023 C 6.3220699,3.697584 6.226734,3.677124 6.2470814,3.710047 6.2611934,3.732901 6.3885771,3.793726 6.4033516,3.784675 6.4106616,3.780195 6.3948216,3.758304 6.3681076,3.736022 Z M 3.8927965,3.674232 c -0.040821,-0.043447 -0.030492,-0.044457 0.075097,-0.00735 0.095837,0.033685 0.1250904,0.035785 0.1250904,0.00898 0,-0.010802 0.045195,-0.042127 0.1004229,-0.069608 C 4.2769418,3.564695 4.2903088,3.553364 4.2728848,3.5389 4.2585208,3.526984 4.2269918,3.524627 4.1726887,3.53141 4.1037377,3.54002 4.0841527,3.53645 4.0219193,3.50391 3.9357813,3.458869 3.9211472,3.456754 3.9661653,3.49585 3.9948933,3.520786 3.9893853,3.519801 3.9296363,3.48929 3.8823393,3.465146 3.8520193,3.45747 3.8370473,3.465851 3.8046833,3.483964 3.7528243,3.452354 3.6761475,3.367777 3.6234645,3.309661 3.6008315,3.294762 3.5652304,3.294762 c -0.051891,0 -0.1019745,-0.043095 -0.1019745,-0.087745 0,-0.026825 -0.00598,-0.029524 -0.049799,-0.022416 -0.041998,0.00682 -0.054483,0.00212 -0.079712,-0.029949 -0.03114,-0.039606 -0.062133,-0.146186 -0.037278,-0.128241 0.00288,0.00196 0.015516,-0.00519 0.02844,-0.015914 0.012888,-0.010718 0.033048,-0.015827 0.044723,-0.011341 0.011664,0.00448 0.031068,-0.00171 0.043118,-0.013734 0.019692,-0.019691 0.027684,-0.015949 0.02394,0.011219 -0.00216,0.016818 0.09822,0.097753 0.1214111,0.097753 0.012276,0 0.025668,-0.012879 0.029808,-0.028624 0.0041,-0.015742 0.01224,-0.028624 0.018072,-0.028624 0.01314,0 0.1468382,0.1002223 0.1611807,0.1208466 0.02394,0.034424 0.00896,-0.016597 -0.017712,-0.060366 -0.015696,-0.025772 -0.028584,-0.049043 -0.028584,-0.051711 0,-0.00267 0.040252,-0.00829 0.089446,-0.012504 0.049198,-0.00421 0.1016037,-0.012558 0.1164539,-0.018551 0.019836,-0.00801 0.025236,-0.00555 0.020268,0.00927 -0.00371,0.011093 -0.03348,0.030066 -0.066161,0.042161 -0.069506,0.025709 -0.1080046,0.056726 -0.070413,0.056726 0.013104,0 0.079021,-0.012879 0.1465429,-0.028624 0.1432922,-0.033413 0.21206,-0.036177 0.234265,-0.00942 0.019404,0.023377 0.0072,0.037823 -0.032688,0.038687 -0.016416,3.538e-4 -0.048078,0.00845 -0.070395,0.017988 l -0.040583,0.01734 0.030888,0.039262 c 0.027324,0.034748 0.040432,0.039263 0.1139158,0.039263 0.04567,0 0.1104202,0.00966 0.1438861,0.021466 0.033444,0.011807 0.073142,0.021469 0.088172,0.021469 0.023256,0 0.024948,-0.00444 0.011376,-0.02985 -0.00878,-0.016417 -0.013356,-0.032451 -0.010188,-0.03563 0.01206,-0.012043 0.0822,0.030609 0.0823,0.050041 1.98e-4,0.042087 0.045875,0.072727 0.1060966,0.071222 0.057341,-0.00141 0.057636,-0.00171 0.013644,-0.01219 -0.024732,-0.0059 -0.056934,-0.015358 -0.071558,-0.021025 -0.02556,-0.0099 -0.025596,-0.01105 -7.2e-4,-0.029286 0.015624,-0.011494 0.046667,-0.016186 0.078715,-0.011894 0.046541,0.00623 0.061132,-1.298e-4 0.1208135,-0.052681 0.057384,-0.050529 0.065607,-0.064021 0.053169,-0.087266 -0.01674,-0.031291 -0.058371,-0.035598 -0.098972,-0.010239 -0.034236,0.021379 -0.075493,-0.011222 -0.1169183,-0.092393 -0.027972,-0.054805 -0.055433,-0.070759 -0.055433,-0.032202 0,0.017127 -0.020988,0.021423 -0.1037638,0.021251 -0.1010961,-2.18e-4 -0.1569254,-0.015794 -0.1350372,-0.037682 0.00598,-0.00596 0.059638,-0.01436 0.1192871,-0.018668 0.1019997,-0.00737 0.1068706,-0.00923 0.081782,-0.031213 -0.031608,-0.027713 -0.1707495,-0.069651 -0.2310681,-0.069651 -0.0234,0 -0.05058,0.00966 -0.060383,0.021474 -0.015048,0.01814 -0.010908,0.022854 0.02664,0.030366 0.024444,0.00489 0.040842,0.014746 0.036422,0.021899 -0.00439,0.00716 -0.029304,0.00902 -0.055293,0.00414 -0.026712,-0.00501 -0.085861,0.00103 -0.136002,0.013875 -0.1046926,0.02682 -0.1150643,0.027521 -0.1150643,0.00777 0,-0.018355 0.1393609,-0.084797 0.1789001,-0.085293 0.015732,-1.982e-4 0.038095,-0.00635 0.049677,-0.013674 0.041523,-0.026259 -0.00144,-0.033793 -0.09467,-0.016611 -0.091297,0.016823 -0.1308648,0.033789 -0.2555627,0.1095894 -0.0315,0.019139 -0.063195,0.034905 -0.070474,0.035035 -0.020268,3.538e-4 0.050026,-0.069717 0.079165,-0.078967 0.015624,-0.00496 0.022392,-0.016559 0.017352,-0.029724 -0.00486,-0.012659 0.00878,-0.039442 0.03294,-0.064735 0.040112,-0.041988 0.040475,-0.043692 0.013428,-0.06355 C 3.8741753,2.712655 3.8673503,2.715603 3.7972034,2.793623 3.6870532,2.9161358 3.5449527,2.9326264 3.4112834,2.838408 3.3765074,2.813896 3.3454784,2.793842 3.3423284,2.793842 c -0.00324,0 0.011232,0.030336 0.031932,0.067414 l 0.037678,0.067413 -0.060149,-0.048336 c -0.068865,-0.055345 -0.092064,-0.048578 -0.054047,0.01577 0.02106,0.035663 0.022428,0.046383 0.00709,0.055864 -0.01044,0.00645 -0.024156,0.00855 -0.030384,0.00468 -0.0063,-0.00388 -0.011412,9.792e-4 -0.011412,0.010838 0,0.010114 -0.00839,0.00642 -0.019296,-0.0085 -0.011988,-0.016417 -0.026244,-0.022076 -0.037761,-0.014978 -0.014472,0.00894 -0.016236,-4.644e-4 -0.00817,-0.043462 0.00925,-0.049291 0.00796,-0.052937 -0.012672,-0.035829 -0.014256,0.011815 -0.019548,0.02979 -0.013968,0.047342 0.01242,0.039155 -0.025272,0.025968 -0.043931,-0.015372 -0.014724,-0.032571 -0.04409,-0.044744 -0.032292,-0.013385 0.00371,0.00984 0.011412,0.033991 0.017136,0.05367 0.010332,0.035678 0.010296,0.035664 -0.02592,-0.00495 -0.01998,-0.022402 -0.03825,-0.046375 -0.040626,-0.053277 -0.00587,-0.016964 -0.1751669,0.023665 -0.2193825,0.052639 -0.046584,0.030523 -0.04482,0.038724 0.014436,0.066972 0.044648,0.021289 0.04891,0.02824 0.041148,0.067055 -0.00526,0.026313 -0.00288,0.043303 0.00644,0.043303 0.00832,0 0.017172,-0.013407 0.019692,-0.029792 0.00439,-0.028461 0.00731,-0.027817 0.065402,0.014403 0.051297,0.03727 0.060823,0.051941 0.060823,0.093644 0,0.045568 0.0045,0.050659 0.057154,0.06484 0.040425,0.010884 0.063573,0.027802 0.079085,0.0578 0.013068,0.025279 0.033336,0.04241 0.050188,0.04241 0.021996,0 0.02826,0.00973 0.02826,0.043877 0,0.072081 0.023832,0.1025769 0.071828,0.09203 0.038153,-0.00838 0.043647,-0.00395 0.074143,0.059897 0.024192,0.05067 0.044313,0.072482 0.075867,0.082277 0.023616,0.00733 0.066712,0.031486 0.095768,0.05368 0.063155,0.048237 0.068825,0.049117 0.068825,0.010688 V 3.664805 l 0.037707,0.029662 c 0.020736,0.016314 0.050721,0.029663 0.066622,0.029663 0.028008,0 0.028116,-8.712e-4 0.00288,-0.028624 -0.03438,-0.03798 -0.011844,-0.0361 0.080594,0.00672 0.089385,0.041414 0.1225703,0.028115 0.069859,-0.027996 z M 3.2056366,3.0729378 c 0,-0.021336 0.00619,-0.033661 0.014292,-0.028624 0.00785,0.00486 0.014292,0.017746 0.014292,0.028624 0,0.010879 -0.00644,0.023758 -0.014292,0.028623 -0.00814,0.00504 -0.014292,-0.00729 -0.014292,-0.028623 z m 1.0619522,-0.038641 c -0.019008,-0.019006 -0.023256,-0.054656 -0.00641,-0.053909 0.013932,5.976e-4 0.07514,0.051648 0.07514,0.062644 0,0.015296 -0.051174,0.00879 -0.068699,-0.00873 z m 0.154571,0.6849742 c 0,-0.020998 -0.1001637,-0.059546 -0.1293996,-0.0498 -0.022788,0.00759 0.069546,0.068401 0.1043542,0.068736 0.013788,1.298e-4 0.025056,-0.00839 0.025056,-0.018938 z M 4.7803523,3.5960618 c -0.020376,-0.03803 -0.071907,-0.072294 -0.1087786,-0.072294 -0.046188,0 -0.1216271,-0.029703 -0.1125874,-0.04433 0.0207,-0.033453 0.2118367,-0.00694 0.4929057,0.068367 0.04329,0.0116 0.098036,0.024199 0.1216487,0.027998 l 0.042938,0.00691 -0.03402,-0.029652 c -0.01872,-0.016309 -0.050908,-0.033084 -0.071558,-0.037278 -0.1067445,-0.021678 -0.1485913,-0.03885 -0.155075,-0.06364 -0.00382,-0.014615 -0.015876,-0.029997 -0.026748,-0.03418 -0.011772,-0.00452 -0.016092,-0.017321 -0.01062,-0.031595 0.00799,-0.020816 0.025488,-0.022879 0.1321464,-0.01559 0.1276392,0.00872 0.2175104,-0.00193 0.2257761,-0.026719 0.00817,-0.024501 -0.1778957,-0.1212043 -0.2860551,-0.1486712 -0.1104922,-0.02806 -0.1368192,-0.024278 -0.2105695,0.030247 -0.064167,0.047441 -0.055387,0.069145 0.027972,0.069145 0.1296372,0 0.1033821,0.048418 -0.034956,0.06443 -0.086156,0.00997 -0.2012274,0.041902 -0.2286381,0.063439 -0.00806,0.00634 -0.040425,0.019577 -0.071914,0.029427 -0.079158,0.02476 -0.088626,0.037023 -0.056225,0.072823 0.058212,0.064326 0.1500457,0.094501 0.2964591,0.097411 0.077851,0.00155 0.081904,-1.95e-5 0.067871,-0.026245 z m 0.1973718,0.00347 c -0.00515,-0.026803 -0.050289,-0.043511 -0.1234667,-0.045715 -0.056661,-0.00171 -0.048968,0.020867 0.016884,0.049519 0.064721,0.028166 0.1124219,0.026463 0.1065934,-0.0038 z m 1.7041873,-0.033249 c -0.030708,-0.026695 -0.1143947,-0.071141 -0.1339536,-0.071141 -0.00418,0 -0.00763,0.00634 -0.00763,0.014082 0,0.014703 0.1603995,0.1016038 0.1701916,0.092201 0.00324,-0.00296 -0.00979,-0.018774 -0.02862,-0.035143 z M 6.0605925,3.5098858 c -0.052219,-0.03347 -0.1941642,-0.072075 -0.2639076,-0.071773 -0.051444,2.18e-4 -0.099498,0.020124 -0.084586,0.035031 0.010044,0.010062 0.2895722,0.060318 0.3487856,0.062714 l 0.042938,0.00174 z m -0.866096,-0.049582 c -0.028512,-0.027924 -0.099671,-0.044703 -0.099671,-0.023502 0,0.018404 0.050091,0.04175 0.092517,0.043119 0.024624,7.884e-4 0.025488,-0.00163 0.00716,-0.019621 z M 3.969146,3.3852158 c 0.00536,-0.00536 -0.00767,-0.027899 -0.028908,-0.050092 -0.040054,-0.041811 -0.1085878,-0.054746 -0.1275492,-0.024076 -0.021924,0.035424 0.1253928,0.1052387 0.1564647,0.074166 z m 2.3135793,-0.026768 c 0,-0.016096 -0.1009629,-0.049362 -0.149819,-0.049362 -0.059897,0 -0.067321,0.024381 -0.011196,0.036759 0.021636,0.00477 0.0458,0.01083 0.053669,0.013453 0.024372,0.00813 0.1073386,0.00748 0.1073386,-8.424e-4 z M 5.4259966,3.3086098 c -0.03546,-0.029544 -0.073552,-0.037326 -0.073552,-0.015029 0,0.00722 0.017676,0.019588 0.039356,0.027494 0.060679,0.022163 0.071169,0.018339 0.0342,-0.012465 z M 4.0562849,3.2533278 c 0.00436,-0.00705 -0.00324,-0.026028 -0.017064,-0.042167 -0.024804,-0.029162 -0.080014,-0.038979 -0.1877309,-0.033389 -0.093558,0.00486 -1.98e-4,0.057012 0.1412941,0.078935 0.019692,0.00305 0.04023,0.00642 0.04567,0.00749 0.00544,0.00109 0.013464,-0.00382 0.017784,-0.010873 z m -1.108263,-0.059584 c 0,-0.00741 -0.00644,-0.01347 -0.014292,-0.01347 -0.00785,0 -0.014292,0.010043 -0.014292,0.022313 0,0.012272 0.00644,0.018331 0.014292,0.01347 0.00785,-0.00486 0.014292,-0.014907 0.014292,-0.022313 z m 0.8157855,0.022604 c 0,-0.00378 -0.02736,-0.020715 -0.06083,-0.037642 -0.033444,-0.016929 -0.06605,-0.039735 -0.072433,-0.050684 -0.00637,-0.010949 -0.017676,-0.016169 -0.025056,-0.011605 -0.029124,0.017996 -0.010584,0.047964 0.047394,0.076665 0.056423,0.027929 0.1109207,0.03936 0.1109207,0.023268 z m 1.5864301,-0.060303 c 0.077617,-0.023243 0.079168,-0.024634 0.037984,-0.034087 -0.023616,-0.00542 -0.1121698,-0.010617 -0.1967886,-0.011548 -0.1621779,-0.0018 -0.1920402,0.011714 -0.1073422,0.04853 0.063163,0.027454 0.1686363,0.026305 0.2661468,-0.00289 z m 0.1954206,-0.018704 c -0.011232,-0.018156 -0.064941,-0.018156 -0.093032,0 -0.015696,0.010144 -0.0049,0.013932 0.040202,0.014093 0.03752,1.353e-4 0.058209,-0.00539 0.05283,-0.014093 z M 3.4703327,3.0945328 c 0.010764,-0.01746 -0.03645,-0.084932 -0.059901,-0.085551 -0.030384,-8.172e-4 -0.036065,0.028592 -0.012492,0.064584 0.02376,0.036244 0.056992,0.045873 0.072386,0.020966 z m 1.8775504,-0.069825 c 0.1273728,-0.00519 0.2363242,-0.014175 0.2421095,-0.019964 0.00576,-0.00579 -0.024696,-0.010522 -0.067713,-0.010522 -0.043031,0 -0.085375,-0.00714 -0.094098,-0.015857 -0.011592,-0.0116 -0.03042,-0.011047 -0.070158,0.00204 -0.040223,0.013274 -0.05571,0.013674 -0.05976,0.00155 -0.0068,-0.020378 -0.1270452,-0.021561 -0.1837097,-0.0018 -0.022968,0.00801 -0.050285,0.028177 -0.060675,0.044812 -0.017892,0.028712 -0.016848,0.029711 0.021744,0.019708 0.022356,-0.00579 0.1448654,-0.014784 0.2722345,-0.019977 z M 2.9488283,2.8306018 C 2.9044043,2.7770758 2.4241846,2.7123533 2.332679,2.7475598 c -0.028656,0.01102 -0.00871,0.015761 0.1007217,0.023965 0.075043,0.00563 0.2199189,0.025067 0.321951,0.043203 0.1020321,0.018135 0.1911329,0.033738 0.1980018,0.034672 0.00684,9.252e-4 0.00482,-0.00753 -0.0045,-0.018802 z m 2.3749922,-0.079686 c 0,-0.01715 -0.053119,-0.01715 -0.093028,0 -0.022176,0.00953 -0.014904,0.012525 0.032184,0.013306 0.033444,5.724e-4 0.06083,-0.00544 0.06083,-0.013306 z m 0.2707333,0.00914 c -0.016092,-0.013949 -0.1705516,-0.022342 -0.1705516,-0.00927 0,0.00815 0.038448,0.014436 0.088258,0.014436 0.048539,0 0.085573,-0.00231 0.082293,-0.00517 z M 2.1501357,2.6450916 c 0.099246,-0.034586 0.1952154,-0.073228 0.213266,-0.085872 l 0.032832,-0.022988 h -0.032256 c -0.064858,0 -0.4034701,0.1382821 -0.4034701,0.1647679 0,0.010405 -0.00418,0.011638 0.1896425,-0.055908 z m 1.2088119,-0.020748 c 0.023724,-0.038125 0.067537,-0.087964 0.097413,-0.1107537 0.046174,-0.035218 0.070121,-0.042234 0.1595823,-0.046751 0.103231,-0.00522 0.1070506,-0.00415 0.1978434,0.055003 0.085062,0.055421 0.096261,0.059035 0.1379317,0.044509 0.066338,-0.023124 0.1126414,-0.020113 0.1126414,0.00733 0,0.018214 0.00835,0.02093 0.039359,0.012762 0.021636,-0.0057 0.2293509,-0.012659 0.4615638,-0.015451 0.4200915,-0.00505 0.4229463,-0.00529 0.5714873,-0.04827 0.082109,-0.023755 0.1558526,-0.049756 0.1638699,-0.057779 0.024624,-0.024596 -0.050904,-0.0171 -0.1414093,0.014039 -0.059311,0.020405 -0.1204715,0.028624 -0.2130176,0.028624 H 4.8163917 l 0.03546,-0.033566 c 0.023436,-0.022196 0.066583,-0.039024 0.1273511,-0.049679 0.050548,-0.00886 0.09885,-0.023559 0.1073422,-0.032662 0.02286,-0.02449 -0.2542775,-0.0059 -0.3341802,0.022419 -0.034848,0.012354 -0.108109,0.029401 -0.1627647,0.037881 -0.054666,0.00848 -0.1350229,0.027683 -0.1785869,0.04267 -0.084741,0.029155 -0.1749076,0.036084 -0.1749076,0.01344 0,-0.02231 0.043481,-0.038743 0.1502798,-0.0568 0.055099,-0.00932 0.1645899,-0.035078 0.243301,-0.05725 0.078718,-0.022171 0.2061415,-0.054979 0.2831678,-0.072908 0.130116,-0.030285 0.1902906,-0.056851 0.1287768,-0.056851 -0.034524,0 -0.257874,0.026958 -0.3081808,0.037199 -0.02898,0.0059 -0.039359,0.00234 -0.039359,-0.013402 0,-0.011777 0.00806,-0.024661 0.017892,-0.028631 0.038718,-0.015623 -0.044871,-0.00837 -0.1186427,0.010291 -0.042981,0.010873 -0.1039078,0.023965 -0.1353937,0.029094 l -0.057251,0.00932 0.035028,-0.027711 c 0.01926,-0.015241 0.1094302,-0.0574 0.2003635,-0.093687 0.090937,-0.036287 0.1750048,-0.072874 0.1868093,-0.081305 0.024372,-0.017384 0.015372,-0.016085 -0.1963854,0.028472 -0.111043,0.023363 -0.1673331,0.02648 -0.3549021,0.019632 C 4.1489992,2.1491019 4.0538179,2.1406059 4.0601,2.1347049 c 0.0063,-0.0059 0.042102,-0.020979 0.079615,-0.033503 0.083744,-0.027962 0.2341678,-0.1029277 0.2464691,-0.1228283 0.010944,-0.017699 -0.010152,-0.019471 -0.02916,-0.00245 -0.00749,0.0067 -0.087661,0.032944 -0.1781836,0.058322 -0.090523,0.025377 -0.2168336,0.062233 -0.2806838,0.081902 -0.063857,0.01967 -0.1376905,0.033677 -0.1640679,0.031129 -0.04464,-0.00431 -0.036944,-0.010348 0.1107514,-0.086909 0.1867697,-0.096815 0.2340454,-0.1365231 0.1234415,-0.1036764 -0.099382,0.029514 -0.3508844,0.1236992 -0.4705351,0.1762151 -0.055628,0.024417 -0.1296228,0.048707 -0.1644315,0.05398 l -0.063285,0.00959 0.049914,-0.055539 c 0.027432,-0.030546 0.078977,-0.087048 0.114499,-0.1255598 0.035532,-0.038512 0.054915,-0.064788 0.043107,-0.05839 -0.0513,0.027795 -0.1456573,0.096792 -0.2235944,0.1634991 -0.04626,0.039599 -0.089641,0.072056 -0.096394,0.072126 -0.00677,5.39e-5 -0.00817,-0.017582 -0.00324,-0.039231 0.00806,-0.034804 7.2e-4,-0.030225 -0.066432,0.039582 -0.041566,0.043417 -0.099602,0.1078216 -0.1289639,0.1431208 -0.052647,0.063284 -0.053396,0.063624 -0.053673,0.024362 -1.584e-4,-0.021902 0.00918,-0.062391 0.0207,-0.089981 0.027216,-0.065113 0.0054,-0.05072 -0.051408,0.033922 -0.05759,0.085823 -0.1711096,0.2041685 -0.1866365,0.1945728 -0.00655,-0.00404 -0.01188,-0.020647 -0.01188,-0.03689 0,-0.024629 -0.0036,-0.026572 -0.021492,-0.011714 -0.034164,0.02836 -0.025092,0.080741 0.02358,0.136197 0.059127,0.067342 0.111511,0.093048 0.1868021,0.091665 0.03384,-5.976e-4 0.053486,-0.00438 0.043643,-0.00835 -0.024948,-0.010054 -0.022428,-0.033457 0.0036,-0.033457 0.011808,0 0.021492,0.00644 0.021492,0.014313 0,0.020987 0.042754,0.017506 0.043942,-0.00357 7.2e-4,-0.00984 0.00648,-0.00501 0.01314,0.010734 0.00943,0.022247 0.01188,0.016651 0.01098,-0.025111 -0.00144,-0.068519 0.011988,-0.082024 0.033876,-0.033988 0.021744,0.047755 0.028512,0.047131 0.0584,-0.0054 0.025992,-0.045675 0.054335,-0.056827 0.054335,-0.021376 0,0.03166 0.030096,0.026109 0.03879,-0.00716 0.0041,-0.015742 0.012744,-0.028624 0.019152,-0.028624 0.00641,0 0.015696,-0.012672 0.020592,-0.028162 0.010764,-0.033913 0.1216955,-0.1111412 0.1986355,-0.1382876 0.072515,-0.025584 0.1664691,-0.025951 0.1664691,-6.516e-4 0,0.010427 -0.038672,0.036809 -0.085936,0.05863 -0.1173899,0.054195 -0.2315793,0.1867433 -0.2097919,0.2435231 0.00475,0.012307 0.011052,0.022381 0.01404,0.022381 0.00288,0 0.02484,-0.031193 0.048561,-0.069318 z m 0.7197259,-0.150575 c 0,-0.0047 0.0306,-0.024476 0.067979,-0.043939 0.081055,-0.042193 0.075284,-0.043421 -0.067821,-0.014422 -0.06052,0.012264 -0.144887,0.020315 -0.1874826,0.017893 -0.066439,-0.00378 -0.077451,-0.00848 -0.077451,-0.03303 0,-0.025709 0.010944,-0.029049 0.1073386,-0.032795 0.1161335,-0.00451 0.3864276,0.023826 0.3864276,0.040513 0,0.021213 -0.037898,0.038897 -0.1001854,0.046744 -0.035424,0.00446 -0.078891,0.012495 -0.096607,0.017851 -0.017676,0.00536 -0.032184,0.00589 -0.032184,0.0012 z M 3.1081513,2.3449245 c 0.035244,-0.05378 0.048554,-0.057811 0.033408,-0.010125 -0.00518,0.016344 -0.022176,0.036549 -0.037793,0.044898 -0.02628,0.014077 -0.025992,0.011548 0.00439,-0.034772 z M 4.1667627,2.2429981 c 0.00385,-0.00385 0.051614,-0.015848 0.1061505,-0.02667 0.054533,-0.010822 0.1104239,-0.024468 0.1242012,-0.030321 0.014868,-0.00632 0.025056,-0.00443 0.025056,0.00465 0,0.020532 -0.1342848,0.059334 -0.2053531,0.059334 -0.031356,0 -0.053889,-0.00314 -0.050044,-0.00699 z m 0.726501,0.4272286 c 0.00324,-0.00285 -0.049853,-0.00519 -0.1180738,-0.00519 -0.075043,0 -0.1240356,0.00579 -0.1240356,0.014648 0,0.013385 0.2260065,0.00456 0.2421094,-0.00946 z m 0.3812219,-0.020731 c 0.00677,-0.01093 -0.0153,-0.012523 -0.07429,-0.00536 -0.1095958,0.013296 -0.1152659,0.020905 -0.015588,0.020905 0.04414,0 0.084579,-0.00699 0.08986,-0.015541 z m -2.072125,-0.024719 c 0.0036,-0.010459 -0.00288,-0.013657 -0.016992,-0.00831 -0.012456,0.00478 -0.02268,0.014986 -0.02268,0.022669 0,0.018812 0.032544,0.00703 0.039662,-0.014362 z M 3.57653,2.6042147 c 0.0207,-0.054779 -0.011376,-0.071842 -0.063486,-0.033751 -0.023148,0.016926 -0.024372,0.023379 -0.00814,0.042936 0.026928,0.03247 0.057356,0.02857 0.071626,-0.00918 z M 3.2898342,2.5413107 c 0.016992,-0.044436 0.027972,-0.083724 0.024372,-0.087306 -0.01476,-0.014749 -0.036519,0.014787 -0.045263,0.061419 -0.00515,0.027362 -0.015012,0.053278 -0.022032,0.057591 -0.016272,0.010068 -0.01656,0.049089 -7.2e-4,0.049089 0.0068,0 0.026244,-0.036357 0.043244,-0.080793 z M 3.620688,1.8842997 c 0,-0.00394 -0.019296,0.00284 -0.042934,0.015046 -0.023616,0.012212 -0.042938,0.025423 -0.042938,0.029359 0,0.00394 0.019296,-0.00284 0.042938,-0.015048 0.023616,-0.012212 0.042934,-0.025424 0.042934,-0.029359 z M 3.589152,1.6380781 c 0.088917,-0.051057 0.1591574,-0.095342 0.156083,-0.098412 -0.00922,-0.00921 -0.1212743,0.034241 -0.2092159,0.081113 -0.045317,0.024155 -0.1140455,0.07312 -0.152717,0.108809 l -0.07032,0.064889 0.057251,-0.031784 c 0.0315,-0.017481 0.1299972,-0.073558 0.2189189,-0.124615 z m 0.3320922,-0.056075 c 0.053324,-0.028627 0.057093,-0.033054 0.021924,-0.025723 -0.023364,0.00487 -0.068455,0.024936 -0.1001817,0.044591 -0.072642,0.044999 -0.014652,0.031018 0.078276,-0.018867 z m 6.6264698,9.4770389 c -0.01458,-0.01758 -0.01361,-0.02147 0.0054,-0.02147 0.01278,0 0.02322,0.0097 0.02322,0.02147 0,0.01181 -0.0025,0.02147 -0.0054,0.02147 -0.0029,0 -0.01343,-0.0097 -0.02322,-0.02147 z m 0.565061,0.0067 c -0.01559,-0.02524 0.01822,-0.05174 0.0447,-0.03503 0.0122,0.0077 0.02329,0.02043 0.02466,0.0283 0.0036,0.02045 -0.05723,0.02635 -0.06935,0.0067 z m -1.095347,-0.154717 c -0.040227,-0.03257 -0.01609,-0.05253 0.02704,-0.02234 0.03143,0.02201 0.04141,0.04868 0.01822,0.04868 -0.007,0 -0.02736,-0.01186 -0.04526,-0.02634 z m 1.433447,-0.02193 c -0.01922,-0.02314 -0.0064,-0.06622 0.01976,-0.06622 0.02761,0 0.05193,0.03638 0.04188,0.06259 -0.01091,0.02843 -0.03963,0.03012 -0.06161,0.0036 z m -1.5704818,-0.01569 c -0.0049,-0.01273 -0.00454,-0.02747 7.2e-4,-0.03275 0.012096,-0.01211 0.059311,0.0167 0.055509,0.03387 -0.00515,0.02326 -0.047207,0.02242 -0.05624,-0.0011 z m -0.1125838,-0.03606 c -0.00504,-0.0081 7.2e-4,-0.01051 0.013464,-0.0056 0.024804,0.0095 0.02934,0.01977 0.00875,0.01977 -0.00742,0 -0.017424,-0.0064 -0.022248,-0.01415 z m 1.4454136,-0.383606 c -0.02765,-0.0061 -0.04942,-0.02757 -0.04988,-0.04919 -1.98e-4,-0.01051 0.06821,0.01445 0.09048,0.033 0.01699,0.01416 -0.0068,0.02363 -0.0406,0.01619 z m -0.221294,-0.05794 c -0.06891,-0.03696 -0.07584,-0.06628 -0.01321,-0.05582 0.02664,0.0045 0.06685,0.0152 0.08935,0.02389 0.03402,0.01314 0.03794,0.01938 0.02329,0.03704 -0.02293,0.02765 -0.04,0.02678 -0.09945,-0.0051 z m 0.06744,-0.4983759 c 0.0098,-0.00397 0.02592,-0.00397 0.03578,0 0.0098,0.00397 0.0018,0.00722 -0.01789,0.00722 -0.01969,0 -0.02772,-0.00324 -0.01789,-0.00722 z m 0.393538,-0.055257 c -0.05709,-0.00905 -0.107767,-0.020412 -0.112609,-0.025258 -0.01199,-0.01201 0.197116,0.00529 0.22183,0.018357 0.03839,0.020293 -0.0067,0.023145 -0.109221,0.0069 z m 0.461571,-0.035507 c -0.01544,-0.024955 0.0054,-0.085814 0.02938,-0.085814 0.01188,0 0.0257,0.010534 0.03064,0.023415 0.01588,0.041351 -0.03824,0.097619 -0.06001,0.062401 z M 11.713699,9.348044 c -0.01357,-0.022003 0.005,-0.036202 0.0234,-0.017831 0.01026,0.010278 0.01055,0.018285 7.2e-4,0.024325 -0.008,0.00496 -0.01886,0.00205 -0.02416,-0.00649 z M 10.723888,9.0963566 c -0.01303,-0.033912 0.01476,-0.069615 0.05418,-0.069615 0.04148,0 0.05211,0.037507 0.0198,0.069823 -0.02977,0.029761 -0.06252,0.029668 -0.07398,-2.178e-4 z M 0.32177279,7.8173776 c 0.0049,-0.00787 0.01526,-0.014314 0.02315,-0.014314 0.0079,0 0.0103,0.00644 0.0054,0.014314 -0.0049,0.00787 -0.0153,0.01431 -0.02315,0.01431 -0.0079,0 -0.0103,-0.00644 -0.0054,-0.01431 z m 0.271928,-0.4370638 c -0.04723,-0.035194 -0.111633,-0.085488 -0.143119,-0.1117659 -0.0315,-0.026277 -0.07174,-0.056779 -0.08945,-0.067781 -0.01768,-0.011005 -0.03222,-0.028901 -0.03222,-0.039775 0,-0.01597 0.0062,-0.015415 0.03222,0.00288 0.01768,0.012456 0.08694,0.055798 0.153854,0.096314 0.143192,0.086708 0.186057,0.1233295 0.186057,0.1589522 0,0.037028 -0.01076,0.033127 -0.107342,-0.038822 z m -0.530133,-0.3510497 c -0.01318,-0.021312 0.0022,-0.032901 0.02952,-0.022381 0.01264,0.00485 0.01897,0.015307 0.01408,0.023238 -0.01159,0.018771 -0.03172,0.018378 -0.04359,-8.281e-4 z M 4.4250254,6.5750156 C 4.3696674,6.5210966 4.3309744,6.4584886 4.2458986,6.2851971 4.1862206,6.1636236 4.1204446,6.0448337 4.0997301,6.0212189 c -0.027612,-0.031482 -0.035172,-0.035302 -0.028368,-0.01431 0.00515,0.015743 0.012204,0.047945 0.015696,0.07156 C 4.0960181,6.1385029 3.8515296,5.6354409 3.8342206,5.558199 3.8264406,5.523552 3.8134126,5.482652 3.8051686,5.467311 3.7919566,5.442612 3.7933966,5.441109 3.8178406,5.454195 c 0.015228,0.00813 0.053324,0.035989 0.084738,0.061909 0.031428,0.025922 0.099476,0.077323 0.1512446,0.1142264 0.1107262,0.078929 0.1692196,0.167371 0.1791665,0.2708863 0.00662,0.069069 0.0081,0.070908 0.091797,0.115519 0.1016182,0.054162 0.1977174,0.1567864 0.1970658,0.2104439 -7.2e-4,0.032177 -0.00288,0.034225 -0.017892,0.014796 -0.00961,-0.012399 -0.03645,-0.034924 -0.059685,-0.050053 -0.041944,-0.02731 -0.042164,-0.027303 -0.030348,0.00108 0.016812,0.040406 0.094065,0.2677583 0.094065,0.2768537 0,0.00415 -0.020088,-0.011369 -0.044637,-0.034488 l -0.044633,-0.042035 0.010116,0.035781 c 0.00554,0.019678 0.028512,0.076032 0.051038,0.1252301 0.0225,0.049197 0.035244,0.08945 0.028332,0.08945 -0.00691,0 -0.044378,-0.03095 -0.083215,-0.068777 z m -4.04958361,0.010105 c -0.03344,-0.023696 -0.06082,-0.049075 -0.06082,-0.0564 0,-0.019433 0.08439,0.035025 0.109229,0.070485 0.02693,0.038426 0.02491,0.037845 -0.04841,-0.014083 z M 5.026825,6.4394535 C 4.950324,6.3619165 4.8969142,6.2787743 4.9131611,6.2625238 c 0.00288,-0.00284 0.052204,0.052986 0.1096786,0.1240841 0.057471,0.071098 0.101647,0.1321122 0.098176,0.1355866 -0.0036,0.00346 -0.045861,-0.033757 -0.094191,-0.082741 z M 3.7938964,6.4643625 C 3.7461674,6.4100055 3.6714485,6.2734009 3.6830838,6.2617689 c 0.00389,-0.00388 0.018,0.014465 0.031356,0.040781 0.01332,0.026313 0.044763,0.076826 0.069783,0.1122484 0.02502,0.035424 0.050361,0.072455 0.056323,0.082295 0.020448,0.033772 -0.00216,0.017849 -0.046642,-0.032732 z M 2.9828018,6.3927268 C 2.9206148,6.2955008 2.8478473,6.1399501 2.8478473,6.1042238 c 0,-0.022612 0.00288,-0.022306 0.027504,0.00328 0.037491,0.038455 0.1719412,0.2629205 0.1823705,0.3044649 0.00464,0.018464 0.00144,0.040369 -0.0067,0.048684 -0.010656,0.010617 -0.030924,-0.00961 -0.068231,-0.067909 z m 0.8561203,0.018839 C 3.8082501,6.3738998 3.7354319,6.2415121 3.7504911,6.2508207 c 0.021276,0.013162 0.1175087,0.1647476 0.1095886,0.1726652 -0.0036,0.00346 -0.012996,-0.00191 -0.021168,-0.01192 z M 3.402454,6.3047517 C 3.37423,6.2973717 3.304483,6.1823459 3.1853468,5.9466399 3.1407428,5.8583929 3.0879878,5.7734012 3.068119,5.757771 3.047563,5.741592 3.014453,5.684326 2.99128,5.6248236 2.915474,5.4301739 2.8792217,5.3608044 2.8398122,5.3349819 l -0.039215,-0.025696 0.00986,0.055412 c 0.00544,0.030477 0.013644,0.1010892 0.01836,0.1569161 0.010764,0.1280937 -0.011196,0.1446459 -0.093403,0.070395 -0.054332,-0.049087 -0.05462,-0.049932 -0.071378,-0.2107758 -0.00925,-0.08882 -0.01836,-0.2387763 -0.020232,-0.3332357 l -0.0036,-0.1717439 0.038574,-0.00446 c 0.034632,-0.004 0.040184,0.0018 0.054443,0.057248 0.037714,0.1466054 0.059653,0.2147508 0.098281,0.305299 l 0.041094,0.09633 0.1050849,0.0018 0.1050886,0.0018 0.048154,0.114496 c 0.026496,0.062973 0.061449,0.1531392 0.077703,0.2003684 0.016236,0.04723 0.051574,0.1299695 0.078506,0.1838663 C 3.3800427,6.018948 3.2707887,5.8816563 3.1636155,5.6777592 3.0983285,5.5535739 3.0624006,5.505484 3.0624222,5.542306 c 2.16e-5,0.040356 0.0867,0.2036234 0.1958922,0.3689791 0.08688,0.1315751 0.2048347,0.3603766 0.2048347,0.3973364 0,0.00703 -0.025344,0.00543 -0.060808,-0.00384 z M 2.7494476,6.2341087 c -0.00943,-0.020729 -0.013896,-0.040971 -0.00986,-0.044982 0.004,-0.00401 0.014076,0.010595 0.022392,0.032458 0.00832,0.021859 0.01278,0.042104 0.00986,0.044981 -0.00288,0.00288 -0.01296,-0.011729 -0.022428,-0.032458 z m 0.3459848,-0.023256 c -0.035316,-0.038757 -0.066442,-0.096467 -0.057093,-0.1058121 0.00374,-0.00372 0.01944,0.011329 0.03492,0.033426 0.032832,0.046866 0.064117,0.1045863 0.056679,0.1045863 -0.00288,0 -0.01836,-0.01449 -0.034488,-0.032202 z m 2.328577,-0.1252304 c -0.043294,-0.038857 -0.071889,-0.070854 -0.063551,-0.071105 0.00835,-2.689e-4 0.050203,0.031454 0.093028,0.070455 0.042826,0.039 0.071421,0.070998 0.063551,0.071104 -0.00788,1.08e-4 -0.049734,-0.031598 -0.093028,-0.070455 z M 3.118685,5.9833408 C 3.059958,5.866609 3.028807,5.7850693 3.042937,5.7850693 c 0.012024,0 0.1518854,0.3018354 0.1436666,0.3100572 -0.00428,0.00427 -0.034848,-0.04603 -0.067919,-0.1117857 z m 6.1767244,0.022799 C 9.2324374,5.9711298 9.10041,5.9109958 9.0020139,5.8725094 8.8369164,5.8079324 8.3044751,5.6256649 8.0860467,5.5589514 8.0348757,5.5433234 7.8581862,5.4895994 7.6933911,5.4395631 7.528596,5.3895271 7.4062272,5.3466831 7.4214626,5.3443551 c 0.015228,-0.00231 0.055297,-0.014226 0.089029,-0.026441 0.060164,-0.021782 0.065063,-0.021085 0.2576184,0.036652 0.1079542,0.032372 0.4035745,0.1270872 0.6569304,0.2104782 0.5995027,0.1973228 0.737222,0.2632614 0.9634013,0.4612517 0.069268,0.060639 0.041462,0.054614 -0.093032,-0.020156 z M 2.5206223,5.7886477 C 2.4953863,5.7259207 2.4473183,5.510389 2.4472073,5.459471 2.4470129,5.364735 2.4829913,5.41346 2.5235463,5.5628086 c 0.054253,0.1998375 0.062763,0.2651972 0.034524,0.2651972 -0.01188,0 -0.028728,-0.017708 -0.037448,-0.039358 z M 2.656628,5.7457117 C 2.62934,5.6925717 2.56721,5.4917031 2.5548118,5.4165352 c -0.00889,-0.053766 -0.00688,-0.060826 0.017172,-0.060826 0.029124,0 0.066543,0.090208 0.110719,0.2668387 0.036414,0.1455885 0.021492,0.2159011 -0.0261,0.1231639 z m 0.8300776,-0.033207 c -0.069441,-0.054622 -0.1987002,-0.356797 -0.152627,-0.356797 0.047492,0 0.2150588,0.2691715 0.2150588,0.3454648 0,0.039133 -0.021996,0.043128 -0.062432,0.011329 z m 0.235795,-0.097501 C 3.6889126,5.5490187 3.6393726,5.461852 3.6124476,5.4212996 3.5707956,5.3585706 3.504371,5.2059906 3.4281223,4.9979073 c -0.01008,-0.027551 -0.022212,-0.075854 -0.026928,-0.1073404 -0.00763,-0.050792 -0.00464,-0.059089 0.02628,-0.073571 0.029916,-0.014009 0.036094,-0.012438 0.043557,0.011075 0.00479,0.01507 0.04288,0.052651 0.084658,0.083515 0.1044514,0.07716 0.238531,0.2471154 0.3001168,0.3804149 0.02826,0.061149 0.048068,0.1144778 0.044039,0.1185092 C 3.8879651,5.422415 3.8238661,5.355417 3.776364,5.2813951 3.749112,5.2389171 3.721834,5.2125871 3.70508,5.2125871 c -0.034956,0 -0.034452,0.025835 0.00288,0.1503216 0.050005,0.1664622 0.086343,0.3230774 0.080806,0.3482751 -0.00288,0.013993 -0.030384,-0.025621 -0.066327,-0.096181 z M 9.0234809,5.5861927 C 8.6321537,5.3965512 8.5205923,5.3459584 8.2844265,5.2510353 8.139896,5.1929423 7.9921038,5.134634 7.9559955,5.121461 7.8581715,5.085768 7.8356896,5.065978 7.8550002,5.032554 c 0.04958,-0.085823 0.04837,-0.085547 0.1624623,-0.03706 0.057399,0.024395 0.2009718,0.08402 0.3190457,0.1325048 0.495163,0.203328 0.8229388,0.3999214 0.8229388,0.4935797 0,0.028754 -0.00778,0.026723 -0.1359661,-0.035386 z M 9.0735759,5.4653603 C 9.0538839,5.4549223 9.0049019,5.4259923 8.9646965,5.4010713 8.9244915,5.3761513 8.8343285,5.3293473 8.7643294,5.2970617 8.6943304,5.2647767 8.5855374,5.2141907 8.5225656,5.1846483 8.4595936,5.1551063 8.2970271,5.0867103 8.1613095,5.0326564 l -0.2467571,-0.098279 0.03766,-0.03003 c 0.03024,-0.024106 0.036346,-0.039014 0.030996,-0.075575 -0.00371,-0.02505 -0.00598,-0.045545 -0.00504,-0.045545 0.00108,0 0.05292,0.021496 0.1155935,0.047768 0.5233692,0.2193861 0.8011333,0.3526069 0.9189228,0.4407321 0.076062,0.05691 0.1409953,0.1556205 0.1267644,0.1927081 -0.00954,0.02486 -0.020448,0.025013 -0.065852,9.252e-4 z M 2.3265198,5.2668161 c -0.00544,-0.025889 -0.019044,-0.097923 -0.03024,-0.1600738 -0.01836,-0.101799 -0.035244,-0.1552223 -0.035244,-0.1112207 0,0.00918 -0.00644,0.016698 -0.014292,0.016698 -0.019152,0 -0.018468,-0.2341185 0.00108,-0.3077086 0.041854,-0.1590077 0.1341229,-0.4323426 0.1533902,-0.4544067 0.058591,-0.067095 0.076385,-0.0056 0.038312,0.1323861 -0.03582,0.1298489 -0.082725,0.4872295 -0.076994,0.5867931 0.010692,0.1853373 0.0063,0.3337572 -0.00997,0.3392312 -0.00875,0.00296 -0.020448,-0.015805 -0.025884,-0.041698 z M 2.4906922,5.0555595 c -0.02862,-0.01768 -0.044738,-0.2327908 -0.028404,-0.3787356 0.014904,-0.1332927 0.028656,-0.1655259 0.070553,-0.1655259 0.020952,0 0.02628,0.017969 0.032976,0.1109181 0.00983,0.1362305 -0.017136,0.4293411 -0.040309,0.4382297 -0.00914,0.0035 -0.024804,0.00131 -0.034812,-0.00489 z M 3.5431402,4.8368966 C 3.5285962,4.8113126 3.4857412,4.7581806 3.4479372,4.7188223 3.3455414,4.6122173 3.3058223,4.5226298 3.3058223,4.3983013 c 0,-0.066577 0.00562,-0.1016836 0.016344,-0.1016836 0.00896,0 0.079161,0.061742 0.1559678,0.1372038 0.1274808,0.1252487 0.1430546,0.146539 0.1787273,0.2443379 0.043913,0.1204073 0.035604,0.1533213 -0.026388,0.1045547 l -0.038081,-0.029958 0.00896,0.065327 c 0.011052,0.080491 -0.017784,0.089805 -0.058169,0.018812 z M 2.1757469,4.5316947 c -7.2e-4,-0.1020197 0.00709,-0.1524448 0.035208,-0.235077 0.045854,-0.1348111 0.045015,-0.1456865 -0.00659,-0.085332 -0.062759,0.07342 -0.052564,0.025848 0.02772,-0.1293489 0.068465,-0.1323534 0.069027,-0.134444 0.02124,-0.078716 -0.027,0.031486 -0.048892,0.050808 -0.048633,0.042936 0.00108,-0.032217 0.081955,-0.166871 0.1418845,-0.2361173 0.035244,-0.040709 0.072314,-0.094403 0.082401,-0.1193184 0.015696,-0.038756 0.00684,-0.032895 -0.061359,0.040571 -0.043834,0.04723 -0.077624,0.079432 -0.075089,0.07156 0.016344,-0.050828 0.1381297,-0.2730258 0.1724488,-0.3146617 0.044432,-0.053904 0.074593,-0.066084 0.062525,-0.025249 -0.00407,0.013774 -0.011916,0.073349 -0.01746,0.1323861 -0.00943,0.1005944 -0.00853,0.1060525 0.01458,0.086852 0.013536,-0.011268 0.033372,-0.04025 0.043974,-0.064404 0.031896,-0.072656 0.026028,0.00171 -0.00702,0.088624 -0.015732,0.04141 -0.02862,0.085154 -0.02862,0.097208 0,0.012054 -0.019512,0.049018 -0.043359,0.082141 -0.023868,0.033124 -0.069077,0.095647 -0.1005129,0.1389406 -0.05791,0.079755 -0.067475,0.1248837 -0.024948,0.1177163 0.019044,-0.00321 0.014724,0.016548 -0.02358,0.1073402 -0.025812,0.061202 -0.063598,0.1609741 -0.083989,0.2217167 -0.020376,0.060742 -0.0468,0.1283667 -0.05868,0.1502761 -0.020628,0.038035 -0.021636,0.033963 -0.022176,-0.090044 z M 2.4323212,3.9256371 c 0.0095,-0.022993 0.014688,-0.053584 0.011448,-0.067982 -0.00432,-0.019406 -0.01206,-0.011848 -0.02988,0.02924 -0.027108,0.062475 -0.0297,0.080546 -0.011484,0.080546 0.00691,0 0.02034,-0.018812 0.02988,-0.041804 z m 0.069081,-0.4110824 c -0.00418,-0.019675 -0.00778,-0.016077 -0.01386,0.013878 -0.00533,0.026118 -0.00324,0.035528 0.00562,0.026567 0.00763,-0.00763 0.01134,-0.025832 0.00824,-0.040443 z m 0.035244,0.7522712 c -0.01062,-0.084032 -0.011664,-0.1425403 -0.00288,-0.1655199 0.00742,-0.01955 0.013536,-0.057666 0.013536,-0.084704 0,-0.04669 -0.01386,-0.058272 -0.060826,-0.050855 -0.026208,0.00414 0.015444,-0.06767 0.079082,-0.1363634 0.022932,-0.024768 0.056708,-0.07629 0.07501,-0.114496 0.043802,-0.091419 0.047754,-0.036041 0.00436,0.061101 -0.035388,0.079253 -0.041804,0.2482817 -0.0108,0.2856194 0.023976,0.028909 0.032904,0.016115 0.070615,-0.1013219 0.017676,-0.055102 0.037808,-0.1063028 0.044709,-0.1137808 0.025308,-0.027457 0.013428,0.203435 -0.014112,0.274261 -0.014688,0.037682 -0.03474,0.1027717 -0.044601,0.1446449 -0.019404,0.082335 -0.059526,0.1313916 -0.1074502,0.1313916 -0.027288,0 -0.031752,-0.012482 -0.046595,-0.129976 z M 3.0377744,4.1534974 c 0,-0.035422 0.00288,-0.049913 0.00619,-0.032202 0.00324,0.01771 0.00324,0.046693 0,0.064404 -0.00324,0.01771 -0.00619,0.00322 -0.00619,-0.032202 z M 2.404147,4.0693144 c 0,-0.00787 0.00644,-0.018293 0.014292,-0.023156 0.00788,-0.00486 0.014292,-0.00239 0.014292,0.00547 0,0.00787 -0.00644,0.018293 -0.014292,0.023156 -0.00788,0.00486 -0.014292,0.00239 -0.014292,-0.00547 z M 2.389891,3.4651603 c 4.32e-5,-0.011061 0.015948,-0.04587 0.035352,-0.077356 0.036288,-0.058919 0.047117,-0.1014939 0.021852,-0.085872 -0.00788,0.00486 -0.014292,0.00204 -0.014292,-0.00631 0,-0.00834 0.00644,-0.015157 0.014292,-0.015157 0.00788,0 0.014292,-0.00966 0.014292,-0.021466 0,-0.011807 0.00493,-0.021469 0.010908,-0.021469 0.016308,0 0.010584,0.1315927 -0.00716,0.1647483 -0.023796,0.044459 -0.075327,0.087524 -0.075233,0.062884 z"
       id="path365" />
  </g>
</svg>
