<?xml version="1.0" encoding="UTF-8" standalone="no"?>
<!-- Created with Inkscape (http://www.inkscape.org/) -->

<svg
   width="48"
   height="48"
   viewBox="0 0 12.7 12.7"
   version="1.1"
   id="svg1"
   xmlns="http://www.w3.org/2000/svg"
   xmlns:svg="http://www.w3.org/2000/svg">
  <defs
     id="defs1">
    <clipPath
       clipPathUnits="userSpaceOnUse"
       id="clipPath4631">
      <ellipse
         style="opacity:0.072;fill:#000000;fill-opacity:1;stroke:#000000;stroke-width:4.26227;stroke-linejoin:round;stroke-miterlimit:4;stroke-dasharray:none;stroke-dashoffset:0;stroke-opacity:1"
         id="ellipse4633"
         cx="60.685066"
         cy="61.588734"
         rx="58.861824"
         ry="58.212814" />
    </clipPath>
  </defs>
  <g
     id="layer1">
    <g
       id="g3">
      <g
         transform="matrix(0.03089884,0.07050436,-0.09343939,0.03226348,-1.0647137,-4.9976622)"
         id="g4">
        <path
           class="cls-1"
           d="m 99.581371,-51.562661 c -2.903499,-13.900568 13.412979,-9.481889 8.522319,-23.813046 l 16.23376,5.368231 c 4.98132,13.780661 -11.92277,10.83831 -8.57324,23.796208 z m -6.87311,3.871758 0.782195,-1.709307 a 1.6009051,1.7876688 64.26547 0 1 2.313317,-1.018933 l 23.707657,7.839727 a 1.5754939,1.7592931 64.26546 0 1 0.34378,0.11368 l 30.40012,-23.218537 14.46396,4.78299 8.25525,-18.039944 a 9.9993041,11.165836 64.265478 0 1 14.42212,-6.40152 l 86.88565,28.731627 a 2.2870072,2.5538124 64.265463 0 1 1.27892,2.971357 L 223.56495,59.98604 a 2.2997129,2.5680003 64.265476 0 1 -3.30474,1.455621 L 133.37456,32.710033 a 9.9357759,11.094897 64.265484 0 1 -5.76657,-5.177405 v 0 a 9.9738925,11.13746 64.26547 0 1 0.20744,-7.789103 L 136.0763,1.6912884 121.61234,-3.0917022 117.6718,-37.694437 a 1.4230268,1.5890389 64.265473 0 1 -0.34378,-0.11368 l -23.70766,-7.839727 a 1.6136106,1.8018565 64.265471 0 1 -0.91212,-2.043058 z m 37.226009,13.952349 a 1.791489,2.0004864 64.265468 0 1 1.58127,-3.455503 l 6.90094,2.282026 2.25094,-4.918866 a 1.7982465,2.0080323 64.265471 0 1 3.63701,1.117753 l -3.07813,6.72655 a 1.791489,2.0004864 64.265468 0 1 -2.58309,1.127939 z m -4.43534,-4.114244 a 12.133844,13.549394 64.265491 1 1 6.78681,15.79351 12.121138,13.535205 64.265458 0 1 -6.78681,-15.79351 z m 112.62856,54.163209 0.11459,0.03789 13.438,-29.365632 -38.54087,-12.744818 a 17.025499,19.011716 64.265468 0 0 -13.70465,0.380933 14.929075,16.67072 64.265467 0 0 -9.52702,20.8191007 17.025499,19.011716 64.265468 0 0 9.79368,8.165592 l 38.439,12.7111363 z m -1.91687,4.477171 -38.54086,-12.7448193 a 21.599514,24.11934 64.265462 0 1 -12.3871,-10.4106794 19.464974,21.735783 64.265478 0 1 12.47573,-27.2628153 21.599514,24.11934 64.265462 0 1 17.40665,-0.558391 l 38.5536,12.749029 16.22913,-35.465025 -84.59383,-27.973759 a 5.4507007,6.0865865 64.265479 0 0 -7.82121,3.444969 l -45.15909,98.68475 a 5.374467,6.0014593 64.265475 0 0 -0.0966,4.215447 v 0 a 5.3490559,5.9730836 64.265469 0 0 3.12192,2.787961 l 84.58109,27.969548 z m -30.96511,23.428123 4.28237,-9.358141 7.53757,2.492545 -4.28239,9.35814 z m -15.58443,-5.153505 4.28239,-9.358142 7.53756,2.492544 -4.28239,9.358143 z m -15.55895,-5.145083 4.28239,-9.358141 7.53756,2.492543 -4.28238,9.358142 z m 37.81053,-4.174841 4.288,-9.370438 7.53755,2.492544 -4.28799,9.370438 z m -15.58442,-5.153506 4.288,-9.370439 7.53756,2.492546 -4.288,9.370437 -7.57575,-2.505176 z m -15.59714,-5.157714 4.28799,-9.370439 7.53757,2.492545 -4.288,9.370438 z m 57.89436,-48.063422 4.288,-9.370439 7.53756,2.492545 -4.28801,9.370438 z m -15.58442,-5.153505 4.288,-9.37044 7.53757,2.492543 -4.28801,9.37044 -7.57576,-2.505175 z m -15.59715,-5.157715 4.28801,-9.370439 7.53756,2.492545 -4.28801,9.370439 z m 37.77797,-4.199769 4.28801,-9.370439 7.53755,2.492544 -4.28801,9.370439 z m -15.58442,-5.153506 4.288,-9.370439 7.53756,2.492545 -4.28801,9.370438 z m -15.55895,-5.145083 4.288,-9.370439 7.53757,2.492544 -4.28801,9.370439 z M 153.97694,9.6636328 c -1.26045,2.1457902 -2.13058,3.7269122 -2.59202,4.7352792 a 9.3259073,10.413879 64.265461 0 0 -0.7212,1.800267 0.33034551,0.36888403 64.265471 0 0 0.24395,0.363834 0.44469585,0.49657464 64.265473 0 0 0.53686,-0.148102 11.714559,13.081195 64.265501 0 0 1.31816,-1.631183 c 0.685,-0.920283 1.29121,-1.668406 1.80027,-2.236282 a 6.3527979,7.0939235 64.265472 0 1 1.72291,-1.426543 2.8587591,3.1922656 64.265453 0 1 1.94402,-0.532259 8.7668613,9.7896142 64.265453 0 1 2.45531,0.528765 5.2347056,5.845393 64.265473 0 1 3.62707,2.99748 7.7122969,8.6120233 64.265465 0 1 -0.88766,5.143148 27.469498,30.674125 64.265479 0 1 -1.63571,3.126024 c -0.65925,1.056218 -1.19321,1.870705 -1.62174,2.422743 l -0.6385,0.850706 -4.23482,-1.669386 a 45.4098,50.707366 64.265465 0 0 3.25837,-5.77499 c 0.37702,-0.82391 0.37174,-1.292872 0.003,-1.414977 -0.16552,-0.05474 -0.32513,0.0057 -0.48594,0.164945 a 10.24071,11.435404 64.265469 0 0 -1.00898,1.436097 9.3767298,10.470631 64.265478 0 1 -3.74175,3.916186 4.8789488,5.4481333 64.265482 0 1 -4.30604,-0.0081 c -2.21543,-0.732606 -3.49424,-1.750124 -3.84205,-3.04025 a 8.055348,8.9950949 64.265452 0 1 0.89891,-5.167744 38.5996,43.102679 64.265467 0 1 2.8781,-5.1362068 l 0.63407,-0.9371289 4.3506,1.6085677 z M 171.983,-1.0460515 a 21.777391,24.317969 64.265459 0 1 -1.71559,5.3507346 9.0336785,10.087559 64.265469 0 1 -2.62807,3.7889334 4.4088418,4.9231829 64.265478 0 1 -3.48621,1.2115519 16.21234,18.103693 64.265478 0 1 -5.50727,-1.0990998 q -4.88922,-1.6167866 -6.0332,-3.6657248 c -0.75228,-1.3672528 -0.50099,-3.4220129 0.74828,-6.151983 a 21.853625,24.403097 64.265491 0 1 2.32958,-3.8734743 l 0.55527,-0.7649676 4.33077,1.5878501 a 30.49343,34.050833 64.265479 0 0 -1.88509,3.5107758 c -0.50646,1.10674415 -0.61075,1.87925982 -0.32417,2.3421392 a 4.9932992,5.575824 64.26548 0 0 2.47269,1.355683 11.562093,12.910941 64.265458 0 0 2.91515,0.7091444 1.5627883,1.7451052 64.265464 0 0 1.37606,-0.3802819 3.8879124,4.3414813 64.265488 0 0 0.99183,-1.5267217 l 1.54814,-3.7354655 4.31626,1.42732017 z m 5.31536,-10.8146235 -5.7423,-1.898881 -1.41808,3.098885 5.7423,1.8988824 -2.51541,5.4968335 -16.41201,-5.42718 2.5154,-5.4968319 6.06061,2.004139 1.41808,-3.098885 -6.0606,-2.004141 2.52103,-5.509129 16.41202,5.427179 z m -2.08572,-16.136111 a 8.1569927,9.108598 64.265479 0 0 3.21452,0.567459 2.0201897,2.2558676 64.265445 0 0 1.49124,-3.258748 8.4873377,9.4774812 64.265464 0 0 -2.85585,-1.383284 8.4619268,9.4491064 64.265484 0 0 -3.19913,-0.633154 1.6390218,1.8302322 64.265476 0 0 -1.63407,1.328499 1.664433,1.858608 64.26549 0 0 0.16267,1.950968 8.1315815,9.0802224 64.265479 0 0 2.82476,1.387158 z m 4.38368,-9.579492 c 3.00483,0.993651 4.89359,2.311975 5.69174,3.963398 0.79815,1.651422 0.60074,3.780633 -0.6035,6.412227 -1.20424,2.631591 -2.75692,4.3268 -4.67639,5.093708 -1.91945,0.766909 -4.35407,0.641409 -7.33344,-0.343819 -2.97938,-0.985228 -4.81721,-2.286712 -5.68465,-3.946891 -0.86745,-1.660177 -0.59511,-3.792929 0.61475,-6.43682 1.20988,-2.643891 2.75692,-4.326801 4.65803,-5.085624 1.9011,-0.758821 4.34135,-0.645619 7.33346,0.343821 z m 3.46642,-7.575053 a 8.1569927,9.108598 64.265479 0 0 3.19763,0.604351 2.0201897,2.2558676 64.265445 0 0 1.49124,-3.258752 8.4873377,9.4774812 64.265464 0 0 -2.85586,-1.383279 8.4619268,9.4491064 64.265484 0 0 -3.19912,-0.633155 1.6390218,1.8302322 64.265476 0 0 -1.63407,1.328499 1.664433,1.858608 64.26549 0 0 0.16267,1.950967 8.1315815,9.0802224 64.265479 0 0 2.82477,1.387158 z m 4.38365,-9.579492 c 3.00484,0.99365 4.89361,2.311977 5.69177,3.963397 0.79815,1.651423 0.60073,3.780632 -0.6035,6.412227 -1.20426,2.631593 -2.75692,4.326799 -4.6764,5.093709 -1.91947,0.766909 -4.35406,0.641408 -7.33345,-0.34382 -2.97937,-0.985229 -4.81721,-2.286713 -5.68465,-3.946888 -0.86743,-1.660179 -0.5951,-3.792933 0.61476,-6.436822 1.20987,-2.643893 2.75692,-4.326801 4.65803,-5.085624 1.90111,-0.758822 4.34134,-0.645618 7.33344,0.343821 z m 14.19568,-10.327387 -4.89013,10.686237 -16.41201,-5.427179 2.5154,-5.496834 11.8029,3.903021 2.37473,-5.189404 4.63458,1.532579 z"
           id="path8"
           style="stroke-width:1.34263" />
      </g>
    </g>
  </g>
</svg>
