<?xml version="1.0" encoding="UTF-8" standalone="no"?>
<svg
   xmlns:dc="http://purl.org/dc/elements/1.1/"
   xmlns:cc="http://creativecommons.org/ns#"
   xmlns:rdf="http://www.w3.org/1999/02/22-rdf-syntax-ns#"
   xmlns:svg="http://www.w3.org/2000/svg"
   xmlns="http://www.w3.org/2000/svg"
   xmlns:sodipodi="http://sodipodi.sourceforge.net/DTD/sodipodi-0.dtd"
   xmlns:inkscape="http://www.inkscape.org/namespaces/inkscape"
   shape-rendering="geometricPrecision"
   text-rendering="geometricPrecision"
   image-rendering="optimizeQuality"
   fill-rule="evenodd"
   clip-rule="evenodd"
   viewBox="0 0 476 511.89"
   version="1.1"
   id="svg4"
   sodipodi:docname="tolerant-foottraffic-None.svg"
   inkscape:version="0.92.1 r15371">
  <metadata
     id="metadata10">
    <rdf:RDF>
      <cc:Work
         rdf:about="">
        <dc:format>image/svg+xml</dc:format>
        <dc:type
           rdf:resource="http://purl.org/dc/dcmitype/StillImage" />
      </cc:Work>
    </rdf:RDF>
  </metadata>
  <defs
     id="defs8" />
  <sodipodi:namedview
     pagecolor="#ffffff"
     bordercolor="#666666"
     borderopacity="1"
     objecttolerance="10"
     gridtolerance="10"
     guidetolerance="10"
     inkscape:pageopacity="0"
     inkscape:pageshadow="2"
     inkscape:window-width="1366"
     inkscape:window-height="705"
     id="namedview6"
     showgrid="false"
     inkscape:zoom="0.46103654"
     inkscape:cx="200.04205"
     inkscape:cy="255.94501"
     inkscape:window-x="-8"
     inkscape:window-y="-8"
     inkscape:window-maximized="1"
     inkscape:current-layer="svg4" />
  <path
     d="m 153.75989,114.78854 c 0.26409,4.89678 1.07964,9.32442 2.33793,13.20226 1.29712,3.9878 3.05251,7.38183 5.12635,10.10878 l 3.65835,4.80882 c -3.49524,1.06292 -6.99048,2.09653 -10.46241,3.24009 l -8.17886,3.13746 0.81555,-7.17658 c 0.14758,-1.32682 0.19418,-2.75627 0.12428,-4.22237 -0.20971,-4.55958 -1.47577,-9.62497 -4.05448,-13.64942 -2.29909,-3.58463 -5.70888,-6.28959 -10.38474,-6.76607 -0.76895,-0.0806 -1.5612,-0.10263 -2.36899,-0.0733 -3.89137,0.16127 -6.97494,1.16555 -9.27403,2.74161 -2.4855,1.69335 -4.15545,4.11975 -5.07198,6.89069 -1.18061,3.59195 -1.14954,7.785 -0.0155,11.86077 1.11847,4.06111 3.32436,7.98293 6.47784,11.0984 0.65244,0.64509 1.32819,1.23886 2.02723,1.76666 0.65245,0.48381 1.33596,0.92364 2.05054,1.27551 l 6.56328,3.26208 -6.04287,4.06843 -3.15349,2.19183 -10.72649,8.0709 0.19418,-9.6323 c -0.0155,-2.93221 -1.60004,-6.21628 -4.03118,-8.8406 -2.36899,-2.55102 -5.43703,-4.38365 -8.47401,-4.49361 l -0.31068,-0.007 c -2.982607,0.0147 -5.444807,1.11424 -7.192427,2.7636 -1.99617,1.86929 -3.11464,4.45696 -3.11464,6.98599 0,2.27246 1.28935,5.02873 3.21562,7.71903 2.4389,3.40869 5.80986,6.55348 8.978867,8.5767 l 4.45061,2.83691 a 1498.0511,1413.8293 0 0 0 -13.048887,13.3049 l -1.95733,-7.9976 c -0.52817,-2.1625 -2.65638,-4.86013 -5.21179,-7.08128 -2.43113,-2.11119 -4.98654,-3.6506 -6.52444,-3.6506 -1.468,0 -3.16125,0.94564 -4.52828,2.44839 -1.38256,1.53208 -2.33016,3.59929 -2.33016,5.86442 l -0.0155,0.16127 c 0.0621,2.29446 1.5379,4.88213 3.68942,6.95666 2.0816,2.0159 4.70692,3.41603 7.14581,3.41603 l 9.72453,-0.0953 c -4.81566,5.82776 -9.57695,11.63353 -14.3227,17.50527 l -1.23499,3.8192 c -1.68548,5.23399 -2.84279,10.35802 -3.53407,15.35743 -0.67575,4.98475 -0.8777,9.87421 -0.64468,14.66836 0.66798,13.44417 6.14385,27.11558 11.85274,41.35878 4.93994,12.34459 10.05852,25.12168 12.63723,38.94703 1.24275,6.66344 2.299087,13.73739 3.169007,21.17786 0.86993,7.41115 1.55344,15.23281 2.05054,23.43566 0.25632,4.1784 0.38059,8.5987 0.48933,12.98968 0.58254,21.7643 1.14955,42.85419 22.02,57.21467 11.45662,7.89497 25.72495,9.98417 38.6418,7.18391 5.32053,-1.15089 10.40027,-3.1228 14.92855,-5.84242 4.52827,-2.71962 8.55168,-6.19429 11.75176,-10.33603 7.16136,-9.25844 10.38474,-22.04286 6.57882,-37.70817 l -0.0233,-0.0367 c -2.74959,-11.80946 -7.08369,-23.3257 -11.41778,-34.83461 -8.94004,-23.77286 -17.87232,-47.55306 -13.89551,-74.66131 0.37282,-5.77644 1.36702,-11.7948 2.80395,-17.8498 1.59228,-6.71476 3.69719,-13.39286 6.12055,-19.82172 2.64862,-7.00797 5.69336,-13.81802 8.85461,-20.11494 3.503,-6.96399 7.20795,-13.34887 10.70319,-18.70747 2.20588,-3.37204 4.12438,-7.12527 5.67782,-11.06908 3.58068,-9.07518 5.20402,-19.11067 3.9535,-27.96593 -1.17284,-8.3348 -4.91663,-15.57002 -12.03915,-19.71176 -1.34372,-0.78436 -2.82726,-1.4661 -4.44283,-2.03788 l -5.92637,-2.08187 4.46613,-5.25598 c 4.69916,-5.71047 6.64095,-13.17293 6.15162,-20.59142 -0.5204,-7.69704 -3.65835,-15.291454 -9.07985,-20.796672 -3.9535,-4.009792 -7.91477,-6.230938 -11.66633,-7.029965 -3.75932,-0.799026 -7.44874,-0.175932 -10.73426,1.458773 -3.50301,1.737332 -6.60212,4.625555 -9.00218,8.210178 -3.4098,5.087376 -5.3516,11.516246 -4.99431,18.055066 z m 163.47616,161.07343 c -0.33399,-2.36042 1.4214,-4.53758 3.92243,-4.8528 2.50104,-0.31521 4.8079,1.34149 5.14189,3.70191 1.52237,10.56328 1.44469,20.95062 0,31.16203 -1.4447,10.20408 -4.25643,20.21023 -8.17886,30.05511 -0.88546,2.22848 -3.52631,3.35005 -5.88753,2.51437 -2.36123,-0.83568 -3.55738,-3.32805 -2.67192,-5.55653 3.68942,-9.26577 6.33026,-18.6415 7.67399,-28.12719 1.34372,-9.47103 1.41363,-19.10333 0,-28.8969 z m 0.4971,-147.87117 c 1.25828,-3.87784 2.07384,-8.30548 2.33792,-13.20226 0.3573,-6.53882 -1.5845,-12.96768 -4.9943,-18.055062 -2.3923,-3.584623 -5.49918,-6.472846 -9.00218,-8.210178 -3.28552,-1.634705 -6.97494,-2.257799 -10.73426,-1.458773 -3.75156,0.799027 -7.71283,3.020173 -11.66633,7.029965 -5.4215,5.505218 -8.55945,13.099628 -9.07985,20.796678 -0.48934,7.41848 1.45246,14.88094 6.15162,20.59142 l 4.4739,5.25598 -5.93414,2.08186 c -1.61557,0.57178 -3.09911,1.25352 -4.44283,2.03789 -7.12252,4.14174 -10.86631,11.37696 -12.03915,19.71176 -1.25052,8.85526 0.37282,18.89074 3.9535,27.96592 1.55344,3.94381 3.47193,7.69704 5.67782,11.06908 3.49524,5.3586 7.20019,11.74348 10.70319,18.70747 3.16125,6.29692 6.20599,13.10697 8.8546,20.11494 2.42337,6.42886 4.52828,13.10696 6.12055,19.82172 1.43694,6.055 2.43114,12.07336 2.80396,17.8498 3.98457,27.10825 -4.95547,50.88845 -13.89551,74.66131 -4.32633,11.50891 -8.66819,23.02515 -11.41778,34.83461 l -0.0233,0.0367 c -3.80592,15.66531 -0.58254,28.44973 6.57882,37.70817 3.20008,4.14174 7.22349,7.61641 11.75176,10.33603 4.52828,2.71962 9.60802,4.69153 14.92855,5.84242 12.91685,2.80026 27.18518,0.71106 38.6418,-7.18391 20.87045,-14.36048 21.43745,-35.45037 22.01999,-57.21467 0.10874,-4.39098 0.23302,-8.81128 0.48934,-12.98968 0.4971,-8.20285 1.18061,-16.02451 2.05054,-23.43566 0.86992,-7.44047 1.92626,-14.51442 3.16901,-21.17786 2.57871,-13.82535 7.69729,-26.60244 12.645,-38.94703 5.70112,-14.2432 11.17699,-27.91461 11.84497,-41.35878 0.23301,-4.79415 0.0311,-9.68361 -0.64468,-14.66836 -0.68351,-4.99941 -1.85636,-10.12344 -3.53407,-15.35743 l -1.23499,-3.83386 A 2506.8777,2365.9388 0 0 0 379.97168,189.8604 l 9.71676,0.11729 c 2.4389,-0.022 5.06422,-1.42212 7.14582,-3.43802 2.15152,-2.07453 3.62728,-4.6622 3.68942,-6.95666 v -0.16127 c -0.0155,-2.26513 -0.96313,-4.33233 -2.34569,-5.86441 -1.36703,-1.50276 -3.06028,-2.44839 -4.52828,-2.44839 -1.5379,0 -4.09331,1.5394 -6.52444,3.65059 -2.55541,2.22115 -4.68362,4.91878 -5.21179,7.08128 l -1.95733,7.9976 c -4.32633,-4.45696 -8.65266,-8.89925 -13.02559,-13.31222 l 4.4273,-2.82958 c 3.17679,-2.02322 6.53998,-5.16802 8.97888,-8.57671 1.92627,-2.6903 3.21562,-5.44657 3.21562,-7.71903 0,-2.52903 -1.11848,-5.1167 -3.10688,-7.00064 -1.75538,-1.63471 -4.21758,-2.73429 -7.20019,-2.73429 l -0.31069,-0.0147 c -3.03697,0.11729 -6.10501,1.94992 -8.47401,4.50094 -2.43113,2.62433 -4.01564,5.9084 -4.01564,8.8406 l 0.17865,9.6323 -10.7265,-8.0709 -9.18859,-6.26026 6.55551,-3.26208 c 0.74566,-0.37385 1.42917,-0.80635 2.05831,-1.26818 0.68351,-0.52779 1.36703,-1.1289 2.01947,-1.77398 3.15348,-3.11547 5.35937,-7.0373 6.47784,-11.0984 1.13401,-4.07577 1.16508,-8.26882 -0.0155,-11.86078 -0.91653,-2.77093 -2.58648,-5.19733 -5.06421,-6.89068 -2.30686,-1.57606 -5.39044,-2.58034 -9.2818,-2.74162 -0.80779,-0.0293 -1.60004,-0.007 -2.369,0.0733 -4.67585,0.47649 -8.08565,3.18145 -10.38474,6.76607 -2.5787,4.02445 -3.84476,9.08984 -4.05447,13.64942 -0.0699,1.46611 -0.0233,2.89556 0.12427,4.22238 l 0.82333,7.17657 -8.20993,-3.15212 c -3.46417,-1.12157 -6.94387,-2.1625 -10.43134,-3.22542 l 3.65058,-4.80882 c 2.07384,-2.72695 3.82923,-6.12098 5.12635,-10.10878 z m 11.51875,-15.07154 c 2.99037,-2.14051 6.59435,-3.59929 10.87407,-4.03179 1.16508,-0.11728 2.4156,-0.16127 3.72049,-0.10262 5.83316,0.23457 10.57115,1.83996 14.26057,4.36165 4.17098,2.84424 6.95164,6.81738 8.43517,11.31832 1.60005,4.86746 1.67772,10.38001 0.35729,15.7093 1.81753,-0.65975 3.72826,-1.06293 5.67782,-1.13623 l 0.66798,-0.0293 c 5.63122,0 10.30707,2.11119 13.67027,5.2853 3.71271,3.52598 5.80986,8.36412 5.80986,13.10696 0,1.70801 -0.33399,3.46734 -0.9243,5.21933 0.63691,-0.10996 1.25829,-0.1686 1.84859,-0.1686 4.13992,0 8.41188,2.11852 11.47215,5.49789 2.71075,2.99085 4.55158,7.03729 4.55158,11.47225 l -0.0233,0.36653 c -0.0544,2.0892 -0.62138,4.21505 -1.56121,6.2456 1.89519,0.0586 3.63505,0.43983 5.18072,1.07759 2.60978,1.05559 4.64478,2.81491 6.08171,4.93343 1.3748,2.02322 2.17482,4.39098 2.37676,6.81738 0.32623,4.01713 -1.00973,8.27616 -4.15545,11.42828 -2.07384,2.07453 -4.91663,3.64326 -8.52061,4.29568 -0.9476,0.17593 -1.94956,0.27856 -3.0059,0.31521 0.90876,3.56996 1.59227,7.08861 2.06607,10.56328 0.74565,5.48322 0.9709,10.85649 0.71458,16.11247 -0.73011,14.87362 -6.45454,29.15346 -12.41197,44.03441 -4.79236,11.94874 -9.74783,24.32265 -12.18673,37.39296 -1.21945,6.56082 -2.25249,13.4515 -3.09135,20.63541 -0.86216,7.35251 -1.5379,15.02023 -2.01947,22.95917 -0.26408,4.39098 -0.38059,8.56938 -0.48933,12.71845 -0.63691,23.9268 -1.25829,47.1059 -25.77155,63.98075 -13.70134,9.4417 -30.70373,11.95607 -46.05947,8.63534 -6.2992,-1.36347 -12.34984,-3.7239 -17.79465,-6.99331 -5.45257,-3.26941 -10.3226,-7.48446 -14.22173,-12.52785 -8.62159,-11.15705 -12.56732,-26.33855 -8.11672,-44.67217 2.83503,-12.21997 7.28563,-24.03676 11.72847,-35.85355 8.58275,-22.82723 17.17326,-45.66912 13.44501,-70.76147 l -0.0311,-0.33721 c -0.34952,-5.41725 -1.26605,-11.03976 -2.60201,-16.68425 -1.47577,-6.21628 -3.49524,-12.56451 -5.84093,-18.80278 -2.53987,-6.73674 -5.46034,-13.26823 -8.49731,-19.30125 -3.3865,-6.73674 -6.9128,-12.8284 -10.19833,-17.86446 -2.5321,-3.87052 -4.71469,-8.12955 -6.47784,-12.5865 -4.07001,-10.3287 -5.8953,-21.83028 -4.4506,-32.093 1.5146,-10.78319 6.58658,-20.27621 16.30334,-25.93537 l 0.83109,-0.46182 c -4.20982,-6.79539 -5.92637,-14.80764 -5.40597,-22.70994 0.63691,-9.61031 4.62925,-19.139978 11.51875,-26.13329 5.27393,-5.365937 10.85854,-8.393441 16.34995,-9.558993 6.03511,-1.290171 11.85274,-0.337203 17.00239,2.228477 4.93217,2.455723 9.23519,6.406871 12.47411,11.245012 3.95351,5.908396 6.3691,13.231584 6.43901,20.789344 z m 68.85618,87.87823 -1.28158,3.98047 4.15545,0.96763 c 2.5554,0.59377 4.66808,0.66707 6.35356,0.35919 1.56897,-0.28589 2.76512,-0.90898 3.58068,-1.73 1.28159,-1.29017 1.82529,-3.10814 1.67771,-4.86746 -0.0777,-1.01894 -0.41166,-2.00856 -0.96313,-2.82958 a 4.3775911,4.1314789 0 0 0 -1.97287,-1.63471 c -1.42916,-0.57911 -3.49524,-0.54245 -6.20599,0.49848 -0.76895,0.29322 -2.01947,1.27551 -3.19231,2.45572 -1.07188,1.07026 -1.94957,2.14784 -2.15152,2.80026 z M 147.5306,274.71108 c 0.33399,-2.36042 2.64085,-4.01712 5.14189,-3.70191 2.50103,0.31522 4.25642,2.49238 3.92243,4.8528 -1.41363,9.79357 -1.34372,19.42587 0,28.8969 1.34372,9.48569 3.98457,18.86142 7.67399,28.12719 0.88546,2.22848 -0.31069,4.72085 -2.67192,5.55653 -2.36122,0.83568 -5.00207,-0.28589 -5.88753,-2.51437 -3.92243,-9.84488 -6.72639,-19.85103 -8.17886,-30.05511 -1.44469,-10.21141 -1.52237,-20.59875 0,-31.16203 z M 133.71276,108.88747 c 4.27196,0.4325 7.87594,1.89128 10.86631,4.03179 0.0699,-7.55776 2.4855,-14.88095 6.439,-20.789346 3.23892,-4.838141 7.54195,-8.789289 12.47412,-11.245012 5.14965,-2.56568 10.96728,-3.518648 17.00239,-2.228477 5.49141,1.165552 11.07602,4.193056 16.34995,9.558993 6.8895,6.993312 10.88184,16.522982 11.51875,26.133292 0.5204,7.9023 -1.19615,15.91455 -5.40597,22.70994 l 0.83109,0.46182 c 9.71676,5.65916 14.78874,15.15218 16.30334,25.93537 1.4447,10.26272 -0.38059,21.7643 -4.4506,32.093 -1.76316,4.45695 -3.94574,8.71598 -6.47784,12.5865 -3.28553,5.03606 -6.81183,11.12772 -10.19833,17.86446 -3.03697,6.03302 -5.95744,12.56451 -8.49731,19.30125 -2.3457,6.23827 -4.36517,12.5865 -5.84093,18.80278 -1.33596,5.64449 -2.25249,11.267 -2.60201,16.68425 l -0.0311,0.33721 c -3.72826,25.09235 4.86226,47.93424 13.44501,70.76147 4.44284,11.81679 8.89344,23.63358 11.744,35.84622 4.43507,18.34095 0.48933,33.52245 -8.13225,44.6795 -3.89913,5.04339 -8.76916,9.25844 -14.22174,12.52785 -5.4448,3.26941 -11.49544,5.62984 -17.78687,6.99331 -15.36351,3.32073 -32.3659,0.80636 -46.06724,-8.63534 -24.513257,-16.87485 -25.134637,-40.05395 -25.771547,-63.98075 -0.10874,-4.14907 -0.22525,-8.32747 -0.48933,-12.71845 -0.48157,-7.93894 -1.15732,-15.60666 -2.01947,-22.95917 -0.83886,-7.18391 -1.8719,-14.07459 -3.09135,-20.63541 -2.4389,-13.07031 -7.39437,-25.44422 -12.18673,-37.39296 -5.95743,-14.88095 -11.68186,-29.16079 -12.41197,-44.03441 -0.25632,-5.25598 -0.0311,-10.62925 0.71458,-16.11247 0.4738,-3.47467 1.15731,-6.99332 2.06607,-10.56328 -1.05634,-0.0367 -2.0583,-0.13928 -3.0059,-0.31521 -3.60398,-0.65242 -6.44677,-2.22115 -8.52062,-4.29568 -3.14571,-3.15212 -4.48167,-7.41115 -4.15545,-11.42828 0.20195,-2.4264 1.00197,-4.79416 2.36123,-6.81738 1.45247,-2.11852 3.48747,-3.87784 6.09725,-4.93343 1.54567,-0.63776 3.28552,-1.01895 5.18072,-1.07759 -0.93983,-2.03055 -1.50684,-4.1564 -1.56121,-6.2456 l -0.0233,-0.36653 c 0,-4.43496 1.84083,-8.48141 4.55158,-11.47226 3.06027,-3.37936 7.33223,-5.49788 11.47215,-5.49788 0.5903,0 1.21168,0.0586 1.84859,0.1686 -0.59031,-1.752 -0.9243,-3.51132 -0.9243,-5.21933 0,-4.74284 2.09714,-9.58098 5.80986,-13.08497 3.3632,-3.19611 8.03905,-5.30729 13.670267,-5.30729 0.18641,0.044 0.4738,0.0293 0.66798,0.0293 1.94956,0.0733 3.86029,0.47648 5.67781,1.13623 -1.32042,-5.32929 -1.24275,-10.84184 0.3573,-15.7093 1.48353,-4.50094 4.26419,-8.47408 8.43517,-11.31832 3.68942,-2.5217 8.42741,-4.12708 14.26057,-4.36166 1.31266,-0.0586 2.55541,-0.0147 3.72825,0.10263 z m -56.708287,95.89049 -1.28158,-3.98047 c -0.20195,-0.65242 -1.07965,-1.73 -2.15152,-2.80026 -1.17284,-1.18021 -2.4156,-2.1625 -3.19232,-2.45572 -2.71075,-1.04093 -4.77682,-1.07759 -6.20598,-0.49848 -0.83886,0.34454 -1.51461,0.93098 -1.98841,1.62738 a 6.7442555,6.3650872 0 0 0 -0.94759,2.83691 c -0.14758,1.75932 0.39612,3.57729 1.67771,4.86746 0.81556,0.82102 2.0117,1.44411 3.58068,1.73 1.68548,0.30788 3.79816,0.23458 6.35356,-0.35919 z"
     id="path2"
     inkscape:connector-curvature="0"
     style="fill-rule:nonzero;stroke-width:0.75456977" />
  <g
     id="g3697"
     transform="translate(1.4617361,389.7173)">
    <path
       id="path3695"
       d="m 234.61414,-376.37951 c 64.78619,0 123.43973,27.94115 165.89481,73.11747 42.45508,45.17632 68.71934,107.58376 68.71934,176.51635 0,68.932591 -26.26426,131.335966 -68.71934,176.512288 C 358.05769,94.938857 299.40033,122.88 234.61414,122.88 169.82795,122.88 111.17442,94.938857 68.719338,49.766598 26.26044,4.590276 0,-57.817162 0,-126.74975 0,-195.68234 26.26044,-258.08978 68.719338,-303.2661 111.17442,-348.43836 169.83177,-376.37951 234.61414,-376.37951 Z M 395.80826,-263.4773 106.11097,44.756938 c 35.24176,29.932006 79.9078,47.825388 128.50317,47.825388 56.92372,0 108.4594,-24.552614 145.7632,-64.243907 37.3038,-39.691293 60.37954,-94.525329 60.37954,-155.092239 0,-51.70553 -16.81707,-99.23026 -44.94862,-136.72348 z M 85.112543,24.259183 376.53966,-285.81965 c -36.95631,-37.34289 -86.92255,-60.26218 -141.92552,-60.26218 -56.92753,0 -108.46322,24.54855 -145.763198,64.23984 -37.299983,39.68723 -60.37572,94.52127 -60.37572,155.09224 0,58.519159 21.540664,111.683308 56.637321,151.008933 z"
       inkscape:connector-curvature="0"
       style="stroke-width:3.93889189" />
  </g>
</svg>
