<?xml version="1.0" encoding="UTF-8" standalone="no"?>
<!-- Created with Inkscape (http://www.inkscape.org/) -->

<svg
   width="48"
   height="48"
   viewBox="0 0 12.7 12.7"
   version="1.1"
   id="svg1"
   sodipodi:docname="plant-bee-friendly.svg"
   inkscape:version="1.3.2 (091e20e, 2023-11-25)"
   xmlns:inkscape="http://www.inkscape.org/namespaces/inkscape"
   xmlns:sodipodi="http://sodipodi.sourceforge.net/DTD/sodipodi-0.dtd"
   xmlns="http://www.w3.org/2000/svg"
   xmlns:svg="http://www.w3.org/2000/svg">
  <sodipodi:namedview
     id="namedview1"
     pagecolor="#505050"
     bordercolor="#eeeeee"
     borderopacity="1"
     inkscape:showpageshadow="0"
     inkscape:pageopacity="0"
     inkscape:pagecheckerboard="0"
     inkscape:deskcolor="#d1d1d1"
     inkscape:zoom="4.2072697"
     inkscape:cx="55.023808"
     inkscape:cy="40.525094"
     inkscape:window-width="1312"
     inkscape:window-height="966"
     inkscape:window-x="758"
     inkscape:window-y="245"
     inkscape:window-maximized="0"
     inkscape:current-layer="svg1" />
  <defs
     id="defs1" />
  <path
     style="fill:#000000;stroke-width:0.0597373"
     d="m 9.2615401,10.774546 c -0.05526,-0.01938 -0.08172,-0.0401 -0.243776,-0.190853 -0.130975,-0.121843 -0.223192,-0.242799 -0.295076,-0.387033 -0.01972,-0.03957 -0.06171,-0.09262 -0.103022,-0.130162 -0.108424,-0.09853 -0.189761,-0.2785249 -0.278679,-0.6167092 -0.02228,-0.084722 -0.05852,-0.344395 -0.08188,-0.5866428 -0.0071,-0.07368 -0.0091,-0.07747 -0.05332,-0.100015 -0.02526,-0.01289 -0.04936,-0.02898 -0.05355,-0.03575 -0.01583,-0.02561 -0.02708,-0.01014 -0.04181,0.05751 -0.02304,0.10576 -0.138814,0.4458622 -0.189134,0.5555888 -0.08633,0.1882537 -0.258376,0.4601779 -0.411073,0.6497279 -0.367337,0.4559913 -0.907884,0.8120353 -1.192488,0.7854573 -0.258782,-0.02416 -0.696296,-0.301709 -0.987382,-0.626361 -0.346561,-0.386525 -0.613521,-0.8686015 -0.730353,-1.318871 -0.0156,-0.06011 -0.0296,-0.11099 -0.03112,-0.113058 -0.0015,-0.0021 -0.03002,0.01146 -0.06334,0.03006 -0.06892,0.03848 -0.05699,-0.007 -0.09351,0.3562391 -0.02239,0.2226708 -0.04122,0.3165635 -0.105955,0.5282742 -0.06573,0.2149559 -0.138241,0.3527805 -0.228667,0.4346107 -0.04563,0.04129 -0.08566,0.09281 -0.11327,0.145784 -0.0837,0.160591 -0.151597,0.247346 -0.301085,0.384737 -0.08069,0.07417 -0.167736,0.14557 -0.193422,0.158673 -0.06209,0.03167 -0.139677,0.03184 -0.15654,3.62e-4 -0.03058,-0.05715 -0.0166,-0.08365 0.11798,-0.223558 0.132296,-0.137538 0.249794,-0.29204 0.326918,-0.429878 0.03975,-0.07104 0.04147,-0.0786 0.02756,-0.1207681 -0.0221,-0.066974 -0.01597,-0.2678082 0.01172,-0.3838779 0.04802,-0.2012753 0.157888,-0.467817 0.307863,-0.746854 l 0.08024,-0.149293 -0.01897,-0.04501 c -0.01557,-0.03696 -0.01763,-0.07651 -0.01149,-0.221105 0.0113,-0.266284 0.07079,-0.528675 0.202843,-0.89472 0.124649,-0.345523 0.218555,-0.546269 0.343757,-0.734858 0.01823,-0.02746 9.03e-4,-0.02013 -0.109783,0.04644 -0.179767,0.108124 -0.298951,0.163807 -0.369986,0.172859 l -0.05979,0.0076 -0.103694,0.23074 c -0.05703,0.126907 -0.136957,0.304517 -0.177612,0.394688 -0.0898,0.19918 -0.190751,0.384149 -0.284991,0.522203 -0.07304,0.107 -0.155509,0.176443 -0.248317,0.209093 -0.03323,0.01169 -0.06219,0.03979 -0.116166,0.112728 -0.102313,0.138255 -0.198171,0.238108 -0.29879,0.311242 -0.048,0.03489 -0.130639,0.09639 -0.183648,0.136684 -0.151818,0.11539 -0.282837,0.1897116 -0.333644,0.1892612 -0.09026,-7.902e-4 -0.114,-0.063391 -0.04664,-0.1229543 0.07369,-0.065158 0.235262,-0.1983309 0.283521,-0.2336869 0.02643,-0.01936 0.06602,-0.05861 0.08797,-0.08721 0.05758,-0.075 0.211861,-0.254312 0.291745,-0.33907 0.06778,-0.07191 0.06862,-0.0737 0.06435,-0.13669 -0.0057,-0.08372 0.02698,-0.271953 0.06634,-0.382477 0.05103,-0.143266 0.158179,-0.33786 0.263532,-0.478595 0.05804,-0.07753 0.202054,-0.236485 0.35033,-0.386664 0.13848,-0.140257 0.257298,-0.267124 0.264043,-0.281926 0.02487,-0.05458 0.241523,-0.18824 0.884542,-0.5457 l 0.318805,-0.177226 -0.07314,-0.07818 c -0.04023,-0.043 -0.09784,-0.120712 -0.128046,-0.172684 l -0.0549,-0.0945 -0.09361,0.04967 c -0.08285,0.04396 -0.119569,0.07688 -0.319437,0.286389 -0.24486,0.256665 -0.317382,0.317961 -0.517431,0.437325 -0.282508,0.168566 -0.523114,0.270849 -0.756553,0.321617 -0.125759,0.02735 -0.408977,0.03745 -0.534694,0.01907 -0.323987,-0.04737 -0.64589,-0.215601 -0.730718,-0.381878 -0.03832,-0.07512 -0.04213,-0.180559 -0.0096,-0.266622 0.05345,-0.141572 0.182798,-0.257893 0.455318,-0.409459 0.07347,-0.04086 0.119925,-0.07085 0.103226,-0.06664 -0.0167,0.0042 -0.150588,0.01092 -0.297534,0.01492 C 1.7687021,5.64063 1.5493361,5.58349 1.1422921,5.328511 0.82313706,5.128586 0.53806906,4.846077 0.30117806,4.49495 c -0.122728,-0.181912 -0.230826,-0.404245 -0.273738,-0.563019 -0.031,-0.114702 -0.03678,-0.298482 -0.01277,-0.406374 0.04595,-0.206553 0.145364,-0.335218 0.325886,-0.421787 0.112125,-0.05377 0.228183,-0.07979 0.427924,-0.09595 0.37335004,-0.0302 0.90033504,0.108607 1.57875204,0.415855 0.779938,0.353225 1.30991,0.640746 2.402069,1.30317 0.06774,0.04109 0.108463,0.05939 0.111334,0.05003 0.033,-0.107536 0.04563,-0.155592 0.04167,-0.158611 -0.0026,-0.002 -0.04031,-0.03054 -0.08372,-0.06341 -0.133182,-0.100826 -0.306357,-0.256477 -0.374092,-0.336236 -0.08403,-0.09895 -0.145893,-0.225029 -0.164454,-0.33519 -0.01316,-0.0781 -0.01861,-0.08947 -0.05081,-0.106021 -0.08282,-0.04257 -0.150784,-0.128303 -0.230219,-0.290425 -0.07479,-0.152639 -0.240375,-0.440022 -0.321337,-0.557697 -0.02168,-0.03151 -0.06871,-0.09012 -0.104525,-0.130257 -0.03581,-0.04013 -0.06857,-0.08387 -0.0728,-0.0972 -0.01378,-0.0434 0.01732,-0.09388 0.06701,-0.108771 0.06315,-0.01892 0.122243,0.0094 0.273866,0.131445 0.210112,0.169075 0.417511,0.398521 0.519991,0.575273 0.03813,0.06576 0.10519,0.25376 0.10519,0.294883 0,0.02438 0.0074,0.02978 0.04837,0.03527 0.141457,0.01897 0.283222,0.149782 0.46776,0.43161 l 0.121442,0.185469 0.02946,-0.03998 c 0.0162,-0.02199 0.09358,-0.10405 0.171947,-0.182364 l 0.142488,-0.142389 -0.0412,-0.02546 c -0.109683,-0.06779 -0.230114,-0.255529 -0.260611,-0.406269 -0.02863,-0.141506 0.0092,-0.334001 0.09059,-0.460576 0.07652,-0.119054 0.184517,-0.198338 0.348554,-0.255884 l 0.09261,-0.03249 -0.101591,-0.148617 C 5.3761531,2.260293 5.1303201,2.000899 4.8610961,1.798398 4.6822331,1.663863 4.5459451,1.580786 4.3599211,1.492895 c -0.07836,-0.03702 -0.152033,-0.07569 -0.163721,-0.08594 -0.02607,-0.02285 -0.02748,-0.07343 -0.003,-0.108355 0.03308,-0.04722 0.07663,-0.04548 0.219937,0.0088 0.490107,0.185591 0.921641,0.558541 1.322735,1.143164 0.05198,0.07576 0.09819,0.142019 0.102702,0.147235 0.0045,0.0052 0.04874,-0.0096 0.09829,-0.03301 0.126089,-0.05947 0.214984,-0.08063 0.369415,-0.08791 0.158197,-0.0075 0.256703,0.01008 0.417233,0.07431 0.05939,0.02376 0.110992,0.0432 0.114672,0.0432 0.0037,0 0.04759,-0.05915 0.09757,-0.131437 0.290962,-0.420816 0.681351,-0.801429 1.041561,-1.01548 0.119104,-0.07078 0.389026,-0.180902 0.444495,-0.18135 0.06526,-5.41e-4 0.117721,0.07167 0.08988,0.123687 -0.0063,0.01182 -0.0898,0.06051 -0.185494,0.108207 -0.393736,0.196231 -0.729516,0.461932 -1.035661,0.819512 -0.103447,0.120827 -0.281862,0.370017 -0.271992,0.379887 0.0024,0.0024 0.04911,0.02068 0.103821,0.04065 0.179473,0.0655 0.296894,0.164638 0.3679,0.310615 0.07153,0.147054 0.08825,0.274699 0.05466,0.417182 -0.03402,0.144304 -0.138195,0.308226 -0.242676,0.381871 l -0.05234,0.03689 0.118952,0.114172 c 0.06542,0.06279 0.142265,0.144392 0.170761,0.181327 l 0.05181,0.06715 0.121031,-0.185828 c 0.180348,-0.276905 0.327581,-0.412369 0.468782,-0.431307 0.04562,-0.0061 0.04702,-0.0078 0.05362,-0.06351 0.0091,-0.07657 0.08764,-0.255853 0.159498,-0.363941 0.114013,-0.171501 0.464263,-0.507412 0.614107,-0.588968 0.04818,-0.02622 0.07155,-0.03213 0.103412,-0.02615 0.04411,0.0083 0.0908,0.05617 0.0908,0.09315 0,0.01229 -0.0322,0.05975 -0.07156,0.105484 -0.125865,0.14624 -0.275073,0.389282 -0.428334,0.697707 -0.07656,0.154073 -0.140479,0.234857 -0.225025,0.284404 -0.04489,0.02631 -0.05231,0.03634 -0.05231,0.07073 0,0.131862 -0.108518,0.321809 -0.272571,0.477097 -0.107462,0.101724 -0.332738,0.287482 -0.359429,0.296378 -0.01226,0.0041 -0.01129,0.01771 0.0046,0.06438 0.01109,0.03256 0.02017,0.07188 0.02017,0.08739 0,0.03531 0.0082,0.03525 0.06094,-4.29e-4 0.02326,-0.01572 0.137925,-0.08324 0.254813,-0.150047 0.116888,-0.0668 0.283567,-0.162552 0.370398,-0.212774 0.509482,-0.294679 0.651264,-0.374062 0.953325,-0.533761 0.183681,-0.09711 0.40501,-0.209489 0.491841,-0.249724 0.08683,-0.04024 0.2644409,-0.122505 0.3946879,-0.182819 0.453794,-0.210142 0.787889,-0.32542 1.147631,-0.395985 0.327682,-0.06428 0.661715,-0.03902 0.877104,0.06632 0.207869,0.101663 0.330354,0.31841 0.331036,0.585795 9.48e-4,0.366841 -0.286869,0.886369 -0.725656,1.309901 -0.154335,0.14897 -0.258279,0.229376 -0.446052,0.345051 -0.262889,0.161949 -0.460692,0.238218 -0.709148,0.273435 -0.10304,0.01461 -0.64616,0.0087 -0.723872,-0.0079 -0.02004,-0.0043 0.0151,0.01769 0.07809,0.04882 0.24444,0.120793 0.408239,0.249408 0.475411,0.373296 0.03805,0.07018 0.04157,0.08539 0.04157,0.179888 0,0.0905 -0.0041,0.11016 -0.03308,0.159505 -0.09602,0.163335 -0.400564,0.319207 -0.7069159,0.361817 -0.136353,0.01896 -0.374049,0.01594 -0.50568,-0.0064 C 9.1766351,6.682717 8.8555831,6.546549 8.5676771,6.356321 8.4207961,6.259271 8.3894611,6.230302 8.0202331,5.850206 7.8958991,5.722211 7.8547551,5.692051 7.7075541,5.621 c -0.0041,-0.002 -0.01453,0.0135 -0.02318,0.0344 -0.02642,0.06379 -0.107,0.180824 -0.171323,0.248837 l -0.061,0.06449 0.02825,0.01772 c 0.04702,0.02949 0.267137,0.153685 0.574739,0.324278 0.437774,0.242784 0.577779,0.333955 0.594701,0.387274 0.004,0.01251 0.06519,0.07937 0.136051,0.148573 0.340589,0.332648 0.473723,0.484952 0.585116,0.669368 0.135287,0.223975 0.216767,0.465584 0.226248,0.670884 l 0.0045,0.09715 0.1033,0.11537 c 0.05681,0.06345 0.150602,0.172752 0.208416,0.242885 0.05781,0.07013 0.1293519,0.144233 0.1589779,0.164669 0.105696,0.0729 0.281122,0.2356478 0.286966,0.2662149 0.01151,0.060226 -0.05841,0.084767 -0.142004,0.049838 -0.05285,-0.022081 -0.2159,-0.1320489 -0.2793749,-0.1884199 -0.02701,-0.02398 -0.08871,-0.07008 -0.137128,-0.10244 -0.09975,-0.06667 -0.291575,-0.262687 -0.355238,-0.363 -0.03395,-0.05349 -0.05228,-0.06998 -0.09108,-0.08189 -0.136646,-0.04195 -0.232415,-0.145668 -0.381284,-0.412906 -0.06863,-0.123203 -0.232,-0.460849 -0.232,-0.479492 0,-0.0026 -0.04292,-0.0993 -0.09537,-0.214962 -0.05245,-0.115661 -0.09845,-0.219118 -0.102215,-0.229904 -0.0046,-0.01323 -0.02615,-0.02146 -0.06615,-0.02531 -0.07439,-0.0071 -0.204629,-0.06946 -0.360838,-0.172653 -0.06632,-0.04381 -0.12273,-0.07751 -0.125354,-0.07488 -0.0026,0.0026 0.0088,0.02634 0.02549,0.0527 0.115088,0.182312 0.184308,0.329283 0.298807,0.634442 0.126686,0.337637 0.186931,0.559296 0.219655,0.808169 0.01737,0.132088 0.01182,0.382876 -0.009,0.40799 -0.01178,0.0142 0.01264,0.07188 0.128071,0.302403 0.152221,0.3040065 0.229893,0.510642 0.263387,0.7006933 0.02061,0.1169758 0.01455,0.2408763 -0.01459,0.2981082 -0.01655,0.032502 -0.01427,0.038794 0.05662,0.1561415 0.100287,0.166009 0.202261,0.297412 0.330131,0.425404 0.08382,0.0839 0.107172,0.114694 0.107172,0.141333 0,0.0681 -0.05697,0.0976 -0.135381,0.0701 z m -2.560988,-0.620071 c 0.231284,-0.04677 0.398039,-0.126713 0.510962,-0.2449669 0.127881,-0.1339198 0.315769,-0.3936002 0.271458,-0.3751832 -0.343993,0.1429717 -0.946146,0.2184981 -1.407501,0.1765399 -0.307239,-0.027942 -0.591417,-0.08292 -0.776787,-0.1502771 -0.04651,-0.016902 -0.08652,-0.028767 -0.08892,-0.026371 -0.0097,0.00971 0.178545,0.2578652 0.268758,0.3542865 0.107181,0.1145588 0.183485,0.1606868 0.355595,0.2149648 0.0954,0.03009 0.250405,0.06254 0.350653,0.07341 0.09386,0.01018 0.426021,-0.0043 0.515783,-0.0224 z m 0.04892,-1.245656 c 0.427673,-0.03862 0.801893,-0.126886 1.142989,-0.26958 0.02852,-0.01193 0.03383,-0.02472 0.05161,-0.124277 0.0109,-0.06104 0.01956,-0.15438 0.01924,-0.207431 -5.42e-4,-0.09388 -0.02646,-0.340403 -0.03678,-0.350058 -0.0028,-0.0027 -0.0516,0.02194 -0.108371,0.05465 -0.188856,0.1088 -0.383097,0.17054 -0.698294,0.221951 -0.296502,0.04836 -0.490204,0.05977 -0.89548,0.05272 -0.621076,-0.0108 -0.972904,-0.07672 -1.340471,-0.251182 l -0.122855,-0.05831 -0.01844,0.159389 c -0.01867,0.161363 -0.01557,0.240909 0.01615,0.414419 l 0.01332,0.07287 0.111333,0.05124 c 0.135505,0.06237 0.220918,0.09236 0.373708,0.131194 0.143646,0.03651 0.448889,0.08699 0.611881,0.101182 0.175024,0.01524 0.716879,0.01599 0.880458,0.0012 z m -0.20038,-1.457005 c 0.507338,-0.02987 0.916878,-0.107459 1.123342,-0.212815 0.108324,-0.05527 0.105732,-0.04352 0.04275,-0.193856 -0.0448,-0.106927 -0.176828,-0.372111 -0.195851,-0.393369 -0.0024,-0.0027 -0.04927,0.01292 -0.104192,0.03462 C 7.1383191,6.795785 6.6511621,6.85599 6.1847681,6.83845 5.7482291,6.82203 5.4802601,6.77464 5.2600951,6.674903 l -0.07457,-0.03378 -0.06689,0.123115 c -0.03679,0.06771 -0.0819,0.158638 -0.100245,0.202053 -0.05317,0.125837 -0.09055,0.222339 -0.09055,0.233805 0,0.01734 0.14289,0.07688 0.279408,0.116432 0.239193,0.06929 0.53066,0.114959 0.856078,0.134123 0.245965,0.01449 0.25899,0.01452 0.48577,0.0012 z"
     id="path2" />
</svg>
