<?xml version="1.0" encoding="UTF-8" standalone="no"?>
<svg
   xmlns:dc="http://purl.org/dc/elements/1.1/"
   xmlns:cc="http://creativecommons.org/ns#"
   xmlns:rdf="http://www.w3.org/1999/02/22-rdf-syntax-ns#"
   xmlns:svg="http://www.w3.org/2000/svg"
   xmlns="http://www.w3.org/2000/svg"
   xmlns:sodipodi="http://sodipodi.sourceforge.net/DTD/sodipodi-0.dtd"
   xmlns:inkscape="http://www.inkscape.org/namespaces/inkscape"
   version="1.1"
   id="Layer_1"
   x="0px"
   y="0px"
   viewBox="0 0 48 48"
   xml:space="preserve"
   sodipodi:docname="RecommendedForHedgeReplace.svg"
   inkscape:version="0.92.1 r15371"
   width="48"
   height="48"><metadata
     id="metadata11"><rdf:RDF><cc:Work
         rdf:about=""><dc:format>image/svg+xml</dc:format><dc:type
           rdf:resource="http://purl.org/dc/dcmitype/StillImage" /><dc:title /></cc:Work></rdf:RDF></metadata><defs
     id="defs9"><clipPath
       clipPathUnits="userSpaceOnUse"
       id="clipPath4500"><rect
         style="opacity:0.34900004;fill:#000000;fill-opacity:1;stroke:none;stroke-width:3;stroke-linejoin:round;stroke-miterlimit:4;stroke-dasharray:none;stroke-dashoffset:0;stroke-opacity:1"
         id="rect4502"
         width="123.74535"
         height="75.285629"
         x="0.43267605"
         y="1.2250708" /></clipPath><clipPath
       clipPathUnits="userSpaceOnUse"
       id="clipPath4549"><rect
         style="opacity:0.07600002;fill:#000000;fill-opacity:1;stroke:none;stroke-width:7.45526552;stroke-linejoin:round;stroke-miterlimit:4;stroke-dasharray:none;stroke-dashoffset:0;stroke-opacity:1"
         id="rect4551"
         width="73.171654"
         height="99.068153"
         x="-2.213563"
         y="-1.7330135" /></clipPath><clipPath
       clipPathUnits="userSpaceOnUse"
       id="clipPath4549-0"><rect
         style="opacity:0.07600002;fill:#000000;fill-opacity:1;stroke:none;stroke-width:7.45526552;stroke-linejoin:round;stroke-miterlimit:4;stroke-dasharray:none;stroke-dashoffset:0;stroke-opacity:1"
         id="rect4551-8"
         width="73.171654"
         height="99.068153"
         x="-2.213563"
         y="-1.7330135" /></clipPath></defs><sodipodi:namedview
     pagecolor="#ffffff"
     bordercolor="#666666"
     borderopacity="1"
     objecttolerance="10"
     gridtolerance="10"
     guidetolerance="10"
     inkscape:pageopacity="0"
     inkscape:pageshadow="2"
     inkscape:window-width="1366"
     inkscape:window-height="705"
     id="namedview7"
     showgrid="false"
     inkscape:zoom="3.2796268"
     inkscape:cx="-53.868643"
     inkscape:cy="54.697042"
     inkscape:window-x="-8"
     inkscape:window-y="-8"
     inkscape:window-maximized="1"
     inkscape:current-layer="g4496"
     showguides="true"
     inkscape:guide-bbox="true" /><style
     id="style4488"
     type="text/css">.st0{fill-rule:evenodd;clip-rule:evenodd;}</style><style
     id="style4504"
     type="text/css">.st0{fill-rule:evenodd;clip-rule:evenodd;}</style><style
     id="style4520"
     type="text/css">.st0{fill-rule:evenodd;clip-rule:evenodd;}</style><g
     id="g4496"
     clip-path="url(#clipPath4500)"
     transform="matrix(0.98526971,0,0,0.97041521,0.05098756,-26.679826)"><g
       id="g4492"
       transform="matrix(0.28033712,0,0,0.46787578,32.059074,31.248969)"
       clip-path="url(#clipPath4549-0)"
       style="fill:#000000;fill-opacity:1"><path
         id="path4490"
         d="m 4.97,30.77 v 53.54 c 0.01,0.07 0.05,0.13 0.11,0.18 0.07,0.07 0.15,0.11 0.25,0.11 h 48.89 c 0.87,0 1.67,-0.36 2.25,-0.94 0.58,-0.58 0.94,-1.38 0.94,-2.25 V 30.77 C 57.41,18.37 50.65,10.45 42.01,7 38.62,5.65 34.91,4.97 31.2,4.97 c -3.71,0 -7.41,0.68 -10.82,2.04 l -0.11,0.04 c -8.6,3.48 -15.3,11.38 -15.3,23.72 z m 47.42,-1.33 c 0.24,1.35 -0.66,2.64 -2.01,2.89 -1.35,0.24 -2.64,-0.66 -2.89,-2.01 -0.76,-4.26 -2.24,-7.63 -4.53,-9.95 -2.24,-2.27 -5.37,-3.63 -9.5,-3.94 -1.37,-0.11 -2.39,-1.3 -2.28,-2.67 0.11,-1.37 1.3,-2.39 2.67,-2.28 5.38,0.4 9.54,2.26 12.64,5.39 3.04,3.1 4.96,7.34 5.9,12.57 z M 23.16,89.58 v 26.36 c 0,9.26 16.06,9.26 16.06,0 V 89.58 h 14.99 c 2.25,0 4.29,-0.92 5.77,-2.4 1.48,-1.48 2.4,-3.52 2.4,-5.77 V 30.77 C 62.38,16.01 54.26,6.55 43.86,2.4 39.84,0.8 35.51,0 31.19,0 26.86,0 22.53,0.8 18.53,2.4 L 18.39,2.46 C 8.05,6.64 0,16.08 0,30.77 v 53.48 c 0,0.09 0,0.17 0.01,0.26 0.07,1.37 0.65,2.6 1.55,3.5 0.96,0.96 2.3,1.56 3.76,1.56 h 17.84 z"
         class="st0"
         inkscape:connector-curvature="0"
         style="clip-rule:evenodd;fill-rule:evenodd;fill:#000000;fill-opacity:1" /></g><g
       id="g4577"
       transform="matrix(0.26318441,0,0,0.26395829,0.71805255,46.418913)"
       style="fill:#000000;fill-opacity:1"><path
         id="path4575"
         d="m 22.64,0 c 1.19,2.12 12.71,22.15 12.71,22.4 V 42.6 H 47.54 V 22.4 C 47.54,22.16 59.06,2.13 60.25,0 61.44,2.12 72.96,22.15 72.96,22.4 V 42.6 H 85.15 V 22.4 c 0,-0.24 11.52,-20.27 12.71,-22.4 1.19,2.12 12.71,22.15 12.71,22.4 v 20.2 h 12.33 v 4.86 H 110.57 V 79.9 h 12.33 v 4.86 h -12.33 v 29 c 0,0.16 -0.13,0.3 -0.3,0.3 H 85.43 c -0.16,0 -0.3,-0.13 -0.3,-0.3 v -29 H 72.94 v 29 c 0,0.16 -0.13,0.3 -0.3,0.3 H 47.83 c -0.16,0 -0.3,-0.13 -0.3,-0.3 v -29 H 35.34 v 29 c 0,0.16 -0.13,0.3 -0.3,0.3 H 10.23 c -0.16,0 -0.3,-0.13 -0.3,-0.3 v -29 H 0 V 79.9 H 9.93 V 47.46 H 0 V 42.6 H 9.93 V 22.4 C 9.93,22.15 21.44,2.12 22.64,0 Z m 75.2,79.42 c 1.62,0 2.93,1.31 2.93,2.93 0,1.62 -1.31,2.93 -2.93,2.93 -1.62,0 -2.93,-1.31 -2.93,-2.93 0,-1.61 1.31,-2.93 2.93,-2.93 z m 0,-37.88 c 1.62,0 2.93,1.31 2.93,2.93 0,1.62 -1.31,2.93 -2.93,2.93 -1.62,0 -2.93,-1.31 -2.93,-2.93 0,-1.62 1.31,-2.93 2.93,-2.93 z m -37.6,37.88 c 1.62,0 2.93,1.31 2.93,2.93 0,1.62 -1.31,2.93 -2.93,2.93 -1.62,0 -2.93,-1.31 -2.93,-2.93 0,-1.61 1.31,-2.93 2.93,-2.93 z m 0,-37.88 c 1.62,0 2.93,1.31 2.93,2.93 0,1.62 -1.31,2.93 -2.93,2.93 -1.62,0 -2.93,-1.31 -2.93,-2.93 0,-1.62 1.31,-2.93 2.93,-2.93 z M 85.13,79.9 V 47.46 H 72.94 V 79.9 Z m -37.6,0 V 47.46 H 35.34 V 79.9 Z M 14.56,82 c 0.01,0.11 0.02,0.21 0.02,0.32 0,0.11 -0.01,0.22 -0.02,0.32 v 26.78 H 30.71 V 22.4 c 0,-0.97 -4.58,-7.29 -8.07,-13.11 -3.5,5.82 -8.07,12.14 -8.07,13.11 v 22.31 c 0.01,0.11 0.02,0.21 0.02,0.32 0,0.11 -0.01,0.22 -0.02,0.32 V 82 Z m 91.35,-59.6 c 0,-0.97 -4.58,-7.29 -8.07,-13.11 -3.5,5.82 -8.07,12.14 -8.07,13.11 v 87.03 h 16.15 V 22.4 Z m -37.6,0 c 0,-0.96 -4.58,-7.29 -8.07,-13.11 -3.5,5.82 -8.08,12.14 -8.08,13.11 v 87.03 H 68.31 Z M 22.63,79.42 c 1.62,0 2.93,1.31 2.93,2.93 0,1.62 -1.31,2.93 -2.93,2.93 -1.62,0 -2.93,-1.31 -2.93,-2.93 0.01,-1.61 1.32,-2.93 2.93,-2.93 z m 0,-37.88 c 1.62,0 2.93,1.31 2.93,2.93 0,1.62 -1.31,2.93 -2.93,2.93 -1.62,0 -2.93,-1.31 -2.93,-2.93 0.01,-1.62 1.32,-2.93 2.93,-2.93 z"
         class="st0"
         inkscape:connector-curvature="0"
         style="clip-rule:evenodd;fill-rule:evenodd;fill:#000000;fill-opacity:1" /></g></g><style
     id="style4491"
     type="text/css">.st0{fill-rule:evenodd;clip-rule:evenodd;}</style><style
     id="style4573"
     type="text/css">.st0{fill-rule:evenodd;clip-rule:evenodd;}</style><style
     id="style4601"
     type="text/css">.st0{fill-rule:evenodd;clip-rule:evenodd;fill:#01A601;}</style></svg>
