<?xml version="1.0" encoding="UTF-8" standalone="no"?>
<svg
   xmlns:dc="http://purl.org/dc/elements/1.1/"
   xmlns:cc="http://creativecommons.org/ns#"
   xmlns:rdf="http://www.w3.org/1999/02/22-rdf-syntax-ns#"
   xmlns:svg="http://www.w3.org/2000/svg"
   xmlns="http://www.w3.org/2000/svg"
   xmlns:sodipodi="http://sodipodi.sourceforge.net/DTD/sodipodi-0.dtd"
   xmlns:inkscape="http://www.inkscape.org/namespaces/inkscape"
   version="1.1"
   id="Layer_1"
   x="0px"
   y="0px"
   viewBox="0 0 48.000001 48.000001"
   xml:space="preserve"
   sodipodi:docname="plant-type-Grass.svg"
   width="48"
   height="48"
   inkscape:version="0.92.1 r15371"><metadata
     id="metadata13"><rdf:RDF><cc:Work
         rdf:about=""><dc:format>image/svg+xml</dc:format><dc:type
           rdf:resource="http://purl.org/dc/dcmitype/StillImage" /><dc:title></dc:title></cc:Work></rdf:RDF></metadata><defs
     id="defs11" /><sodipodi:namedview
     pagecolor="#ffffff"
     bordercolor="#666666"
     borderopacity="1"
     objecttolerance="10"
     gridtolerance="10"
     guidetolerance="10"
     inkscape:pageopacity="0"
     inkscape:pageshadow="2"
     inkscape:window-width="1366"
     inkscape:window-height="705"
     id="namedview9"
     showgrid="false"
     inkscape:zoom="1.9656839"
     inkscape:cx="-1.8967374"
     inkscape:cy="60.029999"
     inkscape:window-x="-8"
     inkscape:window-y="-8"
     inkscape:window-maximized="1"
     inkscape:current-layer="Layer_1" /><style
     type="text/css"
     id="style2">.st0{fill-rule:evenodd;clip-rule:evenodd;}</style><g
     id="g6"
     style="fill:#008000"
     transform="matrix(0.34173275,0,0,0.34310525,4,4.8002167)"><path
       class="st0"
       d="m 11.72,110.28 7.39,-0.31 c -3.31,-6.56 -3.04,-10.1 -2.57,-16.07 0.12,-1.6 0.26,-3.39 0.34,-5.32 0.2,-4.98 0.13,-10.05 -0.19,-15.12 -0.24,-3.89 -0.63,-7.77 -1.15,-11.62 -3.4,5.98 -5.18,12.82 -5.79,20.29 -0.71,8.68 0.17,18.18 1.97,28.15 z m -2.84,1.75 c -5.17,1.47 -8.1,4.16 -8.88,8.02 h 122.88 c -3.11,-5.52 -8.77,-9.01 -19.08,-8.76 h -0.2 c 1.57,-8.66 2.35,-16.93 1.73,-24.5 -0.64,-7.94 -2.81,-15.13 -7.18,-21.22 -0.23,-0.34 -0.6,-0.59 -1.04,-0.66 -0.85,-0.13 -1.64,0.44 -1.77,1.29 -1.3,8.18 -1.46,16.5 -1.62,24.66 l -0.03,1.57 c -0.04,2.14 0,3.91 0.04,5.47 0.11,4.21 0.17,6.86 -1.83,11.34 C 90.22,98.62 89.13,87.95 88.67,77.17 88.18,65.64 88.4,53.95 89.37,42.02 c 0.07,-0.85 -0.57,-1.6 -1.43,-1.67 -0.78,-0.06 -1.47,0.46 -1.64,1.21 -2.05,7.31 -3.74,14.85 -5.01,22.63 -1.28,7.8 -2.14,15.84 -2.55,24.15 0,0.06 0,0.12 0,0.18 l 0.22,6.18 C 75.77,84.01 73.05,73.21 71.89,62.49 70.34,48.18 71.56,33.99 78.11,20.33 c 0.37,-0.77 0.04,-1.7 -0.73,-2.06 -0.66,-0.31 -1.42,-0.12 -1.87,0.42 v 0 C 68.8,26.9 64.43,37.98 62.43,51.98 c -1.98,13.85 -1.65,30.58 1.03,50.22 0,0.03 0.01,0.06 0.02,0.1 v 0 l 1.8,9.02 H 53.89 l 2.19,-10.97 v 0 c 0.01,-0.03 0.01,-0.06 0.02,-0.1 C 59.29,76.79 59.69,56.8 57.33,40.26 54.94,23.57 49.74,10.36 41.75,0.58 v 0 c -0.44,-0.54 -1.21,-0.73 -1.87,-0.42 -0.77,0.37 -1.1,1.29 -0.73,2.06 7.87,16.4 9.33,33.43 7.47,50.6 -1.47,13.6 -5.03,27.3 -9.15,40.84 l 0.35,-9.75 c 0,-0.06 0,-0.12 0,-0.18 C 37.33,73.8 36.3,64.19 34.78,54.87 33.26,45.57 31.24,36.56 28.79,27.82 c -0.17,-0.74 -0.86,-1.27 -1.64,-1.2 -0.85,0.07 -1.49,0.81 -1.43,1.67 1.17,14.27 1.44,28.27 0.84,42.08 -0.57,13.27 -1.93,26.4 -4.04,39.48 -3.61,-6.66 -3.36,-9.92 -2.91,-15.71 0.12,-1.55 0.25,-3.27 0.34,-5.43 C 20.16,83.6 20.08,78.43 19.76,73.27 19.43,67.93 18.82,62.58 17.98,57.28 17.85,56.43 17.05,55.86 16.21,55.99 15.77,56.06 15.4,56.31 15.17,56.65 9.98,63.88 7.4,72.43 6.64,81.88 5.89,91.19 6.9,101.37 8.88,112.03 Z m 86.06,-1.99 5.69,0.24 c 1.47,-8.23 2.19,-16.08 1.61,-23.25 -0.48,-5.9 -1.84,-11.34 -4.41,-16.13 -0.75,6.63 -0.88,13.38 -1.01,20.02 l -0.03,1.57 c -0.04,2.07 0,3.8 0.04,5.34 0.11,4.53 0.18,7.42 -1.89,12.21 z m -26.69,0.14 h 12.89 0.02 7.75 C 87.17,99.3 86.05,88.36 85.57,77.29 85.31,71.21 85.24,65.11 85.38,58.96 c -0.37,1.9 -0.71,3.81 -1.02,5.73 -1.26,7.67 -2.11,15.58 -2.51,23.75 l 0.64,17.73 c 0.03,0.85 -0.64,1.57 -1.49,1.6 -0.71,0.02 -1.33,-0.43 -1.53,-1.08 C 74.84,92.26 70.42,77.51 68.82,62.81 67.8,53.37 67.94,43.97 69.95,34.7 c -2.01,5.22 -3.49,11.12 -4.43,17.7 -1.94,13.55 -1.61,29.96 1.01,49.27 v 0 z m -32.96,-0.03 h 15.67 l 2.09,-10.43 v 0 c 3.14,-23.13 3.54,-42.8 1.22,-59.04 -1.35,-9.43 -3.61,-17.7 -6.79,-24.8 3.23,12.26 3.6,24.73 2.24,37.26 -1.9,17.56 -7.2,35.19 -12.72,52.43 -0.21,0.65 -0.82,1.1 -1.53,1.08 -0.85,-0.03 -1.52,-0.75 -1.49,-1.6 l 0.77,-21.22 c -0.48,-9.78 -1.5,-19.26 -3,-28.45 -0.57,-3.49 -1.21,-6.94 -1.92,-10.36 0.28,8.56 0.23,17.04 -0.13,25.47 -0.57,13.35 -1.94,26.54 -4.04,39.66 z"
       id="path4"
       inkscape:connector-curvature="0"
       style="clip-rule:evenodd;fill:#008000;fill-rule:evenodd" /></g><path
     style="opacity:1;fill:#008000;fill-opacity:1;stroke:none;stroke-width:0.52259421;stroke-linejoin:round;stroke-miterlimit:4;stroke-dasharray:none;stroke-dashoffset:0;stroke-opacity:1"
     d="m 13.010538,41.624176 c 0.06096,-0.505744 0.230966,-1.822818 0.377781,-2.92683 0.469166,-3.528018 0.778991,-7.816605 0.901618,-12.480148 l 0.119332,-4.538236 0.379919,2.371386 c 0.787388,4.914726 0.994636,7.925309 0.871372,12.65796 -0.101741,3.906271 -0.08372,4.40729 0.166023,4.615387 0.556491,0.463703 0.831817,-0.05414 1.923132,-3.617057 3.10658,-10.142351 4.097567,-17.263292 3.277035,-23.547803 -0.146475,-1.121868 -0.234513,-2.071694 -0.195638,-2.110725 0.111505,-0.111952 1.116247,3.715367 1.40564,5.354438 0.644923,3.652727 0.872619,8.28816 0.625897,12.741969 -0.214279,3.868151 -0.738494,8.632293 -1.190776,10.821947 l -0.306454,1.483653 -4.232863,0.0468 -4.232863,0.0468 z"
     id="path4490"
     inkscape:connector-curvature="0" /><path
     style="opacity:1;fill:#008000;fill-opacity:1;stroke:none;stroke-width:0.52259421;stroke-linejoin:round;stroke-miterlimit:4;stroke-dasharray:none;stroke-dashoffset:0;stroke-opacity:1"
     d="M 4.2105943,45.485013 C 4.3607338,44.908572 5.3533412,44.017161 6.2498118,43.653695 7.0628667,43.324047 7.0654566,43.320338 6.9681234,42.624664 6.3537917,38.233836 6.3108051,37.62048 6.3931699,34.420931 c 0.066751,-2.593032 0.1663943,-3.640015 0.4568286,-4.800056 0.4125145,-1.64765 1.8536493,-4.78414 2.4451163,-5.321562 0.3570854,-0.324456 0.3953615,-0.327505 0.5991094,-0.04774 0.5602218,0.769226 0.9972978,7.546322 0.7655418,11.870122 -0.178161,3.323894 -0.05109,4.378147 0.705183,5.850593 0.326484,0.635661 0.337583,0.641195 0.433021,0.216012 0.175013,-0.779699 0.618639,-4.216289 0.878753,-6.807353 0.631148,-6.287001 0.717416,-11.300141 0.328427,-19.085084 l -0.111988,-2.241249 0.403771,0.0594 c 0.465584,0.0685 0.692132,0.74721 1.563781,4.684913 1.164738,5.26174 1.734273,9.683726 1.88841,14.661992 l 0.110789,3.578224 0.739952,-2.618213 C 20.81004,23.062201 21.069283,14.812077 18.430983,7.9715269 17.410525,5.3256968 17.378068,5.204288 17.626348,4.9617338 c 0.499244,-0.4877285 2.612615,2.6929769 3.854849,5.8016962 2.343885,5.865629 3.037613,13.449573 2.150426,23.508806 -0.295584,3.351409 -0.470007,4.635101 -0.941852,6.931626 -0.194483,0.94658 -0.353605,1.751679 -0.353605,1.789112 0,0.03743 0.899669,0.06806 1.999266,0.06806 1.099597,0 1.999031,-0.05891 1.99874,-0.130909 -3.41e-4,-0.072 -0.151162,-0.916376 -0.335273,-1.876388 -0.612816,-3.195397 -0.933489,-7.104254 -0.945087,-11.520135 -0.01401,-5.33648 0.407698,-8.641558 1.540808,-12.07568 0.833506,-2.526112 2.768553,-6.002691 3.497353,-6.283482 0.604624,-0.232947 0.637961,0.253464 0.105948,1.545815 -1.369482,3.326699 -1.834929,5.814162 -1.839626,9.831446 -0.0047,4.06127 0.559142,7.645532 2.018357,12.829243 l 0.565054,2.007296 0.106842,-2.705486 c 0.183055,-4.635307 1.155945,-10.853351 2.335592,-14.927492 0.241223,-0.833112 0.337994,-0.968695 0.65866,-0.922827 0.36541,0.05227 0.373468,0.107308 0.288967,1.973791 -0.154785,3.418948 -0.06105,12.511988 0.150239,14.574718 0.354909,3.464812 0.756164,6.536362 0.885499,6.778364 0.07779,0.145563 0.227656,-0.116127 0.399829,-0.698191 0.20891,-0.706248 0.298932,-2.089872 0.372881,-5.731078 0.08779,-4.322802 0.295076,-7.404343 0.554776,-8.24737 0.412551,-1.33922 2.27407,1.840591 2.938491,5.019475 0.379176,1.814144 0.386083,5.981029 0.01401,8.451427 -0.150755,1.000921 -0.274097,1.872926 -0.274097,1.93779 0,0.06486 0.616718,0.165679 1.370488,0.224041 2.15279,0.166677 3.815717,0.947828 4.713954,2.21435 l 0.371659,0.524042 H 24.972018 4.1145412 Z m 6.2034377,-2.963201 c 0.05067,-0.05088 -0.07998,-0.519825 -0.290336,-1.04211 -0.367975,-0.913624 -0.3826695,-1.177791 -0.3877986,-6.971497 -0.00515,-5.819821 -0.147035,-8.378281 -0.4646287,-8.378281 -0.2517368,0 -1.0203399,1.900664 -1.4822781,3.665498 -0.7422986,2.83595 -0.7527021,7.514639 -0.026337,11.844098 l 0.1861313,1.109424 1.1865576,-0.06731 c 0.6526067,-0.03703 1.2280165,-0.108943 1.2786885,-0.159818 z m 11.052887,0.126856 c 0,-0.0348 0.188496,-0.996992 0.418881,-2.138208 0.81181,-4.021319 1.05469,-7.145669 1.056851,-13.595072 0.002,-6.097569 -0.08653,-7.292439 -0.798078,-10.766891 -0.38347,-1.872453 -1.231351,-4.630517 -1.644684,-5.349975 l -0.267231,-0.465149 0.09148,0.523643 c 0.05031,0.288003 0.228784,1.23056 0.396604,2.09457 0.436101,2.245245 0.431649,8.961316 -0.0078,11.781958 -0.626617,4.021896 -1.865141,9.029602 -3.581116,14.479464 -0.285779,0.907619 -0.489744,1.680193 -0.453256,1.71683 0.08869,0.08905 1.306741,-3.689818 2.093538,-6.494985 1.09042,-3.887672 1.805117,-7.310514 2.25531,-10.801172 0.298346,-2.31329 0.345527,-7.363023 0.08745,-9.35945 -0.09211,-0.712562 -0.137077,-1.326091 -0.09992,-1.363399 0.129912,-0.130435 1.165405,4.496772 1.423785,6.362341 0.37051,2.675151 0.502932,8.839304 0.260945,12.146651 -0.335084,4.579745 -1.065935,10.232456 -1.387055,10.728096 -0.0586,0.09043 -1.965254,0.20811 -4.240426,0.261707 l -4.133961,0.09738 0.09152,-0.55209 c 0.570045,-3.438615 1.117125,-9.673191 1.250783,-14.254068 0.06022,-2.064025 0.163167,-3.903063 0.228764,-4.086751 0.07096,-0.198709 0.282519,0.791051 0.522328,2.443665 0.343205,2.365154 0.412851,3.65896 0.468991,8.712261 0.03626,3.264038 0.104173,6.111344 0.150915,6.327346 0.08354,0.386068 0.65359,0.554616 0.84178,0.248895 0.0487,-0.07911 -0.08359,-0.138021 -0.293976,-0.130912 l -0.382517,0.01293 -0.0047,-5.498246 c -0.0036,-4.187809 -0.0769,-6.059873 -0.307705,-7.854645 -0.306897,-2.386524 -1.126839,-7.350528 -1.231499,-7.455608 -0.03135,-0.03148 -0.104572,2.398986 -0.162716,5.401028 -0.103139,5.325223 -0.353999,8.980922 -0.895588,13.051073 -0.146903,1.104013 -0.316812,2.419667 -0.377573,2.923671 l -0.110464,0.916384 h 4.370168 c 2.403592,0 4.370168,-0.02848 4.370168,-0.06327 z M 34.438828,42.40648 c -0.167434,-0.566899 -0.793229,-6.047286 -0.971647,-8.509191 -0.0974,-1.344016 -0.179793,-3.896773 -0.183089,-5.672795 -0.0033,-1.794343 -0.06971,-3.112795 -0.149382,-2.967307 -0.143648,0.262292 -0.527542,2.553979 -0.921047,5.498247 -0.116663,0.872894 -0.214156,3.626247 -0.219408,6.196437 -0.0091,4.42857 -0.02355,4.625509 -0.340562,4.625509 -0.395561,0 -0.594088,-0.532825 -1.918559,-5.149152 -1.102557,-3.842866 -1.745659,-6.87882 -2.098321,-9.90575 -0.382288,-3.281188 -0.339841,-5.477927 0.176215,-9.11993 l 0.08657,-0.610916 -0.264715,0.575442 c -0.434703,0.944966 -1.095113,3.822081 -1.390401,6.057363 -0.272669,2.064058 -0.385456,8.677596 -0.181537,10.644881 0.0499,0.481391 0.174797,1.739266 0.277552,2.795279 0.102755,1.056012 0.347549,2.80367 0.543988,3.883683 l 0.357158,1.96366 h 3.643706 c 3.388661,0 3.637388,-0.02137 3.553484,-0.30546 z m 4.264676,-1.221832 c 0.13574,-0.881176 0.233933,-2.893359 0.232112,-4.75642 -0.0034,-3.467352 -0.265923,-4.971174 -1.167787,-6.68922 l -0.382704,-0.72905 -0.12074,1.134559 c -0.06641,0.624008 -0.172417,3.320699 -0.235578,5.992646 -0.08291,3.507265 -0.183798,5.054323 -0.362844,5.563828 -0.136402,0.388158 -0.248005,0.774416 -0.248005,0.858346 0,0.08393 0.461313,0.152603 1.025139,0.152603 h 1.025138 z"
     id="path4492"
     inkscape:connector-curvature="0" /><path
     style="opacity:1;fill:#008000;fill-opacity:1;stroke:none;stroke-width:0.52259421;stroke-linejoin:round;stroke-miterlimit:4;stroke-dasharray:none;stroke-dashoffset:0;stroke-opacity:1"
     d="M 4.2026603,45.548336 C 4.4568845,44.840826 4.9973842,44.30681 6.0050275,43.767582 7.0682783,43.198601 7.0754627,43.189611 6.9699141,42.560404 6.4484597,39.45185 6.3129072,37.538825 6.3931699,34.420931 c 0.066751,-2.593032 0.1663943,-3.640015 0.4568286,-4.800056 0.4125145,-1.64765 1.8536493,-4.78414 2.4451163,-5.321562 0.3609125,-0.327933 0.3934475,-0.330134 0.6041138,-0.04087 0.4881114,0.670214 0.6944664,3.458704 0.7132974,9.63885 0.01939,6.362526 0.07204,6.879503 0.843078,8.277554 0.216478,0.392519 0.240473,0.398791 0.333868,0.08727 0.18954,-0.632209 0.972948,-7.490273 1.174855,-10.284849 0.248323,-3.437008 0.292192,-9.646617 0.101522,-14.370363 l -0.143228,-3.548417 0.389042,0.05747 c 0.448544,0.06626 0.685999,0.784112 1.549051,4.682976 1.154406,5.215065 1.730719,9.661331 1.889135,14.574718 l 0.112554,3.490951 0.306263,-0.998175 c 2.428308,-7.914365 3.451796,-15.078921 2.923925,-20.467858 -0.321568,-3.282823 -0.871322,-5.4428 -2.38734,-9.3798347 -0.247765,-0.6434363 -0.271243,-0.869812 -0.10728,-1.0344335 0.275262,-0.2763675 0.730234,0.1292172 1.625427,1.4489894 2.231416,3.2897488 3.720844,7.7644528 4.43551,13.3256538 0.695439,5.411579 0.234763,15.624926 -0.967282,21.444923 -0.195504,0.94658 -0.35546,1.751679 -0.35546,1.789112 0,0.03743 0.899669,0.06806 1.999266,0.06806 1.099597,0 1.999031,-0.05891 1.99874,-0.130909 -3.41e-4,-0.072 -0.151162,-0.916376 -0.335273,-1.876388 -0.610282,-3.18219 -0.930673,-7.101545 -0.941724,-11.520135 -0.01339,-5.350143 0.406517,-8.648167 1.537445,-12.07568 0.949022,-2.876203 2.924656,-6.25181 3.658983,-6.25181 0.466068,0 0.410286,0.368591 -0.354157,2.340168 -1.701077,4.387261 -2.0214,9.706386 -0.948527,15.750852 0.351513,1.980393 1.639792,7.174778 1.891395,7.626173 0.07323,0.131387 0.179853,-1.006268 0.236929,-2.528124 0.167594,-4.468557 1.130258,-10.583078 2.304897,-14.639919 0.241223,-0.833112 0.337994,-0.968695 0.65866,-0.922827 0.367056,0.0525 0.373849,0.102999 0.288967,2.148338 -0.14288,3.442904 -0.04622,12.06712 0.160424,14.312897 0.310041,3.369539 0.736687,6.620521 0.890693,6.786985 0.07845,0.0848 0.258427,-0.268658 0.399945,-0.785464 0.182944,-0.668084 0.285995,-2.301646 0.356576,-5.652426 0.08958,-4.2526 0.298888,-7.32681 0.555586,-8.160096 0.457147,-1.483984 2.502799,2.29601 3.042398,5.621798 0.268582,1.655391 0.219864,5.748473 -0.09347,7.852422 -0.148791,0.999099 -0.270526,1.869608 -0.270526,1.934472 0,0.06486 0.616718,0.165679 1.370488,0.224041 2.15279,0.166677 3.815717,0.947828 4.713954,2.21435 L 45.829494,45.8538 H 24.961199 c -19.8004814,0 -20.8626806,-0.01561 -20.7585387,-0.305457 z m 6.2113717,-3.026524 c 0.05067,-0.05088 -0.07571,-0.519825 -0.280858,-1.04211 C 9.778816,40.577524 9.7589534,40.224955 9.735513,34.420931 9.7120393,28.608436 9.5794091,26.129924 9.2918478,26.129924 c -0.4194301,0 -1.4958138,3.192865 -1.8438002,5.469246 -0.3224715,2.109469 -0.231517,6.571697 0.1873775,9.192746 0.1457569,0.912012 0.2664159,1.725974 0.2681307,1.80881 0.00325,0.156926 2.3490222,0.08319 2.5104762,-0.07891 z m 11.05356,0.146489 c 3.42e-4,-0.02398 0.192486,-1.026877 0.426923,-2.22862 0.664113,-3.404281 0.974759,-6.834093 1.082641,-11.953365 0.15001,-7.118222 -0.319256,-11.286722 -1.775291,-15.769908 -0.636032,-1.958369 -1.067544,-2.863629 -0.858462,-1.800949 0.508509,2.584547 0.627661,3.646269 0.718956,6.406324 0.195788,5.919146 -0.715038,11.311987 -3.414656,20.21758 -0.490821,1.619136 -0.862511,2.973893 -0.825978,3.010571 0.08629,0.08664 1.530367,-4.531446 2.189445,-7.00174 1.026823,-3.84864 1.760047,-7.559055 2.10406,-10.647399 0.220469,-1.97925 0.220256,-6.919834 -3.76e-4,-8.626564 -0.09211,-0.712562 -0.137077,-1.326091 -0.09992,-1.363399 0.130866,-0.131391 1.166239,4.503 1.421417,6.362341 0.371368,2.705976 0.50495,8.857549 0.263762,12.146651 -0.336235,4.585289 -1.066659,10.232885 -1.387503,10.728096 -0.0586,0.09043 -1.965255,0.20811 -4.240428,0.261707 l -4.133958,0.09738 0.09176,-0.55209 c 0.541475,-3.257972 1.107947,-9.767511 1.248017,-14.341342 0.06174,-2.016024 0.165875,-3.815789 0.231413,-3.999477 0.07086,-0.198604 0.282728,0.791918 0.522689,2.443665 0.343518,2.364564 0.414916,3.686177 0.480094,8.886808 0.04777,3.81121 0.143814,6.191233 0.255347,6.327347 0.09833,0.120001 0.306109,0.212663 0.461731,0.205918 0.213784,-0.0093 0.197956,-0.04562 -0.06475,-0.148702 -0.337198,-0.132312 -0.34793,-0.301936 -0.355375,-5.616889 -0.0046,-3.30538 -0.09323,-6.138562 -0.223235,-7.138658 -0.354111,-2.72404 -1.092804,-7.35445 -1.234699,-7.739571 -0.07278,-0.19752 -0.181508,2.071813 -0.241627,5.042965 -0.107119,5.293855 -0.361269,8.984195 -0.894948,12.994909 -0.146904,1.104013 -0.316812,2.419667 -0.377573,2.923671 l -0.110475,0.916376 h 4.370169 c 2.403592,0 4.37047,-0.01962 4.37084,-0.04364 z m 12.893839,-0.04433 c 0.04819,-0.04838 -0.01353,-0.774934 -0.137157,-1.614564 -0.52574,-3.570687 -0.786437,-6.869703 -0.883439,-11.179569 -0.05683,-2.525101 -0.161115,-4.528034 -0.231737,-4.450962 -0.209469,0.228605 -0.845022,4.87802 -1.036253,7.580742 -0.09762,1.37973 -0.157368,3.88316 -0.13277,5.56318 0.04251,2.902919 0.02829,3.054582 -0.286382,3.054582 -0.383896,0 -0.578656,-0.507373 -1.775533,-4.625509 -0.957016,-3.292841 -1.683896,-6.450408 -2.094373,-9.097978 -0.378419,-2.440792 -0.430677,-7.85196 -0.09312,-9.64267 0.124269,-0.659241 0.188421,-1.236293 0.142562,-1.282337 -0.286388,-0.287537 -1.387627,4.577818 -1.687929,7.457382 -0.424537,4.070848 -0.03492,12.153801 0.807744,16.757551 l 0.287028,1.568121 h 3.516874 c 1.934282,0 3.556301,-0.03958 3.604489,-0.08797 z m 4.342073,-1.439323 c 0.136252,-0.884504 0.231606,-2.849595 0.226565,-4.669146 -0.0095,-3.441857 -0.228759,-4.778574 -1.073473,-6.545532 l -0.458943,-0.960012 -0.121648,1.221833 c -0.06691,0.672008 -0.180857,3.381858 -0.253223,6.021889 -0.09027,3.29307 -0.205866,5.012445 -0.368201,5.476557 -0.130142,0.372074 -0.236623,0.74517 -0.236623,0.8291 0,0.08393 0.461313,0.152603 1.025139,0.152603 h 1.025138 z"
     id="path4494"
     inkscape:connector-curvature="0" /><path
     style="opacity:1;fill:#008000;fill-opacity:1;stroke:none;stroke-width:0.52259421;stroke-linejoin:round;stroke-miterlimit:4;stroke-dasharray:none;stroke-dashoffset:0;stroke-opacity:1"
     d="M 4.2026603,45.548336 C 4.4568845,44.840826 4.9973842,44.30681 6.0050275,43.767582 7.0682783,43.198601 7.0754627,43.189611 6.9699141,42.560404 6.4484597,39.45185 6.3129072,37.538825 6.3931699,34.420931 c 0.066751,-2.593032 0.1663943,-3.640015 0.4568286,-4.800056 0.4125145,-1.64765 1.8536493,-4.78414 2.4451163,-5.321562 0.3605233,-0.327578 0.393646,-0.329862 0.6035943,-0.04159 0.4419209,0.606789 0.6613299,3.432193 0.7689009,9.901383 0.105608,6.351062 0.120764,6.571462 0.510144,7.41827 0.30586,0.665172 0.436636,0.809969 0.549863,0.60882 0.211108,-0.375035 0.824493,-5.358494 1.14496,-9.302252 0.303999,-3.741084 0.381544,-10.771337 0.172371,-15.627162 l -0.13786,-3.20034 0.411769,0.05849 c 0.376855,0.05353 0.467542,0.280482 1.069571,2.676702 1.418367,5.645439 2.180251,10.971538 2.33102,16.295454 0.05807,2.050419 0.161565,3.621347 0.229995,3.490951 0.229417,-0.437158 1.716123,-6.148798 2.151661,-8.266269 C 20.373715,22.124664 20.546835,16.7564 19.621781,12.166124 19.383411,10.983289 18.50541,8.17999 17.696402,6.0187293 17.441905,5.3388446 17.427986,5.155999 17.616677,4.9714441 c 0.186963,-0.1828659 0.344689,-0.092708 0.865939,0.4949842 1.504245,1.6959833 3.23265,5.3274997 4.104461,8.6237977 1.593689,6.025701 1.853945,13.695629 0.778702,22.948918 -0.176094,1.515422 -0.778083,5.088731 -0.96304,5.716432 -0.08207,0.278516 0.08737,0.305457 1.920978,0.305457 1.106041,0 2.010746,-0.05891 2.010455,-0.130909 -3.41e-4,-0.072 -0.154019,-0.924644 -0.341626,-1.894764 -0.187605,-0.97012 -0.457143,-2.894505 -0.598975,-4.276413 -0.769191,-7.494511 -0.415313,-13.975628 1.024731,-18.767513 0.789481,-2.627068 2.883332,-6.512495 3.673671,-6.816995 0.642653,-0.247599 0.625561,0.267254 -0.06863,2.067024 -1.967901,5.102047 -2.194254,10.756223 -0.711619,17.775792 0.441652,2.091011 1.379785,5.628164 1.541477,5.812017 0.06734,0.07657 0.169077,-1.062352 0.226078,-2.530939 0.151825,-3.911662 0.930842,-9.208506 1.951928,-13.271942 0.519212,-2.066207 0.605074,-2.25214 1.013067,-2.193762 0.311467,0.04457 0.367507,0.156279 0.333335,0.664489 -0.142356,2.117203 -0.0575,14.029734 0.112517,15.796551 0.239161,2.485279 0.672121,5.932282 0.822153,6.545531 0.104848,0.428563 0.111482,0.425441 0.370907,-0.174547 0.202274,-0.467811 0.298306,-1.774863 0.40997,-5.579849 0.139848,-4.765376 0.365311,-8.006538 0.599599,-8.619535 0.472133,-1.235299 2.281882,1.867435 2.937886,5.036874 0.374002,1.806961 0.382016,5.990005 0.01616,8.440095 -0.148524,0.994686 -0.234303,1.866585 -0.190619,1.937553 0.04369,0.07097 0.661547,0.178435 1.373027,0.238821 0.711478,0.06038 1.717761,0.269125 2.236183,0.463872 0.959384,0.360391 2.252932,1.333835 2.574769,1.937615 0.174687,0.3277 -0.1969,0.333694 -20.684695,0.333694 -19.7950333,0 -20.8569599,-0.01561 -20.7528181,-0.305457 z M 9.9553783,42.60601 10.482901,42.500083 10.110568,41.51509 C 9.7616196,40.591955 9.7413511,40.267 9.7878432,36.340954 9.8360412,32.270872 9.5983677,26.65208 9.3617469,26.267682 9.1163253,25.868986 8.0929362,28.412742 7.6264833,30.580886 7.0778952,33.130807 7.1354568,37.686578 7.7648711,41.533744 l 0.1927584,1.178196 h 0.735113 c 0.4043122,0 0.9724982,-0.04767 1.2626358,-0.10593 z M 21.613903,41.882837 c 0.705542,-3.327533 1.265813,-8.043634 1.212474,-10.206065 -0.02449,-0.992919 -0.04428,-1.079793 -0.0906,-0.397696 -0.217931,3.209128 -0.944852,9.127787 -1.277476,10.401332 l -0.163674,0.626668 -4.114037,0.116337 c -2.26272,0.06399 -4.140571,0.08969 -4.173001,0.05713 -0.03243,-0.03256 0.05518,-0.877465 0.194684,-1.877565 0.355998,-2.552073 0.793169,-7.053326 0.768075,-7.908343 -0.01158,-0.394554 -0.128312,0.42155 -0.259405,1.813566 -0.131093,1.392017 -0.395431,3.701638 -0.587418,5.13249 -0.191987,1.430855 -0.349067,2.707234 -0.349067,2.8364 0,0.190478 0.818368,0.234845 4.331826,0.234845 h 4.331826 z m 12.717864,0.473461 c 0,-0.195601 -0.154097,-1.629074 -0.342436,-3.185492 -0.484953,-4.007597 -0.699135,-7.263661 -0.699953,-10.640853 -3.41e-4,-1.608019 -0.06962,-2.923672 -0.153842,-2.923672 -0.15247,0 -0.534274,2.254151 -0.916501,5.410974 -0.110425,0.912011 -0.192032,3.645229 -0.181345,6.073819 0.01676,3.808457 -0.01704,4.429663 -0.245728,4.517776 -0.145835,0.05619 -0.332353,0.03284 -0.414484,-0.05193 -0.20645,-0.213031 -1.640905,-4.895426 -2.373269,-7.746906 -1.346894,-5.244163 -1.892035,-10.558861 -1.468105,-14.312897 0.113831,-1.008012 0.25092,-1.989842 0.304641,-2.181844 0.06791,-0.242695 0.04121,-0.29572 -0.08759,-0.173974 -0.26203,0.247678 -0.997687,3.098055 -1.36684,5.295946 -0.255447,1.520905 -0.310451,2.830323 -0.301757,7.183629 0.01087,5.438829 0.205036,7.94671 0.895329,11.563773 l 0.291474,1.527292 h 3.530203 c 3.435959,0 3.530203,-0.0095 3.530203,-0.355642 z m 4.361068,-1.17165 c 0.297171,-2.020828 0.297308,-7.322448 1.71e-4,-8.683739 -0.262792,-1.204157 -1.032091,-3.229129 -1.226764,-3.229129 -0.168286,0 -0.319415,2.505154 -0.463316,7.680091 -0.07547,2.713988 -0.193338,4.329626 -0.348359,4.775004 -0.128864,0.370227 -0.191097,0.743323 -0.138294,0.829103 0.05285,0.08578 0.513635,0.155962 1.024009,0.155962 h 0.927953 z M 16.42529,41.423189 c 0,-0.0368 -0.156573,-0.108023 -0.347939,-0.158268 -0.191366,-0.05024 -0.304097,-0.02014 -0.250514,0.06692 0.09358,0.152016 0.598453,0.229085 0.598453,0.09135 z M 15.805831,32.76273 C 15.669308,28.936689 14.71998,21.430414 14.316856,20.989499 c -0.08656,-0.09468 -0.137678,1.515382 -0.119142,3.752772 0.03129,3.77625 0.03602,3.825583 0.130387,1.358071 0.05386,-1.408288 0.144126,-2.606691 0.200597,-2.663119 0.114292,-0.114203 0.600738,3.102701 0.855881,5.660009 0.09099,0.912011 0.178985,3.896773 0.195541,6.632806 0.02916,4.819495 0.03466,4.892968 0.176176,2.356391 0.08034,-1.440017 0.102631,-3.835682 0.04953,-5.323699 z m 2.169485,4.325076 c 0.925874,-3.082392 1.935221,-6.944385 1.91463,-7.325811 -0.0068,-0.125617 -0.346329,1.028348 -0.754551,2.564366 -0.408222,1.536018 -1.067647,3.867469 -1.46539,5.181 -0.397742,1.313531 -0.723168,2.44591 -0.723168,2.516391 0,0.375436 0.237294,-0.301954 1.028479,-2.935946 z M 14.1194,29.669778 c -0.03593,-0.458901 -0.06576,-0.12745 -0.06629,0.73656 -5.13e-4,0.864011 0.02887,1.239476 0.06533,0.834367 0.03646,-0.405107 0.03689,-1.112025 9.57e-4,-1.570927 z m 8.858328,-4.194407 C 22.869841,20.51058 22.656669,18.387827 21.9689,15.429534 c -0.419213,-1.803162 -1.311115,-4.481655 -1.580708,-4.747066 -0.119806,-0.117948 -0.144519,-0.06135 -0.07621,0.174548 0.374677,1.293943 0.680088,3.931747 0.759681,6.561295 0.103744,3.427441 -0.09575,5.959068 -0.753696,9.564437 -0.234511,1.285062 -0.394067,2.368924 -0.354569,2.408581 0.114284,0.114742 0.81276,-3.790347 1.077314,-6.023131 0.282003,-2.380046 0.322298,-6.815462 0.08106,-8.922295 -0.09276,-0.810145 -0.13955,-1.502221 -0.103967,-1.537947 0.118026,-0.1185 1.136903,4.376995 1.414273,6.240067 0.164235,1.103157 0.31289,3.691472 0.373423,6.501896 0.05531,2.56803 0.140374,4.669146 0.189026,4.669146 0.04865,0 0.0411,-2.179662 -0.01679,-4.843694 z"
     id="path4496"
     inkscape:connector-curvature="0" /><path
     style="opacity:1;fill:#008000;fill-opacity:1;stroke:none;stroke-width:0.52259421;stroke-linejoin:round;stroke-miterlimit:4;stroke-dasharray:none;stroke-dashoffset:0;stroke-opacity:1"
     d="m 36.650503,42.286486 c 0.337013,-0.881767 0.440846,-2.117529 0.543565,-6.469175 0.06345,-2.688031 0.172872,-5.201515 0.243159,-5.58552 l 0.127794,-0.69819 0.400778,1.047285 c 1.001786,2.617797 1.178742,7.133025 0.446361,11.389226 -0.09505,0.552383 -0.120721,0.56728 -0.977584,0.56728 -0.693752,0 -0.859675,-0.05309 -0.784073,-0.250906 z"
     id="path4498"
     inkscape:connector-curvature="0" /><path
     style="opacity:1;fill:#008000;fill-opacity:1;stroke:none;stroke-width:0.52259421;stroke-linejoin:round;stroke-miterlimit:4;stroke-dasharray:none;stroke-dashoffset:0;stroke-opacity:1"
     d="m 27.377795,42.46933 c 0,-0.03743 -0.147801,-0.80326 -0.328447,-1.701836 -0.624983,-3.108827 -0.801582,-5.623087 -0.801321,-11.40844 2.3e-4,-5.07025 0.03617,-5.770697 0.389616,-7.592818 0.619439,-3.193423 0.731441,-3.335272 0.620192,-0.785464 -0.211894,4.856571 0.738296,10.466197 3.027325,17.872394 0.829332,2.68332 1.101877,3.153219 1.696101,2.924279 0.281667,-0.108521 0.295364,-0.37558 0.182716,-3.562367 -0.127319,-3.60182 0.01567,-6.124 0.561442,-9.90331 l 0.302478,-2.09457 0.112544,3.665498 c 0.118452,3.857943 0.349496,6.826866 0.766431,9.848682 0.138075,1.000721 0.251046,2.041462 0.251046,2.312756 v 0.493258 h -3.390062 c -1.864534,0 -3.390061,-0.03064 -3.390061,-0.06806 z"
     id="path4500"
     inkscape:connector-curvature="0" /><path
     style="opacity:1;fill:#008000;fill-opacity:1;stroke:none;stroke-width:0.52259421;stroke-linejoin:round;stroke-miterlimit:4;stroke-dasharray:none;stroke-dashoffset:0;stroke-opacity:1"
     d="m 8.0203358,42.14466 c -0.2997283,-1.202611 -0.6352095,-4.818962 -0.6352095,-6.8473 0,-3.505399 0.3976208,-5.760868 1.4250161,-8.083279 l 0.3637871,-0.822336 0.1736276,0.610917 c 0.09815,0.345344 0.1897488,3.418398 0.2107124,7.069174 0.035327,6.152193 0.054743,6.501992 0.4096897,7.381097 0.2049328,0.507559 0.3726048,0.959198 0.3726048,1.003648 0,0.04445 -0.5000277,0.08081 -1.1111733,0.08081 -1.0074271,0 -1.1203127,-0.03667 -1.2090549,-0.392732 z"
     id="path4502"
     inkscape:connector-curvature="0" /></svg>
