<?xml version="1.0" encoding="UTF-8" standalone="no"?>
<!-- Created with Inkscape (http://www.inkscape.org/) -->

<svg
   width="24"
   height="20.992678"
   viewBox="0 0 6.35 5.5543126"
   version="1.1"
   id="svg1"
   xmlns="http://www.w3.org/2000/svg"
   xmlns:svg="http://www.w3.org/2000/svg">
  <defs
     id="defs1" />
  <g
     id="layer1"
     transform="matrix(0.49999998,0,0,0.49999998,2.7249999e-7,-0.55331248)">
    <g
       id="g2"
       transform="matrix(0.10333605,0,0,0.10333605,-5.45e-7,1.106625)">
      <path
         d="M 3.9,7.9 C 1.8,7.9 0,6.1 0,3.9 0,1.8 1.8,0 3.9,0 h 10.2 c 0.1,0 0.3,0 0.4,0 3.6,0.1 6.8,0.8 9.5,2.5 3,1.9 5.2,4.8 6.4,9.1 0,0.1 0,0.2 0.1,0.3 l 1,4 H 119 c 2.2,0 3.9,1.8 3.9,3.9 0,0.4 -0.1,0.8 -0.2,1.2 l -10.2,41.1 c -0.4,1.8 -2,3 -3.8,3 v 0 h -64 c 1.4,5.2 2.8,8 4.7,9.3 2.3,1.5 6.3,1.6 13,1.5 h 0.1 v 0 h 45.2 c 2.2,0 3.9,1.8 3.9,3.9 0,2.2 -1.8,3.9 -3.9,3.9 H 62.5 v 0 C 54.2,83.8 49.1,83.6 45,80.9 40.8,78.1 38.6,73.3 36.4,64.6 v 0 L 23,13.9 c 0,-0.1 0,-0.1 -0.1,-0.2 -0.6,-2.2 -1.6,-3.7 -3,-4.5 -1.4,-0.9 -3.3,-1.3 -5.5,-1.3 -0.1,0 -0.2,0 -0.3,0 H 3.9 Z M 96,88.3 c 5.3,0 9.6,4.3 9.6,9.6 0,5.3 -4.3,9.6 -9.6,9.6 -5.3,0 -9.6,-4.3 -9.6,-9.6 0,-5.3 4.3,-9.6 9.6,-9.6 z m -42.1,0 c 5.3,0 9.6,4.3 9.6,9.6 0,5.3 -4.3,9.6 -9.6,9.6 -5.3,0 -9.6,-4.3 -9.6,-9.6 0,-5.3 4.3,-9.6 9.6,-9.6 z M 33.7,23.7 42.6,57.2 h 63.1 L 114,23.7 Z"
         id="path1" />
    </g>
  </g>
</svg>
